<svg width="536" height="560" viewBox="0 0 536 560" fill="none" xmlns="http://www.w3.org/2000/svg">
<g clip-path="url(#clip0_61_1905)">
<path d="M257.581 454.099C255.329 448.245 240.638 409.216 247.725 386.323C248.712 383.141 250.243 378.196 254.715 374.248C263.645 366.368 272.691 372.718 279.8 366.98C289.176 359.394 278.482 344.25 288.708 322.37C291.153 317.122 294.977 308.952 303.4 304.839C312.807 300.249 318.271 305.451 327.543 301.898C339.114 297.485 337.864 286.647 348.747 275.811C360.22 264.393 382.601 255.519 399.138 264.525C413.551 272.377 418.049 290.842 417.371 303.486C416.368 322.153 403.569 337.429 390.171 344.492C370.917 354.627 351.391 347.246 348.814 354.59C346.415 361.423 363.231 368.11 362.36 380.907C361.748 389.843 352.739 398.576 343.527 400.834C330.762 403.965 323.356 393.255 315.716 397.337C307.727 401.621 312.177 415.391 306.468 427.861C301.752 438.14 289.454 449.04 257.581 454.099Z" fill="white"/>
<path d="M257.581 454.775C257.445 454.775 257.312 454.733 257.2 454.655C257.087 454.578 257.001 454.468 256.952 454.341C252.921 443.872 240.305 408.008 247.08 386.125C248.107 382.814 249.654 377.814 254.269 373.744C259.272 369.328 264.406 369.218 268.938 369.12C272.716 369.037 276.273 368.958 279.378 366.455C283.657 362.994 283.501 357.859 283.284 350.756C283.052 343.072 282.758 333.516 288.101 322.086C290.637 316.654 294.47 308.45 303.109 304.23C308.238 301.727 312.278 302.042 316.196 302.345C319.732 302.624 323.072 302.884 327.311 301.265C333.69 298.835 335.985 294.459 338.891 288.917C341.073 284.762 343.546 280.043 348.283 275.334C360.813 262.855 383.383 255.177 399.456 263.932C413.352 271.502 418.804 289.272 418.04 303.52C416.937 324.072 402.5 338.751 390.471 345.077C380.079 350.536 369.536 350.983 361.828 351.31C355.245 351.592 350.489 351.794 349.435 354.799C348.485 357.507 351.238 360.466 354.429 363.89C358.475 368.236 363.515 373.643 363.017 380.935C362.406 389.791 353.738 399.005 343.674 401.471C336.844 403.148 331.587 401.018 326.948 399.143C322.742 397.441 319.423 396.098 316.031 397.919C311.832 400.168 311.321 405.3 310.677 411.796C310.175 416.861 309.607 422.601 307.076 428.128C300.921 441.592 284.305 450.546 257.688 454.769C257.653 454.774 257.617 454.777 257.581 454.775ZM312.186 303.49C309.241 303.452 306.329 304.122 303.696 305.445C295.487 309.454 291.777 317.398 289.317 322.658C284.121 333.794 284.399 343.161 284.632 350.713C284.852 357.926 285.026 363.621 280.225 367.507C276.771 370.298 272.979 370.381 268.963 370.469C264.455 370.567 259.794 370.668 255.161 374.754C250.83 378.573 249.354 383.356 248.37 386.523C241.695 408.075 254.788 444.87 258.015 453.343C283.843 449.16 299.934 440.491 305.848 427.559C308.293 422.237 308.84 416.616 309.332 411.646C309.989 405.024 310.554 399.302 315.389 396.713C319.341 394.595 323.277 396.19 327.449 397.879C331.899 399.678 336.944 401.719 343.341 400.149C352.714 397.851 361.104 389.004 361.66 380.834C362.115 374.123 357.5 369.169 353.43 364.799C349.942 361.053 346.929 357.819 348.152 354.34C349.508 350.472 354.646 350.251 361.758 349.951C369.34 349.627 379.719 349.186 389.832 343.871C401.546 337.708 415.608 323.423 416.68 303.438C417.42 289.609 412.182 272.396 398.799 265.107C383.279 256.655 361.406 264.149 349.221 276.279C344.637 280.848 342.21 285.46 340.074 289.536C337.155 295.099 334.634 299.903 327.782 302.517C323.259 304.239 319.607 303.955 316.08 303.679C314.787 303.591 313.497 303.49 312.186 303.49Z" fill="#0F0F0F"/>
<path d="M257.117 449.796C257.07 449.801 257.023 449.801 256.976 449.796C256.801 449.759 256.648 449.654 256.551 449.503C256.453 449.353 256.419 449.17 256.457 448.995C261.347 425.903 270.796 403.766 284.574 383.202C295.576 366.754 309.368 351.264 325.526 337.166C353.032 313.166 378.304 301.363 378.554 301.24C378.635 301.196 378.725 301.169 378.816 301.161C378.908 301.153 379.001 301.163 379.089 301.192C379.176 301.221 379.257 301.268 379.326 301.329C379.395 301.391 379.45 301.466 379.489 301.549C379.528 301.633 379.55 301.724 379.552 301.816C379.555 301.909 379.538 302.001 379.504 302.086C379.469 302.172 379.418 302.25 379.352 302.315C379.287 302.38 379.209 302.431 379.123 302.464C378.872 302.581 353.756 314.325 326.382 338.213C301.138 360.245 268.742 397.38 257.774 449.295C257.735 449.439 257.65 449.567 257.531 449.658C257.412 449.749 257.266 449.797 257.117 449.796Z" fill="#0F0F0F"/>
<path d="M257.581 454.099C229.33 389.727 233.037 361.592 243.217 347.965C246.258 343.898 253.419 336.337 257.765 323.227C263.403 306.228 258.831 296.436 259.397 282.329C260.506 254.736 280.567 228.33 302.825 215.619C318.372 206.744 348.289 196.918 366.672 211.46C374.447 217.608 382.258 229.765 378.82 238.539C373.909 251.085 349.414 244.203 337.717 261.083C331.336 270.294 336.755 274.957 329.897 284.679C319.087 299.998 300.6 295.543 296.927 306.406C293.366 316.936 309.97 323.849 307.623 337.377C304.931 352.791 282.275 354.884 281.306 369.738C280.732 378.582 288.641 379.659 289.087 389.935C289.628 402.435 278.204 407.665 267.615 426.246C261.677 436.653 259.204 446.522 257.581 454.099Z" fill="white"/>
<path d="M257.582 454.775C257.452 454.774 257.325 454.735 257.217 454.663C257.108 454.592 257.023 454.49 256.97 454.371C244.082 424.994 236.8 400.675 235.323 382.055C234.15 367.274 236.631 355.667 242.695 347.561C243.169 346.928 243.743 346.208 244.391 345.398C247.799 341.113 253.505 333.977 257.142 323.016C260.833 311.886 260.103 303.994 259.333 295.637C258.948 291.445 258.544 287.106 258.74 282.301C259.932 252.581 282.273 226.607 302.508 215.019C317.553 206.42 348.091 195.874 367.106 210.918C374.481 216.751 383.188 229.248 379.462 238.765C377.017 245.035 370.19 246.648 362.293 248.518C353.861 250.51 344.301 252.771 338.286 261.45C335.258 265.819 334.983 269.078 334.689 272.53C334.384 276.178 334.078 279.948 330.463 285.049C324.656 293.262 316.554 295.971 310.035 298.146C303.993 300.163 299.219 301.757 297.581 306.611C295.943 311.464 298.834 315.439 302.165 320.075C305.622 324.87 309.537 330.305 308.278 337.481C306.899 345.373 300.552 349.838 294.415 354.156C288.278 358.473 282.441 362.577 281.973 369.762C281.701 373.933 283.388 376.219 285.335 378.869C287.282 381.519 289.513 384.536 289.745 389.885C290.081 397.679 285.989 402.655 280.326 409.544C276.591 414.082 272.358 419.229 268.184 426.558C262.493 436.546 259.956 446.142 258.223 454.227C258.194 454.367 258.121 454.493 258.015 454.589C257.909 454.684 257.775 454.743 257.634 454.757L257.582 454.775ZM342.904 204.666C328.1 204.666 312.575 210.823 303.174 216.194C283.238 227.586 261.252 253.151 260.082 282.356C259.892 287.069 260.286 291.362 260.671 295.515C261.454 304.016 262.2 312.039 258.416 323.441C254.703 334.632 248.902 341.9 245.436 346.239C244.801 347.038 244.235 347.748 243.768 348.381C230.626 365.971 235.189 400.804 257.368 451.932C259.116 444.196 261.717 435.23 267.028 425.921C271.261 418.494 275.531 413.301 279.299 408.717C284.773 402.065 288.724 397.254 288.412 389.977C288.199 385.041 286.2 382.327 284.265 379.704C282.239 376.95 280.329 374.371 280.631 369.707C281.142 361.87 287.499 357.399 293.645 353.078C299.558 348.917 305.674 344.617 306.957 337.276C308.11 330.66 304.534 325.693 301.071 320.892C297.664 316.161 294.442 311.69 296.297 306.204C298.153 300.717 303.458 298.942 309.601 296.892C316.263 294.667 323.815 292.146 329.356 284.296C332.742 279.492 333.024 276.068 333.329 272.441C333.635 268.965 333.94 265.373 337.165 260.703C343.473 251.599 353.298 249.276 361.969 247.238C369.496 245.457 375.997 243.921 378.191 238.309C381.302 230.353 374.417 218.464 366.254 212.007C359.56 206.674 351.342 204.666 342.904 204.666Z" fill="#0F0F0F"/>
<path d="M256.854 448.184C256.686 448.184 256.524 448.121 256.4 448.008C256.275 447.895 256.197 447.739 256.182 447.572C254.06 418.085 255.471 388.45 260.387 359.3C264.665 333.968 271.389 310.356 279.888 291.017C292.926 261.303 309.17 242.893 320.502 232.682C332.806 221.592 342.18 217.479 342.271 217.439C342.433 217.381 342.611 217.386 342.769 217.454C342.927 217.523 343.053 217.649 343.121 217.807C343.189 217.965 343.195 218.143 343.136 218.305C343.078 218.467 342.96 218.601 342.806 218.679C342.439 218.838 305.86 235.203 281.123 291.561C262.376 334.283 253.553 392.563 257.52 447.459C257.535 447.635 257.478 447.811 257.364 447.946C257.249 448.082 257.086 448.166 256.909 448.181L256.854 448.184Z" fill="#0F0F0F"/>
<path d="M397.536 265.673C397.251 275.408 395.919 285.083 393.563 294.533C375.507 366.895 302.284 410.899 230.018 392.817C157.751 374.735 113.788 301.421 131.844 229.061C149.9 156.702 223.123 112.698 295.393 130.777L310.53 70.1164C204.786 43.6648 97.6788 108.043 71.2611 213.905C44.8434 319.766 109.139 427.029 214.868 453.481C320.597 479.932 427.719 415.563 454.149 309.683C457.847 294.904 459.828 279.747 460.054 264.513L397.536 265.673Z" fill="white"/>
<path d="M263.049 460.127C246.75 460.116 230.513 458.104 214.703 454.136C163.396 441.283 120.148 409.225 92.9325 363.82C65.7172 318.414 57.7864 265.119 70.6224 213.743C83.4584 162.366 115.46 119.066 160.807 91.8034C206.155 64.5409 259.382 56.6121 310.692 69.4646C310.865 69.5087 311.014 69.6184 311.108 69.7706C311.199 69.9242 311.227 70.1079 311.184 70.2816L296.047 130.942C296.002 131.115 295.891 131.264 295.738 131.355C295.584 131.447 295.401 131.475 295.228 131.432C223.435 113.472 150.438 157.342 132.501 229.227C114.564 301.112 158.378 374.203 230.168 392.162C240.802 394.831 251.724 396.183 262.688 396.186C322.819 396.186 377.677 355.364 392.897 294.37C395.246 284.968 396.578 275.339 396.87 265.651C396.876 265.478 396.949 265.314 397.072 265.192C397.195 265.07 397.36 265 397.533 264.996L460.036 263.846C460.126 263.842 460.217 263.857 460.301 263.891C460.385 263.925 460.461 263.976 460.525 264.042C460.588 264.105 460.639 264.181 460.673 264.265C460.707 264.348 460.724 264.438 460.723 264.528C460.491 279.815 458.503 295.023 454.797 309.855C441.97 361.228 409.935 404.547 364.603 431.782C333.409 450.522 298.498 460.127 263.049 460.127ZM262.713 64.8744C174.603 64.8744 94.2161 124.693 71.9152 214.07C45.632 319.402 109.833 426.509 215.03 452.826C265.992 465.574 318.858 457.688 363.897 430.625C408.936 403.561 440.748 360.548 453.48 309.527C457.1 295.023 459.067 280.155 459.345 265.208L398.181 266.337C397.852 275.904 396.52 285.409 394.208 294.698C376.091 367.305 302.355 411.615 229.844 393.475C157.332 375.335 113.079 301.503 131.19 228.896C139.973 193.726 161.898 164.083 192.943 145.426C223.792 126.884 259.978 121.404 294.901 129.96L309.711 70.5938C294.332 66.7975 278.552 64.8771 262.713 64.8744Z" fill="#0F0F0F"/>
<path d="M338.246 119.862C333.567 127.227 330.209 135.254 326.208 142.632C371.177 166.617 399.052 214.471 397.536 265.673L460.038 264.519C461.123 190.351 420.125 121.395 354.621 86.938C350.664 94.6954 346.623 102.505 342.293 110.409C340.945 113.784 339.597 116.486 338.246 119.862Z" fill="#0F0F0F"/>
<path d="M397.536 266.346C397.447 266.346 397.359 266.329 397.276 266.294C397.194 266.26 397.119 266.21 397.056 266.147C396.993 266.081 396.943 266.004 396.909 265.919C396.875 265.834 396.859 265.743 396.861 265.651C398.358 215.077 370.501 167.021 325.89 143.228C325.732 143.143 325.615 142.998 325.563 142.826C325.512 142.654 325.53 142.469 325.615 142.31C327.085 139.596 328.503 136.732 329.869 133.962C332.238 129.17 334.686 124.213 337.644 119.552C338.317 117.875 338.995 116.342 339.655 114.861C340.315 113.38 340.997 111.835 341.666 110.158C341.677 110.133 341.689 110.108 341.703 110.084C346.232 101.822 350.471 93.5874 354.022 86.6287C354.063 86.5492 354.119 86.4785 354.187 86.4207C354.256 86.363 354.334 86.3192 354.42 86.2921C354.591 86.2393 354.776 86.2558 354.936 86.338C387.25 103.4 414.229 129.069 432.895 160.513C451.56 191.957 461.187 227.952 460.714 264.528C460.711 264.704 460.64 264.871 460.516 264.995C460.393 265.12 460.226 265.191 460.051 265.195L397.548 266.346H397.536ZM327.122 142.356C349.096 154.265 367.361 172.015 379.906 193.652C392.451 215.288 398.789 239.972 398.221 264.984L459.363 263.858C460.179 190.954 419.25 121.997 354.902 87.8527C351.418 94.6768 347.293 102.664 342.895 110.696C342.222 112.383 341.538 113.922 340.878 115.409C340.217 116.896 339.533 118.435 338.864 120.112C338.849 120.152 338.83 120.189 338.805 120.223C335.872 124.84 333.433 129.782 331.07 134.562C329.805 137.142 328.491 139.801 327.122 142.356Z" fill="#0F0F0F"/>
<path d="M351.843 92.3605C352.775 90.549 353.701 88.7414 354.621 86.938C340.649 79.5841 325.846 73.9336 310.53 70.1074L295.393 130.777C306.11 133.453 316.459 137.434 326.208 142.632C330.209 135.254 333.567 127.227 338.246 119.862C339.597 116.496 340.945 113.784 342.293 110.409C345.615 104.35 348.769 98.3339 351.843 92.3605Z" fill="white"/>
<path d="M326.208 143.308C326.102 143.305 325.997 143.278 325.903 143.229C316.197 138.057 305.895 134.095 295.228 131.432C295.055 131.389 294.907 131.279 294.815 131.126C294.768 131.05 294.738 130.966 294.724 130.878C294.711 130.791 294.716 130.701 294.739 130.615L309.876 69.9514C309.897 69.8653 309.935 69.7842 309.987 69.7128C310.04 69.6413 310.106 69.581 310.182 69.5352C310.335 69.4434 310.518 69.4159 310.692 69.4587C326.058 73.3025 340.912 78.9691 354.936 86.3383C355.016 86.3792 355.086 86.4356 355.144 86.5041C355.201 86.5726 355.245 86.6518 355.272 86.7372C355.298 86.8226 355.308 86.9124 355.3 87.0015C355.291 87.0906 355.266 87.1772 355.224 87.2563C354.301 89.0618 353.374 90.8703 352.443 92.6819C348.858 99.6436 345.826 105.372 342.904 110.709C342.232 112.395 341.547 113.934 340.887 115.422C340.227 116.909 339.542 118.448 338.873 120.125C338.859 120.164 338.839 120.201 338.815 120.235C335.881 124.853 333.442 129.795 331.08 134.575C329.705 137.356 328.283 140.233 326.801 142.966C326.742 143.07 326.656 143.157 326.551 143.218C326.447 143.278 326.329 143.309 326.208 143.308ZM296.209 130.288C306.53 132.921 316.506 136.76 325.933 141.723C327.29 139.186 328.601 136.521 329.87 133.963C332.238 129.171 334.686 124.213 337.645 119.553C338.317 117.876 338.995 116.343 339.656 114.862C340.316 113.38 340.997 111.835 341.666 110.158C341.677 110.133 341.69 110.109 341.703 110.085C344.625 104.748 347.657 99.0163 351.245 92.0515C352.074 90.4398 352.898 88.8312 353.717 87.2257C340.162 80.159 325.833 74.6917 311.019 70.9337L296.209 130.288Z" fill="#0F0F0F"/>
<path d="M222.9 108.441C224.321 107.857 229.477 106.281 232.646 101.47C234.883 98.0704 236.573 92.3786 234.036 88.9237C233.404 88.0608 231.329 85.7321 221.506 86.136C209.061 86.647 200.311 90.769 200.311 90.769C180.034 100.326 175.749 112.138 159.209 121.333C138.026 133.115 127.693 123.075 118.488 133.182C103.531 149.609 109.24 194.623 138.674 212.984C158.539 225.386 189.676 225.741 203.771 210.196C226.751 184.831 205.742 115.47 222.9 108.441Z" fill="#0F0F0F"/>
<path d="M231.084 454.674L230.363 481.536L220.889 482.558L216.201 453.655L231.084 454.674Z" fill="white"/>
<path d="M220.889 483.234C220.729 483.234 220.574 483.177 220.452 483.074C220.33 482.97 220.249 482.826 220.223 482.668L215.535 453.762C215.519 453.662 215.527 453.559 215.556 453.462C215.585 453.365 215.635 453.275 215.703 453.199C215.771 453.125 215.856 453.066 215.95 453.029C216.044 452.991 216.146 452.975 216.247 452.982L231.13 454.001C231.304 454.013 231.467 454.091 231.584 454.22C231.701 454.349 231.764 454.518 231.76 454.693L231.048 481.551C231.043 481.716 230.979 481.874 230.866 481.995C230.754 482.115 230.601 482.19 230.437 482.206L220.962 483.231L220.889 483.234ZM217.005 454.387L221.451 481.821L229.703 480.927L230.391 455.305L217.005 454.387Z" fill="#0F0F0F"/>
<path d="M284.846 463.494L286.356 484.887L273.837 485.912L269.366 463.494H284.846Z" fill="white"/>
<path d="M273.834 486.588C273.678 486.588 273.527 486.533 273.407 486.434C273.287 486.335 273.204 486.197 273.174 486.044L268.706 463.625C268.686 463.527 268.689 463.426 268.713 463.33C268.737 463.233 268.782 463.143 268.846 463.065C268.909 462.988 268.988 462.926 269.078 462.883C269.168 462.84 269.266 462.818 269.366 462.817H284.836C285.004 462.817 285.166 462.88 285.291 462.993C285.415 463.106 285.493 463.262 285.509 463.429L287.018 484.823C287.032 484.999 286.975 485.174 286.861 485.309C286.747 485.445 286.584 485.529 286.407 485.545L273.877 486.57L273.834 486.588ZM270.188 464.17L274.381 485.19L285.637 484.272L284.225 464.17H270.188Z" fill="#0F0F0F"/>
<path d="M270.491 495.125C270.063 494.838 269.711 494.452 269.463 494C269.215 493.548 269.079 493.043 269.067 492.527C268.984 489.391 268.975 482.704 270.24 480.192C271.915 476.857 278.837 481.505 278.837 481.505C278.837 481.505 282.89 475.883 285.255 474.699C286.478 474.087 293.666 478.876 300.909 485.41C308.855 492.564 312.431 494.847 314.139 501.016C314.319 501.7 314.346 502.416 314.218 503.112C314.089 503.808 313.809 504.467 313.398 505.042C312.986 505.616 312.452 506.093 311.835 506.438C311.218 506.783 310.532 506.987 309.827 507.035C302.544 507.549 287.832 506.677 270.491 495.125Z" fill="#0F0F0F"/>
<path d="M306.624 507.816C298.608 507.816 285.35 505.836 270.118 495.689C269.6 495.342 269.173 494.875 268.872 494.328C268.572 493.781 268.407 493.17 268.391 492.546C268.297 488.929 268.333 482.475 269.635 479.886C269.812 479.527 270.065 479.211 270.377 478.96C270.688 478.709 271.05 478.529 271.438 478.433C273.795 477.821 277.291 479.745 278.669 480.596C279.751 479.152 282.884 475.131 284.962 474.096C287.04 473.062 296.123 480.177 301.368 484.902C302.618 486.031 303.761 487.044 304.806 487.962C310.463 492.947 313.302 495.447 314.797 500.833C315.009 501.602 315.047 502.409 314.908 503.195C314.77 503.981 314.458 504.727 313.996 505.377C313.526 506.047 312.913 506.604 312.202 507.008C311.49 507.411 310.698 507.651 309.882 507.709C308.923 507.77 307.835 507.816 306.624 507.816ZM272.447 479.663C272.222 479.66 271.998 479.687 271.781 479.742C271.577 479.788 271.387 479.88 271.224 480.011C271.061 480.142 270.931 480.309 270.842 480.498C269.987 482.193 269.586 486.576 269.739 492.515C269.75 492.922 269.857 493.32 270.053 493.677C270.248 494.034 270.527 494.338 270.864 494.566C288.061 506.02 302.648 506.87 309.787 506.359C310.403 506.314 311.002 506.132 311.539 505.827C312.076 505.522 312.538 505.1 312.893 504.593C313.24 504.108 313.476 503.551 313.582 502.963C313.687 502.375 313.661 501.77 313.504 501.194C312.116 496.193 309.378 493.779 303.92 488.975C302.871 488.057 301.725 487.041 300.472 485.915C292.462 478.699 286.46 475.204 285.515 475.333C283.746 476.223 280.491 480.382 279.403 481.909C279.3 482.049 279.148 482.144 278.977 482.175C278.807 482.206 278.631 482.17 278.486 482.074C277.377 481.337 274.418 479.66 272.447 479.66V479.663Z" fill="#0F0F0F"/>
<path d="M303.229 502.026C295.637 502.026 283.263 500.23 271.282 490.658C271.155 490.542 271.075 490.383 271.061 490.211C271.047 490.039 271.099 489.868 271.206 489.734C271.314 489.599 271.468 489.51 271.638 489.486C271.809 489.461 271.982 489.503 272.123 489.602C290.659 504.413 310.108 500.11 310.301 500.064C310.389 500.039 310.481 500.032 310.572 500.044C310.662 500.056 310.75 500.086 310.828 500.132C310.907 500.179 310.976 500.241 311.03 500.315C311.084 500.388 311.123 500.473 311.143 500.562C311.164 500.651 311.167 500.743 311.15 500.834C311.134 500.924 311.1 501.01 311.05 501.086C311 501.163 310.935 501.228 310.858 501.279C310.782 501.329 310.696 501.364 310.606 501.38C310.533 501.399 307.715 502.026 303.229 502.026Z" fill="#0F0F0F"/>
<path d="M234.828 488.066L234.688 473.359C234.688 473.359 231.745 468.901 227.707 472.524C227.707 472.524 223.973 467.285 217.044 473.818C217.044 473.818 207.295 492.013 202.986 502.837C202.716 503.507 202.612 504.232 202.682 504.95C202.753 505.669 202.996 506.36 203.391 506.964C203.786 507.568 204.322 508.068 204.952 508.419C205.581 508.771 206.287 508.965 207.008 508.985C211.485 509.089 217.27 508.847 219.792 507.149C223.731 504.483 230.488 496.074 233.413 492.289C234.347 491.081 234.846 489.593 234.828 488.066Z" fill="#0F0F0F"/>
<path d="M208.805 509.679C208.218 509.679 207.607 509.672 206.971 509.658C206.148 509.642 205.341 509.424 204.621 509.025C203.901 508.626 203.289 508.056 202.839 507.366C202.379 506.669 202.095 505.871 202.011 505.04C201.926 504.209 202.043 503.37 202.353 502.595C206.632 491.86 216.354 473.686 216.451 473.502C216.485 473.438 216.53 473.381 216.583 473.331C219.248 470.819 221.803 469.659 224.174 469.895C225.534 470.034 226.805 470.635 227.778 471.596C228.97 470.678 230.195 470.311 231.445 470.47C233.774 470.776 235.207 472.903 235.265 472.995C235.337 473.102 235.377 473.229 235.378 473.359L235.516 488.066C235.53 489.742 234.98 491.374 233.954 492.699C230.488 497.166 224.086 505.061 220.177 507.693C218.212 509.015 214.404 509.679 208.805 509.679ZM217.601 474.234C216.824 475.687 207.708 492.83 203.618 503.088C203.384 503.66 203.295 504.281 203.357 504.896C203.419 505.512 203.632 506.102 203.976 506.616C204.308 507.127 204.76 507.549 205.293 507.844C205.826 508.139 206.423 508.299 207.032 508.308C213.163 508.452 217.564 507.837 219.419 506.582C223.313 503.944 230.134 495.41 232.888 491.863C233.726 490.778 234.176 489.443 234.165 488.072L234.028 473.582C233.701 473.163 232.671 471.979 231.262 471.801C230.256 471.676 229.214 472.089 228.169 473.025C228.098 473.088 228.015 473.136 227.925 473.165C227.834 473.194 227.739 473.204 227.645 473.193C227.55 473.183 227.459 473.153 227.377 473.105C227.296 473.057 227.225 472.992 227.169 472.915C226.785 472.439 226.31 472.044 225.772 471.755C225.233 471.465 224.642 471.286 224.034 471.229C222.081 471.048 219.917 472.061 217.601 474.234Z" fill="#0F0F0F"/>
<path d="M227.71 481.128C227.531 481.128 227.359 481.057 227.233 480.93C227.106 480.803 227.035 480.632 227.035 480.452V472.526C227.029 472.434 227.041 472.341 227.072 472.254C227.103 472.167 227.152 472.087 227.215 472.019C227.278 471.951 227.355 471.897 227.44 471.861C227.525 471.824 227.616 471.805 227.709 471.805C227.801 471.805 227.893 471.824 227.978 471.861C228.062 471.897 228.139 471.951 228.202 472.019C228.265 472.087 228.314 472.167 228.345 472.254C228.376 472.341 228.389 472.434 228.383 472.526V480.455C228.382 480.634 228.311 480.804 228.185 480.93C228.059 481.056 227.888 481.128 227.71 481.128Z" fill="#0F0F0F"/>
<path d="M288.644 464.708C288.644 464.708 292.217 410.706 286.355 362.133C280.494 313.56 258.691 244.197 258.691 244.197C258.691 244.197 235.231 243.129 218.157 245.421C201.082 247.713 194.318 245.357 194.318 245.357C194.318 245.357 181.571 259.972 182.61 287.445C183.649 314.919 213.395 430.821 212.255 458.022C212.255 458.022 222.258 463.056 235.216 460.553L229.865 304.362C229.865 304.362 240.977 336.517 246.194 358.547C250.445 376.504 257.823 388.12 257.823 388.12C257.823 388.12 257.517 429.866 267.077 464.515C267.077 464.525 278.382 468.056 288.644 464.708Z" fill="#0F0F0F"/>
<path d="M269.889 406.716C269.778 406.714 269.67 406.685 269.573 406.632C269.476 406.579 269.394 406.503 269.333 406.41L261.142 394.476C261.087 394.403 261.048 394.319 261.026 394.231C261.004 394.142 261 394.05 261.015 393.96C261.03 393.87 261.063 393.784 261.111 393.707C261.16 393.629 261.224 393.563 261.299 393.511C261.375 393.46 261.459 393.424 261.549 393.406C261.638 393.388 261.73 393.388 261.819 393.407C261.909 393.425 261.993 393.462 262.068 393.514C262.143 393.566 262.206 393.633 262.255 393.711L270.445 405.645C270.515 405.746 270.555 405.865 270.562 405.988C270.57 406.111 270.543 406.233 270.486 406.342C270.429 406.451 270.343 406.543 270.238 406.606C270.132 406.67 270.012 406.704 269.889 406.704V406.716Z" fill="white"/>
<path d="M214.798 377.697C211.959 377.697 208.358 377.143 205.357 374.913C205.227 374.801 205.144 374.645 205.124 374.474C205.105 374.304 205.151 374.132 205.253 373.995C205.356 373.857 205.506 373.763 205.675 373.733C205.843 373.702 206.017 373.736 206.161 373.829C211.491 377.786 219.238 375.87 219.303 375.849C219.473 375.812 219.652 375.844 219.8 375.936C219.948 376.028 220.055 376.174 220.098 376.343C220.141 376.513 220.117 376.692 220.031 376.844C219.945 376.996 219.803 377.109 219.636 377.159C218.049 377.523 216.426 377.703 214.798 377.697Z" fill="white"/>
<path d="M332.36 126.995C332.36 126.995 342.962 117.15 345.982 114.641C349.414 111.789 341.559 110.85 331.499 120.079L332.36 126.995Z" fill="white"/>
<path d="M332.36 127.668C332.282 127.667 332.204 127.653 332.131 127.625C332.014 127.582 331.912 127.508 331.834 127.411C331.756 127.314 331.707 127.198 331.691 127.074L330.829 120.158C330.815 120.051 330.828 119.943 330.865 119.841C330.902 119.74 330.963 119.649 331.043 119.577C337.968 113.224 344.203 111.409 346.416 112.147C346.67 112.207 346.903 112.338 347.086 112.525C347.269 112.712 347.396 112.947 347.452 113.203C347.568 113.815 347.219 114.488 346.413 115.158C343.442 117.628 332.926 127.399 332.819 127.487C332.694 127.603 332.53 127.668 332.36 127.668ZM332.211 120.339L332.868 125.602C335.563 123.108 343.054 116.192 345.551 114.118C345.787 113.95 345.98 113.729 346.113 113.472C345.322 112.888 339.652 113.616 332.208 120.339H332.211Z" fill="#0F0F0F"/>
<path d="M333.246 124.996C333.311 125.541 333.378 126.086 333.476 126.624C333.638 127.542 333.861 129.745 332.54 131.147C331.22 132.549 325.016 135.912 322.073 137.475C321.069 138.004 320.184 138.733 319.472 139.617C318.491 140.841 321.156 153.896 321.156 153.896L310.459 150.065C310.459 150.065 311.743 132.261 314.093 125.027C316.443 117.793 322.651 114.359 324.252 114.586C325.853 114.812 326.349 117.891 326.349 117.891C326.349 117.891 329.823 115.204 331.932 116.639C333.039 117.395 332.501 118.671 332.675 119.904L333.246 124.996Z" fill="white"/>
<path d="M321.156 154.582C321.079 154.582 321.003 154.569 320.93 154.542L310.234 150.711C310.095 150.661 309.976 150.568 309.895 150.445C309.815 150.321 309.777 150.175 309.787 150.028C309.842 149.297 311.105 132.059 313.455 124.828C315.86 117.432 322.195 113.628 324.35 113.928C325.753 114.127 326.459 115.709 326.795 116.798C328.073 116.021 330.527 114.868 332.327 116.095C333.406 116.829 333.369 117.931 333.338 118.821C333.317 119.155 333.323 119.489 333.357 119.822L333.937 124.92C333.998 125.431 334.063 125.976 334.16 126.505C334.338 127.497 334.588 129.981 333.051 131.612C331.731 133.017 325.817 136.261 322.412 138.072C321.487 138.561 320.673 139.235 320.019 140.052C319.604 140.93 320.631 147.868 321.853 153.771C321.874 153.869 321.872 153.97 321.848 154.068C321.825 154.165 321.779 154.256 321.716 154.334C321.653 154.411 321.573 154.474 321.483 154.517C321.392 154.56 321.293 154.582 321.193 154.582H321.156ZM311.166 149.615L320.261 152.868C319.258 147.816 317.996 140.398 318.944 139.208C319.713 138.246 320.671 137.454 321.758 136.879C327.345 133.911 331.193 131.594 332.049 130.685C333.164 129.501 332.965 127.536 332.81 126.744C332.709 126.178 332.638 125.605 332.577 125.073L332 119.993C331.951 119.587 331.941 119.177 331.969 118.769C332 117.851 331.969 117.493 331.547 117.205C330.154 116.257 327.614 117.769 326.752 118.43C326.66 118.5 326.551 118.546 326.435 118.562C326.32 118.578 326.203 118.564 326.094 118.521C325.986 118.478 325.891 118.408 325.818 118.318C325.744 118.227 325.696 118.119 325.676 118.004C325.539 117.16 324.989 115.376 324.148 115.25C322.877 115.079 316.957 118.356 314.723 125.232C312.648 131.64 311.398 146.653 311.166 149.615Z" fill="#0F0F0F"/>
<path d="M323.604 132.069C323.377 132.068 323.15 132.036 322.932 131.974C321.627 131.613 320.181 130.076 320.065 126.854C319.882 122.016 325.902 117.389 326.159 117.193C326.302 117.098 326.477 117.061 326.646 117.09C326.816 117.119 326.968 117.211 327.072 117.349C327.176 117.486 327.223 117.658 327.205 117.829C327.186 118.001 327.103 118.159 326.972 118.27C326.917 118.313 321.257 122.668 321.413 126.802C321.508 129.299 322.486 130.45 323.292 130.673C323.849 130.826 324.393 130.566 324.79 129.96C325.542 128.821 325.886 127.461 325.768 126.101C325.753 125.93 325.803 125.759 325.909 125.624C326.015 125.489 326.168 125.399 326.338 125.373C326.508 125.346 326.681 125.386 326.823 125.483C326.964 125.581 327.064 125.728 327.1 125.896C327.27 127.586 326.852 129.283 325.918 130.701C325.678 131.105 325.341 131.443 324.936 131.682C324.532 131.921 324.074 132.054 323.604 132.069Z" fill="#0F0F0F"/>
<path d="M233.104 144.468C230.971 144.117 229.042 142.991 227.686 141.305C226.33 139.619 225.642 137.492 225.754 135.33L226.118 128.381C230.308 128.053 233.795 126.052 233.786 124.727C233.786 124.078 232.242 117.762 231.28 115.152C232.093 114.491 233.08 112.667 231.329 111.55C229.577 110.433 225.65 103.328 225.65 103.328C220.803 97.6849 219.403 105.638 215.782 106.299C213.276 106.758 211.913 108.288 212.86 111.569C213.808 114.849 212.007 113.206 210.162 112.269C208.316 111.333 207.063 112.061 208.074 115.045C209.086 118.028 212.778 119.819 212.778 119.819L214.523 123.258L210.855 140.156C210.509 141.73 209.769 143.19 208.703 144.398C207.637 145.606 206.282 146.522 204.764 147.06L199.688 148.871L226.372 162.862L239.269 145.478L233.104 144.468Z" fill="white"/>
<path d="M226.381 163.539C226.275 163.538 226.17 163.512 226.075 163.462L199.386 149.471C199.273 149.409 199.18 149.316 199.119 149.202C199.057 149.089 199.029 148.961 199.038 148.832C199.047 148.703 199.093 148.58 199.17 148.476C199.246 148.373 199.351 148.293 199.471 148.247L204.548 146.436C205.955 145.938 207.212 145.087 208.198 143.965C209.184 142.843 209.867 141.486 210.18 140.025L213.814 123.359L212.286 120.333C211.452 119.886 208.408 118.099 207.451 115.275C206.84 113.509 206.928 112.282 207.68 111.63C208.053 111.306 208.903 110.883 210.48 111.679C210.825 111.853 211.167 112.052 211.491 112.242C211.815 112.432 212.167 112.631 212.448 112.759C212.399 112.423 212.325 112.092 212.225 111.768C211.724 110.026 211.8 108.61 212.454 107.554C213.065 106.569 214.144 105.929 215.672 105.647C216.739 105.455 217.68 104.359 218.588 103.303C219.709 102 220.868 100.653 222.491 100.653C223.67 100.653 224.874 101.388 226.158 102.899C226.186 102.935 226.212 102.973 226.234 103.013C227.723 105.702 230.513 110.25 231.687 110.993C232.05 111.198 232.357 111.49 232.581 111.842C232.804 112.194 232.937 112.597 232.967 113.013C232.977 113.881 232.648 114.719 232.05 115.348C233.013 118.163 234.44 123.977 234.446 124.733C234.462 126.539 230.797 128.537 226.748 129.017L226.415 135.389C226.309 137.385 226.943 139.35 228.196 140.907C229.449 142.463 231.232 143.501 233.202 143.822L239.367 144.832C239.481 144.851 239.588 144.898 239.679 144.971C239.769 145.043 239.84 145.137 239.883 145.245C239.926 145.352 239.941 145.469 239.926 145.583C239.911 145.698 239.867 145.807 239.798 145.9L226.922 163.266C226.859 163.35 226.777 163.419 226.684 163.466C226.59 163.513 226.486 163.538 226.381 163.539ZM201.375 148.991L226.182 161.996L238.077 145.967L233.004 145.135C230.706 144.761 228.627 143.55 227.167 141.735C225.706 139.919 224.967 137.628 225.091 135.3L225.452 128.347C225.461 128.185 225.527 128.032 225.64 127.915C225.752 127.799 225.902 127.726 226.063 127.711C230.146 127.405 233.117 125.459 233.111 124.733C233.083 124.121 231.613 118.001 230.648 115.388C230.599 115.256 230.593 115.112 230.63 114.976C230.667 114.841 230.746 114.72 230.855 114.632C231.086 114.443 231.274 114.206 231.407 113.939C231.539 113.671 231.614 113.379 231.625 113.08C231.604 112.879 231.532 112.686 231.418 112.518C231.303 112.351 231.149 112.215 230.968 112.123C229.171 110.978 225.641 104.705 225.094 103.72C224.101 102.575 223.221 101.997 222.478 101.994C221.476 101.994 220.562 103.055 219.599 104.175C218.536 105.4 217.439 106.688 215.901 106.966C214.765 107.174 213.988 107.609 213.588 108.255C213.145 108.974 213.117 110.026 213.508 111.385C213.86 112.609 213.973 113.527 213.374 113.983C212.708 114.503 211.867 114.017 210.804 113.402C210.498 113.224 210.192 113.038 209.859 112.875C209.172 112.527 208.707 112.505 208.551 112.64C208.395 112.774 208.246 113.408 208.713 114.831C209.63 117.505 213.038 119.201 213.071 119.216C213.203 119.283 213.31 119.39 213.377 119.522L215.125 122.958C215.196 123.098 215.216 123.258 215.183 123.411L211.488 140.3C211.127 141.986 210.34 143.551 209.203 144.845C208.065 146.14 206.615 147.12 204.991 147.693L201.375 148.991Z" fill="#0F0F0F"/>
<path d="M224.593 129.244C220.62 129.244 218.89 125.602 218.872 125.572C218.805 125.411 218.803 125.23 218.866 125.068C218.929 124.906 219.052 124.774 219.21 124.7C219.367 124.627 219.547 124.617 219.712 124.672C219.877 124.728 220.013 124.845 220.094 124.999C220.164 125.149 221.897 128.699 225.962 127.732C226.136 127.691 226.319 127.722 226.47 127.816C226.622 127.91 226.73 128.061 226.77 128.235C226.811 128.409 226.781 128.593 226.686 128.744C226.592 128.896 226.441 129.004 226.268 129.045C225.719 129.177 225.157 129.243 224.593 129.244Z" fill="#0F0F0F"/>
<path d="M323.387 151.625C318.803 149.082 312.666 147.164 307.122 145.934C306.031 150.059 307 146.965 304.46 153.608C299.54 166.495 297.08 172.936 292.581 173.931C287.08 175.155 279.901 168.508 274.549 158.841L268.593 151.95C265.185 148.015 260.794 145.058 255.87 143.382C244.289 142.367 232.638 142.463 221.075 143.669C204.832 145.304 188.909 149.273 173.796 155.454C173.796 155.454 136.239 177.37 136.932 212.491C137.626 247.612 159.811 259.191 159.811 259.191L172.28 242.012C172.28 242.012 148.968 216.503 183.414 193.243C181.993 208.96 177.259 250.185 181.751 255.213C184.532 258.331 190.168 257.781 201.311 256.55C218.731 254.629 221.726 250.69 232.982 249.58C253.052 247.597 261.304 258.356 268.492 253.411C272.862 250.403 276.469 241.837 269.99 215.41C268.453 208.103 266.936 200.738 265.439 193.316C281.67 205.187 298.119 208.99 307.813 202.723C313.824 198.837 316.523 191.532 318.815 185.329C324.347 170.372 324.75 158.407 323.387 151.625Z" fill="white"/>
<path d="M159.811 259.864C159.704 259.863 159.6 259.837 159.505 259.788C159.282 259.672 136.96 247.618 136.278 212.503C135.578 177.22 173.105 155.086 173.484 154.872L173.564 154.835C188.734 148.625 204.719 144.634 221.026 142.987C232.632 141.778 244.326 141.682 255.949 142.699C256.005 142.703 256.059 142.714 256.111 142.733C261.15 144.45 265.641 147.48 269.125 151.509L275.057 158.4C275.087 158.436 275.114 158.475 275.136 158.517C280.616 168.413 287.556 174.344 292.431 173.27C296.572 172.351 298.996 166.011 303.824 153.379C304.659 151.197 305.114 150.062 305.389 149.376C305.677 148.73 305.898 148.057 306.049 147.366C306.144 146.995 306.272 146.494 306.465 145.771C306.508 145.602 306.616 145.457 306.765 145.366C306.914 145.275 307.093 145.246 307.263 145.285C311.046 146.123 318.213 147.99 323.711 151.044C323.796 151.092 323.87 151.158 323.927 151.237C323.985 151.316 324.025 151.407 324.044 151.503C324.704 154.79 326.324 166.966 319.46 185.574C317.198 191.694 314.387 199.293 308.186 203.301C298.562 209.523 282.676 206.282 266.447 194.874C267.826 201.68 269.238 208.537 270.656 215.282C275.937 236.852 275.362 249.503 268.874 253.968C265.158 256.526 261.136 255.192 256.038 253.475C250.393 251.584 243.364 249.234 233.052 250.25C228.031 250.745 224.718 251.798 220.886 253.004C216.249 254.476 210.996 256.146 201.387 257.205C190.385 258.429 184.312 259.09 181.241 255.648C177.451 251.394 179.569 225.943 182.063 200.235C182.265 198.17 182.448 196.257 182.604 194.602C172.25 201.891 166.467 210.095 165.413 219C163.915 231.69 172.674 241.443 172.778 241.553C172.882 241.668 172.944 241.816 172.952 241.972C172.96 242.127 172.915 242.281 172.824 242.407L160.358 259.586C160.295 259.672 160.213 259.743 160.118 259.791C160.023 259.839 159.918 259.865 159.811 259.864ZM174.095 156.066C173.325 156.522 164.444 161.88 155.544 171.317C147.167 180.219 137.253 194.574 137.608 212.473C138.219 243.814 156.357 256.299 159.612 258.295L171.418 242.055C169.692 239.998 162.665 230.79 164.083 218.862C165.229 209.217 171.608 200.41 183.032 192.689C183.137 192.617 183.26 192.577 183.387 192.573C183.513 192.568 183.639 192.6 183.749 192.664C183.858 192.728 183.948 192.822 184.006 192.935C184.065 193.047 184.09 193.174 184.08 193.301C183.9 195.293 183.667 197.695 183.408 200.382C181.702 217.932 178.533 250.595 182.246 254.763C184.749 257.569 189.887 257.132 201.241 255.88C210.715 254.834 215.91 253.184 220.476 251.731C224.382 250.491 227.756 249.417 232.921 248.909C243.52 247.863 251.001 250.369 256.454 252.196C261.557 253.906 264.931 255.036 268.092 252.857C273.978 248.805 274.387 236.262 269.314 215.576C267.786 208.25 266.258 200.814 264.76 193.454C264.734 193.321 264.749 193.183 264.802 193.058C264.855 192.933 264.944 192.827 265.058 192.754C265.172 192.681 265.306 192.644 265.441 192.647C265.577 192.651 265.708 192.695 265.818 192.775C282.086 204.651 298.027 208.25 307.452 202.157C313.259 198.39 315.887 191.327 318.192 185.094C324.747 167.345 323.46 155.665 322.794 152.066C318.974 149.994 313.626 148.115 307.614 146.735C307.51 147.133 307.434 147.442 307.37 147.693C307.203 148.441 306.964 149.171 306.654 149.872C306.379 150.551 305.927 151.68 305.099 153.85C300.096 166.944 297.584 173.517 292.734 174.588C287.208 175.812 279.858 169.784 274.005 159.233L268.085 152.393C264.776 148.568 260.515 145.686 255.735 144.039C244.223 143.042 232.642 143.144 221.148 144.345C204.979 145.977 189.128 149.93 174.083 156.084L174.095 156.066Z" fill="#0F0F0F"/>
<path d="M170.309 244.726L182.329 255.657L188.203 246.17L205.092 242C205.092 242 204.438 246.59 195.773 247.728L209.755 247.422C209.755 247.422 207.671 251.367 198.946 250.898L207.925 252.428C207.925 252.428 202.118 253.738 199.297 254.947L196.485 256.171C196.485 256.171 193.631 257.937 191.754 260.085C189.878 262.233 186.864 264.617 182.809 265.33C178.753 266.043 161.367 257.049 161.367 257.049L170.309 244.726Z" fill="white"/>
<path d="M182.329 266.037C177.439 266.037 162.77 258.546 161.052 257.655C160.966 257.61 160.891 257.546 160.831 257.469C160.771 257.392 160.729 257.303 160.707 257.208C160.684 257.114 160.682 257.016 160.701 256.921C160.72 256.826 160.759 256.736 160.817 256.658L169.762 244.328C169.818 244.252 169.889 244.188 169.971 244.14C170.054 244.093 170.145 244.063 170.239 244.053C170.333 244.044 170.429 244.054 170.519 244.084C170.609 244.114 170.692 244.163 170.761 244.227L182.182 254.601L187.629 245.816C187.721 245.664 187.869 245.554 188.041 245.51L204.93 241.339C205.036 241.313 205.148 241.313 205.254 241.34C205.361 241.366 205.459 241.418 205.541 241.492C205.622 241.567 205.684 241.66 205.721 241.764C205.758 241.868 205.77 241.979 205.755 242.088C205.733 242.245 205.281 245.038 201.253 246.927L209.737 246.74C209.855 246.737 209.971 246.766 210.074 246.822C210.177 246.878 210.264 246.961 210.326 247.061C210.387 247.161 210.422 247.275 210.426 247.393C210.43 247.511 210.403 247.627 210.348 247.731C210.281 247.863 208.991 250.179 204.606 251.174L208.035 251.758C208.188 251.786 208.327 251.865 208.429 251.983C208.531 252.102 208.588 252.251 208.592 252.407C208.596 252.563 208.546 252.716 208.451 252.839C208.355 252.962 208.22 253.049 208.068 253.083C208.01 253.083 202.283 254.393 199.56 255.565L196.809 256.753C196.461 256.973 193.94 258.589 192.271 260.51C190.798 262.2 187.622 265.156 182.934 265.976C182.735 266.013 182.532 266.034 182.329 266.037ZM162.372 256.811C167.62 259.479 179.695 265.189 182.693 264.66C186.972 263.91 189.89 261.193 191.25 259.638C193.169 257.438 196.015 255.66 196.14 255.593L196.226 255.547L199.037 254.323C200.857 253.61 202.721 253.017 204.618 252.545L198.839 251.56C198.671 251.528 198.522 251.434 198.421 251.297C198.32 251.16 198.274 250.989 198.293 250.82C198.312 250.65 198.394 250.494 198.523 250.383C198.652 250.272 198.818 250.213 198.988 250.219C204.273 250.504 206.968 249.139 208.218 248.126L195.795 248.398C195.623 248.405 195.456 248.345 195.328 248.231C195.199 248.117 195.12 247.958 195.107 247.786C195.094 247.614 195.147 247.443 195.255 247.309C195.364 247.175 195.52 247.087 195.691 247.064C201.164 246.354 203.227 244.267 203.994 242.976L188.637 246.767L182.91 256.009C182.857 256.092 182.787 256.162 182.704 256.215C182.621 256.268 182.527 256.302 182.43 256.315C182.332 256.33 182.232 256.322 182.137 256.293C182.043 256.264 181.956 256.214 181.883 256.147L170.413 245.727L162.372 256.811Z" fill="#0F0F0F"/>
<path d="M478.688 95.7541C478.688 95.7541 492.465 86.5737 493.357 83.6636C494.25 80.7534 483.999 69.4708 490.885 63.069C497.914 56.5296 507.141 62.3836 506.233 77.1853C506.233 77.1853 523.488 76.5886 521.434 86.029C519.524 94.7993 509.714 94.4749 506.502 93.1866C500.322 90.714 489.674 109.616 489.674 109.616L478.688 95.7541Z" fill="white"/>
<path d="M489.68 110.293C489.579 110.292 489.479 110.269 489.388 110.225C489.296 110.181 489.216 110.118 489.152 110.039L478.149 96.1735C478.091 96.1003 478.049 96.0159 478.025 95.9256C478.002 95.8353 477.997 95.7411 478.011 95.6488C478.025 95.5565 478.059 95.4682 478.109 95.3894C478.159 95.3107 478.225 95.2432 478.302 95.1912C483.553 91.6935 492.107 85.4202 492.709 83.4648C492.923 82.7702 491.976 80.8148 491.062 78.9236C488.809 74.2692 485.408 67.2371 490.42 62.5765C493.476 59.7459 497.034 58.9839 500.2 60.4865C504.689 62.6285 507.229 68.7151 506.923 76.5C509.442 76.5 517.62 76.8244 520.896 80.7352C522.137 82.2255 522.534 84.0554 522.073 86.173C521.385 89.3402 519.677 91.6812 517.003 93.0919C513.277 95.0718 508.445 94.7077 506.233 93.8141C501.612 91.978 493.125 104.83 490.243 109.95C490.189 110.046 490.111 110.128 490.018 110.187C489.925 110.247 489.818 110.282 489.708 110.29L489.68 110.293ZM479.668 95.9103L489.601 108.42C491.966 104.378 500.799 90.1756 506.764 92.5595C508.754 93.3551 513.057 93.6764 516.404 91.8985C518.714 90.6744 520.187 88.6486 520.789 85.8854C521.162 84.1717 520.869 82.7702 519.894 81.6012C516.532 77.5527 506.373 77.8556 506.272 77.8587C506.178 77.8632 506.084 77.8472 505.996 77.8119C505.909 77.7765 505.83 77.7225 505.765 77.6537C505.7 77.5864 505.649 77.5062 505.616 77.4182C505.584 77.3302 505.57 77.2363 505.576 77.1426C506.129 68.0939 502.877 63.2375 499.647 61.7074C497 60.4528 493.977 61.1291 491.358 63.5649C487.08 67.5431 490.09 73.7826 492.293 78.3361C493.516 80.8454 494.387 82.66 494.017 83.8626C493.149 86.6535 482.587 93.9457 479.668 95.9072V95.9103Z" fill="#0F0F0F"/>
<path d="M511.495 83.6542C510.322 83.6542 508.21 83.4339 506.813 82.0079C505.686 80.8603 505.285 79.2048 505.573 77.0872C505.605 76.9164 505.703 76.7649 505.844 76.664C505.985 76.5631 506.16 76.5207 506.332 76.5455C506.504 76.5703 506.66 76.6605 506.767 76.7972C506.874 76.934 506.925 77.1069 506.908 77.28C506.667 78.9539 506.957 80.2238 507.77 81.0562C509.298 82.6015 512.162 82.2802 512.189 82.2802C512.361 82.2686 512.532 82.3235 512.665 82.4336C512.798 82.5437 512.884 82.7007 512.905 82.8722C512.926 83.0438 512.881 83.2169 512.778 83.3561C512.676 83.4953 512.524 83.5899 512.354 83.6205C512.069 83.6493 511.782 83.6605 511.495 83.6542Z" fill="#0F0F0F"/>
<path d="M483.559 90.2734C483.559 90.2734 477.41 92.336 438.939 94.475C423.26 95.3471 403.511 106.801 405.467 130.743C407.423 154.686 434.122 180.822 460.506 169.454C486.89 158.085 489.766 122.279 492.092 113.836C494.109 106.513 496.211 102.688 496.211 102.688L490.778 101.501L490.438 95.8459L484.167 96.8098L483.559 90.2734Z" fill="#0F0F0F"/>
<path d="M459.345 120.994C471.796 137.408 473.009 157.47 462.05 165.803C451.09 174.135 430.36 169.45 417.909 153.036C405.458 136.622 405.99 114.699 416.959 106.366C427.927 98.0336 446.882 104.579 459.345 120.994Z" fill="white"/>
<path d="M440.76 137.065C443.468 140.771 444.07 144.942 442.105 146.38C440.139 147.819 436.356 145.979 433.648 142.274C430.94 138.568 430.338 134.397 432.303 132.959C434.269 131.52 438.052 133.36 440.76 137.065Z" fill="#0F0F0F"/>
<path d="M473.345 144.055C473.188 144.054 473.035 143.998 472.914 143.897C472.793 143.796 472.711 143.656 472.682 143.501C465.815 105.88 437.01 99.7292 436.729 99.6741C436.561 99.6319 436.415 99.5266 436.323 99.3799C436.23 99.2333 436.197 99.0566 436.231 98.8863C436.264 98.7161 436.362 98.5654 436.504 98.4654C436.646 98.3653 436.82 98.3237 436.992 98.349C437.297 98.4072 444.605 99.9066 452.884 106.204C460.485 112 470.347 123.136 474.014 143.256C474.046 143.433 474.006 143.614 473.904 143.762C473.802 143.909 473.646 144.01 473.47 144.043C473.429 144.051 473.387 144.056 473.345 144.055Z" fill="white"/>
<path d="M515.001 142.069C508.889 153.658 497.122 156.846 487.398 151.702C477.673 146.558 473.675 135.031 479.788 123.442C485.9 111.853 499.818 104.592 509.543 109.736C519.268 114.88 521.117 130.48 515.001 142.069Z" fill="white"/>
<path d="M496.752 154.756C493.378 154.743 490.058 153.902 487.083 152.308C482.095 149.67 478.525 145.368 476.997 140.187C475.411 134.749 476.166 128.865 479.182 123.136C482.272 117.321 487.11 112.625 493.012 109.714C499.066 106.807 505.044 106.605 509.848 109.148C519.545 114.277 522.229 129.813 515.591 142.393C512.571 148.113 508.134 152.06 502.755 153.814C500.816 154.441 498.79 154.759 496.752 154.756ZM502.507 108.72C499.677 108.72 496.658 109.457 493.604 110.923C487.962 113.705 483.337 118.196 480.386 123.757C477.535 129.158 476.814 134.706 478.302 139.798C479.708 144.624 483.051 148.639 487.712 151.121C492.373 153.603 497.571 154.089 502.345 152.535C507.385 150.894 511.556 147.17 514.405 141.769C520.6 130.034 518.13 115.057 509.228 110.348C507.155 109.26 504.847 108.701 502.507 108.72Z" fill="#0F0F0F"/>
<path d="M485.628 122.668C485.483 122.667 485.341 122.619 485.225 122.533C485.153 122.48 485.093 122.414 485.048 122.338C485.002 122.261 484.972 122.177 484.959 122.089C484.946 122.001 484.951 121.911 484.973 121.825C484.995 121.739 485.034 121.658 485.087 121.587C487.645 118.146 490.984 115.362 494.827 113.466C499.662 111.143 504.301 110.917 507.917 112.826C508.063 112.916 508.169 113.059 508.215 113.224C508.26 113.39 508.24 113.567 508.16 113.718C508.08 113.87 507.945 113.986 507.783 114.042C507.621 114.098 507.444 114.09 507.287 114.02C504.069 112.315 499.851 112.551 495.411 114.684C491.764 116.485 488.596 119.128 486.169 122.395C486.106 122.48 486.025 122.548 485.931 122.596C485.837 122.643 485.733 122.668 485.628 122.668Z" fill="#0F0F0F"/>
<path d="M250.424 460.057C250.424 460.057 267.389 516.727 340.71 517.654C420.204 518.658 460.906 430.542 444.782 365.824C436.613 333.041 420.332 327.508 420.332 327.508L250.424 460.057Z" fill="#0F0F0F"/>
<path d="M262.942 476.404C262.942 476.404 313.336 525.947 383.726 451.746C454.116 377.544 434.853 323.849 411.672 325.363C388.49 326.878 350.242 364.037 299.509 387.484C248.777 410.93 234.621 450.684 262.942 476.404Z" fill="white"/>
<path d="M306.706 493.29C279.757 493.29 263.003 477.414 262.48 476.909C251.154 466.618 246.261 454.007 248.336 440.442C251.475 419.939 270.035 400.413 299.228 386.908C322.58 376.112 343.051 362.559 361.113 350.603C382.255 336.606 398.957 325.55 411.628 324.715C418.963 324.231 425.708 329.014 429.687 337.512C439.345 358.137 433.23 400.55 384.214 452.223C358.79 479.027 333.115 492.84 307.908 493.281L306.706 493.29ZM412.631 326.03C412.325 326.03 412.02 326.03 411.714 326.061C399.404 326.872 382.833 337.842 361.855 351.729C343.754 363.713 323.237 377.293 299.796 388.145C271.007 401.456 252.731 420.582 249.675 440.656C247.673 453.756 252.426 465.951 263.4 475.924L263.422 475.942C263.59 476.107 280.536 492.436 307.917 491.937C332.742 491.497 358.087 477.824 383.243 451.305C431.79 400.131 437.948 358.336 428.474 338.081C424.901 330.461 419.03 326.018 412.631 326.018V326.03Z" fill="#0F0F0F"/>
<path d="M299.506 443.437C299.506 443.437 313.305 461.376 349.585 433.033C385.865 404.69 366.202 376.969 334.61 388.025C303.018 399.081 290.705 427.525 299.506 443.437Z" fill="#0F0F0F"/>
<path d="M305.42 422.907C305.338 422.907 305.258 422.892 305.181 422.864C305.015 422.8 304.88 422.672 304.807 422.509C304.733 422.346 304.727 422.16 304.79 421.992C309.497 409.629 321.397 399.066 336.623 393.738C340.697 392.312 344.603 391.596 348.237 391.596C348.329 391.59 348.422 391.603 348.509 391.634C348.596 391.665 348.676 391.714 348.744 391.777C348.811 391.84 348.865 391.917 348.902 392.002C348.939 392.087 348.958 392.178 348.958 392.271C348.958 392.364 348.939 392.455 348.902 392.54C348.865 392.625 348.811 392.702 348.744 392.765C348.676 392.828 348.596 392.877 348.509 392.908C348.422 392.939 348.329 392.952 348.237 392.946C344.759 392.946 341.003 393.643 337.073 395.021C322.22 400.223 310.624 410.483 306.055 422.479C306.006 422.607 305.918 422.716 305.805 422.793C305.691 422.869 305.557 422.909 305.42 422.907Z" fill="white"/>
<path d="M73.0705 76.0532H33.9116L40.0026 120.391H66.9796L73.0705 76.0532Z" fill="white"/>
<path d="M66.9761 121.067H40.0022C39.8393 121.066 39.6822 121.007 39.5594 120.899C39.4366 120.792 39.3563 120.644 39.3329 120.483L33.2419 76.145C33.2296 76.0494 33.2377 75.9522 33.2656 75.8599C33.2935 75.7676 33.3407 75.6823 33.4039 75.6095C33.4669 75.5367 33.5448 75.4782 33.6323 75.4381C33.7199 75.3979 33.815 75.3771 33.9112 75.377H73.0671C73.1638 75.3771 73.2594 75.3979 73.3474 75.438C73.4354 75.4781 73.5139 75.5366 73.5775 75.6095C73.6409 75.6821 73.6879 75.7675 73.7153 75.8599C73.7428 75.9523 73.7499 76.0496 73.7364 76.145L67.6454 120.483C67.6233 120.645 67.5432 120.793 67.4202 120.901C67.2971 121.008 67.1394 121.067 66.9761 121.067ZM40.589 119.715H66.3893L72.2939 76.7295H34.6845L40.589 119.715Z" fill="#0F0F0F"/>
<path d="M74.4855 108.362H32.4935C21.8335 146.232 21.8335 184.101 32.4935 221.968H74.4855C85.1373 184.101 85.1373 146.232 74.4855 108.362Z" fill="white"/>
<path d="M74.4852 222.645H32.4933C32.348 222.645 32.2066 222.598 32.0899 222.512C31.9731 222.425 31.8874 222.303 31.8453 222.164C21.2006 184.35 21.2006 146.007 31.8453 108.193C31.8852 108.052 31.97 107.927 32.0869 107.838C32.2038 107.749 32.3465 107.701 32.4933 107.701H74.4852C74.6324 107.701 74.7755 107.749 74.893 107.838C75.0104 107.927 75.0958 108.052 75.1362 108.193C85.7809 146.007 85.7809 184.35 75.1362 222.164C75.0936 222.303 75.0073 222.425 74.89 222.512C74.7728 222.599 74.6309 222.645 74.4852 222.645ZM33.0067 221.295H73.9749C84.3659 184.05 84.3659 146.283 73.9749 109.038H33.0067C22.6157 146.273 22.6157 184.05 33.0067 221.295Z" fill="#0F0F0F"/>
<path d="M95.8144 162.813H11.1672C5.37267 162.813 0.675293 167.517 0.675293 173.319V474.599C0.675293 480.401 5.37267 485.104 11.1672 485.104H95.8144C101.609 485.104 106.306 480.401 106.306 474.599V173.319C106.306 167.517 101.609 162.813 95.8144 162.813Z" fill="white"/>
<path d="M95.8145 485.78H11.1581C8.19896 485.775 5.36275 484.595 3.27116 482.499C1.17956 480.402 0.00323043 477.562 0 474.599L0 173.319C0.00404448 170.355 1.18199 167.513 3.27548 165.418C5.36897 163.322 8.20707 162.143 11.1673 162.14H95.8237C98.7839 162.143 101.622 163.322 103.715 165.418C105.809 167.513 106.987 170.355 106.991 173.319V474.599C106.987 477.565 105.808 480.408 103.712 482.504C101.617 484.6 98.7766 485.779 95.8145 485.78ZM11.1581 163.49C8.5567 163.495 6.06329 164.532 4.22436 166.374C2.38544 168.217 1.35101 170.714 1.34778 173.319V474.599C1.35021 477.206 2.38554 479.705 4.22653 481.548C6.06752 483.392 8.56375 484.428 11.1673 484.431H95.8237C98.4267 484.428 100.922 483.391 102.762 481.547C104.603 479.704 105.638 477.205 105.64 474.599V173.319C105.637 170.713 104.602 168.215 102.761 166.372C100.921 164.529 98.4261 163.493 95.8237 163.49H11.1581Z" fill="#0F0F0F"/>
<path d="M79.0451 101.134H27.9365V109.883H79.0451V101.134Z" fill="white"/>
<path d="M79.0452 110.559H27.9366C27.7575 110.559 27.5857 110.488 27.4591 110.361C27.3324 110.234 27.2612 110.062 27.2612 109.883V101.134C27.2612 100.954 27.3324 100.782 27.4591 100.656C27.5857 100.529 27.7575 100.458 27.9366 100.458H79.0452C79.1338 100.458 79.2215 100.475 79.3033 100.509C79.385 100.543 79.4593 100.593 79.5218 100.656C79.5842 100.719 79.6337 100.793 79.6673 100.875C79.7009 100.957 79.718 101.045 79.7176 101.134V109.883C79.718 109.971 79.7009 110.059 79.6673 110.141C79.6337 110.223 79.5842 110.298 79.5218 110.361C79.4593 110.424 79.385 110.473 79.3033 110.507C79.2215 110.541 79.1338 110.559 79.0452 110.559ZM28.6182 109.206H78.3698V101.807H28.609L28.6182 109.206Z" fill="#0F0F0F"/>
<path d="M103.1 355.374H4.44055C4.26142 355.374 4.08963 355.302 3.96296 355.175C3.8363 355.049 3.76514 354.877 3.76514 354.697V234C3.76514 233.912 3.78263 233.824 3.81661 233.742C3.85059 233.66 3.90039 233.586 3.96315 233.523C4.0259 233.461 4.10039 233.411 4.18231 233.378C4.26424 233.344 4.352 233.327 4.44055 233.327H103.1C103.189 233.327 103.277 233.344 103.359 233.378C103.441 233.411 103.515 233.461 103.578 233.523C103.641 233.586 103.69 233.66 103.724 233.742C103.758 233.824 103.776 233.912 103.776 234V354.697C103.776 354.877 103.705 355.049 103.578 355.175C103.451 355.302 103.279 355.374 103.1 355.374ZM5.11291 354.021H102.428V234.677H5.11291V354.021Z" fill="#0F0F0F"/>
<path d="M56.0658 317.64L19.0035 373.334C19.0035 373.334 1.08505 330.076 56.0658 317.64Z" fill="white"/>
<path d="M19.0032 374.003H18.9482C18.8265 373.991 18.7104 373.946 18.612 373.874C18.5136 373.801 18.4366 373.703 18.3889 373.59C18.3186 373.419 11.3872 356.276 19.5472 340.495C25.4854 329.011 37.7254 321.1 55.9158 316.984C56.0472 316.954 56.1846 316.964 56.3103 317.013C56.4359 317.062 56.544 317.148 56.6204 317.259C56.6968 317.37 56.7381 317.502 56.7389 317.637C56.7397 317.771 56.7 317.904 56.6249 318.016L19.5594 373.7C19.4983 373.792 19.4157 373.868 19.3188 373.921C19.2219 373.974 19.1135 374.002 19.0032 374.003ZM54.5589 318.686C37.6765 322.808 26.3014 330.348 20.7361 341.113C14.1011 353.944 17.8082 367.718 19.1835 371.84L54.5589 318.686Z" fill="#0F0F0F"/>
<path d="M65.4786 295.013C65.4786 295.013 49.0057 254.396 87.8346 218.535C87.8346 218.535 99.0202 273.051 65.4786 295.013Z" fill="white"/>
<path d="M65.4789 295.689C65.4105 295.69 65.3424 295.679 65.2772 295.659C65.1822 295.629 65.0951 295.578 65.0221 295.511C64.9492 295.443 64.8922 295.36 64.8554 295.267C64.8127 295.166 60.6899 284.805 61.4233 270.19C62.1018 256.707 67.1537 236.718 87.3765 218.039C87.4641 217.957 87.5719 217.9 87.6889 217.874C87.8059 217.848 87.9277 217.854 88.0418 217.89C88.1559 217.927 88.2581 217.994 88.3378 218.084C88.4174 218.173 88.4717 218.283 88.495 218.4C88.5225 218.538 91.2945 232.312 89.9039 248.594C88.0702 270.235 79.7391 286.482 65.8487 295.579C65.7391 295.652 65.6103 295.69 65.4789 295.689ZM87.407 219.875C68.2661 238 63.4404 257.23 62.7864 270.257C62.1752 282.298 64.9257 291.341 65.8426 293.976C95.0475 274.039 88.7426 227.92 87.407 219.875Z" fill="#0F0F0F"/>
<path d="M58.2999 283.403C58.2999 283.403 31.3596 258.671 36.6529 215.371C36.6529 215.371 64.6507 242.168 58.2999 283.403Z" fill="white"/>
<path d="M58.2997 284.079C58.131 284.08 57.9682 284.016 57.8444 283.902C57.5724 283.651 30.7085 258.435 35.9835 215.291C35.9991 215.167 36.0487 215.05 36.1267 214.952C36.2048 214.855 36.3082 214.781 36.4257 214.739C36.5431 214.697 36.6698 214.688 36.7919 214.714C36.914 214.739 37.0266 214.798 37.1173 214.884C37.4016 215.153 65.2954 242.4 58.966 283.507C58.947 283.627 58.8957 283.74 58.8177 283.834C58.7397 283.928 58.6378 283.999 58.5229 284.039C58.4515 284.066 58.3759 284.079 58.2997 284.079ZM37.1601 216.87C33.2054 253.897 53.2143 277.154 57.826 281.974C62.6518 246.645 41.9614 222.038 37.1601 216.87Z" fill="#0F0F0F"/>
<path d="M49.8677 302.856C36.555 312.56 16.6836 314.326 9.22044 304.08C1.75723 293.835 9.54439 275.41 22.8571 265.713C36.1699 256.015 49.9686 258.674 57.4287 268.926C64.8889 279.177 63.1774 293.159 49.8677 302.856Z" fill="#0F0F0F"/>
<path d="M13.7529 287.442C13.6712 287.442 13.5903 287.427 13.5145 287.396C13.3473 287.333 13.212 287.206 13.1381 287.043C13.0642 286.88 13.0578 286.695 13.1202 286.527C15.4888 280.251 20.2748 274.045 25.9195 269.929C30.4427 266.63 35.1951 264.889 39.6724 264.889C39.7647 264.883 39.8573 264.896 39.9445 264.927C40.0316 264.958 40.1115 265.007 40.179 265.07C40.2466 265.133 40.3005 265.21 40.3374 265.295C40.3742 265.38 40.3932 265.471 40.3932 265.564C40.3932 265.657 40.3742 265.748 40.3374 265.833C40.3005 265.918 40.2466 265.995 40.179 266.058C40.1115 266.121 40.0316 266.17 39.9445 266.201C39.8573 266.232 39.7647 266.245 39.6724 266.239C35.4885 266.239 31.0081 267.894 26.7203 271.022C21.2772 275 16.6685 280.964 14.3886 287.005C14.3399 287.134 14.2529 287.245 14.1392 287.323C14.0256 287.401 13.8908 287.443 13.7529 287.442Z" fill="white"/>
<path d="M80.0506 313.505C74.2958 328.962 58.6787 341.401 46.8207 336.964C34.9626 332.527 31.3044 312.887 37.0592 297.443C42.814 281.999 55.7967 276.591 67.6669 281.029C79.5371 285.466 85.8084 298.055 80.0506 313.505Z" fill="#0F0F0F"/>
<path d="M34.4862 316.241C34.3185 316.241 34.1569 316.178 34.0331 316.065C33.9093 315.952 33.8322 315.796 33.8169 315.629C33.3888 309.377 34.2791 303.104 36.4299 297.219C39.2325 289.698 43.8443 284.156 49.7702 281.19C55.3416 278.4 61.781 278.13 67.9025 280.41C67.9887 280.439 68.0682 280.484 68.1363 280.544C68.2044 280.604 68.2597 280.678 68.2989 280.76C68.3382 280.841 68.3605 280.93 68.3647 281.021C68.3688 281.112 68.3546 281.203 68.323 281.288C68.2914 281.373 68.2429 281.451 68.1805 281.517C68.1182 281.583 68.0432 281.636 67.96 281.672C67.8768 281.708 67.7872 281.727 67.6965 281.728C67.6057 281.729 67.5158 281.712 67.4319 281.677C61.6649 279.535 55.6075 279.777 50.3723 282.399C44.7581 285.208 40.3755 290.496 37.6922 297.7C35.6097 303.402 34.7476 309.479 35.1616 315.537C35.1744 315.714 35.1175 315.888 35.0032 316.023C34.889 316.158 34.7264 316.243 34.5504 316.259L34.4862 316.241Z" fill="white"/>
<path d="M66.9765 121.74H40.0026C39.8399 121.74 39.6829 121.681 39.56 121.574C39.4372 121.468 39.3567 121.32 39.3333 121.159L38.2025 112.854C38.1841 112.763 38.1845 112.67 38.2036 112.579C38.2227 112.489 38.2601 112.403 38.3135 112.328C38.3669 112.253 38.4352 112.189 38.5142 112.141C38.5931 112.093 38.681 112.062 38.7725 112.049C38.864 112.037 38.957 112.043 39.046 112.068C39.1349 112.093 39.2178 112.136 39.2895 112.194C39.3613 112.252 39.4203 112.324 39.4631 112.406C39.5058 112.488 39.5313 112.578 39.538 112.67L40.5985 120.391H66.3988L67.4868 112.471C67.521 112.303 67.6179 112.154 67.7579 112.054C67.898 111.955 68.0705 111.913 68.2406 111.936C68.4107 111.959 68.5655 112.047 68.6736 112.18C68.7816 112.314 68.8348 112.484 68.8224 112.655L67.6549 121.159C67.6325 121.322 67.5511 121.472 67.426 121.579C67.301 121.686 67.141 121.744 66.9765 121.74Z" fill="#0F0F0F"/>
<path d="M230.042 417.88C229.616 422.176 228.024 426.274 225.439 429.73C222.854 433.186 219.374 435.868 215.376 437.486C211.378 439.105 207.014 439.597 202.757 438.911C198.5 438.224 194.511 436.385 191.222 433.592C187.934 430.8 185.471 427.159 184.099 423.066C182.728 418.972 182.502 414.581 183.444 410.367C184.386 406.154 186.461 402.279 189.444 399.161C192.427 396.043 196.206 393.802 200.37 392.68C168.102 365.619 142.235 344.942 142.235 344.942L56.2612 381.596C56.2612 381.596 67.9359 488.088 62.178 489.618L243.685 559.333C305.114 526.59 316.936 500.579 316.936 500.579C301.34 481.004 265.335 448.282 230.042 417.88Z" fill="white"/>
<path d="M243.685 560C243.603 560 243.521 559.985 243.444 559.954L61.9368 490.23C61.803 490.179 61.6888 490.087 61.6107 489.968C61.5326 489.848 61.4947 489.706 61.5025 489.563C61.5104 489.42 61.5635 489.283 61.6543 489.173C61.745 489.062 61.8686 488.983 62.0071 488.948C62.6795 488.482 64.6752 483.133 60.638 434.251C58.4742 408.032 55.6197 381.923 55.5891 381.66C55.5741 381.516 55.6054 381.371 55.6785 381.246C55.7517 381.121 55.8627 381.023 55.9956 380.965L141.972 344.327C142.084 344.279 142.207 344.263 142.327 344.279C142.447 344.295 142.561 344.343 142.657 344.419C142.914 344.627 168.9 365.396 200.804 392.156C200.899 392.235 200.97 392.338 201.01 392.455C201.05 392.572 201.057 392.697 201.03 392.817C201.003 392.938 200.944 393.049 200.859 393.139C200.774 393.228 200.666 393.293 200.547 393.325C196.501 394.415 192.829 396.592 189.93 399.62C187.03 402.649 185.013 406.414 184.097 410.508C183.181 414.602 183.401 418.869 184.733 422.846C186.064 426.824 188.458 430.362 191.653 433.076C194.848 435.789 198.724 437.577 202.861 438.243C206.997 438.91 211.238 438.432 215.122 436.859C219.007 435.286 222.388 432.68 224.899 429.322C227.41 425.963 228.956 421.981 229.37 417.806C229.382 417.683 229.428 417.565 229.502 417.466C229.576 417.367 229.676 417.291 229.791 417.245C229.905 417.198 230.031 417.185 230.153 417.205C230.275 417.225 230.389 417.279 230.482 417.359C274.935 455.651 304.201 483.516 317.465 500.157C317.542 500.254 317.591 500.371 317.606 500.495C317.621 500.619 317.602 500.744 317.55 500.858C317.064 501.926 304.94 527.438 244.003 559.918C243.905 559.97 243.796 559.999 243.685 560ZM63.3702 489.336L243.655 558.583C300.066 528.46 314.442 503.908 316.153 500.659C302.914 484.168 274.125 456.771 230.58 419.214C229.928 423.498 228.145 427.53 225.417 430.895C222.688 434.259 219.112 436.833 215.058 438.351C211.005 439.87 206.619 440.277 202.356 439.532C198.092 438.787 194.104 436.916 190.803 434.113C187.503 431.309 185.009 427.674 183.58 423.584C182.151 419.493 181.838 415.094 182.673 410.842C183.509 406.59 185.462 402.638 188.333 399.394C191.203 396.15 194.885 393.732 199.001 392.389C169.435 367.602 145.172 348.152 142.156 345.734L56.9858 382.021C57.3953 385.807 60.042 410.456 62.0499 434.961C65.482 476.793 64.5346 486.796 63.3549 489.336H63.3702Z" fill="#0F0F0F"/>
<path d="M43.6639 503.284C43.6639 503.284 28.7283 425.006 56.2615 381.596L243.685 559.324L43.6639 503.284Z" fill="white"/>
<path d="M243.685 560C243.624 560 243.564 559.992 243.505 559.976L43.4836 503.933C43.3626 503.9 43.2533 503.833 43.1684 503.741C43.0835 503.648 43.0265 503.533 43.0038 503.41C42.9641 503.214 39.2539 483.494 38.9635 458.732C38.6977 435.836 41.381 403.803 55.6901 381.238C55.7439 381.154 55.8153 381.084 55.8993 381.031C55.9832 380.978 56.0776 380.944 56.176 380.932C56.2748 380.919 56.3753 380.929 56.47 380.96C56.5647 380.991 56.6512 381.043 56.723 381.112L244.15 558.84C244.247 558.934 244.315 559.054 244.344 559.186C244.372 559.318 244.361 559.455 244.311 559.581C244.261 559.706 244.175 559.814 244.063 559.889C243.952 559.965 243.82 560.006 243.685 560.006V560ZM44.2538 502.749L241.243 557.941L56.393 382.652C30.9227 423.859 43.1566 496.607 44.2538 502.749Z" fill="#0F0F0F"/>
<path d="M231.579 474.528C237.754 474.528 242.759 469.517 242.759 463.334C242.759 457.152 237.754 452.141 231.579 452.141C225.405 452.141 220.4 457.152 220.4 463.334C220.4 469.517 225.405 474.528 231.579 474.528Z" fill="#0F0F0F"/>
<path d="M141.153 412.532C149.348 409.134 153.239 399.727 149.845 391.522C146.451 383.317 137.056 379.42 128.861 382.819C120.667 386.217 116.775 395.624 120.169 403.829C123.564 412.035 132.959 415.931 141.153 412.532Z" fill="#0F0F0F"/>
<path d="M241.702 519.093C244.343 516.449 244.343 512.161 241.702 509.516C239.061 506.872 234.779 506.872 232.137 509.516C229.496 512.161 229.496 516.449 232.137 519.093C234.779 521.738 239.061 521.738 241.702 519.093Z" fill="#0F0F0F"/>
<path d="M97.3564 468.304C102.099 466.337 104.35 460.893 102.386 456.145C100.422 451.397 94.9853 449.142 90.2431 451.109C85.501 453.076 83.2491 458.519 85.2133 463.267C87.1776 468.016 92.6142 470.27 97.3564 468.304Z" fill="#0F0F0F"/>
<path d="M125.609 517.357C133.686 517.357 140.233 510.801 140.233 502.714C140.233 494.628 133.686 488.072 125.609 488.072C117.533 488.072 110.985 494.628 110.985 502.714C110.985 510.801 117.533 517.357 125.609 517.357Z" fill="#0F0F0F"/>
<path d="M378.392 526.755C378.237 526.754 378.087 526.7 377.968 526.601C377.848 526.502 377.766 526.365 377.735 526.213C377.704 526.061 377.726 525.903 377.798 525.765C377.87 525.628 377.987 525.519 378.13 525.458C427.282 504.649 469.669 468.001 497.48 422.237C497.577 422.092 497.726 421.99 497.896 421.952C498.066 421.915 498.244 421.945 498.393 422.035C498.542 422.126 498.65 422.271 498.694 422.44C498.739 422.609 498.717 422.788 498.632 422.941C470.484 469.256 428.519 505.55 378.661 526.7C378.577 526.737 378.485 526.756 378.392 526.755Z" fill="#0F0F0F"/>
<path d="M510.356 400.517C510.25 400.518 510.146 400.496 510.05 400.452C509.891 400.373 509.77 400.234 509.713 400.065C509.656 399.897 509.667 399.713 509.744 399.553C526.269 364.927 534.649 327.765 534.649 289.083C534.653 273.329 533.221 257.609 530.371 242.116C530.349 241.945 530.393 241.771 530.495 241.632C530.597 241.492 530.748 241.397 530.918 241.366C531.088 241.334 531.263 241.369 531.408 241.463C531.553 241.557 531.656 241.703 531.697 241.871C534.564 257.444 536.006 273.247 536.003 289.083C536.003 327.946 527.58 365.31 510.97 400.119C510.916 400.237 510.83 400.338 510.721 400.408C510.612 400.479 510.485 400.516 510.356 400.517Z" fill="#0F0F0F"/>
<path d="M438.144 475.382C438.006 475.381 437.871 475.338 437.758 475.258C437.646 475.178 437.56 475.066 437.513 474.936C437.466 474.806 437.46 474.664 437.496 474.531C437.531 474.397 437.607 474.278 437.713 474.189C491.557 429.089 522.439 362.951 522.439 292.724C522.433 292.632 522.446 292.539 522.477 292.452C522.508 292.364 522.557 292.285 522.62 292.217C522.683 292.149 522.76 292.095 522.844 292.058C522.929 292.021 523.021 292.002 523.113 292.002C523.206 292.002 523.297 292.021 523.382 292.058C523.467 292.095 523.544 292.149 523.607 292.217C523.67 292.285 523.719 292.364 523.75 292.452C523.781 292.539 523.793 292.632 523.787 292.724C523.787 363.345 492.73 429.86 438.578 475.217C438.457 475.322 438.303 475.381 438.144 475.382Z" fill="#0F0F0F"/>
<path d="M521.608 266.517C521.441 266.516 521.28 266.453 521.156 266.34C521.032 266.227 520.955 266.072 520.939 265.905C519.771 255.563 517.923 245.308 515.407 235.209C515.38 235.121 515.37 235.028 515.379 234.937C515.389 234.845 515.417 234.756 515.462 234.675C515.507 234.595 515.568 234.524 515.641 234.468C515.714 234.412 515.798 234.372 515.888 234.349C515.977 234.327 516.07 234.323 516.161 234.338C516.252 234.353 516.339 234.387 516.416 234.436C516.494 234.486 516.561 234.552 516.612 234.628C516.663 234.705 516.699 234.791 516.715 234.882C519.247 245.039 521.106 255.353 522.278 265.755C522.288 265.843 522.281 265.932 522.256 266.018C522.232 266.103 522.191 266.182 522.136 266.252C522.081 266.321 522.013 266.379 521.935 266.422C521.858 266.465 521.773 266.492 521.685 266.502L521.608 266.517Z" fill="#0F0F0F"/>
<path d="M117.431 106.269C117.297 106.268 117.167 106.227 117.056 106.152C116.945 106.076 116.859 105.97 116.809 105.845C116.759 105.721 116.747 105.585 116.775 105.454C116.802 105.323 116.868 105.202 116.963 105.109C148.262 74.608 189.08 55.8069 232.576 51.8568C232.754 51.8406 232.931 51.8958 233.068 52.0102C233.205 52.1247 233.292 52.2891 233.308 52.4673C233.324 52.6454 233.269 52.8227 233.155 52.9602C233.04 53.0976 232.876 53.1839 232.698 53.2002C189.506 57.1217 148.974 75.7911 117.896 106.079C117.771 106.199 117.604 106.267 117.431 106.269Z" fill="#0F0F0F"/>
<path d="M100.549 105.032C100.414 105.033 100.282 104.993 100.17 104.917C100.058 104.842 99.9716 104.735 99.921 104.61C99.8704 104.485 99.8583 104.348 99.8863 104.216C99.9142 104.084 99.981 103.963 100.078 103.87C130.805 74.0549 168.836 53.0901 210.082 43.2243C221.158 40.5764 232.409 38.7284 243.749 37.6946C243.925 37.6838 244.097 37.7418 244.231 37.8564C244.364 37.971 244.448 38.1332 244.463 38.3084C244.479 38.4837 244.426 38.6582 244.316 38.795C244.205 38.9318 244.046 39.0201 243.871 39.0411C232.595 40.0724 221.407 41.9132 210.394 44.5493C169.383 54.3478 131.56 75.1993 101.01 104.84C100.887 104.961 100.722 105.031 100.549 105.032Z" fill="#0F0F0F"/>
<path d="M106.826 90.3283C105.472 90.3325 104.168 89.8185 103.181 88.8914C102.193 87.9643 101.597 86.6943 101.514 85.3413C101.431 83.9884 101.868 82.6549 102.735 81.6139C103.602 80.5728 104.833 79.903 106.177 79.7415C107.521 79.58 108.876 79.939 109.965 80.7451C111.053 81.5512 111.792 82.7434 112.032 84.0776C112.271 85.4117 111.991 86.787 111.251 87.9217C110.511 89.0564 109.365 89.8649 108.049 90.1814C107.648 90.2789 107.238 90.3282 106.826 90.3283ZM105.909 81.1725C105.149 81.3543 104.46 81.7578 103.929 82.3319C103.397 82.9059 103.048 83.6248 102.925 84.3977C102.802 85.1705 102.911 85.9625 103.237 86.6736C103.563 87.3846 104.093 87.9828 104.759 88.3924C105.425 88.802 106.197 89.0046 106.978 88.9747C107.759 88.9448 108.514 88.6837 109.147 88.2243C109.78 87.765 110.262 87.128 110.533 86.3941C110.805 85.6601 110.852 84.8621 110.671 84.101C110.422 83.0834 109.783 82.2052 108.891 81.6569C108 81.1086 106.928 80.9345 105.909 81.1725Z" fill="#0F0F0F"/>
<path d="M122.406 78.3388C122.239 78.3394 122.077 78.2769 121.953 78.1635C121.829 78.0501 121.752 77.8943 121.737 77.7268C121.3 73.3967 121.236 69.0085 121.233 68.9657C121.234 68.8538 121.263 68.744 121.317 68.646C121.371 68.5481 121.448 68.465 121.542 68.4044C121.636 68.3437 121.743 68.3074 121.855 68.2985C121.966 68.2897 122.078 68.3086 122.18 68.3537L130.618 72.0778C130.73 72.1276 130.827 72.2069 130.897 72.3072C130.967 72.4075 131.009 72.525 131.018 72.6473C131.027 72.7696 131.002 72.8919 130.947 73.0013C130.892 73.1106 130.808 73.2029 130.704 73.2682L122.758 78.2439C122.652 78.3084 122.53 78.3413 122.406 78.3388ZM122.608 70.0092C122.648 71.3709 122.749 73.8833 122.975 76.5119L128.91 72.7908L122.608 70.0092Z" fill="#0F0F0F"/>
<path d="M136.144 68.2898H136.11C135.932 68.281 135.765 68.2021 135.644 68.0703C135.524 67.9384 135.461 67.7643 135.468 67.5859C135.468 67.4054 135.71 63.1579 139.084 61.2607C140.153 60.6487 141.645 60.7405 143.219 60.8261C144.845 60.9118 146.523 61.0036 147.763 60.3641C148.738 59.8622 149.45 58.5005 150.208 57.0592C151.125 55.3179 152.06 53.5186 153.708 52.775C154.979 52.1936 156.681 52.7505 158.326 53.286C159.689 53.7328 161.098 54.2041 161.895 53.8766C162.931 53.4727 163.628 52.0406 164.245 50.7829C164.713 49.8312 165.113 49.008 165.673 48.5459C165.812 48.4452 165.984 48.4012 166.154 48.4229C166.324 48.4446 166.48 48.5305 166.589 48.6629C166.699 48.7954 166.753 48.9646 166.743 49.1361C166.732 49.3076 166.656 49.4686 166.531 49.5864C166.198 49.8618 165.822 50.6329 165.456 51.3765C164.731 52.8576 163.909 54.5376 162.399 55.1343C161.146 55.627 159.505 55.0915 157.919 54.5713C156.519 54.1123 155.071 53.6532 154.273 54.0021C153.051 54.5621 152.216 56.1442 151.412 57.6926C150.609 59.241 149.747 60.872 148.393 61.5728C146.828 62.3776 144.878 62.2736 143.158 62.1848C141.786 62.1114 140.487 62.041 139.756 62.4511C137.045 63.9811 136.831 67.6226 136.828 67.6532C136.818 67.8272 136.741 67.9905 136.614 68.1091C136.486 68.2277 136.318 68.2924 136.144 68.2898Z" fill="#0F0F0F"/>
<path d="M360.844 528.931C360.665 528.931 360.493 528.86 360.366 528.733C360.24 528.606 360.169 528.434 360.169 528.254V523.019C360.162 522.926 360.175 522.833 360.206 522.746C360.237 522.659 360.286 522.579 360.349 522.511C360.412 522.444 360.489 522.39 360.573 522.353C360.658 522.316 360.75 522.297 360.842 522.297C360.935 522.297 361.026 522.316 361.111 522.353C361.196 522.39 361.273 522.444 361.336 522.511C361.399 522.579 361.448 522.659 361.479 522.746C361.51 522.833 361.523 522.926 361.516 523.019V528.254C361.517 528.343 361.5 528.431 361.466 528.513C361.432 528.595 361.383 528.67 361.32 528.733C361.258 528.795 361.184 528.845 361.102 528.879C361.02 528.913 360.932 528.931 360.844 528.931Z" fill="#0F0F0F"/>
<path d="M360.844 541.134C360.665 541.134 360.493 541.063 360.366 540.936C360.24 540.809 360.168 540.637 360.168 540.458V535.213C360.18 535.042 360.256 534.881 360.381 534.764C360.506 534.647 360.671 534.582 360.842 534.582C361.014 534.582 361.178 534.647 361.304 534.764C361.429 534.881 361.505 535.042 361.516 535.213V540.452C361.517 540.541 361.501 540.629 361.468 540.712C361.434 540.795 361.385 540.87 361.323 540.934C361.26 540.997 361.186 541.048 361.103 541.082C361.021 541.116 360.933 541.134 360.844 541.134Z" fill="#0F0F0F"/>
<path d="M357.366 532.413H352.134C352.042 532.419 351.949 532.406 351.862 532.375C351.775 532.344 351.695 532.295 351.627 532.232C351.56 532.169 351.506 532.092 351.469 532.007C351.432 531.922 351.413 531.83 351.413 531.738C351.413 531.645 351.432 531.554 351.469 531.469C351.506 531.384 351.56 531.307 351.627 531.244C351.695 531.181 351.775 531.132 351.862 531.101C351.949 531.07 352.042 531.057 352.134 531.063H357.366C357.537 531.075 357.697 531.151 357.814 531.276C357.931 531.401 357.996 531.566 357.996 531.738C357.996 531.909 357.931 532.074 357.814 532.2C357.697 532.325 357.537 532.401 357.366 532.413Z" fill="#0F0F0F"/>
<path d="M369.551 532.413H364.322C364.23 532.419 364.137 532.406 364.05 532.375C363.963 532.344 363.883 532.295 363.815 532.232C363.748 532.169 363.694 532.092 363.657 532.007C363.62 531.922 363.601 531.83 363.601 531.738C363.601 531.645 363.62 531.554 363.657 531.469C363.694 531.384 363.748 531.307 363.815 531.244C363.883 531.181 363.963 531.132 364.05 531.101C364.137 531.07 364.23 531.057 364.322 531.063H369.551C369.643 531.057 369.736 531.07 369.823 531.101C369.91 531.132 369.99 531.181 370.058 531.244C370.125 531.307 370.179 531.384 370.216 531.469C370.253 531.554 370.272 531.645 370.272 531.738C370.272 531.83 370.253 531.922 370.216 532.007C370.179 532.092 370.125 532.169 370.058 532.232C369.99 532.295 369.91 532.344 369.823 532.375C369.736 532.406 369.643 532.419 369.551 532.413Z" fill="#0F0F0F"/>
<path d="M505.881 276.723C505.703 276.722 505.532 276.65 505.406 276.524C505.28 276.397 505.209 276.225 505.209 276.047V270.82C505.203 270.727 505.216 270.635 505.247 270.547C505.278 270.46 505.326 270.38 505.39 270.313C505.453 270.245 505.529 270.191 505.614 270.154C505.699 270.117 505.79 270.098 505.883 270.098C505.975 270.098 506.067 270.117 506.152 270.154C506.237 270.191 506.313 270.245 506.376 270.313C506.44 270.38 506.488 270.46 506.519 270.547C506.55 270.635 506.563 270.727 506.557 270.82V276.056C506.554 276.234 506.482 276.403 506.356 276.528C506.229 276.653 506.059 276.723 505.881 276.723Z" fill="#0F0F0F"/>
<path d="M505.881 288.926C505.703 288.926 505.532 288.854 505.406 288.727C505.28 288.6 505.209 288.429 505.209 288.25V283.011C505.22 282.84 505.297 282.68 505.422 282.563C505.547 282.446 505.712 282.38 505.883 282.38C506.054 282.38 506.219 282.446 506.344 282.563C506.469 282.68 506.545 282.84 506.557 283.011V288.262C506.554 288.44 506.481 288.608 506.355 288.733C506.228 288.857 506.058 288.926 505.881 288.926Z" fill="#0F0F0F"/>
<path d="M502.404 280.205H497.174C497.082 280.211 496.99 280.198 496.902 280.167C496.815 280.136 496.735 280.088 496.668 280.024C496.6 279.961 496.546 279.885 496.509 279.8C496.473 279.715 496.454 279.623 496.454 279.53C496.454 279.438 496.473 279.346 496.509 279.261C496.546 279.176 496.6 279.1 496.668 279.036C496.735 278.973 496.815 278.924 496.902 278.893C496.99 278.862 497.082 278.849 497.174 278.856H502.404C502.496 278.849 502.589 278.862 502.676 278.893C502.763 278.924 502.843 278.973 502.91 279.036C502.978 279.1 503.032 279.176 503.069 279.261C503.105 279.346 503.124 279.438 503.124 279.53C503.124 279.623 503.105 279.715 503.069 279.8C503.032 279.885 502.978 279.961 502.91 280.024C502.843 280.088 502.763 280.136 502.676 280.167C502.589 280.198 502.496 280.211 502.404 280.205Z" fill="#0F0F0F"/>
<path d="M514.592 280.205H509.359C509.189 280.194 509.028 280.117 508.912 279.992C508.795 279.867 508.729 279.702 508.729 279.53C508.729 279.359 508.795 279.194 508.912 279.068C509.028 278.943 509.189 278.867 509.359 278.856H514.592C514.684 278.849 514.777 278.862 514.864 278.893C514.951 278.924 515.031 278.973 515.098 279.036C515.166 279.1 515.22 279.176 515.257 279.261C515.293 279.346 515.312 279.438 515.312 279.53C515.312 279.623 515.293 279.715 515.257 279.8C515.22 279.885 515.166 279.961 515.098 280.024C515.031 280.088 514.951 280.136 514.864 280.167C514.777 280.198 514.684 280.211 514.592 280.205Z" fill="#0F0F0F"/>
<path d="M447.221 192.459C447.176 192.464 447.131 192.464 447.086 192.459C439.838 190.976 432.855 188.404 426.375 184.831H398.432C398.343 184.831 398.256 184.814 398.174 184.78C398.092 184.746 398.017 184.697 397.955 184.634C397.892 184.572 397.842 184.498 397.808 184.416C397.774 184.334 397.757 184.246 397.757 184.157V156.714C391.327 145.487 387.946 132.77 387.949 119.828C387.949 116.569 388.162 113.315 388.585 110.084C388.608 109.907 388.701 109.746 388.843 109.637C388.985 109.529 389.164 109.481 389.341 109.504C389.518 109.528 389.679 109.621 389.788 109.763C389.896 109.905 389.944 110.084 389.92 110.262C389.51 113.434 389.306 116.629 389.309 119.828C389.304 132.594 392.655 145.136 399.025 156.194C399.083 156.298 399.113 156.415 399.113 156.534V183.463H426.558C426.672 183.464 426.785 183.493 426.885 183.548C433.288 187.094 440.193 189.645 447.361 191.113C447.524 191.148 447.667 191.242 447.765 191.376C447.863 191.511 447.908 191.676 447.891 191.842C447.874 192.007 447.797 192.161 447.675 192.273C447.552 192.385 447.393 192.448 447.227 192.45L447.221 192.459Z" fill="white"/>
<path d="M461.976 193.947C456.975 193.948 451.987 193.445 447.086 192.444C446.911 192.409 446.758 192.305 446.659 192.156C446.561 192.006 446.525 191.824 446.561 191.649C446.596 191.473 446.7 191.32 446.849 191.221C446.998 191.122 447.18 191.087 447.355 191.122C452.167 192.105 457.065 192.599 461.976 192.597C502.049 192.597 534.652 159.952 534.652 119.828C534.652 79.7039 502.049 47.0556 461.976 47.0556C425.623 47.0556 394.645 74.2293 389.921 110.262C389.909 110.35 389.88 110.435 389.836 110.511C389.791 110.588 389.733 110.655 389.662 110.709C389.592 110.763 389.512 110.802 389.426 110.825C389.341 110.848 389.252 110.854 389.164 110.842C389.076 110.83 388.992 110.802 388.915 110.757C388.839 110.713 388.772 110.654 388.718 110.583C388.664 110.513 388.625 110.433 388.602 110.347C388.579 110.262 388.573 110.172 388.585 110.085C393.395 73.3847 424.954 45.7061 461.976 45.7061C502.795 45.7061 536 78.9572 536 119.828C536 160.699 502.795 193.947 461.976 193.947Z" fill="#0F0F0F"/>
<path d="M351.587 93.5323C351.417 93.5276 351.255 93.4591 351.134 93.3404C351.012 93.2216 350.939 93.0614 350.931 92.8916C350.922 92.7217 350.977 92.5548 351.086 92.424C351.194 92.2932 351.348 92.2082 351.516 92.1858C354.57 91.8503 357.58 91.1918 360.495 90.2213C360.581 90.1858 360.672 90.1682 360.764 90.1695C360.856 90.1708 360.947 90.191 361.031 90.2288C361.116 90.2666 361.191 90.3213 361.253 90.3894C361.315 90.4575 361.363 90.5377 361.393 90.625C361.423 90.7122 361.435 90.8047 361.428 90.8968C361.421 90.9888 361.396 91.0785 361.353 91.1602C361.31 91.2419 361.251 91.314 361.179 91.372C361.107 91.43 361.024 91.4726 360.936 91.4973C357.929 92.4998 354.825 93.1779 351.675 93.5201L351.587 93.5323Z" fill="white"/>
<path d="M329.151 101.097C329.076 101.097 329.002 101.084 328.931 101.057C328.848 101.028 328.77 100.983 328.704 100.925C328.638 100.866 328.584 100.794 328.546 100.714L321.401 85.9003C314.967 81.4743 309.798 75.4442 306.404 68.4056C295.649 46.1066 305.02 19.2082 327.287 8.42747C349.554 -2.3533 376.421 7.03818 387.188 29.3372C397.955 51.6362 388.573 78.5346 366.305 89.3153C364.564 90.1568 362.77 90.8856 360.936 91.4972C360.85 91.5303 360.759 91.5458 360.668 91.5425C360.576 91.5393 360.486 91.5175 360.404 91.4785C360.321 91.4394 360.247 91.3839 360.186 91.3154C360.125 91.2468 360.079 91.1666 360.05 91.0796C360.022 90.9926 360.011 90.9007 360.018 90.8094C360.026 90.7181 360.052 90.6293 360.095 90.5484C360.139 90.4676 360.198 90.3963 360.269 90.339C360.34 90.2817 360.423 90.2395 360.511 90.215C362.294 89.6183 364.037 88.909 365.731 88.0913C387.329 77.6471 396.415 51.5566 385.984 29.9309C375.553 8.30507 349.493 -0.79264 327.898 9.64845C306.303 20.0895 297.214 46.1831 307.645 67.812C310.96 74.6937 316.026 80.5807 322.333 84.8812C322.431 84.9475 322.51 85.0382 322.562 85.1444L329.491 99.5116L344.127 92.4397C344.229 92.3893 344.343 92.3661 344.457 92.3724C346.814 92.5031 349.178 92.4407 351.526 92.1857C351.614 92.1763 351.702 92.1843 351.787 92.2092C351.872 92.2342 351.951 92.2756 352.02 92.3312C352.089 92.3867 352.146 92.4553 352.188 92.533C352.231 92.6107 352.257 92.696 352.267 92.784C352.276 92.872 352.268 92.961 352.243 93.0459C352.218 93.1308 352.177 93.21 352.122 93.2789C352.066 93.3478 351.998 93.4051 351.92 93.4475C351.842 93.4899 351.757 93.5166 351.669 93.526C349.308 93.7841 346.93 93.8527 344.558 93.7311L329.457 101.029C329.361 101.075 329.257 101.098 329.151 101.097Z" fill="#0F0F0F"/>
<path d="M376.391 21.2434C376.391 21.2434 359.371 23.768 366.66 38.38C370.459 45.9997 383.89 46.6638 392.332 39.5153C401.46 31.7763 398.245 22.4032 394.165 18.4373C390.085 14.4714 378.441 14.9763 376.391 21.2434Z" fill="white"/>
<path d="M378.622 45.1886C377.347 45.192 376.075 45.0659 374.826 44.8122C370.719 43.9676 367.604 41.7918 366.055 38.6919C363.87 34.3099 363.582 30.5123 365.196 27.4063C367.751 22.5101 374.197 20.98 375.893 20.6465C376.843 18.2596 379.144 16.5062 382.427 15.6952C386.971 14.5691 392.103 15.5239 394.621 17.9628C396.014 19.3573 397.11 21.0204 397.842 22.8514C398.574 24.6824 398.928 26.6432 398.881 28.615C398.741 32.8196 396.626 36.7702 392.769 40.0415C388.789 43.3427 383.79 45.1615 378.622 45.1886ZM386.32 16.5765C385.117 16.574 383.917 16.7169 382.748 17.0019C381.018 17.4303 377.971 18.5809 377.03 21.4513C376.991 21.5709 376.92 21.6773 376.825 21.7584C376.729 21.8396 376.613 21.8922 376.489 21.9103C376.412 21.9103 368.958 23.0915 366.403 28.0305C365 30.7326 365.294 34.114 367.274 38.086C368.634 40.8095 371.415 42.7282 375.11 43.4902C380.737 44.6469 387.335 42.8782 391.919 39.0102C395.48 35.9899 397.42 32.3789 397.558 28.566C397.6 26.7826 397.281 25.0091 396.619 23.3528C395.957 21.6965 394.966 20.1918 393.707 18.9298C392.13 17.4425 389.294 16.5765 386.32 16.5765Z" fill="#0F0F0F"/>
<path d="M375.229 20.2338C375.229 20.2338 370.685 18.465 368.628 20.145L373.389 22.7614C373.389 22.7614 368.105 24.977 370.639 28.4012C370.639 28.4012 375.223 28.4961 376.687 23.5234C376.687 23.5234 379.462 28.5726 382.851 27.4495C382.851 27.4495 384.465 22.4952 378.851 21.9107L383.683 19.5514C383.683 19.5514 377.286 15.3713 375.229 20.2338Z" fill="#0F0F0F"/>
<path d="M393.698 23.0059C394.272 24.6064 393.734 26.2619 392.5 26.7056C391.265 27.1493 389.798 26.2129 389.223 24.6125C388.649 23.012 389.187 21.3565 390.421 20.9128C391.656 20.4691 393.123 21.4208 393.698 23.0059Z" fill="#0F0F0F"/>
<path d="M356.473 34.5303C356.473 34.5303 335.138 33.1135 340.15 52.79C342.76 63.0475 358.9 67.3959 371.018 60.936C384.141 53.9437 382.702 41.7124 378.768 35.8156C374.835 29.9188 360.63 27.4584 356.473 34.5303Z" fill="white"/>
<path d="M358.579 64.6388C355.097 64.6663 351.648 63.9702 348.448 62.5947C343.726 60.5077 340.548 57.0865 339.496 52.9584C338.014 47.1258 338.644 42.4714 341.376 39.1695C345.786 33.8572 354.133 33.7807 356.098 33.8388C357.837 31.1857 361.07 29.6648 365.266 29.5547C371.033 29.3894 376.95 31.8681 379.325 35.4515C380.637 37.4928 381.522 39.7795 381.927 42.1733C382.331 44.567 382.247 47.018 381.678 49.3781C380.413 54.4028 376.834 58.6104 371.327 61.545C367.39 63.5932 363.016 64.6548 358.579 64.6388ZM355.609 35.1914C353.207 35.1914 346.116 35.5892 342.421 40.0417C339.976 42.9947 339.426 47.2299 340.805 52.631C341.749 56.3459 344.658 59.4489 348.992 61.3676C355.563 64.2747 364.09 63.8738 370.709 60.3455C375.871 57.5914 379.218 53.6867 380.385 49.0445C380.911 46.8668 380.99 44.605 380.617 42.3959C380.245 40.1868 379.429 38.0763 378.218 36.192C376.104 33.0187 370.547 30.7451 365.306 30.895C363.057 30.9623 358.992 31.5652 357.054 34.8731C356.993 34.9792 356.903 35.0662 356.795 35.1245C356.687 35.1828 356.565 35.2102 356.443 35.2036C356.412 35.1914 356.116 35.1914 355.609 35.1914Z" fill="#0F0F0F"/>
<path d="M355.331 33.0005C355.331 33.0005 350.276 29.6528 347.339 31.1645L352.433 35.5955C352.433 35.5955 345.432 36.8899 347.62 41.7157C347.62 41.7157 353.149 43.0377 356.248 37.3857C356.248 37.3857 358.289 44.2464 362.702 43.7782C362.702 43.7782 365.966 38.1874 359.298 35.9995L365.789 34.4021C365.789 34.4021 359.102 27.6362 355.331 33.0005Z" fill="#0F0F0F"/>
<path d="M379.089 43.7595C379.364 45.8526 378.276 47.7376 376.644 47.9366C375.012 48.1355 373.493 46.6268 373.218 44.5307C372.943 42.4345 374.028 40.5525 375.645 40.3536C377.262 40.1547 378.811 41.6572 379.089 43.7595Z" fill="#0F0F0F"/>
<path d="M339.652 44.1392C339.652 44.1392 324.677 28.8539 315.331 46.8718C310.457 56.2633 319.61 70.2725 332.944 73.5407C347.382 77.0751 354.444 66.9921 355.438 59.9722C356.431 52.9523 347.446 41.6176 339.652 44.1392Z" fill="white"/>
<path d="M338.625 74.9361C336.652 74.9246 334.687 74.676 332.773 74.1956C325.102 72.3167 318.121 66.6341 314.989 59.7213C312.849 55.0118 312.761 50.339 314.723 46.5628C317.501 41.2107 321.061 38.175 325.303 37.5385C332.125 36.5195 338.405 42.0277 339.832 43.3833C342.889 42.5663 346.318 43.5853 349.521 46.2843C353.931 50.0054 356.697 55.8013 356.094 60.0548C355.716 62.4526 354.855 64.7485 353.564 66.8035C352.273 68.8586 350.58 70.63 348.585 72.0107C345.74 73.9569 342.363 74.9361 338.625 74.9361ZM326.984 38.7656C326.487 38.7648 325.991 38.8006 325.499 38.8727C321.709 39.4419 318.485 42.2389 315.918 47.184C314.151 50.5868 314.258 54.8343 316.223 59.1613C319.191 65.713 325.814 71.0957 333.1 72.8828C338.781 74.2751 343.876 73.5897 347.834 70.906C349.673 69.6344 351.235 68.0025 352.427 66.109C353.618 64.2155 354.414 62.0997 354.765 59.8896C355.297 56.1134 352.672 50.7092 348.653 47.3431C346.932 45.8926 343.5 43.6343 339.854 44.8093C339.735 44.8481 339.608 44.8529 339.486 44.8231C339.365 44.7934 339.254 44.7304 339.166 44.641C339.108 44.5492 333.35 38.7656 326.993 38.7656H326.984Z" fill="#0F0F0F"/>
<path d="M339.817 42.2297C339.817 42.2297 338.274 36.3604 335.083 35.522L335.936 42.2297C335.936 42.2297 329.851 38.5239 328.271 43.5884C328.271 43.5884 331.517 48.2612 337.589 46.113C337.589 46.113 334.533 52.5913 338.149 55.1862C338.149 55.1862 344.301 53.191 340.786 47.1106L346.688 50.2503C346.688 50.2503 346.202 40.7517 339.817 42.2297Z" fill="#0F0F0F"/>
<path d="M324.708 48.7571C323.519 50.5044 321.465 51.1746 320.123 50.2565C318.782 49.3385 318.644 47.1781 319.818 45.4308C320.991 43.6834 323.06 43.0133 324.402 43.9313C325.744 44.8493 325.896 47.0128 324.708 48.7571Z" fill="#0F0F0F"/>
<path d="M339.652 44.8153C339.485 44.8146 339.323 44.7517 339.199 44.6386C339.075 44.5256 338.997 44.3705 338.98 44.2033C338.931 43.6953 337.809 31.6936 344.991 24.4105C347.339 22.0297 350.908 19.597 354.686 17.0173C361.99 12.0324 370.272 6.3834 369.42 0.774223C369.406 0.686617 369.41 0.597258 369.432 0.511246C369.453 0.425234 369.491 0.344255 369.543 0.272932C369.596 0.201608 369.662 0.141337 369.738 0.0955601C369.813 0.0497831 369.897 0.0193965 369.985 0.00613513C370.072 -0.00712622 370.162 -0.00300257 370.248 0.0182706C370.334 0.0395438 370.414 0.07755 370.486 0.130119C370.557 0.182688 370.617 0.248791 370.663 0.324653C370.708 0.400515 370.739 0.48465 370.752 0.572255C371.73 7.01991 363.451 12.6689 355.447 18.1342C351.724 20.6741 348.207 23.0732 345.951 25.3591C339.228 32.1924 340.312 43.9493 340.325 44.0686C340.342 44.248 340.287 44.4268 340.172 44.5657C340.058 44.7045 339.893 44.7921 339.713 44.8092L339.652 44.8153Z" fill="#0F0F0F"/>
<path d="M355.74 35.3965C355.629 35.3955 355.519 35.367 355.421 35.3137C355.323 35.2603 355.239 35.1837 355.178 35.0905C354.93 34.7202 349.13 25.9101 353.54 17.8896C353.581 17.8086 353.638 17.7368 353.707 17.6783C353.776 17.6198 353.856 17.5759 353.943 17.5491C354.03 17.5223 354.121 17.5133 354.211 17.5226C354.301 17.5318 354.388 17.5591 354.468 17.6029C354.547 17.6466 354.617 17.7059 354.673 17.7772C354.729 17.8486 354.77 17.9305 354.794 18.018C354.818 18.1056 354.824 18.1971 354.811 18.287C354.799 18.3769 354.769 18.4634 354.722 18.5414C350.704 25.8489 356.251 34.252 356.299 34.3377C356.399 34.4863 356.435 34.6683 356.401 34.8438C356.366 35.0192 356.264 35.174 356.116 35.2741C356.006 35.351 355.875 35.3936 355.74 35.3965Z" fill="#0F0F0F"/>
<path d="M376.161 22.8471C376.032 22.8467 375.906 22.8089 375.797 22.7384C375.689 22.6678 375.603 22.5675 375.55 22.4493C375.493 22.3028 375.455 22.1496 375.437 21.9934C374.245 15.3346 369.957 11.895 363.374 12.2714C363.199 12.276 363.029 12.2122 362.9 12.0935C362.771 11.9748 362.693 11.8104 362.682 11.6352C362.672 11.4599 362.73 11.2875 362.844 11.1544C362.959 11.0213 363.12 10.9379 363.295 10.9219C370.651 10.4904 375.437 14.337 376.767 21.7547C376.781 21.8465 376.793 21.9138 376.803 21.9566C376.856 22.1151 376.848 22.2874 376.782 22.4405C376.715 22.5936 376.594 22.7167 376.443 22.7859C376.355 22.827 376.259 22.8479 376.161 22.8471Z" fill="#0F0F0F"/>
</g>
<defs>
<clipPath id="clip0_61_1905">
<rect width="536" height="560" fill="white"/>
</clipPath>
</defs>
</svg>
