<svg width="592" height="588" viewBox="0 0 592 588" fill="none" xmlns="http://www.w3.org/2000/svg">
<g clip-path="url(#clip0_41_1662)">
<path d="M583.519 234.898H578.259C573.575 234.898 569.777 238.693 569.777 243.374V307.373C569.777 312.054 573.575 315.849 578.259 315.849H583.519C588.203 315.849 592 312.054 592 307.373V243.374C592 238.693 588.203 234.898 583.519 234.898Z" fill="white"/>
<path d="M516.528 79.9134C507.304 71.3279 501.645 59.0024 501.645 46.0504V23.9763C501.645 10.5294 492.035 0 479.245 0H350.495C337.705 0 326.98 10.5294 326.98 23.9763V46.0504C326.98 59.0024 321.88 71.3279 312.656 79.9134L299.271 92.4445L414.643 96.2231L529.99 92.4445L516.528 79.9134Z" fill="white"/>
<path d="M516.528 488.529C507.303 497.111 501.645 509.439 501.645 522.392V544.466C501.645 557.913 492.035 568.442 479.245 568.442H350.495C337.705 568.442 326.973 557.913 326.973 544.466V522.392C326.973 509.439 321.873 497.111 312.649 488.529L299.265 475.997L414.637 472.219L529.983 475.997L516.528 488.529Z" fill="white"/>
<path d="M502.25 83.7402H326.202C285.74 83.7402 252.938 116.521 252.938 156.957V411.696C252.938 452.133 285.74 484.914 326.202 484.914H502.25C542.712 484.914 575.513 452.133 575.513 411.696V156.957C575.513 116.521 542.712 83.7402 502.25 83.7402Z" fill="#0F0F0F"/>
<path d="M502.249 485.63H326.201C285.407 485.63 252.221 452.461 252.221 411.696V156.957C252.221 116.189 285.407 83.0237 326.201 83.0237H502.249C543.04 83.0237 576.229 116.189 576.229 156.957V411.696C576.229 452.461 543.036 485.63 502.249 485.63ZM326.201 84.4567C286.198 84.4567 253.655 116.98 253.655 156.957V411.696C253.655 451.674 286.198 484.197 326.201 484.197H502.249C542.252 484.197 574.795 451.674 574.795 411.696V156.957C574.795 116.98 542.252 84.4567 502.249 84.4567H326.201Z" fill="white"/>
<path d="M448.991 467.004H333.275C315.27 467.004 298.465 460.028 285.929 447.365C273.393 434.702 266.558 417.891 266.558 399.895V228.089C266.558 227.899 266.633 227.717 266.768 227.583C266.902 227.448 267.084 227.373 267.275 227.373C267.465 227.373 267.647 227.448 267.782 227.583C267.916 227.717 267.992 227.899 267.992 228.089V399.895C267.992 436.723 296.667 465.571 333.259 465.571H448.975C449.165 465.571 449.347 465.646 449.482 465.781C449.616 465.915 449.692 466.097 449.692 466.287C449.692 466.477 449.616 466.659 449.482 466.794C449.347 466.928 449.165 467.004 448.975 467.004H448.991Z" fill="white"/>
<path d="M561.176 353.459C560.986 353.459 560.803 353.383 560.669 353.249C560.535 353.115 560.459 352.932 560.459 352.742V168.833C560.459 132.58 530.558 103.083 493.79 103.083H377.309C377.119 103.083 376.936 103.008 376.802 102.873C376.667 102.739 376.592 102.557 376.592 102.367C376.592 102.177 376.667 101.994 376.802 101.86C376.936 101.726 377.119 101.65 377.309 101.65H493.79C531.343 101.65 561.893 131.789 561.893 168.833V352.742C561.893 352.932 561.817 353.115 561.683 353.249C561.549 353.383 561.366 353.459 561.176 353.459Z" fill="white"/>
<path d="M507.271 124.216H311.142C307.303 124.216 304.19 127.326 304.19 131.163V135.179C304.19 139.016 307.303 142.126 311.142 142.126H507.271C511.11 142.126 514.222 139.016 514.222 135.179V131.163C514.222 127.326 511.11 124.216 507.271 124.216Z" fill="#0F0F0F"/>
<path d="M507.272 142.842H311.149C309.116 142.84 307.167 142.031 305.729 140.595C304.292 139.158 303.483 137.211 303.48 135.179V131.163C303.483 129.131 304.292 127.183 305.729 125.747C307.167 124.31 309.116 123.502 311.149 123.499H507.272C509.305 123.502 511.254 124.31 512.691 125.747C514.129 127.183 514.937 129.131 514.94 131.163V135.179C514.937 137.211 514.129 139.158 512.691 140.595C511.254 142.031 509.305 142.84 507.272 142.842ZM311.149 124.932C309.496 124.934 307.911 125.591 306.742 126.759C305.573 127.927 304.916 129.511 304.914 131.163V135.179C304.916 136.831 305.573 138.414 306.742 139.583C307.911 140.751 309.496 141.407 311.149 141.409H507.272C508.925 141.407 510.51 140.751 511.678 139.583C512.847 138.414 513.504 136.831 513.506 135.179V131.163C513.504 129.511 512.847 127.927 511.678 126.759C510.51 125.591 508.925 124.934 507.272 124.932H311.149Z" fill="white"/>
<path d="M393.729 165.048H295.657C288.494 165.048 282.688 170.851 282.688 178.01V271.004C282.688 278.162 288.494 283.965 295.657 283.965H393.729C400.892 283.965 406.699 278.162 406.699 271.004V178.01C406.699 170.851 400.892 165.048 393.729 165.048Z" fill="white"/>
<path d="M313.682 201.27C315.586 199.203 317.902 197.558 320.482 196.442C323.061 195.325 325.847 194.762 328.658 194.789C332.924 194.779 337.067 196.219 340.406 198.873C342.216 200.296 343.813 201.971 345.148 203.847C346.49 201.976 348.093 200.307 349.91 198.892C353.261 196.255 357.409 194.833 361.674 194.859C364.486 194.846 367.269 195.422 369.844 196.55C372.419 197.678 374.729 199.333 376.624 201.408C380.444 205.569 382.54 211.246 382.527 217.393C382.527 223.723 380.145 229.51 375.071 235.608C370.532 241.07 364.011 246.597 356.462 253.004C353.89 255.192 350.961 257.673 347.926 260.314C347.125 261.015 346.097 261.401 345.032 261.401C343.968 261.401 342.94 261.015 342.139 260.314C339.117 257.66 336.2 255.173 333.632 252.965C326.108 246.539 319.61 240.964 315.093 235.486C310.042 229.381 307.698 223.569 307.698 217.242C307.727 211.079 309.846 205.411 313.682 201.27Z" fill="#FFC4F7"/>
<path d="M345.046 262.11C343.806 262.104 342.612 261.647 341.686 260.825C338.667 258.17 335.754 255.684 333.185 253.479C325.636 247.018 319.115 241.437 314.56 235.913C309.399 229.657 307.001 223.703 307.014 217.21C307.014 210.883 309.213 205.042 313.171 200.768C315.135 198.639 317.524 196.943 320.182 195.79C322.841 194.637 325.712 194.052 328.61 194.072H328.661C333.086 194.062 337.383 195.556 340.847 198.307C342.458 199.57 343.904 201.029 345.152 202.651C346.408 201.032 347.864 199.579 349.486 198.326C352.948 195.602 357.232 194.129 361.639 194.149H361.687C364.598 194.137 367.48 194.733 370.146 195.901C372.812 197.069 375.204 198.781 377.168 200.929C381.107 205.225 383.277 211.073 383.257 217.402C383.257 223.906 380.824 229.837 375.634 236.071C371.056 241.575 364.516 247.124 356.942 253.553L356.832 253.646C354.286 255.809 351.399 258.257 348.412 260.86C347.478 261.67 346.282 262.114 345.046 262.11ZM328.61 195.505C325.906 195.486 323.227 196.032 320.747 197.108C318.266 198.184 316.038 199.767 314.206 201.755C310.493 205.768 308.441 211.262 308.419 217.229C308.419 223.382 310.698 229.034 315.637 235.02C320.115 240.447 326.591 245.99 334.088 252.406C336.66 254.61 339.577 257.107 342.605 259.764C343.272 260.353 344.131 260.677 345.02 260.677C345.908 260.678 346.766 260.357 347.434 259.774C350.431 257.165 353.318 254.713 355.868 252.548L355.974 252.458C363.5 246.07 369.998 240.569 374.496 235.149C379.46 229.185 381.775 223.543 381.788 217.393C381.788 211.426 379.772 205.919 376.075 201.893C374.246 199.891 372.017 198.294 369.532 197.206C367.047 196.118 364.361 195.563 361.649 195.576H361.607C357.515 195.56 353.538 196.929 350.325 199.46C348.562 200.838 347.006 202.461 345.705 204.28C345.639 204.372 345.552 204.447 345.451 204.499C345.351 204.551 345.239 204.578 345.126 204.579C345.013 204.578 344.902 204.55 344.801 204.498C344.701 204.446 344.614 204.371 344.547 204.28C343.252 202.462 341.702 200.839 339.946 199.46C336.733 196.905 332.745 195.518 328.639 195.528L328.61 195.505Z" fill="white"/>
<path d="M343.377 239.679C343.23 239.679 343.088 239.634 342.968 239.551C342.848 239.468 342.756 239.35 342.705 239.213L333.882 215.568L324.864 228.616C324.802 228.709 324.721 228.786 324.625 228.841C324.529 228.897 324.421 228.93 324.311 228.938L308.975 229.738C308.784 229.747 308.598 229.681 308.457 229.554C308.315 229.426 308.23 229.248 308.221 229.058C308.211 228.868 308.277 228.682 308.405 228.541C308.532 228.399 308.711 228.314 308.901 228.305L323.883 227.517L333.484 213.63C333.558 213.523 333.661 213.438 333.78 213.385C333.9 213.331 334.032 213.312 334.161 213.328C334.291 213.344 334.414 213.396 334.517 213.477C334.62 213.558 334.698 213.665 334.744 213.788L343.348 236.845L351.575 212.923C351.624 212.782 351.716 212.66 351.837 212.574C351.959 212.488 352.104 212.441 352.254 212.441C352.405 212.443 352.551 212.493 352.672 212.583C352.794 212.673 352.883 212.799 352.929 212.943L357.613 227.771L384.267 228.035C384.457 228.037 384.638 228.115 384.771 228.25C384.904 228.385 384.978 228.568 384.977 228.758C384.979 228.852 384.961 228.946 384.925 229.034C384.889 229.122 384.835 229.201 384.768 229.267C384.7 229.334 384.62 229.386 384.531 229.42C384.443 229.455 384.349 229.471 384.254 229.468L357.079 229.201C356.928 229.199 356.782 229.15 356.661 229.06C356.539 228.97 356.45 228.844 356.404 228.7L352.225 215.446L344.055 239.203C344.006 239.343 343.916 239.465 343.796 239.551C343.675 239.637 343.531 239.684 343.383 239.685L343.377 239.679Z" fill="white"/>
<path d="M533.51 165.048H435.439C428.276 165.048 422.469 170.851 422.469 178.01V271.004C422.469 278.162 428.276 283.965 435.439 283.965H533.51C540.673 283.965 546.48 278.162 546.48 271.004V178.01C546.48 170.851 540.673 165.048 533.51 165.048Z" fill="#0F0F0F"/>
<path d="M533.51 284.682H435.449C431.82 284.678 428.341 283.235 425.775 280.671C423.209 278.107 421.766 274.63 421.762 271.004V178.007C421.765 174.38 423.208 170.902 425.774 168.337C428.34 165.772 431.819 164.329 435.449 164.325H533.51C537.139 164.329 540.619 165.772 543.185 168.337C545.751 170.902 547.194 174.38 547.197 178.007V271.007C547.192 274.633 545.748 278.109 543.182 280.672C540.617 283.236 537.138 284.678 533.51 284.682ZM435.449 165.761C432.199 165.763 429.082 167.054 426.783 169.349C424.484 171.645 423.19 174.759 423.186 178.007V271.007C423.19 274.253 424.483 277.365 426.779 279.661C429.076 281.956 432.191 283.248 435.439 283.252H533.501C536.749 283.248 539.863 281.956 542.16 279.661C544.457 277.365 545.749 274.253 545.753 271.007V178.007C545.75 174.76 544.458 171.647 542.161 169.351C539.864 167.054 536.749 165.762 533.501 165.758L435.449 165.761Z" fill="#B6C3FF"/>
<path d="M512.12 234.692C512.12 242.021 509.207 249.049 504.021 254.232C498.836 259.414 491.803 262.325 484.47 262.325C477.136 262.325 470.103 259.414 464.918 254.232C459.732 249.049 456.819 242.021 456.819 234.692C456.819 220.841 479.583 187.292 483.778 181.226C483.864 181.104 483.976 181.003 484.107 180.932C484.238 180.861 484.383 180.821 484.532 180.815C484.681 180.81 484.829 180.839 484.965 180.9C485.101 180.961 485.221 181.053 485.315 181.168C490.122 187.074 512.12 220.796 512.12 234.692Z" fill="#0F0F0F"/>
<path d="M484.473 263.038C476.953 263.03 469.744 260.041 464.427 254.727C459.11 249.412 456.12 242.207 456.112 234.692C456.112 220.686 478.676 187.36 483.2 180.821C483.347 180.606 483.542 180.428 483.771 180.302C483.999 180.175 484.254 180.105 484.515 180.095C484.775 180.087 485.034 180.138 485.271 180.247C485.508 180.355 485.717 180.516 485.881 180.718C491.025 187.055 512.837 220.837 512.837 234.699C512.828 242.213 509.836 249.417 504.519 254.73C499.201 260.043 491.992 263.031 484.473 263.038ZM484.579 181.528C484.541 181.53 484.504 181.541 484.47 181.559C484.437 181.577 484.408 181.603 484.386 181.634C479.908 188.112 457.556 221.114 457.556 234.692C457.517 238.251 458.185 241.782 459.521 245.082C460.856 248.381 462.834 251.382 465.338 253.913C467.843 256.443 470.824 258.452 474.111 259.823C477.397 261.194 480.923 261.9 484.484 261.9C488.046 261.9 491.571 261.194 494.858 259.823C498.144 258.452 501.126 256.443 503.63 253.913C506.135 251.382 508.112 248.381 509.448 245.082C510.784 241.782 511.452 238.251 511.413 234.692C511.413 221.178 489.871 187.884 484.778 181.621C484.754 181.593 484.723 181.571 484.689 181.557C484.654 181.543 484.616 181.538 484.579 181.541V181.528Z" fill="#B6C3FF"/>
<path d="M463.842 230.862C463.778 230.861 463.714 230.853 463.652 230.836C463.561 230.812 463.476 230.77 463.401 230.712C463.327 230.654 463.264 230.583 463.218 230.501C463.171 230.419 463.141 230.329 463.129 230.235C463.118 230.142 463.125 230.047 463.15 229.956C464.311 225.695 466.851 220.021 470.693 213.1C470.785 212.936 470.937 212.814 471.118 212.762C471.298 212.71 471.492 212.731 471.658 212.821C471.821 212.913 471.941 213.066 471.993 213.246C472.046 213.426 472.025 213.619 471.937 213.784C468.15 220.606 465.655 226.171 464.523 230.322C464.484 230.475 464.397 230.61 464.274 230.707C464.15 230.805 463.999 230.859 463.842 230.862Z" fill="#B6C3FF"/>
<path d="M484.801 257.049C479.647 257.038 474.653 255.256 470.658 252.002C466.663 248.748 463.909 244.22 462.858 239.178C462.819 238.992 462.856 238.798 462.961 238.639C463.066 238.48 463.229 238.369 463.415 238.331C463.602 238.293 463.796 238.33 463.954 238.435C464.113 238.539 464.224 238.702 464.263 238.889C465.246 243.608 467.824 247.847 471.563 250.892C475.303 253.938 479.977 255.606 484.801 255.616C488.106 255.626 491.366 254.846 494.308 253.341C494.479 253.256 494.676 253.242 494.857 253.302C494.946 253.332 495.029 253.379 495.101 253.441C495.172 253.503 495.23 253.578 495.273 253.663C495.315 253.747 495.34 253.839 495.347 253.933C495.353 254.027 495.341 254.122 495.312 254.211C495.282 254.301 495.234 254.383 495.173 254.455C495.111 254.526 495.035 254.584 494.951 254.626C491.809 256.23 488.329 257.061 484.801 257.049Z" fill="#B6C3FF"/>
<path d="M393.729 301.162H295.657C288.494 301.162 282.688 306.965 282.688 314.124V407.118C282.688 414.276 288.494 420.079 295.657 420.079H393.729C400.892 420.079 406.699 414.276 406.699 407.118V314.124C406.699 306.965 400.892 301.162 393.729 301.162Z" fill="#0F0F0F"/>
<path d="M393.729 420.796H295.667C292.036 420.796 288.554 419.355 285.985 416.79C283.416 414.226 281.971 410.747 281.968 407.118V314.124C281.972 310.497 283.415 307.021 285.981 304.457C288.547 301.892 292.026 300.45 295.655 300.446H393.716C397.345 300.45 400.824 301.892 403.39 304.457C405.955 307.021 407.399 310.497 407.403 314.124V407.118C407.399 410.742 405.957 414.217 403.394 416.78C400.831 419.344 397.356 420.788 393.729 420.796ZM295.667 301.879C292.419 301.882 289.304 303.173 287.007 305.469C284.71 307.765 283.418 310.877 283.415 314.124V407.118C283.418 410.364 284.71 413.477 287.007 415.773C289.304 418.068 292.419 419.36 295.667 419.363H393.729C396.978 419.36 400.092 418.068 402.389 415.773C404.687 413.477 405.979 410.364 405.982 407.118V314.124C405.979 310.877 404.687 307.765 402.389 305.469C400.092 303.173 396.978 301.882 393.729 301.879H295.667Z" fill="#FFF3B7"/>
<path d="M373.365 350.949H316.736V363.127H373.365V350.949Z" fill="#0F0F0F"/>
<path d="M373.368 363.843H316.737C316.546 363.843 316.364 363.768 316.23 363.634C316.095 363.499 316.02 363.317 316.02 363.127V350.949C316.02 350.759 316.095 350.577 316.23 350.443C316.364 350.308 316.546 350.233 316.737 350.233H373.368C373.462 350.233 373.555 350.251 373.642 350.287C373.729 350.323 373.807 350.376 373.874 350.443C373.94 350.509 373.993 350.588 374.028 350.675C374.064 350.762 374.082 350.855 374.082 350.949V363.127C374.082 363.221 374.064 363.314 374.028 363.401C373.993 363.488 373.94 363.567 373.874 363.633C373.807 363.7 373.729 363.753 373.642 363.789C373.555 363.825 373.462 363.843 373.368 363.843ZM317.453 362.41H372.651V351.666H317.453V362.41Z" fill="#FFF3B7"/>
<path d="M307.586 345.937H306.531C303.458 345.937 300.966 348.427 300.966 351.499V363.3C300.966 366.372 303.458 368.862 306.531 368.862H307.586C310.659 368.862 313.151 366.372 313.151 363.3V351.499C313.151 348.427 310.659 345.937 307.586 345.937Z" fill="#0F0F0F"/>
<path d="M307.586 369.576H306.531C304.866 369.573 303.27 368.911 302.092 367.734C300.914 366.557 300.252 364.962 300.249 363.297V351.495C300.252 349.831 300.914 348.236 302.092 347.06C303.27 345.884 304.866 345.222 306.531 345.22H307.586C309.251 345.221 310.848 345.882 312.026 347.059C313.204 348.235 313.867 349.831 313.868 351.495V363.297C313.867 364.962 313.204 366.558 312.026 367.735C310.849 368.912 309.252 369.574 307.586 369.576ZM306.531 346.65C305.246 346.652 304.014 347.163 303.105 348.071C302.196 348.979 301.685 350.211 301.683 351.495V363.297C301.685 364.582 302.196 365.813 303.105 366.721C304.014 367.63 305.246 368.141 306.531 368.143H307.586C308.872 368.142 310.104 367.631 311.013 366.722C311.922 365.814 312.434 364.582 312.434 363.297V351.495C312.433 350.211 311.921 348.979 311.012 348.071C310.104 347.163 308.871 346.652 307.586 346.65H306.531Z" fill="#FFF3B7"/>
<path d="M382.136 345.937H381.081C378.007 345.937 375.516 348.427 375.516 351.499V363.3C375.516 366.372 378.007 368.862 381.081 368.862H382.136C385.209 368.862 387.701 366.372 387.701 363.3V351.499C387.701 348.427 385.209 345.937 382.136 345.937Z" fill="#0F0F0F"/>
<path d="M382.138 369.576H381.08C379.415 369.573 377.818 368.911 376.641 367.734C375.463 366.557 374.8 364.962 374.798 363.297V351.495C374.8 349.831 375.463 348.236 376.641 347.06C377.819 345.884 379.415 345.222 381.08 345.22H382.138C383.803 345.222 385.4 345.884 386.577 347.06C387.755 348.236 388.418 349.831 388.42 351.495V363.297C388.418 364.962 387.755 366.557 386.577 367.734C385.4 368.911 383.803 369.573 382.138 369.576ZM381.08 346.65C379.795 346.652 378.563 347.163 377.654 348.071C376.745 348.979 376.233 350.211 376.232 351.495V363.297C376.233 364.582 376.745 365.813 377.654 366.721C378.563 367.63 379.795 368.141 381.08 368.143H382.138C383.423 368.141 384.656 367.63 385.564 366.721C386.473 365.813 386.985 364.582 386.986 363.297V351.495C386.985 350.211 386.473 348.979 385.564 348.071C384.656 347.163 383.423 346.652 382.138 346.65H381.08Z" fill="#FFF3B7"/>
<path d="M321.131 333.756H311.627C308.511 333.756 305.984 336.281 305.984 339.395V375.398C305.984 378.512 308.511 381.037 311.627 381.037H321.131C324.247 381.037 326.773 378.512 326.773 375.398V339.395C326.773 336.281 324.247 333.756 321.131 333.756Z" fill="#0F0F0F"/>
<path d="M321.128 381.753H311.627C309.941 381.752 308.324 381.082 307.132 379.89C305.94 378.698 305.269 377.083 305.268 375.398V339.411C305.269 337.726 305.94 336.11 307.132 334.919C308.324 333.727 309.941 333.057 311.627 333.055H321.128C322.814 333.057 324.431 333.727 325.623 334.919C326.815 336.11 327.486 337.726 327.487 339.411V375.398C327.486 377.083 326.815 378.698 325.623 379.89C324.431 381.082 322.814 381.752 321.128 381.753ZM311.627 334.485C310.321 334.487 309.069 335.006 308.146 335.929C307.223 336.852 306.703 338.103 306.702 339.408V375.395C306.702 376.7 307.222 377.951 308.145 378.874C309.069 379.797 310.321 380.316 311.627 380.317H321.128C322.434 380.316 323.686 379.797 324.61 378.874C325.533 377.951 326.053 376.7 326.053 375.395V339.408C326.052 338.103 325.532 336.852 324.609 335.929C323.686 335.006 322.434 334.487 321.128 334.485H311.627Z" fill="#FFF3B7"/>
<path d="M377.042 333.756H367.538C364.422 333.756 361.896 336.281 361.896 339.395V375.398C361.896 378.512 364.422 381.037 367.538 381.037H377.042C380.158 381.037 382.685 378.512 382.685 375.398V339.395C382.685 336.281 380.158 333.756 377.042 333.756Z" fill="#0F0F0F"/>
<path d="M377.042 381.753H367.538C365.852 381.752 364.236 381.082 363.043 379.89C361.851 378.698 361.18 377.083 361.179 375.398V339.411C361.181 337.726 361.852 336.111 363.044 334.92C364.236 333.728 365.852 333.058 367.538 333.055H377.042C378.728 333.057 380.345 333.727 381.537 334.919C382.729 336.11 383.4 337.726 383.402 339.411V375.398C383.4 377.083 382.729 378.698 381.537 379.89C380.345 381.082 378.728 381.752 377.042 381.753ZM367.538 334.485C366.232 334.487 364.981 335.006 364.057 335.929C363.134 336.852 362.614 338.103 362.613 339.408V375.395C362.614 376.7 363.133 377.951 364.056 378.874C364.98 379.797 366.232 380.316 367.538 380.317H377.042C378.348 380.316 379.601 379.797 380.524 378.874C381.448 377.951 381.967 376.7 381.968 375.395V339.408C381.966 338.103 381.447 336.852 380.523 335.929C379.6 335.006 378.348 334.487 377.042 334.485H367.538Z" fill="#FFF3B7"/>
<path d="M533.51 301.162H435.439C428.276 301.162 422.469 306.965 422.469 314.124V407.118C422.469 414.276 428.276 420.079 435.439 420.079H533.51C540.673 420.079 546.48 414.276 546.48 407.118V314.124C546.48 306.965 540.673 301.162 533.51 301.162Z" fill="white"/>
<path d="M464.137 354.532H448.183C446.848 354.532 445.766 355.614 445.766 356.948V380.77C445.766 382.105 446.848 383.186 448.183 383.186H464.137C465.472 383.186 466.555 382.105 466.555 380.77V356.948C466.555 355.614 465.472 354.532 464.137 354.532Z" fill="#45FFBC"/>
<path d="M464.134 383.903H448.19C447.36 383.901 446.563 383.571 445.976 382.984C445.388 382.396 445.057 381.601 445.056 380.77V356.948C445.057 356.118 445.388 355.322 445.976 354.735C446.563 354.148 447.36 353.817 448.19 353.815H464.141C464.972 353.816 465.769 354.147 466.358 354.734C466.946 355.321 467.277 356.117 467.279 356.948V380.77C467.277 381.602 466.945 382.4 466.355 382.987C465.766 383.574 464.967 383.904 464.134 383.903ZM448.19 355.248C447.739 355.248 447.307 355.428 446.988 355.746C446.669 356.065 446.49 356.497 446.49 356.948V380.77C446.49 381.221 446.669 381.653 446.988 381.972C447.307 382.291 447.739 382.47 448.19 382.47H464.141C464.592 382.47 465.025 382.291 465.345 381.972C465.664 381.654 465.844 381.221 465.845 380.77V356.948C465.844 356.497 465.664 356.065 465.345 355.746C465.025 355.427 464.592 355.248 464.141 355.248H448.19Z" fill="white"/>
<path d="M492.81 343.787H476.856C475.521 343.787 474.438 344.869 474.438 346.203V380.773C474.438 382.108 475.521 383.19 476.856 383.19H492.81C494.145 383.19 495.228 382.108 495.228 380.773V346.203C495.228 344.869 494.145 343.787 492.81 343.787Z" fill="#45FFBC"/>
<path d="M492.807 383.903H476.86C476.028 383.902 475.231 383.572 474.643 382.985C474.055 382.398 473.723 381.601 473.722 380.77V346.204C473.723 345.372 474.054 344.576 474.642 343.988C475.23 343.401 476.028 343.071 476.86 343.071H492.807C493.638 343.071 494.436 343.401 495.024 343.988C495.613 344.576 495.944 345.372 495.945 346.204V380.77C495.943 381.601 495.612 382.398 495.024 382.985C494.435 383.572 493.638 383.902 492.807 383.903ZM476.86 344.504C476.408 344.504 475.975 344.683 475.656 345.001C475.336 345.32 475.156 345.752 475.156 346.204V380.77C475.156 381.221 475.336 381.654 475.656 381.972C475.975 382.291 476.408 382.47 476.86 382.47H492.807C493.258 382.47 493.691 382.291 494.011 381.972C494.33 381.654 494.51 381.221 494.511 380.77V346.204C494.51 345.752 494.33 345.32 494.011 345.001C493.691 344.683 493.258 344.504 492.807 344.504H476.86Z" fill="white"/>
<path d="M521.483 331.606H505.529C504.194 331.606 503.111 332.688 503.111 334.023V380.77C503.111 382.105 504.194 383.187 505.529 383.187H521.483C522.818 383.187 523.9 382.105 523.9 380.77V334.023C523.9 332.688 522.818 331.606 521.483 331.606Z" fill="#45FFBC"/>
<path d="M521.495 383.903H505.545C504.714 383.902 503.917 383.572 503.328 382.985C502.74 382.397 502.409 381.601 502.407 380.77V334.026C502.408 333.194 502.739 332.397 503.327 331.809C503.916 331.221 504.713 330.89 505.545 330.89H521.495C522.327 330.891 523.124 331.222 523.711 331.81C524.299 332.398 524.629 333.195 524.63 334.026V380.77C524.629 381.6 524.298 382.396 523.71 382.983C523.123 383.571 522.326 383.901 521.495 383.903ZM505.545 332.323C505.094 332.324 504.661 332.503 504.341 332.822C504.022 333.142 503.842 333.574 503.841 334.026V380.77C503.842 381.221 504.022 381.653 504.341 381.972C504.661 382.291 505.094 382.47 505.545 382.47H521.495C521.946 382.469 522.378 382.29 522.697 381.971C523.016 381.652 523.195 381.221 523.196 380.77V334.026C523.195 333.575 523.016 333.143 522.697 332.824C522.379 332.504 521.947 332.324 521.495 332.323H505.545Z" fill="white"/>
<path d="M170.724 66.3893C170.566 66.39 170.411 66.3382 170.285 66.2419C170.159 66.1456 170.069 66.0102 170.028 65.8571C169.987 65.7039 169.998 65.5415 170.06 65.3954C170.121 65.2492 170.229 65.1276 170.367 65.0494C203.08 46.3094 239.839 35.7449 277.515 34.2549C277.609 34.2493 277.704 34.2628 277.793 34.2946C277.882 34.3265 277.964 34.376 278.033 34.4403C278.103 34.5045 278.158 34.5821 278.197 34.6685C278.235 34.7548 278.256 34.848 278.258 34.9425C278.262 35.0366 278.247 35.1306 278.214 35.219C278.182 35.3074 278.132 35.3886 278.068 35.4578C278.004 35.5271 277.927 35.583 277.842 35.6225C277.756 35.662 277.664 35.6842 277.57 35.688C240.124 37.1672 203.59 47.6668 171.078 66.2929C170.97 66.3551 170.848 66.3883 170.724 66.3893Z" fill="white"/>
<path d="M162.846 55.195C162.69 55.1945 162.539 55.1432 162.415 55.0488C162.291 54.9545 162.201 54.8223 162.159 54.6722C162.116 54.5222 162.124 54.3625 162.181 54.2173C162.238 54.0722 162.341 53.9496 162.473 53.868C203.399 28.933 250.738 16.526 298.641 18.1799C298.831 18.1874 299.01 18.2698 299.138 18.4089C299.267 18.548 299.336 18.7326 299.329 18.9221C299.329 19.0171 299.31 19.111 299.272 19.1981C299.234 19.2852 299.179 19.3637 299.11 19.4285C299.04 19.4933 298.958 19.5431 298.869 19.5749C298.779 19.6066 298.684 19.6196 298.59 19.613C250.971 17.97 203.914 30.3043 163.232 55.0922C163.116 55.1626 162.982 55.1983 162.846 55.195Z" fill="white"/>
<path d="M145.668 86.8118C144.371 86.8118 143.104 86.4276 142.026 85.7077C140.948 84.9878 140.108 83.9646 139.611 82.7675C139.115 81.5703 138.985 80.253 139.238 78.9821C139.491 77.7113 140.116 76.5439 141.032 75.6276C141.949 74.7114 143.117 74.0874 144.389 73.8346C145.661 73.5818 146.979 73.7116 148.177 74.2074C149.375 74.7033 150.398 75.543 151.119 76.6204C151.839 77.6978 152.224 78.9645 152.224 80.2603C152.222 81.9973 151.531 83.6628 150.302 84.891C149.073 86.1193 147.406 86.8101 145.668 86.8118ZM145.668 75.145C144.655 75.145 143.664 75.4453 142.822 76.0078C141.98 76.5704 141.323 77.37 140.936 78.3055C140.548 79.2409 140.447 80.2703 140.645 81.2632C140.843 82.2562 141.331 83.1682 142.048 83.884C142.764 84.5997 143.677 85.0869 144.671 85.284C145.664 85.4812 146.694 85.3793 147.63 84.9914C148.566 84.6035 149.366 83.947 149.928 83.1048C150.49 82.2627 150.79 81.2728 150.79 80.2603C150.788 78.9036 150.248 77.603 149.287 76.644C148.327 75.685 147.026 75.1459 145.668 75.145Z" fill="white"/>
<path d="M78.2725 393.96C78.1604 393.96 78.0501 393.932 77.951 393.88C77.866 393.838 77.7902 393.78 77.728 393.709C77.6658 393.638 77.6183 393.555 77.5884 393.465C77.5585 393.375 77.5467 393.281 77.5537 393.186C77.5608 393.092 77.5865 393 77.6294 392.916L79.237 389.831C79.3223 389.661 79.4718 389.531 79.6527 389.471C79.8336 389.411 80.031 389.425 80.2016 389.51C80.3721 389.595 80.5018 389.745 80.5621 389.925C80.6224 390.106 80.6083 390.303 80.5231 390.474L78.9155 393.558C78.8566 393.679 78.7651 393.78 78.6515 393.851C78.5378 393.922 78.4065 393.96 78.2725 393.96Z" fill="white"/>
<path d="M70.6205 408.727C70.497 408.728 70.3755 408.696 70.2677 408.636C70.1599 408.576 70.0693 408.489 70.0048 408.384C69.9402 408.279 69.9038 408.159 69.899 408.036C69.8942 407.912 69.9212 407.79 69.9774 407.68L71.585 404.599C71.6272 404.514 71.6857 404.439 71.757 404.377C71.8283 404.315 71.9111 404.268 72.0007 404.238C72.0903 404.208 72.1848 404.197 72.279 404.203C72.3732 404.21 72.4651 404.235 72.5495 404.277C72.634 404.319 72.7093 404.378 72.7711 404.449C72.833 404.52 72.8802 404.603 72.9101 404.693C72.9399 404.782 72.9518 404.877 72.9452 404.971C72.9385 405.065 72.9133 405.157 72.8711 405.241L71.2635 408.323C71.2047 408.443 71.1134 408.545 70.9998 408.617C70.8861 408.688 70.7548 408.727 70.6205 408.727Z" fill="white"/>
<path d="M69.3442 396.82C69.2323 396.821 69.1218 396.794 69.0226 396.743L65.9072 395.178C65.7366 395.093 65.607 394.943 65.5467 394.762C65.4864 394.582 65.5004 394.384 65.5857 394.214C65.6709 394.043 65.8205 393.914 66.0013 393.854C66.1822 393.793 66.3797 393.807 66.5502 393.893L69.6657 395.457C69.8094 395.53 69.9245 395.649 69.9923 395.795C70.0602 395.941 70.0769 396.105 70.0398 396.262C70.0026 396.419 69.9138 396.558 69.7876 396.658C69.6614 396.758 69.5052 396.813 69.3442 396.813V396.82Z" fill="white"/>
<path d="M84.2621 404.338C84.1504 404.338 84.0404 404.311 83.9406 404.261L80.8251 402.693C80.6546 402.608 80.5249 402.458 80.4646 402.278C80.4043 402.097 80.4184 401.9 80.5036 401.729C80.5889 401.559 80.7384 401.429 80.9193 401.369C81.1002 401.309 81.2976 401.323 81.4682 401.408L84.5836 402.976C84.7274 403.049 84.8424 403.167 84.9103 403.313C84.9782 403.459 84.9949 403.624 84.9577 403.781C84.9206 403.937 84.8318 404.077 84.7056 404.177C84.5794 404.277 84.4232 404.331 84.2621 404.332V404.338Z" fill="white"/>
<path d="M41.5779 353.163C41.4279 353.163 41.2818 353.116 41.1601 353.028C41.0384 352.94 40.9472 352.817 40.8995 352.675C32.254 326.928 23.0201 289.1 28.1418 255.099C28.1733 254.914 28.2761 254.749 28.4281 254.639C28.58 254.529 28.7692 254.483 28.9548 254.51C29.1404 254.538 29.3077 254.637 29.4208 254.787C29.5339 254.937 29.5838 255.125 29.5597 255.311C24.4798 289.033 33.6622 326.623 42.2595 352.218C42.3172 352.399 42.301 352.596 42.2142 352.765C42.1275 352.934 41.9773 353.062 41.7965 353.121C41.726 353.146 41.6524 353.16 41.5779 353.163Z" fill="white"/>
<path d="M62.0172 375.912C61.8813 375.911 61.7485 375.871 61.6345 375.797C61.5205 375.723 61.4302 375.618 61.3742 375.494C49.9733 350.84 36.6884 314.242 38.0837 279.878C38.0857 279.784 38.1068 279.691 38.1458 279.604C38.1848 279.518 38.2408 279.441 38.3105 279.377C38.3802 279.313 38.4621 279.264 38.5513 279.232C38.6406 279.201 38.7352 279.188 38.8297 279.194C38.9237 279.198 39.0161 279.22 39.1015 279.259C39.1869 279.299 39.2636 279.355 39.3272 279.424C39.3909 279.493 39.4402 279.575 39.4723 279.663C39.5045 279.751 39.5188 279.845 39.5145 279.939C38.132 313.998 51.343 350.38 62.6635 374.893C62.7131 375.002 62.7349 375.121 62.7269 375.241C62.7189 375.36 62.6812 375.475 62.6174 375.576C62.5536 375.677 62.4656 375.761 62.3614 375.819C62.2572 375.878 62.14 375.91 62.0204 375.912H62.0172Z" fill="white"/>
<path d="M276.849 553.173C275.552 553.173 274.284 552.789 273.206 552.069C272.128 551.349 271.288 550.325 270.792 549.128C270.296 547.93 270.166 546.613 270.419 545.342C270.672 544.071 271.297 542.904 272.214 541.988C273.131 541.071 274.3 540.448 275.572 540.195C276.844 539.943 278.162 540.073 279.36 540.569C280.557 541.066 281.581 541.906 282.301 542.984C283.021 544.062 283.405 545.329 283.404 546.625C283.403 548.361 282.711 550.026 281.482 551.254C280.253 552.482 278.586 553.172 276.849 553.173ZM276.849 541.506C275.836 541.505 274.845 541.805 274.002 542.367C273.16 542.929 272.503 543.728 272.114 544.664C271.726 545.599 271.624 546.628 271.822 547.621C272.019 548.614 272.507 549.527 273.223 550.243C273.939 550.959 274.851 551.447 275.845 551.644C276.839 551.842 277.869 551.741 278.805 551.354C279.741 550.966 280.541 550.31 281.104 549.469C281.667 548.627 281.967 547.637 281.967 546.625C281.966 545.268 281.427 543.967 280.467 543.007C279.508 542.048 278.206 541.508 276.849 541.506Z" fill="white"/>
<path d="M109.296 538.608C109.296 538.608 104.611 561.376 109.424 567.16L110.907 568.965L87.7158 567.838C87.7158 567.838 97.2648 543.72 98.1296 533.656L109.296 538.608Z" fill="#0F0F0F"/>
<path d="M110.922 569.685H110.887L87.6961 568.554C87.5832 568.549 87.473 568.518 87.3745 568.463C87.2759 568.408 87.1919 568.33 87.1292 568.236C87.0665 568.142 87.0269 568.034 87.0137 567.922C87.0005 567.81 87.014 567.696 87.0531 567.59C87.1464 567.349 96.5731 543.453 97.4187 533.611C97.429 533.498 97.4662 533.388 97.5272 533.292C97.5882 533.195 97.6712 533.115 97.7695 533.057C97.8678 532.999 97.9785 532.965 98.0925 532.958C98.2065 532.951 98.3205 532.971 98.4251 533.017L109.591 537.972C109.741 538.037 109.863 538.152 109.938 538.297C110.013 538.442 110.036 538.609 110.003 538.769C109.955 538.993 105.44 561.26 109.977 566.723L111.466 568.532C111.546 568.636 111.596 568.761 111.611 568.892C111.625 569.023 111.603 569.155 111.546 569.274C111.49 569.393 111.402 569.495 111.292 569.567C111.182 569.64 111.054 569.681 110.922 569.685ZM88.7378 567.169L109.315 568.172L108.858 567.616C104.261 562.093 107.759 542.692 108.469 539.019L98.7241 534.698C97.5441 544.138 90.4676 562.742 88.7378 567.169Z" fill="white"/>
<path d="M109.276 558.889C110.928 561.093 114.237 576.102 113.6 580.446C113.394 581.958 112.646 583.343 111.497 584.347C110.348 585.352 108.873 585.906 107.347 585.908L91.4606 585.86C79.5261 585.918 85.1718 562.857 88.9946 558.449C89.0942 558.333 89.2176 558.241 89.3563 558.177C89.495 558.114 89.6458 558.081 89.7984 558.081C89.951 558.081 90.1018 558.114 90.2405 558.177C90.3792 558.241 90.5026 558.333 90.6022 558.449L91.5667 560.055C91.6549 560.215 91.7846 560.348 91.9421 560.439C92.0997 560.531 92.2791 560.579 92.4615 560.577C92.6438 560.575 92.8222 560.523 92.9777 560.428C93.1332 560.333 93.2601 560.198 93.3447 560.036L94.859 557.144C95.0276 556.817 95.2864 556.545 95.6049 556.36C95.9234 556.175 96.2882 556.085 96.6563 556.1L101.219 556.312C101.634 556.337 102.031 556.489 102.357 556.746C102.684 557.003 102.924 557.354 103.045 557.752L103.829 560.255C103.879 560.434 103.977 560.597 104.113 560.724C104.249 560.852 104.417 560.94 104.599 560.979C104.782 561.017 104.971 561.006 105.147 560.944C105.323 560.883 105.479 560.774 105.598 560.631L107.173 558.674C107.32 558.539 107.494 558.437 107.684 558.374C107.873 558.312 108.074 558.29 108.273 558.31C108.471 558.33 108.663 558.392 108.836 558.492C109.009 558.592 109.159 558.727 109.276 558.889Z" fill="#0F0F0F"/>
<path d="M107.363 586.641H107.347L91.4577 586.589H91.4094C88.339 586.589 86.0369 585.121 84.7573 582.342C81.5775 575.427 85.3296 561.595 88.4515 557.996C88.6184 557.803 88.8241 557.648 89.0551 557.541C89.2862 557.434 89.5374 557.376 89.7922 557.373C90.0447 557.374 90.294 557.428 90.524 557.532C90.7539 557.636 90.9593 557.788 91.1265 557.977C91.1582 558.011 91.1862 558.049 91.2101 558.089L92.1746 559.715C92.2011 559.767 92.2418 559.809 92.292 559.838C92.3422 559.868 92.3997 559.882 92.4576 559.879C92.5084 559.879 92.5581 559.865 92.6009 559.837C92.6437 559.81 92.6777 559.771 92.6987 559.725L94.213 556.833C94.4422 556.382 94.7971 556.008 95.2347 555.755C95.6724 555.502 96.174 555.381 96.679 555.406L101.241 555.618C101.802 555.649 102.34 555.849 102.783 556.194C103.226 556.539 103.553 557.01 103.72 557.546L104.492 560.046C104.508 560.106 104.541 560.16 104.586 560.203C104.632 560.245 104.688 560.274 104.749 560.287C104.799 560.297 104.851 560.293 104.898 560.276C104.946 560.258 104.988 560.227 105.019 560.187L106.595 558.231C106.615 558.205 106.638 558.182 106.662 558.16C106.875 557.958 107.128 557.803 107.405 557.706C107.682 557.608 107.977 557.57 108.27 557.594C108.575 557.621 108.871 557.712 109.138 557.862C109.405 558.011 109.637 558.216 109.819 558.462C111.642 560.885 114.941 576.047 114.279 580.549C114.057 582.228 113.234 583.77 111.963 584.889C110.691 586.009 109.058 586.631 107.363 586.641ZM91.4577 585.16L107.35 585.208C108.705 585.203 110.012 584.707 111.028 583.811C112.045 582.916 112.702 581.683 112.877 580.34C113.52 575.967 110.128 561.235 108.697 559.32C108.636 559.235 108.557 559.165 108.466 559.113C108.375 559.062 108.274 559.03 108.17 559.021C107.993 559.007 107.818 559.062 107.681 559.175L106.141 561.103C105.948 561.346 105.692 561.531 105.4 561.639C105.109 561.746 104.793 561.771 104.489 561.71C104.173 561.649 103.879 561.504 103.64 561.288C103.401 561.073 103.225 560.797 103.132 560.489L102.347 557.99C102.271 557.732 102.117 557.503 101.907 557.336C101.696 557.168 101.439 557.069 101.171 557.051L96.6147 556.833C96.3857 556.823 96.1586 556.879 95.9595 556.992C95.7605 557.106 95.5975 557.273 95.4894 557.475L93.9751 560.367C93.836 560.641 93.6253 560.871 93.3654 561.034C93.1055 561.197 92.8061 561.286 92.4994 561.293C92.1854 561.302 91.8747 561.226 91.6006 561.073C91.3265 560.919 91.0993 560.694 90.9432 560.422L90.0334 558.873C90.0024 558.844 89.966 558.822 89.9263 558.807C89.8866 558.792 89.8443 558.785 89.8019 558.786C89.7508 558.788 89.7006 558.8 89.6546 558.822C89.6086 558.844 89.5678 558.876 89.535 558.915C86.6864 562.202 83.1433 575.379 86.0595 581.728C87.1172 584.029 88.8695 585.147 91.4127 585.147L91.4577 585.16Z" fill="white"/>
<path d="M91.4614 585.873L107.347 585.924C108.874 585.921 110.348 585.367 111.497 584.363C112.646 583.359 113.394 581.973 113.601 580.462C113.781 579.244 113.649 577.191 113.331 574.82C111.247 576.854 108.048 578.553 103.621 579.055C100.975 579.357 95.326 579.453 91.9083 578.499C88.7349 577.615 86.121 576.459 84.2788 574.82C84.0955 580.722 85.7963 585.902 91.4614 585.873Z" fill="#0F0F0F"/>
<path d="M107.363 586.641H107.347L91.4612 586.59H91.413C89.3007 586.59 87.5548 585.915 86.2688 584.578C84.3654 582.625 83.4298 579.238 83.5681 574.781C83.5722 574.645 83.6151 574.513 83.6917 574.4C83.7683 574.288 83.8756 574.199 84.0008 574.145C84.126 574.091 84.264 574.074 84.3986 574.096C84.5333 574.117 84.6589 574.177 84.7609 574.267C86.391 575.716 88.7927 576.87 92.1075 577.802C95.2937 578.692 100.814 578.644 103.547 578.335C108.37 577.789 111.263 575.838 112.835 574.296C112.931 574.203 113.05 574.138 113.18 574.109C113.309 574.08 113.445 574.088 113.571 574.131C113.696 574.174 113.808 574.252 113.892 574.355C113.976 574.458 114.03 574.582 114.048 574.714C114.404 577.378 114.494 579.344 114.314 580.555C114.09 582.239 113.262 583.784 111.983 584.904C110.705 586.023 109.063 586.64 107.363 586.641ZM91.458 585.16L107.347 585.208C108.702 585.203 110.009 584.707 111.026 583.812C112.042 582.916 112.699 581.683 112.874 580.34C113.003 579.476 112.964 578.072 112.768 576.24C110.906 577.718 107.997 579.264 103.685 579.752C100.759 580.073 95.104 580.125 91.6991 579.174C88.8827 578.39 86.6675 577.432 84.9731 576.282C85.0599 579.62 85.8476 582.13 87.2751 583.595C88.2975 584.642 89.6833 585.176 91.4001 585.176L91.458 585.16Z" fill="white"/>
<path d="M217.868 532.834C217.868 532.834 214.83 544.17 218.025 559.419L204.126 567.963L193.42 558.542L198.6 552.09C202.689 545.6 203.589 534.833 203.966 529.251L217.868 532.834Z" fill="#0F0F0F"/>
<path d="M204.126 568.68C203.952 568.68 203.783 568.616 203.653 568.5L192.947 559.082C192.809 558.96 192.723 558.79 192.707 558.606C192.691 558.423 192.746 558.24 192.86 558.096L198.004 551.669C202.184 545.015 202.949 533.525 203.242 529.197C203.249 529.092 203.279 528.989 203.33 528.897C203.381 528.805 203.452 528.725 203.538 528.663C203.627 528.6 203.729 528.558 203.837 528.539C203.945 528.521 204.056 528.527 204.161 528.557L218.06 532.14C218.151 532.162 218.237 532.202 218.313 532.257C218.388 532.312 218.452 532.381 218.501 532.461C218.549 532.543 218.58 532.633 218.592 532.727C218.605 532.821 218.599 532.916 218.575 533.008C218.546 533.12 215.623 544.376 218.742 559.259C218.773 559.403 218.759 559.553 218.702 559.689C218.644 559.825 218.546 559.939 218.421 560.017L204.521 568.561C204.404 568.638 204.267 568.679 204.126 568.68ZM194.41 558.455L204.2 567.076L217.221 559.072C214.588 546.04 216.405 536.044 217.006 533.367L204.621 530.164C204.274 535.115 203.335 545.931 199.207 552.476L199.159 552.543L194.41 558.455Z" fill="white"/>
<path d="M219.951 555.593L221.88 558.684C225.716 564.807 230.985 569.906 237.232 573.541L242.029 576.333C242.254 576.465 242.444 576.649 242.582 576.87C242.719 577.091 242.801 577.343 242.82 577.603V577.869C243.029 580.848 238.641 586.814 227.803 587.268C221.105 587.55 205.843 585.863 188.796 575.794C188.271 575.485 187.859 575.016 187.62 574.455C187.382 573.895 187.33 573.272 187.472 572.68C188.533 568.249 191.475 557.745 196.432 553.141C196.56 553.018 196.712 552.924 196.879 552.864C197.046 552.804 197.224 552.781 197.4 552.794C197.577 552.808 197.749 552.859 197.905 552.943C198.06 553.028 198.196 553.145 198.304 553.286L202.67 559.069C203.135 559.685 203.718 560.203 204.385 560.594C205.051 560.984 205.788 561.239 206.553 561.344C207.319 561.45 208.097 561.403 208.844 561.206C209.591 561.01 210.292 560.668 210.907 560.2L217.508 555.172C217.691 555.027 217.903 554.923 218.13 554.866C218.357 554.808 218.593 554.799 218.823 554.839C219.053 554.878 219.273 554.966 219.467 555.096C219.662 555.226 219.826 555.395 219.951 555.593Z" fill="#0F0F0F"/>
<path d="M226.551 588C221.481 588 206.386 586.997 188.448 576.401C187.788 576.017 187.27 575.431 186.971 574.729C186.672 574.027 186.608 573.247 186.789 572.506C187.844 568.104 190.847 557.356 195.959 552.604C196.165 552.414 196.408 552.269 196.673 552.178C196.938 552.087 197.22 552.051 197.499 552.074C197.772 552.097 198.037 552.178 198.277 552.31C198.517 552.443 198.726 552.624 198.891 552.842L203.257 558.626C203.666 559.167 204.177 559.622 204.762 559.965C205.347 560.308 205.995 560.532 206.667 560.624C207.339 560.716 208.022 560.674 208.678 560.501C209.334 560.328 209.949 560.027 210.488 559.615L217.089 554.584C217.353 554.383 217.657 554.24 217.979 554.163C218.302 554.087 218.638 554.078 218.964 554.139C219.29 554.199 219.6 554.327 219.874 554.515C220.148 554.702 220.38 554.944 220.555 555.226L222.484 558.314C226.267 564.333 231.451 569.347 237.595 572.927L242.392 575.719C242.718 575.909 242.993 576.175 243.192 576.495C243.392 576.814 243.51 577.178 243.537 577.554L243.556 577.824C243.656 579.28 242.913 581.037 241.476 582.618C239.81 584.478 235.827 587.653 227.85 587.987C227.541 588 227.107 588 226.551 588ZM197.329 553.498C197.182 553.498 197.042 553.554 196.936 553.655C192.114 558.153 189.22 568.564 188.185 572.837C188.078 573.281 188.116 573.747 188.295 574.166C188.474 574.586 188.784 574.937 189.178 575.167C208.733 586.734 224.767 586.67 227.789 586.544C235.235 586.223 238.891 583.331 240.405 581.648C241.759 580.137 242.18 578.727 242.122 577.911L242.103 577.641C242.092 577.498 242.048 577.36 241.972 577.239C241.896 577.117 241.792 577.016 241.669 576.944L236.872 574.151C230.529 570.451 225.179 565.269 221.278 559.05L219.349 555.959C219.277 555.848 219.184 555.753 219.074 555.68C218.964 555.607 218.84 555.557 218.711 555.533C218.581 555.51 218.447 555.513 218.319 555.543C218.19 555.573 218.069 555.629 217.963 555.708L211.363 560.737C210.672 561.261 209.885 561.644 209.046 561.863C208.207 562.083 207.333 562.134 206.474 562.015C205.615 561.895 204.788 561.607 204.04 561.167C203.293 560.727 202.64 560.144 202.119 559.451L197.756 553.668C197.712 553.61 197.656 553.561 197.591 553.526C197.527 553.491 197.456 553.469 197.383 553.462L197.329 553.498Z" fill="white"/>
<path d="M220.253 572.343L218.398 571.125C218.175 570.978 217.915 570.9 217.649 570.899C217.383 570.898 217.122 570.976 216.899 571.121C216.676 571.266 216.5 571.474 216.393 571.718C216.287 571.961 216.254 572.231 216.298 572.494L216.665 574.646C216.703 574.894 216.682 575.147 216.605 575.386C216.528 575.624 216.396 575.841 216.22 576.019C216.043 576.198 215.828 576.332 215.59 576.412C215.353 576.493 215.1 576.516 214.851 576.481C207.21 575.282 199.9 572.51 193.387 568.339L189.452 565.83C188.536 568.535 187.88 571.016 187.487 572.661C187.345 573.253 187.398 573.875 187.636 574.436C187.875 574.996 188.287 575.465 188.812 575.774C205.852 585.844 221.121 587.531 227.818 587.248C238.644 586.795 243.045 580.822 242.836 577.85V577.583C242.817 577.323 242.735 577.072 242.597 576.851C242.46 576.63 242.27 576.446 242.045 576.314L240.241 575.267L238.981 575.662C235.797 576.405 232.495 576.494 229.276 575.924C226.057 575.353 222.987 574.135 220.253 572.343Z" fill="#0F0F0F"/>
<path d="M226.551 588C221.481 588 206.382 586.994 188.448 576.397C187.788 576.014 187.27 575.428 186.971 574.726C186.672 574.024 186.608 573.244 186.789 572.503C187.178 570.877 187.841 568.361 188.773 565.611C188.808 565.508 188.866 565.414 188.942 565.337C189.018 565.259 189.111 565.2 189.214 565.164C189.316 565.128 189.426 565.115 189.534 565.128C189.642 565.14 189.746 565.177 189.837 565.235L193.773 567.735C200.199 571.857 207.415 574.593 214.96 575.768C215.097 575.789 215.237 575.777 215.369 575.734C215.5 575.69 215.62 575.616 215.717 575.518C215.814 575.419 215.887 575.299 215.929 575.167C215.97 575.035 215.98 574.895 215.957 574.759L215.594 572.609C215.525 572.209 215.574 571.798 215.736 571.426C215.898 571.054 216.165 570.738 216.505 570.516C216.845 570.294 217.242 570.176 217.648 570.177C218.054 570.178 218.451 570.297 218.79 570.521L220.645 571.738C223.299 573.467 226.275 574.643 229.395 575.195C232.515 575.747 235.714 575.664 238.801 574.951L240.01 574.569C240.105 574.539 240.205 574.529 240.304 574.54C240.403 574.551 240.499 574.583 240.585 574.633L242.389 575.684C242.715 575.873 242.99 576.139 243.189 576.459C243.389 576.779 243.507 577.143 243.533 577.519L243.553 577.789C243.652 579.244 242.91 581.002 241.472 582.583C239.807 584.443 235.823 587.617 227.847 587.952C227.541 588 227.107 588 226.551 588ZM189.844 566.938C189.079 569.293 188.526 571.414 188.185 572.837C188.078 573.281 188.116 573.747 188.295 574.166C188.474 574.586 188.784 574.937 189.178 575.167C208.733 586.734 224.77 586.673 227.789 586.544C235.235 586.223 238.891 583.331 240.405 581.651C241.759 580.137 242.18 578.727 242.122 577.911L242.103 577.644C242.093 577.501 242.048 577.362 241.973 577.24C241.897 577.118 241.793 577.016 241.669 576.944L240.138 576.053L239.174 576.356C235.889 577.12 232.483 577.211 229.162 576.624C225.841 576.037 222.674 574.784 219.851 572.94L217.996 571.725C217.89 571.656 217.767 571.618 217.64 571.618C217.514 571.618 217.39 571.656 217.285 571.725C217.18 571.793 217.097 571.89 217.046 572.004C216.995 572.118 216.979 572.245 216.999 572.368L217.365 574.521C217.426 574.881 217.401 575.251 217.291 575.6C217.18 575.949 216.989 576.266 216.731 576.526C216.474 576.786 216.159 576.981 215.811 577.095C215.463 577.209 215.094 577.238 214.732 577.181C206.99 575.977 199.586 573.167 192.995 568.933L189.844 566.938Z" fill="white"/>
<path d="M143.572 287.445C143.572 287.445 144.72 306.126 139.833 326.722C134.946 347.319 124.374 368.397 121.272 439.294C121.272 439.294 116.729 455.099 108.581 468.514C100.434 481.929 96.5986 540.366 96.5986 540.366C96.5986 540.366 105.704 544.678 110.019 540.366C114.333 536.054 133.026 484.798 134.454 475.699C135.881 466.599 142.125 470.908 156.982 424.443C171.839 377.978 186.7 362.388 186.7 362.388L192.461 287.445H143.572Z" fill="white"/>
<path d="M128.763 474.577C127.439 474.577 125.121 474.32 123.298 472.746C121.626 471.3 120.78 469.099 120.78 466.21C120.78 466.116 120.799 466.023 120.835 465.936C120.871 465.849 120.924 465.77 120.99 465.704C121.057 465.637 121.136 465.584 121.223 465.548C121.31 465.512 121.403 465.494 121.497 465.494C121.591 465.494 121.685 465.512 121.772 465.548C121.859 465.584 121.938 465.637 122.004 465.704C122.071 465.77 122.124 465.849 122.16 465.936C122.196 466.023 122.214 466.116 122.214 466.21C122.214 468.662 122.893 470.493 124.227 471.672C126.371 473.539 129.574 473.118 129.606 473.115C129.789 473.1 129.97 473.155 130.114 473.269C130.257 473.383 130.351 473.548 130.377 473.729C130.402 473.911 130.357 474.095 130.251 474.245C130.145 474.394 129.985 474.497 129.805 474.532C129.459 474.571 129.111 474.586 128.763 474.577Z" fill="#0F0F0F"/>
<path d="M204.553 287.445C204.553 287.445 226.494 302.772 231.766 345.407C237.039 388.042 227.931 437.376 227.931 437.376C227.931 437.376 226.494 452.227 228.41 461.326C230.326 470.426 234.641 483.362 218.98 542.297C218.98 542.297 201.091 541.333 201.091 538.467C201.091 535.601 203.02 501.101 201.091 486.254C200.117 479.028 200.904 471.675 203.383 464.819C203.778 463.765 203.951 462.641 203.893 461.518C203.835 460.394 203.547 459.294 203.046 458.287C200.67 453.534 196.937 442.648 197.258 421.586C197.737 390.927 177.607 353.086 177.607 353.086L179.537 287.461L204.553 287.445Z" fill="white"/>
<path d="M216.198 466.58C215.064 466.59 213.943 466.345 212.917 465.862C211.891 465.379 210.987 464.671 210.273 463.791C210.149 463.646 210.087 463.459 210.102 463.269C210.116 463.079 210.205 462.903 210.35 462.779C210.495 462.655 210.682 462.593 210.872 462.608C211.062 462.622 211.239 462.711 211.363 462.856C215.166 467.29 220.568 464.009 220.796 463.868C220.876 463.813 220.966 463.776 221.061 463.757C221.155 463.738 221.253 463.738 221.348 463.758C221.442 463.778 221.532 463.817 221.611 463.872C221.69 463.927 221.757 463.998 221.809 464.08C221.86 464.162 221.894 464.253 221.909 464.349C221.924 464.444 221.919 464.542 221.895 464.635C221.872 464.729 221.829 464.817 221.771 464.894C221.712 464.97 221.639 465.035 221.555 465.082C219.922 466.019 218.081 466.534 216.198 466.58Z" fill="#0F0F0F"/>
<path d="M104.61 543.016C100.566 543.016 96.5469 541.146 96.2897 541.024C96.1599 540.963 96.0516 540.864 95.9788 540.74C95.906 540.616 95.8721 540.473 95.8814 540.33C96.0389 537.94 99.8232 481.562 107.967 468.154C115.683 455.469 120.185 440.422 120.558 439.188C123.046 382.534 130.306 357.626 135.608 339.433C136.919 334.935 138.154 330.7 139.144 326.581C143.951 306.338 142.877 287.702 142.864 287.51C142.859 287.412 142.873 287.315 142.906 287.223C142.94 287.132 142.991 287.048 143.057 286.976C143.125 286.905 143.206 286.848 143.296 286.81C143.386 286.771 143.483 286.751 143.581 286.751H204.553C204.7 286.751 204.844 286.796 204.965 286.88C205.186 287.034 227.226 302.881 232.477 345.339C237.701 387.592 228.728 437.035 228.638 437.53C228.638 437.617 227.239 452.31 229.113 461.201C229.207 461.651 229.306 462.104 229.409 462.576C231.48 472.026 234.608 486.305 219.674 542.489C219.632 542.648 219.536 542.788 219.403 542.884C219.27 542.981 219.108 543.029 218.944 543.02C212.006 542.647 200.373 541.564 200.373 538.473C200.373 537.949 200.431 536.481 200.521 534.257C200.91 524.483 201.949 498.521 200.38 486.35C199.387 479.076 200.159 471.671 202.63 464.758C203.005 463.737 203.17 462.651 203.115 461.565C203.059 460.479 202.785 459.415 202.309 458.438C200.01 453.759 196.2 442.748 196.522 421.58C196.808 403.22 189.744 382.319 183.549 367.619C177.986 375.526 167.855 392.797 157.657 424.684C147.912 455.163 141.732 464.057 138.411 468.835C136.617 471.406 135.627 472.842 135.158 475.833C133.662 485.29 114.777 536.632 110.51 540.896C108.922 542.473 106.761 543.016 104.61 543.016ZM97.3475 539.925C99.1673 540.684 106.118 543.264 109.51 539.871C113.69 535.694 132.277 484.965 133.756 475.608C134.28 472.296 135.399 470.686 137.251 468.019C140.527 463.302 146.626 454.524 156.31 424.247C167.039 390.699 177.726 373.19 183.143 365.739C183.219 365.637 183.319 365.557 183.435 365.506C183.552 365.456 183.679 365.437 183.805 365.451C183.931 365.465 184.051 365.513 184.152 365.588C184.254 365.663 184.334 365.764 184.384 365.881C190.747 380.754 198.271 402.51 197.972 421.602C197.65 442.488 201.36 453.245 203.601 457.808C204.163 458.958 204.488 460.21 204.554 461.489C204.621 462.768 204.429 464.047 203.99 465.249C201.593 471.946 200.842 479.12 201.801 486.167C203.386 498.46 202.383 523.587 201.952 534.315C201.868 536.442 201.807 537.978 201.807 538.473C202.055 539.627 209.758 541.044 218.439 541.558C233.113 486.17 229.917 471.602 228.007 462.881C227.905 462.409 227.805 461.95 227.708 461.496C225.779 452.394 227.159 437.941 227.217 437.331C227.316 436.778 236.251 387.547 231.055 345.516C226.136 305.747 206.389 289.759 204.318 288.184H144.321C144.469 291.908 144.835 308.771 140.53 326.912C139.54 331.089 138.299 335.334 136.993 339.845C131.711 357.976 124.47 382.807 121.998 439.345C121.995 439.402 121.985 439.458 121.969 439.512C121.924 439.673 117.307 455.578 109.202 468.906C101.627 481.341 97.7397 534.174 97.3475 539.913V539.925Z" fill="white"/>
<path d="M175.308 204.425C175.308 204.425 196.12 224.668 199.158 241.189C202.846 261.258 193.101 259.662 199.158 275.309C199.158 275.309 204.431 287.198 206.35 291.516C208.27 295.835 161.306 307.816 143.093 298.701C143.093 298.701 148.603 269.722 121.272 245.289C104.874 230.634 112.414 201.061 136.965 197.199C165.097 192.787 175.308 204.425 175.308 204.425Z" fill="#0F0F0F"/>
<path d="M161.943 302.756C155.043 302.756 147.957 301.933 142.771 299.344C142.632 299.274 142.519 299.16 142.45 299.02C142.381 298.881 142.359 298.722 142.388 298.569C142.44 298.28 147.484 269.683 120.792 245.823C112.873 238.754 109.903 227.739 113.044 217.101C116.31 206.028 125.213 198.323 136.855 196.492C164.708 192.109 175.163 203.188 175.826 203.93C176.925 204.997 196.84 224.61 199.862 241.058C201.692 251.018 200.29 255.674 199.052 259.797C197.814 263.919 196.801 267.254 199.84 275.049C199.84 275.049 205.103 286.918 207.016 291.224C207.218 291.674 207.267 292.39 206.373 293.245C203.531 295.96 191.471 299.543 178.919 301.403C173.3 302.258 167.627 302.71 161.943 302.756ZM143.88 298.286C159.29 305.484 194.679 298.335 203.968 293.181C205.614 292.268 205.701 291.783 205.701 291.78C203.788 287.497 198.515 275.599 198.515 275.599C195.3 267.312 196.403 263.639 197.679 259.385C198.869 255.42 200.219 250.922 198.454 241.318C195.493 225.214 175.016 205.138 174.807 204.936L174.768 204.897C174.646 204.756 164.386 193.61 137.077 197.909C125.994 199.65 117.526 206.976 114.42 217.509C111.436 227.611 114.246 238.053 121.747 244.759C147.005 267.331 144.452 294.138 143.88 298.286Z" fill="white"/>
<path d="M180.958 208.245C180.958 208.245 194.059 202.818 207.161 205.373C220.263 207.927 230.487 204.676 230.487 204.676C230.487 204.676 222.166 200.556 196.165 198.172C193.058 197.882 189.924 198.099 186.886 198.815C183.801 199.543 180.645 199.93 177.476 199.968C157.474 200.264 152.201 187.055 156.986 183.337C159.985 181.008 178.183 182.54 178.183 182.54C178.183 182.54 168.11 177.046 170.177 174.042C172.814 170.208 193.696 183.337 193.696 183.337C193.696 183.337 226.246 185.265 241.984 188.128C252.379 190.014 266.271 194.194 267.548 195.791C268.824 197.388 271.383 208.567 249.974 216.869C228.564 225.172 207.479 225.811 202.367 229.641C197.255 233.471 193.42 239.223 193.42 239.223L180.958 208.245Z" fill="#0F0F0F"/>
<path d="M193.419 239.939H193.346C193.216 239.926 193.092 239.877 192.988 239.798C192.884 239.719 192.803 239.614 192.754 239.493L180.292 208.531C180.222 208.356 180.224 208.159 180.297 207.985C180.37 207.811 180.51 207.672 180.684 207.599C181.228 207.375 194.136 202.118 207.299 204.685C214.181 206.013 221.258 205.969 228.124 204.557C224.311 203.249 214.758 200.614 196.098 198.902C193.069 198.618 190.014 198.829 187.053 199.528C183.919 200.264 180.714 200.657 177.495 200.701C163.885 200.913 156.934 194.962 155.124 189.818C154.114 186.949 154.664 184.256 156.552 182.788C159.008 180.879 169.807 181.287 175.257 181.625C172.904 180.092 169.769 177.701 169.261 175.578C169.174 175.252 169.157 174.911 169.212 174.579C169.268 174.246 169.394 173.929 169.582 173.65C172.36 169.611 188.703 179.382 193.918 182.646C196.58 182.81 227.124 184.712 242.11 187.437C251.938 189.22 266.59 193.465 268.104 195.357C268.795 196.219 269.56 198.786 268.692 202.018C267.551 206.282 263.416 212.426 250.241 217.528C238.457 222.097 227.008 224.311 217.81 226.091C210.643 227.476 204.981 228.571 202.798 230.207C197.847 233.915 194.056 239.554 194.017 239.612C193.952 239.711 193.864 239.793 193.76 239.85C193.655 239.908 193.538 239.938 193.419 239.939ZM181.896 208.657L193.596 237.738C194.976 235.862 198.078 231.955 201.936 229.063C204.383 227.228 209.9 226.171 217.536 224.687C226.667 222.923 238.058 220.741 249.72 216.201C262.339 211.307 266.252 205.578 267.316 201.633C268.069 198.837 267.413 196.758 266.995 196.238C266.03 195.017 253.231 190.898 241.865 188.848C226.349 186.03 193.982 184.089 193.657 184.07C193.538 184.061 193.422 184.023 193.32 183.961C183.555 177.824 172.161 172.451 170.772 174.463C170.696 174.577 170.647 174.706 170.627 174.842C170.607 174.977 170.617 175.115 170.656 175.247C171.196 177.496 176.524 180.831 178.533 181.927C178.678 182.005 178.79 182.131 178.853 182.283C178.915 182.435 178.924 182.604 178.877 182.761C178.83 182.918 178.73 183.055 178.594 183.147C178.459 183.24 178.295 183.283 178.131 183.27C171.203 182.688 159.455 182.348 157.432 183.912C156.047 184.989 155.68 187.068 156.468 189.336C158.117 194.034 164.609 199.454 177.463 199.261C180.577 199.22 183.677 198.84 186.709 198.13C189.822 197.392 193.035 197.169 196.22 197.469C222.057 199.837 230.451 203.895 230.799 204.055C230.926 204.12 231.032 204.22 231.102 204.344C231.172 204.468 231.204 204.61 231.194 204.753C231.183 204.895 231.129 205.03 231.041 205.142C230.952 205.254 230.832 205.336 230.696 205.379C230.271 205.517 220.144 208.647 207.013 206.086C195.94 203.917 184.7 207.625 181.896 208.657Z" fill="white"/>
<path d="M177.874 134.112C177.368 132.621 176.507 131.275 175.365 130.189C174.223 129.104 172.834 128.312 171.319 127.882L158.082 124.136C154.384 123.089 150.475 123.035 146.75 123.979C143.024 124.924 139.614 126.833 136.862 129.514L136.737 129.636C134.814 131.512 133.247 133.72 132.11 136.153C127.332 133.727 111.488 126.099 97.917 119.592C91.5313 116.531 84.3952 115.382 77.3707 116.286C70.3462 117.19 63.7338 120.107 58.3322 124.685C53.0755 129.138 48.7415 132.486 44.2724 136.284C35.9032 143.395 26.4743 149.156 16.3265 153.359L0 160.155C8.5169 166.944 12.9313 170.337 23.8177 170.787L36.2571 171.301C36.5805 171.314 36.8917 171.428 37.1478 171.625C37.4039 171.823 37.5923 172.095 37.6869 172.405C37.7815 172.714 37.7776 173.045 37.6758 173.352C37.5741 173.659 37.3794 173.927 37.1188 174.119C29.6741 179.579 21.2796 183.61 12.3622 186.007L1.43074 188.957C1.29452 188.994 1.17426 189.075 1.08853 189.187C1.00279 189.299 0.956342 189.436 0.956342 189.577C0.956342 189.718 1.00279 189.855 1.08853 189.967C1.17426 190.079 1.29452 190.16 1.43074 190.197L15.7542 194.255C27.7421 197.645 40.5821 196.2 51.5161 190.232L69.7267 180.298C66.0725 188.36 60.4428 195.37 53.3584 200.682C53.2401 200.768 53.1547 200.891 53.1163 201.033C53.0779 201.174 53.0889 201.324 53.1473 201.458C53.2058 201.592 53.3083 201.702 53.4379 201.77C53.5674 201.838 53.7163 201.86 53.86 201.832L60.2452 200.659C67.2689 199.368 73.9175 196.533 79.7099 192.358C85.5023 188.184 90.2937 182.775 93.7373 176.522C98.9988 166.969 106.508 158.839 115.616 152.835L130.107 143.282C129.69 147.114 130.271 150.988 131.795 154.528L133.788 159.162C135.272 162.61 137.644 165.602 140.663 167.834C143.682 170.067 147.24 171.458 150.973 171.866L176.894 139.735C177.518 138.956 177.935 138.033 178.107 137.05C178.278 136.067 178.198 135.056 177.874 134.112Z" fill="white"/>
<path d="M147.575 149.391C147.754 149.464 147.948 149.496 148.142 149.484C148.336 149.472 148.525 149.417 148.694 149.321C148.863 149.226 149.008 149.094 149.119 148.935C149.23 148.775 149.303 148.593 149.333 148.401C150.163 144.545 153.58 138.241 158.213 136.271C164.152 133.746 171.608 134.376 174.006 138.794C176.103 142.65 175.228 145.361 180.7 149.863C181.224 150.294 180.996 151.177 180.536 151.675L178.118 154.551C177.598 155.11 177.356 156.717 177.418 157.475C177.604 159.824 178.192 164.778 177.501 165.556C176.154 167.072 168.238 167.998 168.238 167.998L167.274 193.06C167.208 194.823 167.591 196.574 168.389 198.148C169.186 199.722 170.372 201.067 171.833 202.057L180.961 208.232C180.961 208.232 190.59 233.59 171.614 235.698C159.487 237.044 133.997 199.011 133.997 199.011C133.997 199.011 148.992 196.736 150.182 164.129C150.174 163.824 150.079 163.527 149.908 163.274C149.737 163.021 149.498 162.821 149.218 162.699C147.112 161.649 141.373 158.474 141.501 154.188C141.672 149.625 144.89 148.375 147.575 149.391Z" fill="#0F0F0F"/>
<path d="M170.993 236.459C158.368 236.459 134.444 200.961 133.412 199.422C133.344 199.322 133.303 199.206 133.292 199.086C133.281 198.966 133.301 198.845 133.351 198.734C133.399 198.624 133.475 198.527 133.571 198.453C133.668 198.38 133.781 198.332 133.9 198.313C134.042 198.291 148.327 195.63 149.474 164.116C149.46 163.95 149.401 163.791 149.303 163.657C149.205 163.522 149.072 163.416 148.918 163.351C145.832 161.816 140.671 158.58 140.81 154.178C140.903 151.238 142.144 149.805 143.173 149.121C143.858 148.685 144.638 148.421 145.447 148.351C146.255 148.282 147.069 148.408 147.819 148.719C147.897 148.753 147.982 148.769 148.067 148.766C148.152 148.762 148.235 148.74 148.311 148.7C148.393 148.652 148.465 148.588 148.521 148.51C148.576 148.432 148.614 148.344 148.632 148.25C149.487 144.282 152.937 137.733 157.93 135.609C163.853 133.09 171.923 133.463 174.633 138.453C175.213 139.56 175.688 140.719 176.054 141.914C176.816 144.188 177.536 146.335 181.153 149.304C181.318 149.443 181.452 149.614 181.548 149.807C181.644 150 181.699 150.21 181.709 150.425C181.722 150.742 181.672 151.058 181.562 151.355C181.451 151.653 181.283 151.925 181.066 152.157L178.674 155.01C178.353 155.373 178.083 156.723 178.141 157.42C178.166 157.78 178.205 158.201 178.247 158.66C178.655 163.143 178.719 165.273 178.044 166.031C176.742 167.496 171.096 168.354 168.936 168.634L167.987 193.108C167.923 194.747 168.279 196.375 169.022 197.837C169.765 199.299 170.87 200.547 172.231 201.462L181.359 207.641C181.482 207.723 181.576 207.841 181.629 207.978C181.848 208.56 186.963 222.28 181.899 230.56C179.845 233.918 176.411 235.884 171.691 236.408C171.46 236.438 171.227 236.455 170.993 236.459ZM135.17 199.457C138.983 204.997 160.946 236.164 171.53 234.998C175.787 234.525 178.864 232.784 180.674 229.824C185.056 222.662 180.996 210.453 180.353 208.711L171.418 202.664C169.85 201.611 168.579 200.173 167.726 198.489C166.872 196.805 166.465 194.93 166.544 193.044L167.508 167.982C167.516 167.809 167.585 167.646 167.703 167.52C167.821 167.395 167.98 167.315 168.151 167.297C171.325 166.928 176.16 166.012 176.964 165.093C177.324 164.47 176.964 160.498 176.81 158.802C176.768 158.336 176.729 157.908 176.7 157.545C176.639 156.761 176.838 154.882 177.591 154.075L179.983 151.222C180.164 151.037 180.27 150.79 180.279 150.531C180.279 150.451 180.25 150.432 180.24 150.422C176.308 147.186 175.488 144.741 174.694 142.389C174.353 141.263 173.908 140.172 173.366 139.128C171.116 134.98 163.853 134.629 158.483 136.92C154.014 138.819 150.793 144.979 150.024 148.542C149.965 148.837 149.843 149.115 149.665 149.358C149.487 149.6 149.259 149.801 148.995 149.946C148.739 150.084 148.455 150.165 148.164 150.182C147.873 150.2 147.582 150.155 147.311 150.049C146.774 149.82 146.19 149.723 145.608 149.767C145.026 149.812 144.463 149.995 143.967 150.303C142.896 151.016 142.301 152.369 142.244 154.21C142.128 157.953 147.32 160.958 149.558 162.06C149.96 162.244 150.301 162.54 150.54 162.912C150.779 163.283 150.907 163.716 150.908 164.158C149.883 192.334 138.72 198.278 135.17 199.457Z" fill="white"/>
<path d="M136.965 197.198C137.823 197.064 138.667 196.944 139.499 196.839C155.311 229.686 165.863 233.947 175.83 229.963C182.604 227.26 179.482 213.794 178.775 206.78C186.054 212.885 197.937 220.542 201.451 238.59C204.309 253.264 194.076 259.796 198.339 273.006C191.179 269.767 181.81 267.421 171.357 269.567C157.24 272.459 147.8 277.922 142.537 281.803C141.026 273.709 137.415 263.626 129.284 253.666C132.35 246.859 134.774 239.781 136.525 232.523C139.505 220.365 134.486 204.746 132.101 198.378C133.688 197.856 135.315 197.462 136.965 197.198Z" fill="white"/>
<path d="M129.313 200.026C122.333 199.602 101.795 200.726 103.788 229.005C106.183 263.013 105.434 291.754 103.653 296.545C101.872 301.336 102.03 323.535 109.379 358.018C109.379 358.018 110.987 370.793 112.257 378.457C113.527 386.12 120.565 392.19 127.915 397.938C135.264 403.686 138.46 394.744 135.583 389.635C132.705 384.526 131.747 378.457 131.747 378.457C131.747 378.457 134.641 385.484 138.139 386.759C141.637 388.035 139.103 376.542 135.888 372.708C132.673 368.875 125.664 359.936 124.388 358.657C123.111 357.379 120.176 340.474 121.259 333.454C124.153 314.657 120.295 299.883 120.295 299.883C119.723 297.004 119.674 294.046 120.15 291.15C120.944 286.529 123.491 281.321 123.851 274.403C124.333 265.214 122.028 254.44 124.06 247.207C124.079 247.207 130.731 200.113 129.313 200.026Z" fill="#0F0F0F"/>
<path d="M132.271 400.521C131.01 400.521 129.415 400.023 127.47 398.5C120.14 392.768 112.87 386.506 111.549 378.579C110.282 370.986 108.684 358.24 108.655 358.111C101.453 324.322 100.99 301.612 102.968 296.297C104.624 291.847 105.482 263.44 103.061 229.057C102.293 218.167 104.746 210.08 110.353 205.023C118.793 197.414 131.177 199.47 131.698 199.56C131.878 199.6 132.036 199.708 132.139 199.861C132.242 200.014 132.282 200.2 132.25 200.382C132.219 200.564 132.118 200.726 131.97 200.836C131.822 200.946 131.637 200.994 131.454 200.971C131.332 200.952 119.236 198.95 111.305 206.096C106.048 210.841 103.755 218.534 104.489 228.957C106.774 261.371 106.279 291.507 104.312 296.799C102.45 301.802 102.993 324.673 110.067 357.874C110.096 358.06 111.69 370.781 112.96 378.344C114.198 385.767 121.243 391.817 128.351 397.376C130.721 399.23 132.804 399.583 134.219 398.368C136.148 396.717 136.492 392.723 134.955 389.989C132.062 384.825 131.078 378.826 131.036 378.572C131.008 378.398 131.045 378.22 131.14 378.072C131.235 377.923 131.381 377.815 131.551 377.767C131.721 377.72 131.903 377.737 132.061 377.815C132.219 377.893 132.343 378.027 132.409 378.19C133.177 380.063 135.746 385.134 138.379 386.091C138.701 386.207 138.755 386.123 138.813 386.037C139.9 384.494 137.942 376.285 135.347 373.184C134.061 371.645 132.132 369.251 130.277 366.938C127.499 363.487 124.628 359.92 123.889 359.181C122.259 357.552 119.744 340.063 120.558 333.383C122.284 319.152 121.542 309.744 120.616 304.359C120.452 303.395 120.246 302.431 120.043 301.467C119.32 298.013 118.568 294.444 119.471 290.986C122.474 279.509 122.365 271.878 122.291 264.497C122.223 259.057 122.162 253.923 123.255 247.468C123.267 247.372 123.299 247.279 123.348 247.195C123.397 247.112 123.462 247.039 123.54 246.981C123.618 246.924 123.707 246.883 123.801 246.86C123.896 246.838 123.993 246.835 124.089 246.851C124.184 246.868 124.276 246.904 124.357 246.956C124.438 247.009 124.508 247.078 124.562 247.158C124.616 247.239 124.653 247.329 124.671 247.424C124.689 247.52 124.688 247.617 124.667 247.712C123.586 254.026 123.651 259.099 123.702 264.468C123.792 271.945 123.889 279.676 120.838 291.34C120.018 294.469 120.735 297.872 121.426 301.162C121.628 302.126 121.837 303.129 122.008 304.109C122.95 309.571 123.705 319.143 121.956 333.544C121.12 340.436 123.789 356.842 124.889 358.166C125.673 358.95 128.441 362.391 131.37 366.032C133.229 368.342 135.151 370.729 136.428 372.256C139.138 375.51 141.633 384.491 139.964 386.866C139.489 387.54 138.723 387.749 137.868 387.441C136.328 386.882 134.929 385.375 133.807 383.771C134.421 385.682 135.215 387.529 136.18 389.288C138.055 392.617 137.563 397.369 135.132 399.458C134.337 400.144 133.321 400.521 132.271 400.521Z" fill="white"/>
<path d="M124.533 344.754L104.755 348.449C104.109 348.57 103.684 349.191 103.805 349.836L105.037 356.424C105.158 357.07 105.779 357.495 106.425 357.375L126.203 353.679C126.849 353.559 127.274 352.938 127.153 352.292L125.921 345.704C125.8 345.058 125.179 344.633 124.533 344.754Z" fill="#0F0F0F"/>
<path d="M106.196 358.114C105.752 358.114 105.321 357.958 104.979 357.674C104.637 357.39 104.404 356.996 104.322 356.559L103.091 349.969C103.043 349.723 103.045 349.471 103.097 349.226C103.148 348.981 103.248 348.749 103.39 348.543C103.677 348.127 104.117 347.84 104.614 347.746L124.391 344.054C124.637 344.007 124.89 344.01 125.135 344.061C125.38 344.113 125.613 344.212 125.82 344.354C126.026 344.495 126.203 344.676 126.34 344.886C126.476 345.096 126.57 345.331 126.616 345.577L127.847 352.164C127.939 352.66 127.831 353.173 127.545 353.59C127.259 354.007 126.82 354.294 126.323 354.387L106.547 358.082C106.431 358.104 106.314 358.115 106.196 358.114ZM124.741 345.455C124.712 345.452 124.683 345.452 124.654 345.455L104.878 349.15C104.817 349.161 104.758 349.183 104.706 349.217C104.653 349.251 104.608 349.294 104.573 349.346C104.502 349.45 104.476 349.578 104.499 349.702L105.73 356.289C105.741 356.351 105.765 356.409 105.798 356.461C105.832 356.513 105.876 356.558 105.928 356.593C105.979 356.628 106.037 356.652 106.098 356.665C106.159 356.677 106.222 356.677 106.283 356.665L126.059 352.973C126.183 352.95 126.292 352.879 126.363 352.775C126.434 352.672 126.461 352.544 126.439 352.421L125.204 345.831C125.181 345.708 125.111 345.599 125.008 345.529C124.931 345.479 124.84 345.453 124.748 345.455H124.741Z" fill="white"/>
<path d="M119.048 344.08L108.647 346.023C107.239 346.286 106.31 347.641 106.574 349.049L107.859 355.921C108.123 357.329 109.478 358.257 110.887 357.994L121.287 356.05C122.696 355.787 123.624 354.432 123.361 353.025L122.075 346.152C121.812 344.744 120.456 343.817 119.048 344.08Z" fill="#0F0F0F"/>
<path d="M110.395 358.76C109.622 358.758 108.875 358.487 108.281 357.993C107.688 357.499 107.286 356.814 107.144 356.055L105.858 349.185C105.698 348.323 105.888 347.432 106.384 346.71C106.881 345.987 107.645 345.49 108.507 345.329L118.905 343.402C119.768 343.245 120.657 343.435 121.38 343.931C122.103 344.427 122.6 345.188 122.763 346.049L124.049 352.919C124.209 353.781 124.02 354.672 123.523 355.395C123.026 356.117 122.263 356.614 121.4 356.775L111.002 358.702C110.802 358.74 110.599 358.76 110.395 358.76ZM119.513 344.767C119.397 344.767 119.282 344.778 119.169 344.799L108.771 346.727C108.528 346.772 108.297 346.865 108.09 347C107.883 347.134 107.705 347.308 107.566 347.512C107.426 347.715 107.328 347.944 107.277 348.186C107.227 348.427 107.224 348.676 107.27 348.919L108.556 355.791C108.648 356.28 108.931 356.713 109.342 356.994C109.753 357.275 110.259 357.382 110.748 357.292L121.146 355.364C121.389 355.319 121.62 355.226 121.827 355.092C122.034 354.957 122.212 354.783 122.351 354.579C122.491 354.376 122.589 354.147 122.64 353.906C122.69 353.664 122.693 353.415 122.647 353.173L121.361 346.303C121.281 345.872 121.052 345.483 120.714 345.202C120.377 344.922 119.952 344.768 119.513 344.767Z" fill="white"/>
<path d="M117.106 352.664C117.995 351.367 117.664 349.595 116.366 348.707C115.068 347.818 113.295 348.149 112.406 349.446C111.517 350.744 111.848 352.515 113.146 353.404C114.444 354.292 116.217 353.961 117.106 352.664Z" fill="white"/>
</g>
<defs>
<clipPath id="clip0_41_1662">
<rect width="592" height="588" fill="white"/>
</clipPath>
</defs>
</svg>
