<svg width="36" height="36" viewBox="0 0 36 36" fill="none" xmlns="http://www.w3.org/2000/svg">
<g clip-path="url(#clip0_41_500)">
<path d="M35.9998 17.8451C36.0303 21.4051 35.0044 24.8943 33.0519 27.8712C31.0993 30.8482 28.3078 33.1793 25.0304 34.5697C21.753 35.9601 18.1369 36.3475 14.6393 35.6827C11.1418 35.0179 7.91995 33.3308 5.38123 30.8349C2.8425 28.339 1.10094 25.1463 0.37679 21.6605C-0.347364 18.1748 -0.0215857 14.5526 1.31293 11.252C2.64744 7.95146 4.93074 5.12075 7.87408 3.11788C10.8174 1.11501 14.2886 0.029945 17.8486 -9.09414e-05C22.622 -0.0403634 27.2158 1.81705 30.6198 5.16361C34.0237 8.51017 35.9589 13.0718 35.9998 17.8451Z" fill="#F4F4F4"/>
<path d="M17.8556 1.22397C22.0055 1.1918 26.0194 2.70227 29.1186 5.46233C32.2178 8.22238 34.1812 12.0352 34.6281 16.1611C35.0749 20.2871 33.9732 24.4319 31.5367 27.7914C29.1003 31.1509 25.5028 33.4857 21.4422 34.3427C17.3816 35.1996 13.1474 34.5178 9.5612 32.4293C5.97495 30.3409 3.29231 26.9948 2.03373 23.0402C0.775161 19.0856 1.03039 14.8045 2.74991 11.0274C4.46943 7.2504 7.53064 4.24672 11.3396 2.59917C13.3972 1.70787 15.6133 1.24017 17.8556 1.22397ZM17.8556 0.806365C14.4551 0.834971 11.1394 1.87135 8.32784 3.78442C5.5163 5.6975 3.33522 8.40136 2.06043 11.5541C0.785627 14.7067 0.474367 18.1667 1.16601 21.4963C1.85765 24.8259 3.52113 27.8756 5.94608 30.2597C8.37102 32.6439 11.4485 34.2554 14.7894 34.8905C18.1302 35.5256 21.5844 35.1557 24.715 33.8276C27.8456 32.4995 30.5121 30.2729 32.3772 27.4293C34.2423 24.5857 35.2223 21.2529 35.1932 17.8524C35.1533 13.2932 33.3045 8.93652 30.0534 5.74004C26.8022 2.54357 22.4148 0.768968 17.8556 0.806365Z" fill="#006EC3"/>
<path d="M17.8632 1.79994C22.1591 1.7635 26.2936 3.43494 29.3573 6.44663C32.421 9.45832 34.1629 13.5636 34.2 17.8595C34.23 21.5961 32.9673 25.2281 30.6259 28.1403C28.2845 31.0525 25.0084 33.0657 21.3526 33.8389C17.6968 34.6121 13.8861 34.0977 10.5661 32.3829C7.24613 30.6681 4.62104 27.8583 3.13559 24.4295C2.07447 21.9758 1.63708 19.2976 1.86241 16.6338C2.08774 13.97 2.9688 11.4034 4.42701 9.16277C5.88522 6.92216 7.87526 5.07725 10.2197 3.79255C12.5641 2.50785 15.19 1.8233 17.8632 1.79994ZM17.8632 1.63074C14.6283 1.65789 11.474 2.6436 8.79926 4.46323C6.1245 6.28286 4.04931 8.85472 2.83607 11.8536C1.62283 14.8525 1.32601 18.1439 1.98314 21.3114C2.64027 24.479 4.22185 27.3807 6.52791 29.6495C8.83397 31.9183 11.761 33.4524 14.9388 34.0579C18.1167 34.6634 21.4027 34.313 24.3815 33.0511C27.3603 31.7892 29.898 29.6724 31.6738 26.9684C33.4497 24.2643 34.3839 21.0945 34.3584 17.8595C34.3156 13.5244 32.5541 9.38345 29.4607 6.34604C26.3672 3.30863 22.1948 1.62308 17.8596 1.65954L17.8632 1.63074Z" fill="#006EC3"/>
<path d="M30.3658 17.8956C30.3864 20.3412 29.6813 22.738 28.3397 24.7829C26.9981 26.8278 25.0802 28.429 22.8286 29.3839C20.577 30.3389 18.0928 30.6047 15.6902 30.1478C13.2875 29.6909 11.0743 28.5318 9.33033 26.8171C7.5864 25.1024 6.39011 22.909 5.89271 20.5144C5.39532 18.1198 5.61917 15.6315 6.53596 13.3641C7.45275 11.0967 9.0213 9.15206 11.0433 7.77611C13.0652 6.40017 15.4498 5.65469 17.8954 5.63396C21.1749 5.60711 24.3307 6.88367 26.6692 9.18299C29.0077 11.4823 30.3373 14.6162 30.3658 17.8956Z" fill="#DADADA"/>
<path d="M30.1029 17.8956C30.1235 20.2893 29.4338 22.6353 28.1211 24.637C26.8083 26.6387 24.9315 28.2061 22.7279 29.1412C20.5244 30.0762 18.093 30.3369 15.7413 29.8901C13.3896 29.4434 11.2232 28.3093 9.51606 26.6313C7.80889 24.9533 6.63762 22.8068 6.15037 20.4632C5.66312 18.1196 5.88176 15.6841 6.77866 13.4647C7.67556 11.2453 9.21042 9.34175 11.1892 7.99468C13.1679 6.64761 15.5017 5.91755 17.8953 5.89682C19.4848 5.88305 21.0613 6.18249 22.535 6.77804C24.0087 7.3736 25.3507 8.2536 26.4843 9.36781C27.6179 10.482 28.5209 11.8086 29.1418 13.2718C29.7627 14.735 30.0893 16.3062 30.1029 17.8956Z" fill="#F4F4F4"/>
<path d="M25.1675 21.9239C24.9119 22.0211 25.0487 22.2407 25.1999 22.3739C25.3511 22.5071 25.5923 22.3199 25.5923 22.3199C25.9019 22.0823 26.3123 21.8411 26.2475 21.7439C26.1827 21.6467 26.0459 21.6935 25.7687 21.7439C25.565 21.7924 25.3643 21.8525 25.1675 21.9239Z" fill="#809F20"/>
<path d="M19.2488 23.3388C17.6989 23.7624 16.1837 24.304 14.7164 24.9588C14.234 25.2072 14.6768 25.8948 14.6768 25.8948C14.882 26.172 15.0152 26.3232 16.214 26.2548C17.4924 26.1745 18.7483 25.88 19.9292 25.3836C21.416 24.7932 23.0144 24.2244 24.2168 23.6196C25.4192 23.0148 25.1492 22.7376 25.448 22.464C25.4948 22.4244 25.5488 22.3776 25.6064 22.3344C25.6064 22.3344 25.3652 22.518 25.214 22.3848C25.0628 22.2516 24.926 22.0248 25.1816 21.9348C25.3806 21.8606 25.5837 21.7981 25.79 21.7476C25.4552 21.7908 24.9584 21.888 24.35 21.996C23.1908 22.1832 21.5996 22.6548 19.2488 23.3388Z" fill="#648C08"/>
<path d="M18.0861 25.6247C18.0861 25.6247 18.5145 25.4663 18.8385 25.3799C19.1625 25.2935 19.3677 25.2215 19.0941 25.4843C18.9197 25.6834 18.6963 25.8335 18.4461 25.9199C18.2481 25.9739 18.0861 25.9847 17.9709 25.8695C17.8557 25.7543 17.9637 25.6715 18.0861 25.6247Z" fill="#809F20"/>
<g style="mix-blend-mode:multiply" opacity="0.5">
<path d="M24.3288 21.9816C23.1912 22.1832 21.6144 22.6548 19.2492 23.3388C18.5472 23.544 17.9028 23.7456 17.334 23.9364C18.774 23.8284 20.178 23.7132 21.5964 23.5764C22.428 23.4864 23.3496 23.3676 24.0696 22.9068C24.4078 22.6766 24.7699 22.4835 25.1496 22.3308C25.0272 22.1976 24.9552 22.0248 25.1784 21.9384C25.3774 21.8643 25.5805 21.8017 25.7868 21.7512C25.4484 21.7764 24.9516 21.8736 24.3288 21.9816Z" fill="#648C08"/>
</g>
<g style="mix-blend-mode:multiply" opacity="0.5">
<path d="M17.3664 25.7543C16.776 25.7543 16.1892 25.7219 15.5988 25.7543C15.3447 25.7741 15.0896 25.7741 14.8356 25.7543C14.7469 25.7419 14.6591 25.7238 14.5728 25.7003C14.6022 25.7702 14.6371 25.8376 14.6772 25.9019C14.8824 26.1791 15.0156 26.3303 16.2144 26.2619C17.111 26.2096 17.9975 26.0451 18.8532 25.7723C18.36 25.7579 17.8596 25.7579 17.3664 25.7543Z" fill="#648C08"/>
</g>
<path d="M15.0477 25.0091C15.0477 25.0091 15.0477 25.3691 15.5229 25.1639C15.9981 24.9587 16.4805 24.6887 16.4373 24.5771C16.3941 24.4655 15.6957 24.5195 15.3573 24.6743C15.0189 24.8291 15.0261 24.9263 15.0477 25.0091Z" fill="#809F20"/>
<path d="M19.1266 24.5447C19.1266 24.5447 18.8746 24.2135 19.0582 24.1379C19.485 23.994 19.9272 23.901 20.3758 23.8607C20.4262 23.9219 19.9654 24.2207 19.7026 24.4079C19.4398 24.5951 19.267 24.7283 19.1266 24.5447Z" fill="#809F20"/>
<path d="M21.5748 24.84C21.8227 24.7489 22.0633 24.6394 22.2948 24.5124C22.6548 24.3036 22.9572 24.0984 22.932 24.0372C22.9068 23.976 22.0752 24.1956 21.6936 24.3072C21.0924 24.48 21.1752 25.002 21.5748 24.84Z" fill="#809F20"/>
<path d="M24.9299 22.8888C24.9299 22.8888 24.9947 23.1696 25.2215 23.0832C25.5815 22.9051 25.9148 22.6772 26.2115 22.4064C26.4347 22.176 26.1899 22.248 25.7219 22.3452C25.2539 22.4424 24.8399 22.5684 24.9299 22.8888Z" fill="#809F20"/>
<path d="M24.0046 22.1183C24.0237 22.1843 24.0614 22.2435 24.113 22.2888C24.1647 22.334 24.2283 22.3636 24.2962 22.3739C24.5374 22.4135 24.5806 22.3091 24.8398 22.1183C25.099 21.9275 25.5202 21.5171 25.0198 21.6611C24.5194 21.8051 23.9038 21.9275 24.0046 22.1183Z" fill="#809F20"/>
<path d="M14.2451 27.576C14.2451 27.576 14.1947 28.2492 14.6051 28.3212C15.8929 28.3628 17.1819 28.305 18.4607 28.1484C19.7999 27.9936 19.7819 27.9756 20.6207 27.882C21.4595 27.7884 21.7835 27.8604 23.1407 27.6552C24.4979 27.45 24.6995 27.4644 24.5591 27.2736C24.4187 27.0828 24.1991 26.64 22.4567 26.586C20.7143 26.532 14.4575 26.8956 14.2451 27.576Z" fill="#648C08"/>
<g style="mix-blend-mode:multiply" opacity="0.5">
<path d="M19.4184 27.414C20.4651 27.3379 21.4999 27.1447 22.5036 26.838C22.7088 26.7732 22.9068 26.7048 23.1084 26.6328C22.9176 26.6112 22.698 26.5932 22.446 26.586C20.7216 26.532 14.4576 26.8956 14.2452 27.576C14.2364 27.7166 14.251 27.8577 14.2884 27.9936C15.966 27.5904 17.7012 27.5724 19.4184 27.414Z" fill="#648C08"/>
</g>
<path d="M17.2796 28.2599C17.5089 28.2251 17.7335 28.1647 17.9492 28.0799C18.194 27.9611 17.906 27.8603 17.3012 27.8315C16.6964 27.8027 16.6064 27.8819 16.6064 28.0763C16.6064 28.2707 16.7 28.4003 17.2796 28.2599Z" fill="#809F20"/>
<path d="M20.6784 27.8964C20.9198 27.8953 21.1607 27.8736 21.3984 27.8316C21.7044 27.7668 21.6 27.6264 21.1644 27.6084C20.7288 27.5904 20.52 27.576 20.52 27.72C20.52 27.864 20.556 27.8928 20.6784 27.8964Z" fill="#809F20"/>
<path d="M23.4572 27.36C23.4572 27.36 23.4572 27.594 23.6588 27.594C23.9625 27.5915 24.263 27.5316 24.5444 27.4176C24.5984 27.3384 24.3608 27.27 23.8244 27.2412C23.4788 27.1908 23.4464 27.2376 23.4572 27.36Z" fill="#788E1A"/>
<path d="M23.7597 26.9388C23.7597 26.9388 23.7597 27.3312 24.0657 27.3204C24.3717 27.3096 24.9045 27.2484 24.9225 27.1512C24.9405 27.054 23.7201 26.514 23.7597 26.9388Z" fill="#809F20"/>
<path d="M23.0183 27.36C23.2094 27.3633 23.4006 27.3548 23.5907 27.3348C23.8607 27.3024 24.1163 27.288 23.5331 27.09C22.9499 26.892 22.5647 26.82 22.5719 27.054C22.5791 27.288 22.6079 27.3312 23.0183 27.36Z" fill="#809F20"/>
<path d="M24.4257 25.6823C24.4257 25.6823 24.7857 25.5743 24.7281 25.4591C24.6705 25.3439 24.3321 25.3259 24.0729 25.4303C23.8137 25.5347 23.9541 25.7615 24.4257 25.6823Z" fill="#AAC844"/>
<path d="M13.0751 27.0828C13.0751 27.0828 13.1615 27.72 13.6403 27.72C14.1191 27.72 15.5159 27.5508 16.3619 27.4788C17.2079 27.4068 17.7407 27.5004 19.1087 27.3492C20.4873 27.192 21.8459 26.8916 23.1623 26.4528C24.2423 26.0712 24.9083 25.7652 24.1415 25.5924C23.0526 25.4481 21.9482 25.4688 20.8655 25.6536C20.1743 25.8084 15.6851 26.082 13.9103 25.8984C13.1039 25.8588 12.9239 26.4132 13.0751 27.0828Z" fill="#84AE0C"/>
<path d="M16.7796 26.3556C17.0495 26.2867 17.3257 26.2456 17.604 26.2332C18.0288 26.2332 18.198 26.2692 17.8596 26.442C17.5212 26.6148 17.0028 26.8236 16.83 26.6976C16.6572 26.5716 16.6932 26.3988 16.7796 26.3556Z" fill="#AAC844"/>
<path d="M19.4396 25.8732C19.4396 25.8732 19.418 26.2332 19.7456 26.1504C20.0862 26.0733 20.4153 25.9523 20.7248 25.7904C20.9192 25.6644 20.7428 25.6248 20.3648 25.6608C19.9868 25.6968 19.418 25.7004 19.4396 25.8732Z" fill="#AAC844"/>
<path d="M20.689 27.0792C21.0318 27.0356 21.3694 26.9585 21.697 26.8488C21.9562 26.7264 21.6718 26.7732 21.2002 26.7012C20.3938 26.5824 20.3758 27.0396 20.689 27.0792Z" fill="#AAC844"/>
<path d="M22.9785 26.5139C22.9785 26.5139 22.6401 26.6399 22.4997 26.3987C22.3593 26.1575 22.5537 25.9703 22.8957 25.9919C23.2377 26.0135 23.9973 26.1215 23.7705 26.2115L22.9785 26.5139Z" fill="#AAC844"/>
<path d="M22.903 25.7292C22.903 25.7292 22.9282 25.9416 23.4646 25.812C24.001 25.6824 24.451 25.452 24.253 25.3764C24.055 25.3008 22.6114 25.2648 22.903 25.7292Z" fill="#9FB739"/>
<path d="M22.3197 25.5203C22.3197 25.5203 22.4277 25.8803 22.7337 25.7867C23.0397 25.6931 23.6913 25.5095 23.4285 25.4267C23.1657 25.3439 22.2657 25.2431 22.3197 25.5203Z" fill="#AAC844"/>
<path d="M15.2206 27.4536C15.2206 27.4536 15.2674 27.7704 15.6706 27.72C16.1398 27.6735 16.6045 27.5892 17.0602 27.468C17.2762 27.3744 16.3906 27.2808 15.9262 27.2844C15.4618 27.288 15.1558 27.2844 15.2206 27.4536Z" fill="#AAC844"/>
<path d="M12.5996 24.0444C12.5996 24.0444 15.4796 23.9688 17.7944 23.7312C20.1092 23.4936 20.0084 23.508 21.1892 23.3388C22.2692 23.1804 23.4428 22.9788 23.9684 22.842C24.494 22.7052 24.3284 22.5432 23.6696 22.4028C22.5982 22.2334 21.5141 22.1587 20.4296 22.1796C19.1228 22.1796 19.058 22.1004 18.428 22.1004C17.798 22.1004 16.4012 21.9816 14.5652 21.9168C12.7292 21.852 12.1316 21.744 12.0452 22.1832C11.9012 23.04 11.8796 24.0876 12.5996 24.0444Z" fill="#84AE0C"/>
<path d="M14.5692 23.6411C14.5692 23.6411 15.2892 23.5187 15.6924 23.4071C16.0956 23.2955 16.0992 23.2811 15.5016 23.0867C14.904 22.8923 14.04 22.7591 14.04 23.1335C14.04 23.5079 14.1624 23.7023 14.5692 23.6411Z" fill="#AAC844"/>
<path d="M12.0381 22.1832C12.0381 22.1832 11.9625 22.5432 12.5205 22.374C12.8863 22.222 13.2645 22.1015 13.6509 22.014C14.0109 21.9564 13.7769 21.9096 13.2909 21.8736C12.8049 21.8376 12.1209 21.7116 12.0381 22.1832Z" fill="#AAC844"/>
<path d="M17.8377 22.2803C17.8377 22.2803 16.8693 22.6403 16.7253 22.4675C16.5813 22.2947 16.5273 22.0463 17.0205 22.0067C17.5137 21.9671 18.4857 22.0067 18.3273 22.0931C18.169 22.1675 18.0053 22.2301 17.8377 22.2803Z" fill="#AAC844"/>
<path d="M19.1876 23.5907C18.8325 23.6716 18.4712 23.7222 18.1076 23.7419C17.6828 23.7419 17.5784 23.6087 17.7476 23.3279C17.9168 23.0471 18.2192 23.1659 18.5 23.2703C18.7808 23.3747 18.986 23.5475 19.1876 23.5907Z" fill="#AAC844"/>
<path d="M22.4566 23.0183C22.4566 23.0183 22.4566 23.3207 22.9498 23.2631C23.443 23.2055 23.983 23.0939 23.9794 22.9859C23.9758 22.8779 23.533 22.6475 23.0254 22.5827C22.5178 22.5179 22.3918 22.7339 22.4566 23.0183Z" fill="#9FB739"/>
<path d="M22.5825 22.4747C22.5825 22.4747 22.6293 22.7591 22.9893 22.7051C23.2665 22.6554 23.5406 22.5893 23.8101 22.5071C24.0009 22.4567 23.9181 22.3631 23.6301 22.2839C23.3421 22.2047 22.4277 22.0895 22.5825 22.4747Z" fill="#97A833"/>
<path d="M22.068 22.3776C22.068 22.3776 21.9312 22.1436 22.2336 22.1256C22.536 22.1076 23.2236 22.0572 23.2776 22.1724C23.3316 22.2876 22.9788 22.428 22.6872 22.5108C22.3956 22.5936 22.2156 22.6188 22.068 22.3776Z" fill="#AAC844"/>
<path d="M23.0399 22.9752C22.6868 23.0935 22.3259 23.1873 21.9599 23.256C21.6179 23.2992 21.4847 23.2236 21.5243 22.9248C21.5639 22.626 21.7223 22.4928 22.1039 22.5648C22.4314 22.6633 22.7456 22.8011 23.0399 22.9752Z" fill="#AAC844"/>
<path d="M21.4848 22.8312C21.4848 22.8312 20.4048 23.2884 20.2644 22.9824C20.124 22.6764 20.2104 22.4136 20.7216 22.4784C21.2328 22.5432 22.0824 22.5648 21.4848 22.8312Z" fill="#AAC844"/>
<g style="mix-blend-mode:screen">
<path d="M15.84 23.6304C14.6736 23.7132 13.5036 23.6592 12.3372 23.6988C12.3156 23.6988 12.3372 23.7312 12.3552 23.7312C12.9286 23.8025 13.5054 23.8434 14.0832 23.8536C14.706 23.8536 15.3288 23.8356 15.9516 23.8032C17.1947 23.7483 18.4307 23.5845 19.6452 23.3136C19.7244 23.2956 19.5804 23.148 19.5228 23.1552C18.2736 23.2776 17.0676 23.544 15.84 23.6304Z" fill="#84AE0C"/>
<path d="M20.196 23.0579C20.0664 23.0831 19.9476 23.0579 19.836 23.1227C19.7964 23.1515 19.8756 23.2199 19.908 23.2055C20.052 23.1407 20.2068 23.2055 20.3544 23.1731C20.5342 23.1494 20.7106 23.1047 20.88 23.0399C20.9412 23.0147 20.8296 22.9283 20.7936 22.9283C20.5915 22.9565 20.3917 22.9999 20.196 23.0579Z" fill="#84AE0C"/>
</g>
<g style="mix-blend-mode:screen">
<path d="M16.8981 27.2196C15.7281 27.3024 14.5617 27.2484 13.3953 27.288C13.3737 27.288 13.3953 27.3204 13.3953 27.324C13.969 27.3924 14.5457 27.4321 15.1233 27.4428C15.7461 27.4428 16.3689 27.4428 16.9917 27.3924C18.2399 27.3404 19.4809 27.1766 20.6997 26.9028C20.7789 26.9028 20.6349 26.7372 20.5773 26.7444C19.3461 26.8668 18.1365 27.1368 16.8981 27.2196Z" fill="#84AE0C"/>
<path d="M21.2651 26.64C21.1391 26.6688 21.0167 26.64 20.9051 26.7048C20.8619 26.7336 20.9411 26.802 20.9771 26.7876C21.1211 26.7228 21.2723 26.7876 21.4235 26.7552C21.5987 26.7346 21.7712 26.696 21.9383 26.64C21.9995 26.6148 21.8879 26.5248 21.8519 26.5248C21.6541 26.5509 21.4581 26.5894 21.2651 26.64Z" fill="#84AE0C"/>
</g>
<g style="mix-blend-mode:multiply">
<path d="M30.2396 14.6015C29.8364 14.4323 29.3756 14.7599 29.0624 15.0407C28.6456 15.4347 28.2715 15.8715 27.9464 16.3439C27.5864 16.8083 27.2048 17.1827 26.8376 17.6147C26.6702 17.8409 26.4899 18.0573 26.2976 18.2627C26.2342 18.2561 26.1753 18.2267 26.132 18.1799C25.9736 18.0107 26.0924 17.4599 26.132 17.2583C26.2257 16.9162 26.2502 16.5588 26.204 16.2071C25.9952 15.3755 25.07 16.2071 24.764 16.5095C24.458 16.8119 24.2096 17.3015 23.8352 17.3375C23.4608 17.3735 23.3456 16.8371 23.3348 16.4771C23.3692 15.8946 23.4994 15.3217 23.72 14.7815C23.9651 13.8821 24.3042 13.0109 24.7316 12.1823C24.933 11.8818 25.0827 11.5496 25.1744 11.1995C25.2406 10.9642 25.215 10.7125 25.1027 10.4953C24.9904 10.2781 24.7999 10.1116 24.5696 10.0295C24.1628 9.93233 23.7164 10.3895 23.4536 10.6955C23.1607 11.0787 22.9265 11.5033 22.7588 11.9555C22.5644 12.4271 22.4168 12.9131 22.262 13.3955C22.19 13.6223 22.1144 13.8455 22.0352 14.0687C21.9564 14.3167 21.8927 14.5691 21.8444 14.8247C21.8289 14.9277 21.7878 15.0252 21.7249 15.1082C21.6621 15.1912 21.5794 15.2571 21.4844 15.2999C21.1856 15.3971 21.1676 14.7779 21.1748 14.5799C21.2172 14.0338 21.3039 13.492 21.434 12.9599C21.5456 12.4775 21.6608 11.9879 21.794 11.5199C21.9272 11.0519 22.1252 10.5767 22.2692 10.0799C22.3844 9.69113 22.8092 8.17193 22.1936 8.05673C21.578 7.94153 21.1136 9.01433 20.786 9.52193C20.296 10.3702 19.8828 11.2606 19.5512 12.1823C19.4648 12.3947 19.3748 12.6035 19.2776 12.8087L19.1372 13.0823C19.1372 13.0823 19.022 13.2803 19.04 13.2551C18.9392 13.4135 18.8384 13.5719 18.734 13.7231C18.6764 13.8059 18.6116 13.8815 18.5504 13.9571C18.608 13.8887 18.5504 13.9391 18.4928 13.9859C18.4761 13.9832 18.4591 13.9832 18.4424 13.9859C18.4315 13.963 18.4182 13.9413 18.4028 13.9211C18.3536 13.8297 18.3184 13.7314 18.2984 13.6295C18.2229 13.1653 18.2474 12.6903 18.3704 12.2363C18.5032 11.8129 18.5948 11.3777 18.644 10.9367C18.7015 10.6443 18.7015 10.3435 18.644 10.0511C18.4784 9.69113 17.4092 11.9843 17.3228 12.1931C16.8044 13.4099 16.322 14.6411 15.5228 15.6275C15.4004 15.7787 15.1628 16.0847 14.9828 16.1027C14.6228 16.1351 14.5184 15.4835 14.4968 15.1775C14.4819 14.7155 14.5254 14.2534 14.6264 13.8023C14.8626 12.8219 15.1682 11.8595 15.5408 10.9223C15.8252 10.0979 16.2608 9.37073 16.5848 8.56793C16.7468 8.15753 16.9448 7.23593 16.4588 7.03793C16.1924 6.92993 15.8864 7.15673 15.6704 7.32953C15.3717 7.58487 15.1143 7.88481 14.9072 8.21873C14.4502 8.97483 14.0807 9.7804 13.8056 10.6199C13.3878 11.7551 13.051 12.9184 12.7976 14.1011C12.7076 14.5367 12.7328 14.9975 12.632 15.4295C12.5888 15.6131 12.3584 16.2035 12.164 16.1315C11.9696 16.0595 12.092 15.2423 12.1208 15.0515C12.1834 14.6282 12.2958 14.2137 12.4556 13.8167C12.542 13.6007 13.2044 12.4883 13.0028 12.2507C12.7544 11.9591 12.0956 12.5351 11.9624 12.7079C11.5196 13.2983 11.1092 14.3999 10.7204 15.0767C10.4864 15.4835 10.0904 16.0739 9.6404 15.7391C9.1904 15.4043 9.1544 14.5043 9.2804 13.9607C9.5036 13.0499 10.2164 12.5027 10.8176 12.0023C11.2352 11.6423 12.3152 10.9619 12.3476 10.2023C12.38 9.44273 11.4188 10.0079 11.1776 10.1807C10.3992 10.7919 9.76389 11.566 9.3164 12.4487C8.79851 13.2903 8.53011 14.2615 8.5424 15.2495C8.5928 15.9695 8.9708 16.8371 9.6512 16.6895C10.4288 16.5131 10.8932 15.2675 11.2532 14.5295C11.4754 14.0428 11.7254 13.5692 12.002 13.1111C12.1208 12.9239 12.398 12.4127 12.6212 12.3911C13.0676 12.3371 12.3764 13.5899 12.2864 13.7879C11.948 14.5079 11.2496 15.6923 11.4476 16.5923C11.6096 17.3123 12.2684 17.0279 12.596 16.6535C13.0928 16.0883 13.2476 15.2135 13.3772 14.4395C13.7084 12.4307 13.9568 10.3679 15.0224 8.72273C15.1844 8.47073 15.6992 7.55993 16.0232 7.75433C16.3472 7.94873 15.872 8.60393 15.7568 8.80553C15.458 9.35205 15.1947 9.91722 14.9684 10.4975C14.4987 11.5395 14.1671 12.6384 13.982 13.7663C13.8596 14.6123 13.6868 16.1567 14.45 16.6463C15.1268 17.0891 15.7388 16.0703 16.106 15.4979C16.5956 14.7311 16.8728 13.7879 17.24 12.9311C17.006 13.7699 16.9736 14.7671 17.4308 15.4871C17.7224 15.9407 18.284 15.8219 18.6512 15.6419C19.0825 15.3742 19.4401 15.0029 19.6916 14.5619C20.2172 13.7663 20.4368 12.7619 20.6564 11.7791C20.7572 11.3219 20.8508 10.8575 20.9696 10.4039C21.095 9.9374 21.2763 9.48774 21.5096 9.06473C21.5938 8.88977 21.707 8.73032 21.8444 8.59313C22.1252 8.32313 22.2044 8.75153 22.226 8.99993C22.211 9.52958 22.1025 10.0524 21.9056 10.5443C21.6001 11.5032 21.3465 12.4778 21.146 13.4639C21.0635 13.8924 21.0047 14.325 20.9696 14.7599C20.9418 14.9104 20.953 15.0655 21.0022 15.2105C21.0514 15.3554 21.1368 15.4854 21.2504 15.5879C21.6896 15.9119 22.1972 15.2675 22.4564 14.9075C22.8634 14.3455 23.1962 13.7332 23.4464 13.0859C23.5184 12.8987 23.5472 12.6899 23.6336 12.5135C23.72 12.3371 23.936 12.1535 23.9684 12.5135C23.9597 12.7579 23.9185 13 23.846 13.2335C23.7913 13.616 23.7083 13.9938 23.5976 14.3639C23.45 14.8463 23.3348 15.3359 23.2376 15.8327C23.1008 16.4987 22.7768 17.6903 23.5472 17.9927C23.9072 18.1331 24.2672 17.8379 24.5732 17.6327C24.7532 17.4959 24.9332 17.3519 25.1132 17.2007C25.2009 17.1187 25.2961 17.0452 25.3976 16.9811C25.3976 17.0423 25.3688 17.1035 25.3616 17.1503C25.327 17.3454 25.3065 17.5427 25.3004 17.7407C25.261 18.0776 25.3107 18.419 25.4444 18.7307C25.7756 19.3427 26.4236 19.0187 26.8232 18.7307C27.8564 17.9603 28.49 16.5239 29.552 15.7535C29.7068 15.6527 29.6708 16.1819 29.7428 16.2503C30.3296 16.7471 31.1036 14.9579 30.2396 14.6015Z" fill="#EBEAEA"/>
</g>
<g style="mix-blend-mode:multiply">
<path d="M29.2785 17.0171C29.1145 17.1919 29.0024 17.4087 28.9545 17.6435C28.9383 17.7605 28.968 17.8792 29.0373 17.9747C29.0465 17.9893 29.0588 18.0016 29.0733 18.0107C29.0883 18.0325 29.109 18.0497 29.1331 18.0605C29.1573 18.0713 29.1839 18.0753 29.2101 18.0719C29.3971 18.0592 29.5733 17.9801 29.7069 17.8487L29.7789 17.7695L29.8185 17.7227C29.8784 17.6425 29.9235 17.5523 29.9517 17.4563C29.9807 17.3718 29.988 17.2814 29.9729 17.1933C29.9578 17.1052 29.9208 17.0224 29.8653 16.9523C29.6853 16.7399 29.4477 16.8371 29.2785 17.0171Z" fill="#EBEAEA"/>
</g>
<g style="mix-blend-mode:multiply">
<path d="M28.7348 18.4607C28.7158 18.4566 28.6961 18.4566 28.6772 18.4607C28.6462 18.4611 28.6156 18.4677 28.5871 18.4801C28.5587 18.4925 28.533 18.5103 28.5116 18.5327C28.4715 18.5673 28.4395 18.6103 28.418 18.6587C28.3944 18.7047 28.3797 18.7548 28.3748 18.8063C28.3712 18.8314 28.3712 18.8568 28.3748 18.8819C28.3786 18.9029 28.3846 18.9234 28.3928 18.9431C28.3957 18.9565 28.4014 18.9692 28.4095 18.9803C28.4175 18.9915 28.4278 19.0009 28.4396 19.0079C28.4537 19.0207 28.4694 19.0316 28.4864 19.0403C28.5395 19.0573 28.5968 19.0558 28.6491 19.0362C28.7013 19.0167 28.7455 18.98 28.7744 18.9323C28.8306 18.8514 28.8561 18.7531 28.8464 18.6551C28.8474 18.601 28.831 18.548 28.7996 18.5039C28.7922 18.4928 28.7826 18.4832 28.7715 18.4758C28.7604 18.4684 28.7479 18.4633 28.7348 18.4607Z" fill="#EBEAEA"/>
</g>
<path opacity="0.6" d="M30.092 14.5224C29.6888 14.3568 29.228 14.6844 28.9148 14.9652C28.4999 15.3596 28.126 15.795 27.7988 16.2648C27.4388 16.7328 27.0572 17.1072 26.69 17.5392C26.524 17.7654 26.3449 17.9817 26.1536 18.1872C26.0889 18.1814 26.0287 18.1519 25.9844 18.1044C25.826 17.9352 25.9484 17.3844 25.9844 17.1792C26.0801 16.8374 26.1046 16.4796 26.0564 16.128C25.8476 15.3 24.926 16.146 24.6164 16.434C24.3068 16.722 24.062 17.226 23.6876 17.2584C23.3132 17.2908 23.198 16.758 23.1872 16.398C23.2236 15.8169 23.3537 15.2455 23.5724 14.706C23.8189 13.8064 24.1592 12.9352 24.5876 12.1068C24.7865 11.8052 24.9348 11.4732 25.0268 11.124C25.0941 10.8891 25.0694 10.6373 24.9577 10.42C24.8461 10.2027 24.6558 10.036 24.4256 9.95395C24.0152 9.85675 23.5688 10.314 23.306 10.62C23.0086 11.0019 22.7707 11.4267 22.6004 11.88C22.406 12.348 22.2404 12.834 22.1036 13.32C22.0316 13.548 21.956 13.7712 21.8768 13.9896C21.7985 14.2376 21.7348 14.49 21.686 14.7456C21.6711 14.8492 21.6303 14.9474 21.5674 15.0311C21.5045 15.1148 21.4215 15.1812 21.326 15.2244C21.0236 15.318 21.0056 14.6988 21.0164 14.5044C21.0623 13.9583 21.1563 13.4174 21.2972 12.888C21.4052 12.402 21.5204 11.916 21.6572 11.448C21.794 10.98 21.992 10.5048 22.1324 10.008C22.2476 9.61915 22.6724 8.09635 22.0568 7.98115C21.4412 7.86595 20.9768 8.94235 20.6492 9.44995C20.1593 10.2982 19.7461 11.1886 19.4144 12.1104C19.328 12.3228 19.238 12.5316 19.1408 12.7368L19.0004 13.0068C19.0004 13.0068 18.8852 13.2048 18.9032 13.1832C18.8024 13.3416 18.7016 13.4964 18.5972 13.6476C18.5396 13.7304 18.4748 13.806 18.4136 13.8816C18.4712 13.8168 18.4136 13.8636 18.356 13.914L18.3056 13.8924C18.2943 13.8708 18.281 13.8503 18.266 13.8312C18.2165 13.739 18.1824 13.6392 18.1652 13.536C18.0864 13.0719 18.111 12.5962 18.2372 12.1428C18.3668 11.72 18.4572 11.2861 18.5072 10.8468C18.5648 10.5531 18.5648 10.2512 18.5072 9.95755C18.3452 9.59755 17.2724 11.8944 17.186 12.1176C16.6676 13.3344 16.1888 14.5656 15.386 15.552C15.2672 15.6996 15.026 16.0092 14.846 16.0272C14.486 16.0596 14.3816 15.408 14.36 15.0984C14.3453 14.6363 14.3888 14.1743 14.4896 13.7232C14.728 12.7433 15.0335 11.781 15.404 10.8432C15.6884 10.0188 16.124 9.29155 16.448 8.48515C16.61 8.07835 16.808 7.15675 16.3256 6.95875C16.0556 6.85075 15.7496 7.07395 15.5372 7.25035C15.2376 7.50571 14.979 7.80561 14.7704 8.13955C14.3165 8.89956 13.9505 9.70877 13.6796 10.5516C13.263 11.6886 12.9297 12.8545 12.6824 14.04C12.5924 14.4756 12.614 14.9364 12.5132 15.3684C12.4736 15.552 12.2432 16.1424 12.0452 16.0668C11.8472 15.9912 11.9732 15.1812 12.0056 14.9868C12.0649 14.5631 12.1761 14.1484 12.3368 13.752C12.4232 13.536 13.0856 12.4236 12.884 12.186C12.6824 11.9484 11.8796 12.8052 11.7356 12.978C11.2997 13.6234 10.9111 14.2996 10.5728 15.0012C10.3388 15.4044 9.94644 15.9984 9.49284 15.66C9.03924 15.3216 9.00684 14.4288 9.13284 13.8816C9.35604 12.9708 10.0688 12.4416 10.67 11.9268C11.0912 11.5668 12.1676 10.8864 12.2 10.1268C12.2324 9.36715 11.2712 9.93235 11.03 10.1052C10.2529 10.7176 9.61789 11.4914 9.16884 12.3732C8.65203 13.215 8.38487 14.1862 8.39844 15.174C8.44524 15.894 8.82324 16.7616 9.50724 16.614C10.2812 16.4376 10.7492 15.192 11.1092 14.454C11.3369 13.9659 11.5942 13.4922 11.8796 13.0356C12.002 12.8484 12.2792 12.3156 12.4988 12.3156C12.9488 12.2616 12.2576 13.5144 12.164 13.7124C11.8292 14.4324 11.1272 15.6132 11.3252 16.5132C11.4908 17.2332 12.146 16.9524 12.4772 16.578C12.9704 16.0092 13.1252 15.138 13.2548 14.364C13.5788 12.348 13.8236 10.2852 14.8892 8.63995C15.0512 8.38795 15.566 7.47355 15.8936 7.66795C16.2212 7.86235 15.7424 8.51755 15.6236 8.72275C15.3255 9.26839 15.0622 9.83231 14.8352 10.4112C14.3658 11.4533 14.0342 12.5521 13.8488 13.68C13.7264 14.526 13.5536 16.0704 14.3168 16.56C14.9972 16.9992 15.6056 15.9804 15.9728 15.4116C16.466 14.6448 16.7396 13.7016 17.1068 12.8448C16.8728 13.6836 16.8404 14.6808 17.3012 15.4008C17.5928 15.8544 18.1508 15.732 18.5216 15.5556C18.9506 15.2849 19.3076 14.9143 19.562 14.4756C20.084 13.6764 20.3036 12.6756 20.5232 11.6928C20.624 11.2356 20.7176 10.7712 20.8364 10.3176C20.965 9.85209 21.1461 9.40279 21.3764 8.97835C21.4619 8.80414 21.575 8.64488 21.7112 8.50675C21.992 8.23675 22.0712 8.66155 22.0928 8.91355C22.0765 9.43687 21.9693 9.95335 21.776 10.44C21.4727 11.3982 21.2191 12.3715 21.0164 13.356C20.9352 13.7857 20.8775 14.2195 20.8436 14.6556C20.8162 14.8061 20.8276 14.9611 20.8767 15.1059C20.9259 15.2508 21.0111 15.3808 21.1244 15.4836C21.56 15.8076 22.0676 15.1632 22.3304 14.8032C22.734 14.2389 23.0665 13.6271 23.3204 12.9816C23.3731 12.7865 23.4356 12.5943 23.5076 12.4056C23.6048 12.2076 23.8064 12.0456 23.8388 12.4056C23.8295 12.6496 23.7896 12.8915 23.72 13.1256C23.6616 13.5073 23.5786 13.8849 23.4716 14.256C23.3204 14.7348 23.2088 15.228 23.1116 15.7248C22.9712 16.3908 22.6472 17.5824 23.4176 17.8848C23.7776 18.0252 24.1376 17.7264 24.4436 17.5248C24.6272 17.388 24.8036 17.2404 24.9836 17.0892C25.073 17.0103 25.1681 16.9381 25.268 16.8732C25.268 16.9344 25.2428 16.992 25.232 17.0424C25.1957 17.2397 25.174 17.4394 25.1672 17.64C25.1265 17.9769 25.1762 18.3186 25.3112 18.63C26.0528 20.016 27.698 17.5968 28.1912 16.9308C28.4323 16.5873 28.718 16.2773 29.0408 16.0092C29.1164 15.9516 29.2748 15.7572 29.4296 15.6492C29.5844 15.5484 29.5484 16.0776 29.6204 16.146C30.182 16.6716 30.9596 14.8824 30.092 14.5224Z" fill="#A96A26"/>
<path opacity="0.4" d="M29.7178 16.8768C29.5378 16.6644 29.3002 16.7616 29.1346 16.9416C28.9674 17.1126 28.8547 17.3293 28.8106 17.5644C28.801 17.6226 28.8031 17.6822 28.8167 17.7397C28.8303 17.7972 28.8551 17.8514 28.8898 17.8992C28.9012 17.913 28.9146 17.9251 28.9294 17.9352C28.9435 17.957 28.9636 17.9743 28.9871 17.9851C29.0107 17.996 29.0369 17.9999 29.0626 17.9964C29.2497 17.9843 29.4261 17.905 29.5594 17.7732L29.635 17.6904L29.6746 17.6472C29.7313 17.5656 29.775 17.4757 29.8042 17.3808C29.8336 17.2963 29.8411 17.2058 29.8259 17.1176C29.8108 17.0295 29.7736 16.9466 29.7178 16.8768Z" fill="#A96A26"/>
<path opacity="0.4" d="M28.6484 18.4283C28.6332 18.4069 28.6118 18.3905 28.5872 18.3815C28.5682 18.3771 28.5485 18.3771 28.5296 18.3815C28.4986 18.3819 28.468 18.3885 28.4395 18.4009C28.4111 18.4133 28.3854 18.4311 28.364 18.4535C28.3231 18.4874 28.291 18.5306 28.2704 18.5795C28.2484 18.6262 28.2339 18.676 28.2272 18.7271C28.2218 18.752 28.2218 18.7778 28.2272 18.8027C28.2254 18.8231 28.2254 18.8435 28.2272 18.8639C28.2367 18.8903 28.2544 18.913 28.2776 18.9287C28.2912 18.9412 28.3071 18.9509 28.3244 18.9575C28.3766 18.9752 28.4332 18.9745 28.485 18.9555C28.5367 18.9365 28.5804 18.9004 28.6088 18.8531C28.666 18.7726 28.6927 18.6743 28.6844 18.5759C28.6865 18.5243 28.6741 18.4731 28.6484 18.4283Z" fill="#A96A26"/>
<g style="mix-blend-mode:screen">
<g style="mix-blend-mode:screen" opacity="0.4">
<path d="M11.9342 9.96839C11.3913 10.1207 10.8959 10.408 10.4942 10.8036C10.0365 11.2979 9.65437 11.8572 9.36016 12.4632C9.33136 12.5136 9.38176 12.5388 9.41056 12.5028C9.58696 12.2796 9.73096 12.024 9.90376 11.7828C10.0964 11.5324 10.3019 11.292 10.5194 11.0628C10.9515 10.643 11.4354 10.2801 11.9594 9.98279C11.9594 9.98279 11.9558 9.95759 11.9342 9.96839Z" fill="white"/>
</g>
<g style="mix-blend-mode:screen" opacity="0.4">
<path d="M9.43923 16.2468C9.31349 16.233 9.19301 16.1888 9.08825 16.1179C8.98348 16.047 8.89759 15.9516 8.83803 15.84C8.67066 15.5761 8.58084 15.2705 8.57883 14.958H8.55723C8.51763 15.5952 8.81283 16.398 9.41763 16.3332C9.45363 16.344 9.48963 16.254 9.43923 16.2468Z" fill="white"/>
</g>
<g style="mix-blend-mode:screen" opacity="0.4">
<path d="M12.355 16.3043C12.1786 16.4555 11.8582 16.6427 11.6566 16.4519C11.6566 16.4519 11.635 16.4519 11.6386 16.4519C11.6472 16.4899 11.6636 16.5257 11.6868 16.5571C11.7101 16.5884 11.7395 16.6145 11.7734 16.6338C11.8073 16.6531 11.8448 16.6652 11.8835 16.6692C11.9223 16.6732 11.9615 16.6691 11.9986 16.6571C12.1626 16.6012 12.3024 16.4906 12.3946 16.3439C12.4234 16.3259 12.3946 16.2683 12.355 16.3043Z" fill="white"/>
</g>
<g style="mix-blend-mode:screen" opacity="0.4">
<path d="M18.2916 14.0903C17.388 14.0399 18.3816 11.1383 18.3996 10.5695C18.3996 10.5479 18.378 10.5695 18.378 10.5695C18.2699 11.0054 18.1365 11.4345 17.9784 11.8547C17.8683 12.2072 17.7888 12.5686 17.7408 12.9347C17.7012 13.3487 17.7408 14.3351 18.2808 14.1443C18.2988 14.1479 18.324 14.0939 18.2916 14.0903Z" fill="white"/>
</g>
<g style="mix-blend-mode:screen" opacity="0.4">
<path d="M19.5517 14.04C19.3818 14.3458 19.1559 14.617 18.8857 14.8392C18.8425 14.886 18.8605 14.9688 18.9181 14.922C19.2363 14.7165 19.4701 14.4035 19.5769 14.04C19.5841 14.0076 19.5589 14.0076 19.5517 14.04Z" fill="white"/>
</g>
<g style="mix-blend-mode:screen" opacity="0.4">
<path d="M24.5626 10.1772C24.1522 9.97923 23.8174 10.26 23.5078 10.5768C23.5078 10.5768 23.5078 10.6344 23.5078 10.6164C23.7106 10.447 23.9638 10.3495 24.2278 10.3392C24.5158 10.3392 24.703 10.8576 24.6778 11.1672C24.6778 11.2104 24.7174 11.1996 24.7282 11.1672C24.8614 10.8828 24.865 10.3248 24.5626 10.1772Z" fill="white"/>
</g>
<g style="mix-blend-mode:screen" opacity="0.4">
<path d="M24.4978 11.6496C24.4726 11.7 24.4366 11.7504 24.4114 11.8008C24.3862 11.8512 24.4114 11.8836 24.433 11.8872C24.4546 11.8908 24.5014 11.8476 24.505 11.808C24.5086 11.7684 24.505 11.7036 24.505 11.6496C24.505 11.5956 24.5014 11.6388 24.4978 11.6496Z" fill="white"/>
</g>
<g style="mix-blend-mode:screen" opacity="0.4">
<path d="M26.4131 18.3816C26.0999 18.5292 25.7614 18.6984 25.531 18.2916C25.4005 17.9337 25.3489 17.5517 25.3799 17.172C25.3223 17.6652 25.1998 18.1404 25.4806 18.5616C25.7614 18.9828 26.2007 18.7164 26.4527 18.4752C26.4779 18.4428 26.4743 18.36 26.4131 18.3816Z" fill="white"/>
</g>
<g style="mix-blend-mode:screen" opacity="0.4">
<path d="M29.5666 17.0136C29.5608 16.9824 29.5443 16.9543 29.52 16.9339C29.4957 16.9136 29.4651 16.9023 29.4334 16.902C29.3787 16.9136 29.3268 16.9361 29.2811 16.9683C29.2353 17.0005 29.1965 17.0416 29.167 17.0892C29.1094 17.1684 29.0014 17.3376 29.0626 17.4492C29.0656 17.4932 29.0805 17.5355 29.1058 17.5716C29.167 17.6724 29.2966 17.5716 29.3578 17.5248C29.3951 17.4871 29.4288 17.4462 29.4586 17.4024C29.474 17.3796 29.4872 17.3555 29.4982 17.3304C29.4694 17.3916 29.5234 17.2908 29.5234 17.2872C29.5483 17.2467 29.565 17.2017 29.5724 17.1547C29.5798 17.1077 29.5779 17.0598 29.5666 17.0136Z" fill="white"/>
</g>
<g style="mix-blend-mode:screen" opacity="0.4">
<path d="M28.458 18.4356C28.4313 18.4467 28.4095 18.4672 28.3968 18.4932C28.3968 18.5184 28.3752 18.5688 28.3968 18.5904C28.4328 18.6336 28.476 18.5904 28.4976 18.54C28.5192 18.4896 28.512 18.4248 28.458 18.4356Z" fill="white"/>
</g>
<g style="mix-blend-mode:screen" opacity="0.4">
<path d="M30.0492 15.1848C30.0361 15.1708 30.0202 15.1595 30.0025 15.1519C29.9849 15.1442 29.9659 15.1403 29.9466 15.1403C29.9274 15.1403 29.9083 15.1442 29.8907 15.1519C29.873 15.1595 29.8572 15.1708 29.844 15.1848C29.7982 15.2198 29.76 15.2636 29.7315 15.3137C29.703 15.3638 29.685 15.4192 29.6784 15.4764C29.6719 15.5045 29.6711 15.5337 29.676 15.5621C29.681 15.5906 29.6916 15.6177 29.7072 15.642C29.7229 15.6606 29.7426 15.6753 29.7648 15.6852C29.7828 15.6976 29.8042 15.7042 29.826 15.7042C29.8479 15.7042 29.8692 15.6976 29.8872 15.6852C29.9581 15.6391 30.0134 15.5726 30.0456 15.4944C30.0723 15.4473 30.0867 15.3942 30.0873 15.3401C30.0879 15.2859 30.0748 15.2325 30.0492 15.1848Z" fill="white"/>
</g>
</g>
<path opacity="0.4" d="M10.7169 11.2932C10.6449 11.2932 10.5765 11.4732 10.6665 11.4696C10.7565 11.466 10.7997 11.2932 10.7169 11.2932Z" fill="#7B4E19"/>
<path opacity="0.4" d="M11.3181 10.7999C11.2641 10.7999 11.2137 10.9331 11.2821 10.9295C11.3505 10.9259 11.3865 10.7999 11.3181 10.7999Z" fill="#7B4E19"/>
<path opacity="0.4" d="M9.37774 12.6576C9.34534 12.6576 9.31654 12.7332 9.35614 12.7332C9.39574 12.7332 9.41374 12.6576 9.37774 12.6576Z" fill="#7B4E19"/>
<path opacity="0.4" d="M9.00003 13.8131C8.98203 13.8131 8.95683 13.8131 8.94603 13.8347V13.8563C8.92803 13.8887 8.94603 13.9175 8.98203 13.8923C8.98928 13.8892 8.99568 13.8843 9.00073 13.8783C9.00577 13.8722 9.00931 13.865 9.01107 13.8573C9.01282 13.8496 9.01273 13.8415 9.01081 13.8339C9.0089 13.8262 9.0052 13.8191 9.00003 13.8131Z" fill="#7B4E19"/>
<path opacity="0.4" d="M10.1264 15.9839C10.0796 15.9299 10.0184 16.0199 10.0112 16.0739C10.0112 16.1135 10.0328 16.1387 10.0616 16.1315C10.112 16.1243 10.1732 16.0343 10.1264 15.9839Z" fill="#7B4E19"/>
<path opacity="0.4" d="M9.63721 16.2C9.61201 16.2 9.59041 16.2576 9.61921 16.2576C9.64801 16.2576 9.66601 16.2 9.63721 16.2Z" fill="#7B4E19"/>
<path opacity="0.4" d="M12.6 16.0092C12.5676 16.0092 12.5352 16.092 12.5784 16.092C12.6216 16.092 12.6252 16.0092 12.6 16.0092Z" fill="#7B4E19"/>
<path opacity="0.4" d="M12.8373 14.76C12.8255 14.7642 12.815 14.7713 12.8068 14.7808C12.7985 14.7903 12.793 14.8017 12.7905 14.814C12.7905 14.8608 12.7905 14.8896 12.8409 14.8716C12.8572 14.8624 12.8703 14.8486 12.8786 14.832C12.887 14.8153 12.8901 14.7965 12.8877 14.778C12.8805 14.76 12.8553 14.76 12.8373 14.76Z" fill="#7B4E19"/>
<path opacity="0.4" d="M16.3764 8.1936C16.3764 8.1936 16.4124 8.1936 16.4268 8.172C16.4952 8.0604 16.3044 8.1324 16.3764 8.1936Z" fill="#7B4E19"/>
<path opacity="0.4" d="M16.3116 7.38351C16.2936 7.38351 16.2792 7.38351 16.2684 7.38351C16.2634 7.39623 16.2634 7.41039 16.2684 7.42311C16.2864 7.46271 16.3296 7.42311 16.3368 7.39431C16.344 7.36551 16.326 7.39071 16.3116 7.38351Z" fill="#7B4E19"/>
<path opacity="0.4" d="M14.9542 16.2C14.8966 16.2 14.839 16.3404 14.911 16.3368C14.983 16.3332 15.0226 16.2 14.9542 16.2Z" fill="#7B4E19"/>
<path opacity="0.4" d="M14.3313 16.1711C14.2917 16.1711 14.2521 16.2755 14.3061 16.2719C14.3601 16.2683 14.3997 16.1711 14.3313 16.1711Z" fill="#7B4E19"/>
<path opacity="0.4" d="M19.5297 13.518C19.5081 13.4928 19.4757 13.518 19.4577 13.536C19.4481 13.549 19.4429 13.5647 19.4429 13.581C19.4429 13.5972 19.4481 13.6129 19.4577 13.626C19.4829 13.6512 19.5153 13.626 19.5297 13.626V13.608C19.5394 13.5949 19.5446 13.5792 19.5446 13.563C19.5446 13.5467 19.5394 13.531 19.5297 13.518Z" fill="#7B4E19"/>
<path opacity="0.4" d="M18.4964 14.8535C18.446 14.8535 18.3956 14.9831 18.4604 14.9831C18.5252 14.9831 18.5648 14.8535 18.4964 14.8535Z" fill="#7B4E19"/>
<path opacity="0.4" d="M17.6398 14.6232C17.6002 14.6232 17.5642 14.7168 17.611 14.7168C17.6578 14.7168 17.6938 14.6232 17.6398 14.6232Z" fill="#7B4E19"/>
<path opacity="0.4" d="M17.6396 14.1047C17.6036 14.1047 17.5712 14.1911 17.6144 14.1875C17.6576 14.1839 17.6972 14.1047 17.6396 14.1047Z" fill="#7B4E19"/>
<path opacity="0.4" d="M17.7983 15.3684C17.7934 15.3655 17.7878 15.364 17.7821 15.364C17.7765 15.364 17.7709 15.3655 17.7659 15.3684C17.7479 15.39 17.7479 15.4476 17.7659 15.4404C17.7839 15.4332 17.8343 15.39 17.7983 15.3684Z" fill="#7B4E19"/>
<path opacity="0.4" d="M21.006 9.24475C20.9736 9.24475 20.9484 9.32035 20.9844 9.31675C21.0204 9.31315 21.0456 9.24475 21.006 9.24475Z" fill="#7B4E19"/>
<path opacity="0.4" d="M20.7108 9.96114C20.7108 9.91434 20.628 9.96114 20.6352 10.0187C20.6424 10.0763 20.6352 10.0619 20.6748 10.0619C20.7144 10.0619 20.7504 9.97914 20.7108 9.96114Z" fill="#7B4E19"/>
<path opacity="0.4" d="M22.5683 13.9068C22.5683 13.9068 22.5683 13.8852 22.5467 13.8852C22.5179 13.8564 22.4819 13.8564 22.4927 13.95C22.4927 13.95 22.4927 13.95 22.5143 13.95C22.5899 13.9896 22.5863 13.9428 22.5683 13.9068Z" fill="#7B4E19"/>
<path opacity="0.4" d="M22.0896 13.8744C22.0356 13.8744 21.9852 14.0076 22.0536 14.004C22.122 14.0004 22.158 13.8744 22.0896 13.8744Z" fill="#7B4E19"/>
<path opacity="0.4" d="M23.713 11.4264C23.677 11.4264 23.641 11.52 23.6878 11.52C23.7346 11.52 23.7598 11.4264 23.713 11.4264Z" fill="#7B4E19"/>
<path opacity="0.4" d="M24.2169 10.9187C24.1665 10.9187 24.1197 11.0411 24.1845 11.0375C24.2493 11.0339 24.2781 10.9187 24.2169 10.9187Z" fill="#7B4E19"/>
<path opacity="0.4" d="M24.0765 12.5028C24.0369 12.5028 23.9973 12.6036 24.0477 12.6036C24.0981 12.6036 24.1197 12.5028 24.0765 12.5028Z" fill="#7B4E19"/>
<path opacity="0.4" d="M24.3141 17.2583C24.2673 17.2583 24.2241 17.3591 24.2673 17.3771C24.3105 17.3951 24.3645 17.3771 24.3573 17.3123C24.3569 17.2998 24.3525 17.2878 24.3447 17.2781C24.3369 17.2684 24.3262 17.2614 24.3141 17.2583Z" fill="#7B4E19"/>
<path opacity="0.4" d="M23.7599 17.3952C23.7383 17.3736 23.7131 17.3952 23.6987 17.3952V17.4132C23.6908 17.4242 23.6865 17.4375 23.6865 17.451C23.6865 17.4646 23.6908 17.4778 23.6987 17.4888C23.6987 17.5104 23.7455 17.4888 23.7599 17.4888V17.4708C23.7669 17.4595 23.7706 17.4464 23.7706 17.433C23.7706 17.4197 23.7669 17.4066 23.7599 17.3952Z" fill="#7B4E19"/>
<path opacity="0.4" d="M25.6748 17.3879C25.6316 17.3879 25.5884 17.4995 25.6424 17.4995C25.6964 17.4995 25.7324 17.3879 25.6748 17.3879Z" fill="#7B4E19"/>
<path opacity="0.4" d="M25.9883 18.3096C25.9667 18.3096 25.9451 18.3672 25.9883 18.3672C26.0315 18.3672 26.0171 18.3096 25.9883 18.3096Z" fill="#7B4E19"/>
<path opacity="0.4" d="M27.824 16.7832C27.7808 16.7832 27.7412 16.884 27.7952 16.884C27.8492 16.884 27.8744 16.7832 27.824 16.7832Z" fill="#7B4E19"/>
<path opacity="0.4" d="M27.2661 17.3879C27.2337 17.3879 27.2013 17.4743 27.2445 17.4743C27.2877 17.4743 27.3093 17.3879 27.2661 17.3879Z" fill="#7B4E19"/>
<path opacity="0.4" d="M28.7999 15.6671C28.7495 15.6671 28.7027 15.7859 28.7639 15.7859C28.8251 15.7859 28.8755 15.6671 28.7999 15.6671Z" fill="#7B4E19"/>
<path opacity="0.4" d="M29.3577 14.8824C29.3577 14.9148 29.3937 14.8824 29.3937 14.8824C29.3937 14.8392 29.3541 14.8572 29.3577 14.8824Z" fill="#7B4E19"/>
<path opacity="0.4" d="M29.2607 17.73C29.2607 17.766 29.3111 17.73 29.3147 17.7084C29.3327 17.64 29.2427 17.6652 29.2607 17.73Z" fill="#7B4E19"/>
<path opacity="0.4" d="M29.6854 17.3268C29.6854 17.3268 29.6638 17.3548 29.6854 17.3548C29.707 17.3548 29.6998 17.3268 29.6854 17.3268Z" fill="#7B4E19"/>
<path opacity="0.4" d="M28.5119 18.5615C28.4615 18.5615 28.4147 18.6803 28.4759 18.6803C28.5371 18.6803 28.5731 18.5615 28.5119 18.5615Z" fill="#7B4E19"/>
<path opacity="0.4" d="M13.2152 13.1759C13.2152 13.1759 13.1864 13.1759 13.1792 13.1759C13.1792 13.2011 13.1792 13.2371 13.2008 13.2299C13.2224 13.2227 13.2332 13.2011 13.2152 13.1759Z" fill="#7B4E19"/>
<path opacity="0.4" d="M13.3738 11.88C13.3306 11.88 13.291 11.9808 13.345 11.9808C13.399 11.9808 13.4278 11.88 13.3738 11.88Z" fill="#7B4E19"/>
<path opacity="0.4" d="M11.196 14.04C11.196 14.004 11.142 14.04 11.1348 14.0652C11.1306 14.0716 11.1284 14.0791 11.1284 14.0868C11.1284 14.0944 11.1306 14.1019 11.1348 14.1084C11.1348 14.1084 11.1636 14.1084 11.1708 14.1084C11.1786 14.108 11.1861 14.1053 11.1923 14.1007C11.1986 14.0961 11.2034 14.0898 11.2061 14.0825C11.2087 14.0752 11.2092 14.0673 11.2074 14.0597C11.2057 14.0522 11.2017 14.0453 11.196 14.04Z" fill="#7B4E19"/>
<path opacity="0.4" d="M9.02518 15.5627C8.98198 15.5627 8.94238 15.6671 8.99638 15.6635C9.05038 15.6599 9.07558 15.5627 9.02518 15.5627Z" fill="#7B4E19"/>
<path opacity="0.4" d="M8.76947 15.048C8.71187 15.048 8.65787 15.192 8.72987 15.1884C8.80187 15.1848 8.84147 15.048 8.76947 15.048Z" fill="#7B4E19"/>
<path d="M25.9199 13.68C26.0552 13.5331 26.2243 13.4216 26.4125 13.3551C26.6008 13.2886 26.8024 13.2691 26.9999 13.2984C27.7199 13.3884 28.3895 13.8492 28.3247 14.0184C28.2599 14.1876 27.6299 14.238 27.6299 14.238L25.9199 13.68Z" fill="#AA6102"/>
<path d="M26.7334 13.2912C26.5247 13.3961 26.33 13.5267 26.1538 13.68C26.3374 13.5396 26.5138 13.4244 26.7262 13.2984C26.7478 13.32 26.7622 13.2768 26.7334 13.2912Z" fill="#8E4F03"/>
<path d="M27.1653 13.3523C26.9043 13.4532 26.6611 13.5954 26.4453 13.7735C26.4453 13.7735 26.4453 13.8095 26.4453 13.7987C26.6745 13.6448 26.9152 13.5088 27.1653 13.3919C27.1653 13.3919 27.1941 13.3415 27.1653 13.3523Z" fill="#8E4F03"/>
<path d="M27.6444 13.5288C27.3546 13.6142 27.0835 13.7534 26.8452 13.9392C26.8452 13.9644 26.8452 13.9392 26.8452 13.9392C27.0966 13.7886 27.3603 13.6597 27.6336 13.554C27.6336 13.554 27.6768 13.518 27.6444 13.5288Z" fill="#8E4F03"/>
<path d="M28.0328 13.752C27.8924 13.7952 27.7556 13.8456 27.6188 13.8996C27.482 13.9536 27.3884 14.0256 27.2588 14.0724C27.2588 14.0724 27.2336 14.1012 27.2588 14.1012C27.3641 14.0694 27.4655 14.0259 27.5612 13.9716C27.7124 13.9068 27.8672 13.8564 28.0184 13.788C28.0364 13.7844 28.0796 13.7412 28.0328 13.752Z" fill="#8E4F03"/>
<path d="M30.4736 16.7832C30.8752 16.8613 31.2691 16.9745 31.6508 17.1216C32.8712 17.6472 33.4508 17.694 33.6056 17.6184C33.8372 17.4376 34.0008 17.1839 34.07 16.8984C34.07 16.8048 33.8468 16.6932 33.7352 16.6356C32.7469 16.2801 31.704 16.0997 30.6536 16.1028C30.6235 16.3365 30.5629 16.5652 30.4736 16.7832Z" fill="#AA6102"/>
<path d="M34.0991 16.5816C34.1927 16.5564 34.3619 15.0552 34.3619 14.9256C34.3619 14.8644 34.2071 14.8464 34.0451 14.8428C32.7203 14.9688 31.0931 15.3 30.6143 15.4008C30.6776 15.6354 30.6911 15.8806 30.6539 16.1208C31.7042 16.1177 32.7471 16.298 33.7355 16.6536L33.6599 16.6212C33.6599 16.6212 34.0019 16.6032 34.0991 16.5816Z" fill="#864000"/>
<path d="M33.217 13.2947C33.217 13.2947 33.973 13.1147 33.937 12.9347C33.8396 12.6443 33.6348 12.4021 33.3646 12.2579C33.1414 12.2039 32.1118 12.6827 31.1038 13.4279C30.5744 13.8281 30.0214 14.196 29.4478 14.5295C29.7031 14.5631 29.9484 14.6502 30.1678 14.7851C31.1375 14.135 32.196 13.6281 33.3106 13.2803L33.217 13.2947Z" fill="#AA6102"/>
<path d="M34.3764 14.6519C34.5204 14.0723 34.2468 13.2767 34.0884 13.2335C33.8246 13.2238 33.5605 13.2406 33.3 13.2839C32.1855 13.6317 31.127 14.1386 30.1572 14.7887C30.3272 14.901 30.463 15.0579 30.5496 15.2423C31.7811 14.824 33.0762 14.6242 34.3764 14.6519Z" fill="#864000"/>
<path d="M33.6996 14.8572C33.9367 14.8351 34.1669 14.7653 34.3764 14.652C33.0776 14.6235 31.7838 14.8221 30.5532 15.2388C30.5768 15.2915 30.5972 15.3456 30.6144 15.4008C31.0932 15.3 32.7204 14.9688 34.0452 14.8428C33.9298 14.8414 33.8145 14.8462 33.6996 14.8572Z" fill="#AA6102"/>
<g style="mix-blend-mode:screen">
<path d="M33.188 12.3048C32.755 12.4851 32.3393 12.7044 31.946 12.96C31.4746 13.2883 31.0325 13.6569 30.6248 14.0616C30.6032 14.0868 30.6248 14.1264 30.6248 14.0976C31.0532 13.7376 31.4852 13.4028 31.9388 13.086C32.1433 12.9411 32.3588 12.8123 32.5832 12.7008C32.7816 12.6251 32.9752 12.5373 33.1628 12.438C33.2132 12.4164 33.2852 12.2616 33.188 12.3048Z" fill="#AA6102"/>
</g>
<g style="mix-blend-mode:multiply" opacity="0.5">
<path d="M31.8383 16.7219C31.7013 16.6469 31.5816 16.5442 31.4867 16.4202C31.3919 16.2962 31.324 16.1537 31.2875 16.0019C31.2518 15.7105 31.1867 15.4234 31.0931 15.1451C30.9789 14.9108 30.8082 14.7084 30.5965 14.5564C30.3847 14.4043 30.1385 14.3072 29.8799 14.2739C29.6099 14.4467 29.4551 14.5295 29.4551 14.5295C29.7104 14.5631 29.9558 14.6502 30.1751 14.7851C30.3451 14.8974 30.4808 15.0543 30.5675 15.2387C30.591 15.2915 30.6114 15.3456 30.6287 15.4007C30.692 15.6353 30.7055 15.8806 30.6683 16.1207C30.6369 16.3495 30.5764 16.5733 30.4883 16.7867C30.8898 16.8648 31.2838 16.978 31.6655 17.1251C32.8859 17.6507 33.4655 17.6975 33.6203 17.6219C33.7367 17.5439 33.8339 17.4405 33.9047 17.3195C33.1765 17.2977 32.4657 17.0922 31.8383 16.7219Z" fill="#AA6102"/>
</g>
<path d="M12.3296 20.1599C12.3296 20.1599 14.5652 21.4559 15.9296 21.3155C17.0096 21.1355 16.718 20.4227 16.394 20.2103C16.07 19.9979 12.3296 20.1599 12.3296 20.1599Z" fill="#864000"/>
<g style="mix-blend-mode:multiply" opacity="0.5">
<path d="M15.6742 21.1823C15.3142 21.0023 14.911 20.8439 14.5366 20.6639C14.1622 20.4839 13.6798 20.4047 13.3198 20.2103C13.3198 20.2103 13.2946 20.2103 13.3198 20.2319C13.6639 20.4175 14.0257 20.5683 14.3998 20.6819C14.8031 20.8935 15.2191 21.0798 15.6454 21.2399C15.6454 21.2399 15.6922 21.1931 15.6742 21.1823Z" fill="#864000"/>
<path d="M15.9764 21.1067C15.3788 20.8115 14.7668 20.5415 14.1764 20.2319C14.1764 20.2319 14.1476 20.2319 14.1764 20.2535C14.7477 20.6078 15.3502 20.9091 15.9764 21.1535C15.9764 21.1535 15.998 21.1175 15.9764 21.1067Z" fill="#864000"/>
<path d="M16.4336 20.8583C16.2254 20.7432 16.0073 20.6469 15.782 20.5703C15.5298 20.4374 15.2627 20.3347 14.9864 20.2643C14.9864 20.2643 14.9576 20.2895 14.9864 20.2931C15.224 20.3783 15.456 20.4781 15.6812 20.5919C15.9224 20.6927 16.1708 20.7935 16.4012 20.9015C16.4156 20.9087 16.448 20.8799 16.4336 20.8583Z" fill="#864000"/>
<path d="M16.5166 20.5632C16.3186 20.4588 16.099 20.3976 15.901 20.2968C15.883 20.2968 15.8542 20.322 15.8686 20.3328C15.9586 20.3868 16.0522 20.4192 16.1422 20.4624C16.2322 20.5056 16.3654 20.5704 16.4806 20.6136C16.5022 20.6172 16.5346 20.574 16.5166 20.5632Z" fill="#864000"/>
</g>
<path d="M10.8467 12.3372C11.1284 12.1561 11.3924 11.9487 11.6351 11.718C11.9375 11.412 12.0419 11.2536 13.1759 10.9728C14.7641 10.661 16.3895 10.5845 17.9999 10.746C19.5731 10.9188 22.0895 11.6604 24.6059 13.0932C22.8959 12.6828 16.9559 10.9656 10.8467 12.3372Z" fill="#AA6102"/>
<g style="mix-blend-mode:multiply" opacity="0.5">
<path d="M23.4645 12.4847C23.1808 12.5083 22.8953 12.4864 22.6185 12.4199C22.3665 12.3551 22.1397 12.2255 21.8985 12.1715C21.6573 12.1175 21.3405 12.0419 21.0561 11.9879C20.4729 11.8763 19.8789 11.8475 19.2921 11.7827C18.7053 11.7179 18.1797 11.5883 17.6217 11.5199C16.4528 11.407 15.2742 11.4457 14.1153 11.6351C13.1211 11.7365 12.134 11.8988 11.1597 12.1211C10.9869 12.2471 10.8501 12.3371 10.8501 12.3371C16.9701 10.9655 22.8993 12.6971 24.6201 13.0931C24.2313 12.8735 23.8461 12.6719 23.4645 12.4847Z" fill="#AA6102"/>
</g>
<path d="M25.0308 18.8279C25.0308 18.8279 26.5788 19.4975 27.3816 19.1879C28.1844 18.8783 28.3968 18.4211 27.9 18.1727C27.6622 18.062 27.4366 17.9269 27.2268 17.7695L25.0308 18.8279Z" fill="#864000"/>
<path d="M9.36002 16.8408C9.45722 14.9436 8.11082 13.8564 7.45562 13.7772C4.70522 14.1624 2.55602 17.0172 2.55602 17.0172C2.55602 17.0172 2.21762 16.9812 2.32922 17.1936C2.44327 17.3421 2.60246 17.4495 2.78282 17.4996C2.67482 17.748 2.88002 18 3.26522 18.0252C3.71882 18.7848 4.74122 19.1952 6.96962 19.5264C8.24762 19.3752 9.27722 18.5328 9.36002 16.8408Z" fill="#C6862C"/>
<path d="M30.776 15.03C30.3368 14.3532 29.8472 14.364 29.2784 14.4792C28.7096 14.5944 28.778 14.5044 26.2868 13.7592C23.4068 12.6252 22.2188 12.0312 17.42 11.646C13.9629 11.3634 10.4989 12.1033 7.45884 13.7736C8.11404 13.8528 9.46044 14.94 9.36324 16.8372C9.27684 18.5292 8.24724 19.3572 6.96924 19.5228C7.51644 19.602 8.13564 19.6776 8.83764 19.7532C18.9176 21.1536 22.9424 19.6452 24.6776 19.098C26.4128 18.5508 28.1768 17.5716 29.0876 17.172C29.9984 16.7724 30.0128 16.7256 30.3728 16.7796C30.8948 16.8768 31.2188 15.7104 30.776 15.03Z" fill="#C17500"/>
<path d="M10.2417 18.3996C10.8985 16.9131 11.8194 15.558 12.9597 14.4C14.1117 13.2408 14.4609 12.942 14.4609 12.942C14.1929 13.8231 13.7303 14.6326 13.1073 15.3108C12.0057 16.56 11.1345 17.6904 10.2417 18.3996Z" fill="#E6B75F"/>
<path d="M13.374 18.3599C13.374 18.3599 15.3144 14.4683 17.838 12.9995C16.2504 15.1559 14.1876 17.7047 13.374 18.3599Z" fill="#E6B75F"/>
<path d="M16.5093 18.1547C16.5093 18.1547 18.5397 14.5547 20.5233 13.1147C19.2813 15.1847 17.9997 16.9955 16.5093 18.1547Z" fill="#E6B75F"/>
<path d="M19.897 18C19.897 18 21.5386 14.976 23.5942 13.9932C22.6402 15.5484 20.923 17.5464 19.897 18Z" fill="#E6B75F"/>
<path d="M23.7021 17.2799C23.7021 17.2799 25.1422 15.3683 26.1034 14.8679C25.3762 16.0163 24.7281 16.7579 23.7021 17.2799Z" fill="#E6B75F"/>
<g style="mix-blend-mode:multiply">
<path d="M12.4485 15.4799C12.0165 16.0127 11.6241 16.5779 11.1777 17.0963C10.9597 17.3426 10.7542 17.5997 10.5621 17.8667C10.5045 17.9495 10.4289 18.0431 10.3569 18.1403C10.2813 18.3023 10.2417 18.3959 10.2417 18.3959C11.1345 17.6759 12.0057 16.5455 13.0893 15.3179C13.6304 14.7127 14.0562 14.0136 14.3457 13.2551C13.7121 14.0003 13.0641 14.7275 12.4485 15.4799Z" fill="#BA842D"/>
<path d="M17.2147 13.7159C16.7683 14.2163 16.2427 14.6375 15.8323 15.1559C15.4219 15.6743 14.9971 16.3259 14.5435 16.8875C14.3239 17.1611 14.1079 17.4419 13.8703 17.6975C13.7731 17.8019 13.6543 17.9063 13.5499 18.0179C13.4347 18.2303 13.3735 18.3563 13.3735 18.3563C14.1511 17.7227 16.0735 15.3611 17.6287 13.2803C17.4847 13.4279 17.3479 13.5683 17.2147 13.7159Z" fill="#BA842D"/>
<path d="M18.9287 15.1199C18.4931 15.6131 18.0971 16.1423 17.6831 16.6535C17.2691 17.1647 16.8983 17.6399 16.5239 18.1331V18.1547C17.8415 17.1359 18.9899 15.6059 20.0951 13.8347C19.7459 14.3171 19.3031 14.6951 18.9287 15.1199Z" fill="#BA842D"/>
<path d="M22.0171 15.6131C21.6403 16.0451 21.2695 16.4843 20.9047 16.9307C20.7175 17.1647 20.5447 17.4059 20.3287 17.6219C20.2207 17.7335 20.1127 17.8415 20.0083 17.9567C21.0379 17.4059 22.6651 15.5051 23.5831 13.9967C23.0292 14.5037 22.5063 15.0434 22.0171 15.6131Z" fill="#BA842D"/>
<path d="M25.3472 15.6527C25.0484 15.9659 24.7604 16.2899 24.4436 16.5851C24.2024 16.8047 23.9576 17.0207 23.7236 17.2583C24.6992 16.7579 25.3364 16.0451 26.0276 14.9651C25.8044 15.1883 25.5596 15.4187 25.3472 15.6527Z" fill="#BA842D"/>
</g>
<g style="mix-blend-mode:multiply" opacity="0.5">
<path d="M30.776 15.0299C30.3368 14.3531 29.8472 14.3639 29.2784 14.4791C29.3589 14.6473 29.378 14.8383 29.3324 15.0191C29.1596 15.6311 28.3928 15.9083 27.8564 16.0991C26.6 16.5239 25.448 17.0531 24.1556 17.3339C22.7348 17.6845 21.2913 17.9359 19.8356 18.0863C18.3956 18.1835 16.9952 18.1223 15.5624 18.0863C14.2504 18.05 12.949 17.8394 11.6924 17.4599C11.1767 17.3023 10.7129 17.0088 10.3496 16.6103C10.0818 16.2793 9.85573 15.9165 9.67644 15.5303C9.26244 14.7671 8.59644 13.9067 7.72164 13.6295L7.45884 13.7735C8.11404 13.8527 9.46044 14.9399 9.36324 16.8371C9.27684 18.5291 8.24724 19.3571 6.96924 19.5227C7.51644 19.6019 8.13564 19.6775 8.83764 19.7531C18.9176 21.1535 22.9424 19.6451 24.6776 19.0979C26.4128 18.5507 28.1768 17.5715 29.0876 17.1719C29.9984 16.7723 30.0128 16.7255 30.3728 16.7795C30.8948 16.8767 31.2188 15.7103 30.776 15.0299Z" fill="#C17500"/>
</g>
<g style="mix-blend-mode:multiply" opacity="0.5">
<path d="M8.38404 19.3608C8.7085 19.1859 8.98912 18.9397 9.20484 18.6408C9.43466 18.2679 9.55214 17.8367 9.54324 17.3988C9.58678 16.5216 9.42917 15.6461 9.08244 14.8392C8.91019 14.4353 8.6037 14.1034 8.21484 13.8996C8.02404 13.8204 7.82244 13.7628 7.63524 13.6836L7.45884 13.7808C8.11404 13.86 9.46044 14.9472 9.36324 16.8444C9.27684 18.5364 8.24724 19.3644 6.96924 19.53L7.85124 19.6488C8.03124 19.5588 8.21124 19.4652 8.38404 19.3608Z" fill="#C17500"/>
</g>
<path d="M12.8445 11.0988C12.4863 11.3682 12.1718 11.6912 11.9121 12.0564C12.1846 11.7107 12.4963 11.3978 12.8409 11.124C12.8769 11.1132 12.8733 11.0772 12.8445 11.0988Z" fill="#8E4F03"/>
<path d="M13.6583 10.8972C13.216 11.1615 12.8256 11.5043 12.5063 11.9088C12.5063 11.9088 12.5063 11.9376 12.5063 11.9088C12.8631 11.5432 13.2564 11.2151 13.6799 10.9296C13.6799 10.9296 13.6799 10.8792 13.6583 10.8972Z" fill="#8E4F03"/>
<path d="M14.4536 10.7999C13.9447 11.0602 13.4844 11.4061 13.0928 11.8223C13.0928 11.8223 13.0928 11.8511 13.0928 11.8223C13.5072 11.4391 13.9623 11.1023 14.45 10.8179C14.45 10.8179 14.4824 10.7999 14.4536 10.7999Z" fill="#8E4F03"/>
<path d="M15.2601 10.7675C14.807 11.0264 14.3813 11.3304 13.9893 11.6747C13.9893 11.6747 13.9893 11.7251 13.9893 11.7035C14.392 11.374 14.8165 11.0721 15.2601 10.7999C15.2601 10.7999 15.2817 10.7531 15.2601 10.7675Z" fill="#8E4F03"/>
<path d="M15.8759 10.7352C15.4522 10.9565 15.0679 11.2459 14.7383 11.592C14.7383 11.592 14.7383 11.6136 14.7383 11.592C15.0879 11.2812 15.465 11.0029 15.8651 10.7604C15.8651 10.7604 15.9047 10.7172 15.8759 10.7352Z" fill="#8E4F03"/>
<path d="M16.4984 10.7424C16.0933 10.9786 15.7154 11.2586 15.3716 11.5776C15.3716 11.5776 15.3716 11.6064 15.3716 11.5956C15.548 11.4768 15.7028 11.3148 15.8792 11.1924C16.0556 11.07 16.2968 10.926 16.4984 10.7856C16.52 10.7712 16.5344 10.7208 16.4984 10.7424Z" fill="#8E4F03"/>
<path d="M17.125 10.7172C16.7078 10.9347 16.3265 11.2152 15.9946 11.5488C15.9946 11.5668 15.9946 11.5992 15.9946 11.5776C16.3522 11.2821 16.7259 11.0069 17.1142 10.7532C17.1142 10.7532 17.1538 10.6992 17.125 10.7172Z" fill="#8E4F03"/>
<path d="M17.6757 10.7999C17.2778 10.9767 16.9202 11.2327 16.6245 11.5523C16.7874 11.4105 16.9594 11.2794 17.1393 11.1599C17.3085 11.0411 17.4993 10.9583 17.6721 10.8467C17.6865 10.8503 17.7117 10.7999 17.6757 10.7999Z" fill="#8E4F03"/>
<path d="M18.2914 10.8252C17.8854 11.0089 17.514 11.261 17.1934 11.5704C17.1934 11.5956 17.1934 11.5704 17.1934 11.5704C17.5328 11.3009 17.8941 11.0601 18.2734 10.8504C18.2734 10.8504 18.3202 10.8 18.2914 10.8252Z" fill="#8E4F03"/>
<path d="M19.0547 10.89C18.6284 11.1103 18.2181 11.3605 17.8271 11.6388C17.8271 11.6388 17.8271 11.664 17.8271 11.6568C18.0138 11.5471 18.1941 11.4269 18.3671 11.2968C18.5903 11.16 18.8243 11.0376 19.0511 10.908C19.0799 10.9188 19.0799 10.8828 19.0547 10.89Z" fill="#8E4F03"/>
<path d="M19.573 11.1203C19.394 11.2113 19.223 11.3173 19.0618 11.4371C18.9394 11.5271 18.8314 11.6567 18.7018 11.7359C18.7018 11.7359 18.6838 11.7611 18.7018 11.7575C18.8316 11.6799 18.9523 11.5881 19.0618 11.4839C19.2274 11.3687 19.4002 11.2643 19.573 11.1599C19.5946 11.1599 19.609 11.1023 19.573 11.1203Z" fill="#8E4F03"/>
<path d="M20.3471 11.3184C20.1082 11.4672 19.8797 11.632 19.6631 11.8116C19.6631 11.8116 19.6631 11.862 19.6631 11.844C19.8935 11.6892 20.1095 11.5164 20.3399 11.3616C20.3651 11.3472 20.3795 11.2968 20.3471 11.3184Z" fill="#8E4F03"/>
<path d="M21.0096 11.4875C20.7919 11.6145 20.589 11.7655 20.4048 11.9375C20.4048 11.9555 20.4048 11.9843 20.4048 11.9663C20.5956 11.8079 20.8008 11.6711 20.9988 11.5235C21.0276 11.5199 21.042 11.4695 21.0096 11.4875Z" fill="#8E4F03"/>
<path d="M21.632 11.7036C21.4502 11.8084 21.278 11.9288 21.1172 12.0636C21.1172 12.0636 21.1172 12.1032 21.1172 12.0888C21.2864 11.97 21.4592 11.862 21.632 11.7288C21.65 11.7288 21.6608 11.6892 21.632 11.7036Z" fill="#8E4F03"/>
<path d="M21.9599 11.88L21.7835 12.006C21.7223 12.0528 21.6683 12.1104 21.6035 12.1536C21.6035 12.1536 21.6035 12.1788 21.6035 12.1716C21.667 12.1317 21.7283 12.0884 21.7871 12.042L21.9671 11.9124C21.9671 11.9124 21.9779 11.88 21.9599 11.88Z" fill="#8E4F03"/>
<g style="mix-blend-mode:multiply" opacity="0.5">
<path d="M26.9386 19.1592C26.5354 18.9902 26.1232 18.8436 25.7038 18.72C25.7038 18.72 25.6714 18.7452 25.6858 18.7524C26.089 18.918 26.5066 19.0476 26.9134 19.1916C26.9314 19.2024 26.9566 19.1664 26.9386 19.1592Z" fill="#864000"/>
<path d="M27.3165 19.0583C26.9133 18.8603 26.4597 18.7667 26.0421 18.6011C26.0421 18.6011 26.0133 18.6011 26.0421 18.6263C26.4548 18.8065 26.8765 18.9651 27.3057 19.1015C27.3057 19.1015 27.3345 19.0799 27.3165 19.0583Z" fill="#864000"/>
<path d="M27.8133 18.7595C27.6081 18.6875 27.4029 18.6335 27.1941 18.5759C26.9853 18.5183 26.8017 18.4355 26.6001 18.3887C26.7693 18.4391 26.9241 18.5219 27.0897 18.5759C27.3273 18.6551 27.5649 18.7127 27.8097 18.7811C27.8061 18.7991 27.8313 18.7667 27.8133 18.7595Z" fill="#864000"/>
<path d="M28.1013 18.4895C27.7629 18.3599 27.4065 18.2627 27.0609 18.1511C27.3893 18.3067 27.7332 18.4274 28.0869 18.5111C28.0797 18.5363 28.1229 18.4967 28.1013 18.4895Z" fill="#864000"/>
</g>
<path d="M6.47957 15.9516C6.46746 16.1833 6.36411 16.4009 6.1921 16.5567C6.02009 16.7125 5.79341 16.7939 5.56157 16.7832C5.44563 16.7965 5.32819 16.7851 5.21694 16.7499C5.1057 16.7146 5.00316 16.6562 4.91606 16.5785C4.82897 16.5009 4.75927 16.4057 4.71155 16.2992C4.66383 16.1927 4.63916 16.0773 4.63916 15.9606C4.63916 15.8439 4.66383 15.7285 4.71155 15.622C4.75927 15.5155 4.82897 15.4203 4.91606 15.3426C5.00316 15.2649 5.1057 15.2065 5.21694 15.1713C5.32819 15.136 5.44563 15.1247 5.56157 15.138C5.79048 15.127 6.0146 15.206 6.18611 15.358C6.35761 15.51 6.46293 15.723 6.47957 15.9516Z" fill="#8E4F03"/>
<path d="M6.11985 15.9552C6.12127 16.0716 6.08808 16.1857 6.02447 16.2832C5.96087 16.3806 5.86973 16.4569 5.76264 16.5025C5.65555 16.548 5.53734 16.5606 5.42304 16.5388C5.30875 16.517 5.20352 16.4617 5.12073 16.3799C5.03794 16.2981 4.98133 16.1936 4.9581 16.0796C4.93487 15.9656 4.94606 15.8472 4.99026 15.7396C5.03445 15.6319 5.10965 15.5398 5.2063 15.475C5.30295 15.4102 5.41668 15.3756 5.53305 15.3756C5.60963 15.3751 5.68556 15.3898 5.7565 15.4186C5.82744 15.4475 5.892 15.4901 5.94649 15.5439C6.00098 15.5977 6.04433 15.6617 6.07408 15.7323C6.10382 15.8029 6.11937 15.8786 6.11985 15.9552Z" fill="#E6B75F"/>
<path d="M5.81377 16.128C5.7405 16.0664 5.66223 16.011 5.57977 15.9624C5.61643 15.9154 5.65611 15.8709 5.69857 15.8292C5.71657 15.8292 5.72377 15.7608 5.69857 15.786C5.64206 15.8299 5.59126 15.8807 5.54737 15.9372H5.52937C5.45062 15.8763 5.36162 15.8299 5.26657 15.8004C5.26657 15.8004 5.24137 15.822 5.26657 15.8256C5.3054 15.8483 5.34269 15.8735 5.37817 15.9012L5.50777 15.9804L5.44657 16.056C5.42305 16.0906 5.39655 16.1231 5.36737 16.1532C5.36737 16.1532 5.34937 16.1856 5.36737 16.1784C5.38537 16.1712 5.45377 16.0956 5.49697 16.0524C5.51439 16.0374 5.53009 16.0205 5.54377 16.002C5.62657 16.056 5.70217 16.11 5.78497 16.1604C5.79577 16.1712 5.82457 16.1424 5.81377 16.128Z" fill="#8E4F03"/>
<path d="M5.569 14.814C5.48064 14.81 5.3925 14.8257 5.31095 14.8599C5.22939 14.8942 5.15646 14.9461 5.0974 15.012C5.09384 15.0225 5.09384 15.0338 5.0974 15.0444C5.0974 15.0444 5.0974 15.0444 5.119 15.0444C5.18553 15.0289 5.25282 15.0169 5.3206 15.0084C5.4243 15.003 5.52826 15.0102 5.6302 15.03C5.7094 15.03 5.839 15.138 5.9182 15.1092C5.9182 15.1092 5.9542 15.0804 5.9506 15.0624C5.9182 14.8968 5.7166 14.832 5.569 14.814Z" fill="#8E4F03"/>
<path d="M6.70305 16.4016C6.46909 16.4238 6.24352 16.5002 6.04425 16.6248C5.85949 16.7294 5.71218 16.8893 5.62305 17.082C5.62305 17.1036 5.64105 17.082 5.64825 17.082C5.7733 16.8948 5.94273 16.7414 6.14145 16.6356C6.31724 16.5656 6.49767 16.5079 6.68145 16.4628C6.70305 16.4628 6.74625 16.4016 6.70305 16.4016Z" fill="#8E4F03"/>
<path d="M6.23126 17.8488C6.20606 17.802 6.14486 17.7696 6.10526 17.7336C6.06154 17.6936 6.02924 17.6426 6.01166 17.586C6.01166 17.5644 5.97206 17.586 5.97206 17.6112C5.96456 17.665 5.97602 17.7197 6.00446 17.766C5.77364 17.8229 5.53141 17.8129 5.30606 17.7372C5.06126 17.676 4.78766 17.6904 4.53566 17.6472C3.96326 17.55 3.36566 17.5536 2.78966 17.4636C2.78966 17.4636 2.76086 17.4852 2.78966 17.4924C3.07475 17.569 3.36645 17.6184 3.66086 17.64C3.98846 17.694 4.31966 17.6904 4.64726 17.7516C4.97486 17.8128 5.22686 17.82 5.51486 17.8776C5.69816 17.9305 5.89497 17.9085 6.06206 17.8164C6.07692 17.8419 6.0972 17.8638 6.12146 17.8806C6.14572 17.8974 6.17337 17.9087 6.20246 17.9136C6.20606 17.9136 6.24566 17.8704 6.23126 17.8488Z" fill="#8E4F03"/>
<g style="mix-blend-mode:multiply">
<path d="M11.8546 14.2235L11.7106 14.0111L11.8042 13.9283C11.8042 13.9283 11.8042 13.8887 11.8042 13.9067C11.8042 13.9247 11.7394 13.9607 11.7034 13.9895C11.6458 13.8995 11.5918 13.8095 11.5378 13.7195L11.7142 13.5755C11.7142 13.5755 11.7358 13.5215 11.7142 13.5395L11.5198 13.6799C11.4478 13.5575 11.3794 13.4315 11.311 13.3199C11.3506 13.2875 11.3938 13.2587 11.437 13.2299C11.4802 13.2011 11.473 13.1543 11.437 13.1795L11.2894 13.2767L11.1022 12.9167C11.1022 12.9167 11.0698 12.9167 11.0734 12.9383L11.257 13.2983L10.7998 13.5827C10.699 13.4315 10.5982 13.2731 10.501 13.1183C10.6486 13.0211 10.7962 12.9239 10.951 12.8303C10.951 12.8303 10.9798 12.7763 10.951 12.7943C10.7926 12.8843 10.6342 12.9815 10.483 13.0823L10.429 12.9923C10.429 12.9923 10.4038 12.9923 10.4074 13.0139L10.4542 13.1039C10.3102 13.1975 10.177 13.2983 10.0438 13.4027L9.95382 13.2155C9.95382 13.2155 9.92502 13.2155 9.92862 13.2371C9.93222 13.2587 9.98262 13.3631 10.015 13.4279C9.87822 13.5359 9.75222 13.6475 9.62622 13.7663L9.49302 13.4423C9.52141 13.5592 9.56245 13.6727 9.61542 13.7807C9.47862 13.9175 9.34542 14.0651 9.21582 14.2199C9.34165 14.0739 9.47504 13.9345 9.61542 13.8023L9.70902 14.0039C9.75222 14.1191 9.79902 14.2307 9.85302 14.3423C9.74309 14.4564 9.63972 14.5766 9.54342 14.7023C9.64113 14.5824 9.7457 14.4682 9.85662 14.3603C9.91782 14.4935 9.98262 14.6195 10.0546 14.7455C10.0546 14.7455 10.0798 14.7455 10.0546 14.7275C9.99702 14.5943 9.93222 14.4611 9.87102 14.3279C9.99342 14.2127 10.123 14.1011 10.2598 13.9931C10.3462 14.1695 10.4398 14.3531 10.5406 14.5079C10.4758 14.5799 10.4146 14.6519 10.3534 14.7275C10.3534 14.7455 10.3534 14.7635 10.3714 14.7275C10.3894 14.6915 10.4938 14.5871 10.5586 14.5223L10.6162 14.6159C10.6162 14.6159 10.663 14.5979 10.6522 14.5799L10.5982 14.4827C10.7375 14.3374 10.8841 14.1992 11.0374 14.0687L11.2318 14.3423C11.2318 14.3603 11.1958 14.3819 11.1742 14.3999C11.1526 14.4179 11.1742 14.4323 11.1742 14.3999L11.239 14.3423C11.2606 14.3783 11.2858 14.4107 11.311 14.4467C11.3362 14.4827 11.3434 14.4467 11.3362 14.4215L11.275 14.3099L11.6746 14.0399C11.725 14.1083 11.779 14.1767 11.833 14.2415C11.887 14.3063 11.8798 14.2307 11.8546 14.2235ZM9.87102 14.3315C9.78822 14.1551 9.70542 13.9715 9.62622 13.7987C9.75222 13.6835 9.88182 13.5719 10.015 13.4675C10.0918 13.6403 10.171 13.8131 10.2526 13.9859C10.1194 14.0975 9.98982 14.2127 9.87102 14.3315ZM10.0474 13.4423C10.1806 13.3379 10.3138 13.2371 10.4578 13.1399C10.5386 13.3081 10.6287 13.4715 10.7278 13.6295C10.5802 13.7303 10.4398 13.8347 10.2994 13.9463C10.213 13.7807 10.1302 13.6115 10.0474 13.4423ZM10.5946 14.5007C10.501 14.3327 10.411 14.1635 10.3246 13.9931C10.465 13.8815 10.609 13.7807 10.7566 13.6763C10.8394 13.8131 10.9294 13.9463 11.023 14.0795C10.8732 14.2126 10.7302 14.3532 10.5946 14.5007ZM10.8214 13.6331L11.2606 13.3199C11.3254 13.4459 11.3938 13.5755 11.4658 13.7015C11.3326 13.8023 11.203 13.9067 11.0806 14.0183L10.8214 13.6331ZM11.2822 14.3531C11.2282 14.2559 11.167 14.1587 11.1058 14.0651L11.4874 13.7447C11.5414 13.8347 11.599 13.9247 11.6566 14.0111C11.5198 14.1263 11.4046 14.2415 11.2822 14.3603V14.3531Z" fill="#C17500"/>
<path d="M17.3159 12.4991C17.1084 12.6837 16.9113 12.8796 16.7255 13.0859L16.3295 12.8411C16.4807 12.7079 16.6319 12.5711 16.7723 12.4271C16.7939 12.4055 16.7723 12.3731 16.7507 12.3983L16.2683 12.7979C16.1207 12.7043 15.9839 12.5927 15.8435 12.4883C15.9191 12.4163 15.9911 12.3407 16.0631 12.2651C16.1351 12.1895 16.0631 12.2039 16.0379 12.2327L15.7967 12.4523C15.7227 12.3966 15.6458 12.3449 15.5663 12.2975C15.5663 12.2975 15.5339 12.3191 15.5447 12.3263C15.6203 12.3767 15.6923 12.4307 15.7643 12.4847L15.3683 12.8447L15.2171 12.7475L15.3575 12.8519C15.2387 12.9635 15.1271 13.0715 14.9975 13.1867L14.9147 13.1111C14.9147 13.1111 14.8715 13.1327 14.8859 13.1471L14.9651 13.2191C14.8751 13.3091 14.7887 13.4027 14.7095 13.4963L14.9867 13.2371C15.1055 13.3451 15.2351 13.4459 15.3467 13.5467C15.2423 13.6403 15.1451 13.7339 15.0479 13.8275L15.3683 13.5575C15.5195 13.6763 15.6635 13.8059 15.8183 13.9175L15.6779 14.0219C15.6779 14.0219 15.6599 14.0543 15.6779 14.0435C15.7335 14.0105 15.7864 13.9732 15.8363 13.9319L15.8759 13.9607C15.8759 13.9607 15.9335 13.9283 15.9155 13.9139L15.8831 13.8923C16.0127 13.7807 16.1315 13.6583 16.2431 13.5323C16.302 13.5762 16.3646 13.6147 16.4303 13.6475C16.4303 13.6475 16.4807 13.6115 16.4627 13.6007C16.4029 13.5657 16.3452 13.5272 16.2899 13.4855L16.3907 13.3955C16.4915 13.3055 16.5887 13.2083 16.6823 13.1111C16.7795 13.1723 16.8767 13.2335 16.9703 13.2983C16.9919 13.2983 17.0279 13.2695 17.0099 13.2551C16.9199 13.1867 16.8263 13.1219 16.7327 13.0607C16.9163 12.8627 17.0927 12.6611 17.2943 12.4775C17.3483 12.5135 17.3447 12.4739 17.3159 12.4991ZM15.4187 12.8591C15.5519 12.7475 15.6815 12.6323 15.8075 12.4991C15.9371 12.6035 16.0631 12.7115 16.1963 12.8123L15.8363 13.1291C15.6959 13.0319 15.5483 12.9419 15.4043 12.8483L15.4187 12.8591ZM15.0227 13.2191C15.1379 13.1075 15.2567 12.9959 15.3827 12.8915L15.7967 13.1831C15.6635 13.2947 15.5339 13.4135 15.4079 13.5431C15.2747 13.4423 15.1451 13.3415 15.0227 13.2335V13.2191ZM15.8939 13.9103C15.7427 13.7915 15.5915 13.6727 15.4367 13.5503L15.8399 13.2371C15.9839 13.3415 16.1135 13.4675 16.2539 13.5755C16.1459 13.6979 16.0235 13.8131 15.8939 13.9247V13.9103ZM16.3115 13.5143C16.1711 13.4099 16.0379 13.2875 15.8975 13.1867L16.2755 12.8699C16.4051 12.9599 16.5419 13.0427 16.6751 13.1255C16.5599 13.2695 16.4339 13.4027 16.3115 13.5287V13.5143Z" fill="#C17500"/>
<path d="M19.3787 12.7944C19.2239 12.9024 19.0727 13.0212 18.9287 13.1544L18.7379 13.3344C18.7315 13.3455 18.7229 13.3553 18.7127 13.3632L18.4823 13.0752L18.6659 12.924C18.7298 13.0181 18.8008 13.1071 18.8783 13.1904C18.8783 13.1904 18.9107 13.1904 18.9035 13.1616C18.8423 13.068 18.7775 12.978 18.7127 12.8844C18.7991 12.8124 18.8855 12.744 18.9683 12.6684C18.9863 12.6684 18.9683 12.6144 18.9683 12.6396L18.7055 12.8592C18.6263 12.7476 18.5471 12.6396 18.4715 12.528C18.4715 12.528 18.4499 12.528 18.4535 12.528C18.5149 12.6518 18.5834 12.772 18.6587 12.888C18.6011 12.942 18.5363 12.9924 18.4787 13.0428C18.3995 12.9492 18.3239 12.852 18.2447 12.7548C18.2447 12.7548 18.2231 12.7548 18.2447 12.7764L18.4643 13.068C18.3131 13.2012 18.1943 13.3632 18.0503 13.5036C18.2015 13.374 18.3311 13.2192 18.4787 13.086L18.7163 13.3776C18.6663 13.4584 18.603 13.5302 18.5291 13.59C18.5291 13.59 18.5291 13.6152 18.5291 13.6116C18.5558 13.5991 18.5792 13.5806 18.5975 13.5576L18.7379 13.4028L18.8135 13.4928C18.8135 13.4928 18.8387 13.4928 18.8315 13.4712L18.7595 13.3776C18.7991 13.3416 18.8351 13.302 18.8783 13.266C19.0475 13.1076 19.2383 12.9816 19.4111 12.8196C19.3967 12.8124 19.4039 12.7764 19.3787 12.7944Z" fill="#C17500"/>
<path d="M22.8272 13.7771C22.7012 13.8635 22.5752 13.9607 22.4672 14.0615L22.0676 13.7231L22.2116 13.6079C22.2332 13.6079 22.2368 13.5431 22.2116 13.5647C22.1519 13.6038 22.0942 13.6458 22.0388 13.6907L21.7184 13.4171L21.8156 13.3199C21.8156 13.3199 21.8372 13.2695 21.8156 13.2875C21.794 13.3055 21.7148 13.3595 21.668 13.3955C21.5384 13.2911 21.4052 13.1903 21.2684 13.0967C21.3944 13.1975 21.5132 13.3055 21.6284 13.4135C21.4739 13.5439 21.3261 13.6821 21.1856 13.8275C21.0632 13.7231 20.9372 13.6187 20.8256 13.5071C20.8256 13.5071 20.8004 13.5071 20.8256 13.5287C20.9336 13.6439 21.0524 13.7555 21.1856 13.8635L21.0416 14.0075C20.9192 14.1299 20.7896 14.2487 20.6636 14.3675C20.5587 14.2746 20.4589 14.176 20.3648 14.0723C20.4485 14.1829 20.5412 14.2865 20.642 14.3819L20.5772 14.4395C20.4608 14.5692 20.3344 14.6895 20.1992 14.7995C20.1992 14.7995 20.174 14.8427 20.1992 14.8283C20.2639 14.7925 20.3203 14.7434 20.3648 14.6843C20.462 14.5835 20.5628 14.4899 20.6636 14.3963C20.7752 14.5079 20.894 14.6159 21.0236 14.7203L20.7536 15.0479C20.7536 15.0659 20.7536 15.0767 20.7536 15.0479L21.0416 14.7311L21.2972 14.9651C21.2972 14.9651 21.3404 14.9435 21.3296 14.9327C21.2501 14.8477 21.1659 14.7672 21.0776 14.6915C21.2432 14.5115 21.4088 14.3315 21.578 14.1587L21.9776 14.5187C21.8676 14.6327 21.7642 14.7529 21.668 14.8787C21.668 14.9003 21.668 14.9039 21.668 14.8787C21.7688 14.7563 21.8804 14.6411 21.9956 14.5187C22.0043 14.5292 22.0139 14.5388 22.0244 14.5475C22.0244 14.5475 22.0712 14.5223 22.0604 14.5079L22.0316 14.4827C22.1792 14.3351 22.334 14.1983 22.4924 14.0615L22.586 14.1335C22.586 14.1335 22.6364 14.1047 22.6184 14.0939L22.5392 14.0219L22.8776 13.7339C22.8776 13.7339 22.8596 13.7555 22.8272 13.7771ZM20.9912 14.7131L20.6312 14.4035L20.8436 14.2091L21.164 13.9031L21.47 14.1731C21.308 14.3459 21.146 14.5295 20.9912 14.7131ZM21.2072 13.8671C21.3548 13.7267 21.4988 13.5899 21.65 13.4567L21.956 13.7339C21.8051 13.8569 21.6609 13.9879 21.524 14.1263C21.4196 14.0399 21.3152 13.9535 21.2072 13.8671ZM21.9596 14.5223C21.8358 14.3949 21.7048 14.2747 21.5672 14.1623C21.704 14.0255 21.848 13.8923 21.9956 13.7663C22.1288 13.8851 22.262 13.9967 22.4024 14.1047C22.2462 14.2345 22.0983 14.374 21.9596 14.5223Z" fill="#C17500"/>
<path d="M24.9552 14.5764L24.8184 14.6844C24.7104 14.6052 24.5916 14.5368 24.48 14.4612L24.588 14.382C24.6096 14.364 24.6276 14.3028 24.588 14.328L24.4404 14.4288C24.3654 14.3767 24.2966 14.3164 24.2352 14.2488C24.2352 14.2488 24.1956 14.2704 24.2064 14.2848C24.2634 14.3501 24.3261 14.4104 24.3936 14.4648C24.2964 14.5368 24.2028 14.6196 24.1092 14.7024C24.0372 14.6412 23.9616 14.5836 23.8896 14.5188C23.8896 14.5188 23.8572 14.5368 23.868 14.544C23.9364 14.6088 24.0048 14.6736 24.0768 14.7312C23.7996 14.9868 23.5548 15.2748 23.292 15.5448C23.5728 15.282 23.8284 15.0048 24.1056 14.7492C24.2064 14.8356 24.3108 14.9184 24.4152 14.9976C24.2845 15.1207 24.1641 15.2544 24.0552 15.3972C24.0552 15.4188 24.0552 15.4332 24.0552 15.3972C24.1842 15.2699 24.32 15.1497 24.462 15.0372L24.6096 15.1452C24.6276 15.1452 24.6564 15.12 24.642 15.1056L24.5052 14.9976L24.8076 14.742L24.9084 14.814C24.9264 14.814 24.9588 14.7888 24.9408 14.7744C24.9228 14.76 24.8832 14.7276 24.8544 14.7024L24.966 14.6016C24.9984 14.5944 24.9948 14.5476 24.9552 14.5764ZM24.48 14.976L24.1668 14.7348C24.258 14.6532 24.3516 14.574 24.4476 14.4972C24.5556 14.5764 24.6708 14.6484 24.7824 14.724C24.6636 14.8068 24.5628 14.8896 24.48 14.976Z" fill="#C17500"/>
<path d="M28.7998 15.444L28.5298 15.714L28.0438 15.354L28.2922 15.1056C28.2922 15.1056 28.2922 15.0588 28.2922 15.0768C28.1936 15.1511 28.0998 15.2317 28.0114 15.318C27.8422 15.1992 27.6802 15.0804 27.5218 14.958C27.5817 14.8931 27.6359 14.8233 27.6838 14.7492C27.7054 14.724 27.6838 14.7204 27.6586 14.7492L27.4822 14.94C27.4066 14.8788 27.331 14.8176 27.259 14.7492C27.259 14.7492 27.2194 14.7492 27.2302 14.7816L27.4498 14.976C27.3238 15.1164 27.1942 15.2532 27.0646 15.3936C26.917 15.2892 26.773 15.1812 26.629 15.0732L27.0502 15.4044C26.9396 15.5279 26.8363 15.6577 26.7406 15.7932L26.287 15.4332C26.287 15.4332 26.2474 15.4584 26.2582 15.4656L26.7046 15.8256C26.5981 15.9769 26.4776 16.118 26.3446 16.2468C26.49 16.1256 26.6194 15.9865 26.7298 15.8328L27.187 16.1928C27.1171 16.2916 27.0362 16.3822 26.9458 16.4628C26.9242 16.4628 26.9458 16.5132 26.9458 16.4916C27.0434 16.412 27.1326 16.3227 27.2122 16.2252C27.403 16.3764 27.5974 16.5312 27.7882 16.6896C27.7882 16.6896 27.8458 16.6572 27.8278 16.6428C27.6442 16.4772 27.4678 16.3224 27.2554 16.1712C27.3454 16.0596 27.4318 15.948 27.5218 15.8508L27.5938 15.7788L28.087 16.1388C27.9682 16.2576 27.8458 16.398 27.8566 16.4592H27.8242C27.8242 16.4844 27.8494 16.4592 27.8566 16.4592C27.9262 16.3688 28.0007 16.2822 28.0798 16.2L28.159 16.2576C28.159 16.2576 28.1842 16.2576 28.159 16.236L28.0798 16.2C28.2094 16.0596 28.3462 15.9264 28.483 15.7968L28.5154 15.8184C28.5154 15.8184 28.573 15.786 28.555 15.7716H28.5262C28.6198 15.6852 28.7062 15.5988 28.7926 15.5124C28.8286 15.4548 28.7998 15.4188 28.7998 15.444ZM27.2806 16.0848L27.1798 16.2L26.719 15.84C26.8018 15.732 26.881 15.6276 26.9602 15.5304L27.043 15.4404L27.5218 15.8004C27.4354 15.894 27.3598 15.9876 27.2662 16.0848H27.2806ZM27.0826 15.408C27.2122 15.2712 27.349 15.1416 27.475 15.0012C27.6298 15.1308 27.7882 15.2532 27.9538 15.3612C27.853 15.462 27.7594 15.5628 27.6622 15.6564L27.5722 15.7536L27.0826 15.408ZM28.231 16.0236L28.087 16.164C27.9322 16.038 27.7738 15.912 27.6082 15.804C27.7378 15.6708 27.8674 15.5448 28.0006 15.4188L28.4866 15.7788C28.3858 15.84 28.2994 15.9336 28.2166 16.0236H28.231Z" fill="#C17500"/>
</g>
<path d="M11.2679 18.4572C11.2679 18.3492 11.1239 18.3636 11.0591 18.4032C11.0276 18.4216 11.002 18.4487 10.9854 18.4812C10.9688 18.5138 10.9619 18.5504 10.9655 18.5868C10.964 18.5963 10.964 18.606 10.9655 18.6156C10.9655 18.684 11.0267 18.7092 11.0843 18.6912C11.1053 18.6839 11.1248 18.673 11.1419 18.6588C11.1608 18.6484 11.1768 18.6335 11.1887 18.6156C11.2135 18.5973 11.2336 18.5734 11.2474 18.5459C11.2612 18.5184 11.2682 18.4879 11.2679 18.4572Z" fill="#461800"/>
<path d="M12.2973 17.5752C12.2864 17.5689 12.274 17.5656 12.2613 17.5656C12.2487 17.5656 12.2363 17.5689 12.2253 17.5752C12.2001 17.5734 12.1749 17.5785 12.1525 17.5902C12.1301 17.6018 12.1113 17.6193 12.0983 17.641C12.0852 17.6626 12.0784 17.6874 12.0786 17.7126C12.0788 17.7379 12.086 17.7626 12.0993 17.784C12.1128 17.7987 12.1292 17.8105 12.1475 17.8185C12.1658 17.8266 12.1855 17.8307 12.2055 17.8307C12.2255 17.8307 12.2453 17.8266 12.2635 17.8185C12.2818 17.8105 12.2982 17.7987 12.3117 17.784C12.3657 17.7372 12.3801 17.6148 12.2973 17.5752Z" fill="#461800"/>
<path d="M12.2756 18.8856L12.2396 18.8676C12.1532 18.8388 12.1064 18.9468 12.1244 19.0152C12.1298 19.0291 12.138 19.0416 12.1487 19.0521C12.1593 19.0625 12.172 19.0706 12.186 19.0757C12.1999 19.0808 12.2149 19.0828 12.2297 19.0817C12.2445 19.0806 12.259 19.0763 12.272 19.0692C12.2905 19.0602 12.3063 19.0465 12.3177 19.0294C12.3291 19.0123 12.3357 18.9925 12.3368 18.972C12.3356 18.9533 12.3293 18.9353 12.3185 18.9201C12.3077 18.9048 12.2928 18.8929 12.2756 18.8856Z" fill="#461800"/>
<path d="M12.7652 16.6067C12.7446 16.6155 12.7269 16.63 12.7141 16.6485C12.7014 16.667 12.6941 16.6887 12.6932 16.7111C12.6915 16.7279 12.6915 16.7448 12.6932 16.7615C12.679 16.7818 12.667 16.8035 12.6572 16.8263C12.6572 16.8587 12.6572 16.9091 12.6932 16.9163C12.7292 16.9235 12.8264 16.8227 12.8372 16.7579C12.848 16.6931 12.8516 16.5779 12.7652 16.6067Z" fill="#461800"/>
<path d="M13.842 19.0584C13.8153 19.036 13.7826 19.022 13.748 19.0182C13.7134 19.0143 13.6785 19.0208 13.6476 19.0368C13.6238 19.0538 13.6038 19.0755 13.5887 19.1005C13.5736 19.1256 13.5637 19.1534 13.5597 19.1823C13.5557 19.2113 13.5575 19.2407 13.5652 19.2689C13.5729 19.2971 13.5862 19.3235 13.6044 19.3464C13.6193 19.3768 13.6431 19.4019 13.6728 19.4184C13.77 19.4796 13.9248 19.3356 13.914 19.2384C13.9109 19.172 13.8855 19.1086 13.842 19.0584Z" fill="#461800"/>
<path d="M15.5156 18.0936C15.5063 18.09 15.496 18.09 15.4868 18.0936C15.4472 18.0684 15.404 18.1224 15.3896 18.162C15.3752 18.2016 15.3896 18.2844 15.44 18.2772C15.4904 18.27 15.53 18.2124 15.5336 18.1584C15.5351 18.147 15.5342 18.1353 15.5311 18.1242C15.528 18.1131 15.5227 18.1027 15.5156 18.0936Z" fill="#461800"/>
<path d="M15.6202 19.1664C15.6162 19.1618 15.6112 19.1581 15.6056 19.1556C15.6 19.153 15.594 19.1517 15.5878 19.1517C15.5817 19.1517 15.5756 19.153 15.5701 19.1556C15.5645 19.1581 15.5595 19.1618 15.5554 19.1664C15.5483 19.1623 15.5402 19.1601 15.532 19.1601C15.5238 19.1601 15.5157 19.1623 15.5086 19.1664C15.4998 19.1743 15.4931 19.1844 15.4891 19.1956C15.4851 19.2068 15.4839 19.2188 15.4857 19.2306C15.4875 19.2424 15.4921 19.2535 15.4993 19.263C15.5064 19.2726 15.5158 19.2802 15.5266 19.2852C15.5303 19.2897 15.535 19.2933 15.5403 19.2958C15.5456 19.2983 15.5514 19.2996 15.5572 19.2996C15.5631 19.2996 15.5689 19.2983 15.5742 19.2958C15.5794 19.2933 15.5841 19.2897 15.5878 19.2852C15.605 19.2719 15.6166 19.2526 15.6202 19.2312C15.6256 19.2212 15.6284 19.2101 15.6284 19.1988C15.6284 19.1875 15.6256 19.1763 15.6202 19.1664Z" fill="#461800"/>
<path d="M16.3331 17.0172C16.3331 17.0172 16.3331 17.0172 16.3043 17.0172C16.2755 17.0172 16.2503 17.0712 16.2467 17.1108C16.2431 17.1504 16.3007 17.1612 16.3295 17.1288C16.3583 17.0964 16.3691 17.0388 16.3331 17.0172Z" fill="#461800"/>
<path d="M18.2088 18.5472L18.18 18.522C18.1623 18.499 18.1366 18.4836 18.108 18.4788C18.0072 18.4788 17.9352 18.6156 17.9424 18.6948C17.9432 18.7163 17.9501 18.7371 17.9622 18.7549C17.9743 18.7728 17.9911 18.7868 18.0108 18.7956C18.0411 18.8063 18.0741 18.8063 18.1044 18.7956H18.1332C18.1601 18.7851 18.1837 18.7677 18.2016 18.7452C18.2279 18.7193 18.2433 18.6844 18.2447 18.6476C18.246 18.6108 18.2332 18.5748 18.2088 18.5472Z" fill="#461800"/>
<path d="M19.1662 19.08C19.1531 19.0689 19.1366 19.0625 19.1194 19.062C19.069 19.062 19.015 19.116 19.0114 19.1628C19.0078 19.2096 19.0762 19.3032 19.141 19.2492C19.1544 19.2403 19.1658 19.2287 19.1745 19.215C19.1831 19.2014 19.1888 19.1862 19.1912 19.1702C19.1936 19.1543 19.1926 19.138 19.1882 19.1225C19.1839 19.1069 19.1764 19.0925 19.1662 19.08Z" fill="#461800"/>
<path d="M20.5488 18.162C20.484 18.0864 20.412 18.198 20.3904 18.2556C20.3781 18.2842 20.3708 18.3146 20.3688 18.3456C20.3663 18.36 20.368 18.3748 20.3738 18.3882C20.3795 18.4016 20.389 18.4131 20.4012 18.4212C20.4372 18.4428 20.4732 18.4212 20.502 18.396C20.537 18.3695 20.5611 18.331 20.5697 18.2879C20.5783 18.2448 20.5709 18.2 20.5488 18.162Z" fill="#461800"/>
<path d="M21.96 18.9036C21.9514 18.8981 21.9414 18.8953 21.9312 18.8953C21.921 18.8953 21.9111 18.8981 21.9024 18.9036C21.8869 18.9058 21.8721 18.9119 21.8595 18.9214C21.8469 18.9308 21.8369 18.9433 21.8304 18.9576C21.8196 18.9738 21.8125 18.9922 21.8094 19.0114C21.8063 19.0307 21.8073 19.0504 21.8124 19.0692C21.834 19.1592 21.924 19.152 21.978 19.0944C21.9927 19.0824 22.0043 19.067 22.0116 19.0495C22.0189 19.0321 22.0218 19.013 22.0201 18.9942C22.0183 18.9753 22.0119 18.9572 22.0014 18.9414C21.9909 18.9256 21.9767 18.9126 21.96 18.9036Z" fill="#461800"/>
<path d="M22.8632 18C22.8555 17.9909 22.8458 17.9836 22.8349 17.9786C22.824 17.9735 22.8122 17.9709 22.8002 17.9709C22.7883 17.9709 22.7764 17.9735 22.7655 17.9786C22.7547 17.9836 22.745 17.9909 22.7372 18C22.7224 18.0185 22.7118 18.04 22.7063 18.063C22.7007 18.086 22.7002 18.11 22.7048 18.1332C22.7061 18.1431 22.7094 18.1526 22.7145 18.1611C22.7197 18.1696 22.7265 18.177 22.7346 18.1827C22.7427 18.1885 22.752 18.1925 22.7617 18.1945C22.7714 18.1965 22.7815 18.1965 22.7912 18.1944C22.8091 18.1907 22.8258 18.1824 22.8397 18.1705C22.8535 18.1585 22.8641 18.1432 22.8704 18.126C22.8812 18.1065 22.8862 18.0843 22.8849 18.062C22.8837 18.0397 22.8761 18.0182 22.8632 18Z" fill="#461800"/>
<path d="M22.1291 17.1107C22.1182 17.0903 22.103 17.0725 22.0845 17.0585C22.066 17.0446 22.0447 17.0349 22.022 17.0301C21.9994 17.0253 21.976 17.0255 21.9534 17.0307C21.9308 17.0359 21.9097 17.046 21.8915 17.0603C21.8613 17.0862 21.8422 17.1227 21.8382 17.1622C21.8342 17.2017 21.8455 17.2413 21.8699 17.2727C21.8855 17.2923 21.9051 17.3083 21.9275 17.3195H21.9563C21.9676 17.3247 21.9798 17.3274 21.9923 17.3274C22.0047 17.3274 22.017 17.3247 22.0283 17.3195C22.052 17.3125 22.0733 17.2987 22.0895 17.2799C22.1056 17.2587 22.1166 17.2339 22.1216 17.2077C22.1266 17.1815 22.1255 17.1544 22.1183 17.1287C22.1183 17.1287 22.1327 17.1179 22.1291 17.1107Z" fill="#461800"/>
<path d="M19.4902 16.92C19.4902 16.8804 19.4542 16.8588 19.4182 16.8444C19.4095 16.8393 19.3995 16.8367 19.3894 16.8367C19.3793 16.8367 19.3694 16.8393 19.3606 16.8444C19.3457 16.844 19.331 16.8488 19.3192 16.858C19.3074 16.8672 19.2992 16.8802 19.2958 16.8948C19.2905 16.9048 19.2874 16.9159 19.2868 16.9272C19.2861 16.9385 19.2879 16.9499 19.292 16.9604C19.2961 16.971 19.3024 16.9806 19.3105 16.9885C19.3186 16.9965 19.3284 17.0025 19.339 17.0064C19.3484 17.0134 19.3597 17.0172 19.3714 17.0172C19.3831 17.0172 19.3945 17.0134 19.4038 17.0064C19.4398 16.992 19.4938 16.9524 19.4902 16.92Z" fill="#461800"/>
<path d="M18.9789 16.9199C18.9611 16.9211 18.944 16.927 18.9294 16.9372C18.9148 16.9473 18.9033 16.9613 18.8961 16.9775C18.894 16.987 18.894 16.9969 18.8961 17.0063C18.8961 17.0315 18.8961 17.0567 18.9285 17.0567C18.9609 17.0567 19.0113 17.0027 19.0185 16.9631C19.0197 16.9575 19.0195 16.9517 19.018 16.9462C19.0165 16.9407 19.0137 16.9356 19.0098 16.9314C19.0059 16.9271 19.0011 16.9239 18.9957 16.9219C18.9903 16.9199 18.9846 16.9192 18.9789 16.9199Z" fill="#461800"/>
<path d="M23.4501 18C23.4501 18 23.4501 17.9568 23.4105 17.9532C23.3709 17.9496 23.3529 17.9532 23.3349 17.9964C23.3246 18.0051 23.3166 18.0163 23.3116 18.0288C23.3066 18.0414 23.3047 18.055 23.3061 18.0684C23.3061 18.1332 23.3889 18.1152 23.4249 18.0684C23.4355 18.0608 23.4436 18.0503 23.4481 18.0381C23.4526 18.0259 23.4533 18.0126 23.4501 18Z" fill="#461800"/>
<path d="M23.9723 17.4528C23.9363 17.4528 23.8859 17.5392 23.9363 17.5392C23.9867 17.5392 24.0227 17.4528 23.9723 17.4528Z" fill="#461800"/>
<path d="M26.0027 17.0243C25.9909 17.0207 25.9784 17.0207 25.9667 17.0243C25.9455 17.0308 25.9272 17.0443 25.9147 17.0627C25.9023 17.081 25.8965 17.103 25.8983 17.1251C25.8979 17.1354 25.8999 17.1456 25.9042 17.1549C25.9085 17.1642 25.915 17.1724 25.9231 17.1787C25.9312 17.185 25.9406 17.1894 25.9507 17.1913C25.9608 17.1932 25.9712 17.1928 25.9811 17.1899C26.0052 17.1856 26.0269 17.1726 26.0422 17.1533C26.0574 17.1341 26.0651 17.11 26.0639 17.0855C26.063 17.0696 26.0563 17.0545 26.045 17.0432C26.0337 17.0319 26.0186 17.0252 26.0027 17.0243Z" fill="#461800"/>
<path d="M27.3598 17.1612C27.3625 17.1465 27.3618 17.1314 27.358 17.1171C27.3541 17.1027 27.3471 17.0893 27.3375 17.0779C27.3278 17.0666 27.3158 17.0575 27.3022 17.0513C27.2887 17.0452 27.2739 17.0421 27.259 17.0424C27.2233 17.0503 27.1913 17.0697 27.1679 17.0977C27.1444 17.1257 27.1309 17.1607 27.1294 17.1972C27.1294 17.2656 27.205 17.2872 27.2626 17.2584C27.2876 17.2419 27.3095 17.2212 27.3274 17.1972C27.3274 17.1972 27.3598 17.172 27.3598 17.1612Z" fill="#461800"/>
<path d="M9.42086 18.6012C9.42086 18.5688 9.36326 18.6228 9.36686 18.6444C9.36655 18.6532 9.36875 18.662 9.37321 18.6696C9.37767 18.6773 9.3842 18.6835 9.39206 18.6876C9.39206 18.6876 9.42806 18.6876 9.43886 18.6876C9.43955 18.6792 9.43955 18.6708 9.43886 18.6624C9.43886 18.6624 9.42806 18.6192 9.42086 18.6012Z" fill="#461800"/>
<path d="M8.99987 19.1195C8.97467 19.1195 8.93867 19.1807 8.97467 19.1807C9.01067 19.1807 9.03947 19.1195 8.99987 19.1195Z" fill="#461800"/>
<path d="M12.5996 13.1975C12.56 13.1975 12.5024 13.2947 12.56 13.2947C12.6176 13.2947 12.65 13.1975 12.5996 13.1975Z" fill="#461800"/>
<path d="M14.5365 12.4343C14.4897 12.4343 14.4249 12.5495 14.4897 12.5495C14.5545 12.5495 14.6049 12.4343 14.5365 12.4343Z" fill="#461800"/>
<g style="mix-blend-mode:screen" opacity="0.5">
<path d="M18.9 12.0311C18.507 11.9003 18.0972 11.8264 17.6832 11.8115C17.298 11.7719 16.9056 11.7539 16.5168 11.7467C15.6754 11.7389 14.8341 11.7773 13.9968 11.8619C12.5568 11.9951 10.8972 12.2003 9.61924 12.9419C9.59404 12.9419 9.55444 13.0355 9.61924 13.0211C10.2852 12.8483 10.9224 12.5855 11.5956 12.4343C12.3436 12.2989 13.1004 12.2171 13.86 12.1895C14.655 12.123 15.4529 12.0977 16.2504 12.1139C16.6968 12.1139 17.1432 12.1535 17.5896 12.1967C17.9783 12.2591 18.3701 12.2999 18.7632 12.3191C18.846 12.3335 19.044 12.0887 18.9 12.0311Z" fill="white"/>
<path d="M22.6152 12.6216C22.1026 12.4455 21.5747 12.3177 21.0384 12.24C20.5287 12.1144 20.0042 12.0599 19.4796 12.078C19.4364 12.078 19.332 12.2112 19.4076 12.222C19.89 12.2976 20.3688 12.4452 20.8476 12.546C21.3949 12.6714 21.9509 12.7556 22.5108 12.798C22.572 12.7944 22.7088 12.6576 22.6152 12.6216Z" fill="white"/>
</g>
<g style="mix-blend-mode:screen">
<path d="M5.8137 14.4935C5.31549 14.7487 4.83447 15.0361 4.3737 15.3539C4.14568 15.5087 3.92801 15.6783 3.7221 15.8615C3.4953 16.0703 3.3117 16.3115 3.0957 16.5275C3.0957 16.5275 3.0957 16.5707 3.0957 16.5527C3.49835 16.1584 3.92389 15.7882 4.3701 15.4439C4.8381 15.1127 5.3349 14.8607 5.8101 14.5691C5.8569 14.5475 5.8821 14.4575 5.8137 14.4935Z" fill="#C6862C"/>
</g>
<g style="mix-blend-mode:screen">
<path d="M7.42316 13.9932C7.23417 14.0026 7.04749 14.039 6.86876 14.1012C6.64218 14.1902 6.42205 14.2949 6.20996 14.4144C6.38636 14.4144 6.53756 14.2776 6.70316 14.2344C6.93943 14.1966 7.17279 14.1425 7.40156 14.0724C7.41956 14.0724 7.48076 13.9932 7.42316 13.9932Z" fill="#C6862C"/>
</g>
</g>
<defs>
<clipPath id="clip0_41_500">
<rect width="36" height="36" fill="white"/>
</clipPath>
</defs>
</svg>
