<svg width="80" height="80" viewBox="0 0 24 24" fill="none" xmlns="http://www.w3.org/2000/svg">
<path d="M15.59 12.26C18.4232 12.26 20.72 9.96323 20.72 7.13C20.72 4.29678 18.4232 2 15.59 2C12.7567 2 10.46 4.29678 10.46 7.13C10.46 9.96323 12.7567 12.26 15.59 12.26Z" stroke="rgba(69, 255, 188, 1)" stroke-width="1.5" stroke-miterlimit="10"/>
<path d="M6.35977 19.44C8.06081 19.44 9.43979 18.0611 9.43979 16.36C9.43979 14.659 8.06081 13.28 6.35977 13.28C4.65873 13.28 3.27979 14.659 3.27979 16.36C3.27979 18.0611 4.65873 19.44 6.35977 19.44Z" stroke="rgba(69, 255, 188, 1)" stroke-width="1.5" stroke-miterlimit="10"/>
<path d="M16.6201 22C18.0339 22 19.1801 20.8539 19.1801 19.44C19.1801 18.0262 18.0339 16.88 16.6201 16.88C15.2062 16.88 14.0601 18.0262 14.0601 19.44C14.0601 20.8539 15.2062 22 16.6201 22Z" stroke="rgba(69, 255, 188, 1)" stroke-width="1.5" stroke-miterlimit="10"/>
</svg>
