<svg width="16" height="16" viewBox="0 0 16 16" fill="none" xmlns="http://www.w3.org/2000/svg">
<path d="M8 1.3335V6.00016L9.33333 4.66683" stroke="#E3FFA8" stroke-linecap="round" stroke-linejoin="round"/>
<path d="M8.00033 5.99984L6.66699 4.6665" stroke="#E3FFA8" stroke-linecap="round" stroke-linejoin="round"/>
<path d="M1.32031 8.6665H4.26031C4.51365 8.6665 4.74031 8.8065 4.85365 9.03317L5.63365 10.5932C5.86031 11.0465 6.32031 11.3332 6.82698 11.3332H9.18031C9.68698 11.3332 10.147 11.0465 10.3736 10.5932L11.1536 9.03317C11.267 8.8065 11.5003 8.6665 11.747 8.6665H14.6536" stroke="#E3FFA8" stroke-linecap="round" stroke-linejoin="round"/>
<path d="M4.66634 2.75342C2.30634 3.10008 1.33301 4.48675 1.33301 7.33342V10.0001C1.33301 13.3334 2.66634 14.6668 5.99967 14.6668H9.99967C13.333 14.6668 14.6663 13.3334 14.6663 10.0001V7.33342C14.6663 4.48675 13.693 3.10008 11.333 2.75342" stroke="#E3FFA8" stroke-linecap="round" stroke-linejoin="round"/>
</svg>
