<svg width="36" height="36" viewBox="0 0 36 36" fill="none" xmlns="http://www.w3.org/2000/svg">
<g clip-path="url(#clip0_41_707)">
<path d="M36 18C36 21.5601 34.9443 25.0402 32.9665 28.0003C30.9886 30.9603 28.1774 33.2674 24.8883 34.6298C21.5992 35.9922 17.98 36.3487 14.4884 35.6541C10.9967 34.9596 7.78943 33.2453 5.27209 30.7279C2.75474 28.2106 1.04041 25.0033 0.345873 21.5116C-0.348661 18.02 0.00779909 14.4008 1.37018 11.1117C2.73255 7.82263 5.03966 5.01141 7.99974 3.03355C10.9598 1.05568 14.4399 0 18 0C22.7739 0 27.3523 1.89642 30.7279 5.27208C34.1036 8.64773 36 13.2261 36 18Z" fill="#F4F4F4"/>
<path d="M17.9998 1.224C21.8709 1.22502 25.6225 2.56449 28.619 5.01539C31.6154 7.4663 33.6722 10.8779 34.4408 14.6719C35.2095 18.4659 34.6426 22.409 32.8364 25.8329C31.0302 29.2568 28.0956 31.9508 24.5302 33.4584C20.4303 35.1904 15.8104 35.2228 11.6867 33.5484C7.56301 31.8741 4.27333 28.6302 2.54136 24.5304C0.809391 20.4306 0.777006 15.8106 2.45133 11.6869C4.12566 7.56325 7.36954 4.27357 11.4694 2.5416C13.5354 1.6677 15.7565 1.21957 17.9998 1.224ZM17.9998 0.806396C14.5992 0.806396 11.275 1.81478 8.44751 3.70404C5.62003 5.5933 3.41629 8.27857 2.11495 11.4203C0.813602 14.562 0.473111 18.0191 1.13653 21.3543C1.79995 24.6895 3.43748 27.7531 5.84205 30.1577C8.24662 32.5623 11.3102 34.1998 14.6455 34.8632C17.9807 35.5266 21.4377 35.1862 24.5795 33.8848C27.7212 32.5835 30.4065 30.3797 32.2957 27.5522C34.185 24.7248 35.1934 21.4006 35.1934 18C35.1934 15.7421 34.7486 13.5063 33.8846 11.4203C33.0205 9.33427 31.754 7.43886 30.1575 5.84229C28.5609 4.24571 26.6655 2.97924 24.5795 2.11518C22.4934 1.25112 20.2577 0.806396 17.9998 0.806396Z" fill="#006EC3"/>
<path d="M18 1.8C21.7362 1.80267 25.3566 3.09667 28.2481 5.46285C31.1395 7.82902 33.1242 11.1219 33.866 14.7837C34.6077 18.4455 34.061 22.2512 32.3183 25.5561C30.5757 28.861 27.7442 31.4619 24.3036 32.9184C20.368 34.475 15.9795 34.4296 12.0769 32.792C8.17432 31.1543 5.06757 28.0545 3.42126 24.1555C1.77495 20.2566 1.71982 15.8682 3.26766 11.9292C4.8155 7.99009 7.8434 4.81317 11.7036 3.078C13.6953 2.23347 15.8367 1.79883 18 1.8ZM18 1.6344C14.7649 1.6344 11.6025 2.59362 8.91252 4.39079C6.22255 6.18795 4.12585 8.74236 2.88751 11.731C1.64917 14.7197 1.3248 18.0085 1.9554 21.1815C2.58601 24.3545 4.14329 27.2693 6.43033 29.5574C8.71737 31.8454 11.6315 33.404 14.8042 34.036C17.977 34.668 21.2659 34.3451 24.2551 33.1081C27.2443 31.871 29.7997 29.7755 31.598 27.0863C33.3964 24.3971 34.357 21.2351 34.3584 18C34.3589 15.8517 33.9361 13.7243 33.1142 11.7394C32.2922 9.75445 31.0873 7.95092 29.5682 6.43181C28.0491 4.9127 26.2456 3.70776 24.2607 2.88585C22.2757 2.06393 20.1484 1.64113 18 1.6416V1.6344Z" fill="#006EC3"/>
<path d="M30.3658 18C30.3658 20.4458 29.6405 22.8366 28.2817 24.8702C26.923 26.9038 24.9916 28.4888 22.7321 29.4247C20.4725 30.3607 17.9861 30.6056 15.5873 30.1284C13.1885 29.6513 10.9851 28.4735 9.25571 26.7441C7.5263 25.0147 6.34855 22.8113 5.8714 20.4125C5.39426 18.0138 5.63915 15.5274 6.5751 13.2678C7.51105 11.0082 9.09603 9.07687 11.1296 7.71808C13.1632 6.35929 15.554 5.63403 17.9998 5.63403C21.2795 5.63403 24.4248 6.93688 26.7439 9.25595C29.063 11.575 30.3658 14.7204 30.3658 18Z" fill="#DADADA"/>
<path d="M30.161 18.0611C30.1617 20.4552 29.4524 22.7958 28.1227 24.7867C26.7931 26.7776 24.9029 28.3294 22.6912 29.246C20.4794 30.1625 18.0456 30.4025 15.6975 29.9356C13.3493 29.4687 11.1924 28.3159 9.49954 26.623C7.80666 24.9301 6.65387 22.7732 6.18698 20.4251C5.72009 18.077 5.96008 15.6431 6.87659 13.4314C7.79309 11.2197 9.34495 9.32945 11.3359 7.99981C13.3268 6.67016 15.6673 5.96084 18.0614 5.96155C21.2704 5.96155 24.348 7.23632 26.6171 9.50544C28.8862 11.7746 30.161 14.8521 30.161 18.0611Z" fill="#F4F4F4"/>
<g style="mix-blend-mode:multiply">
<path d="M31.0825 18.27C30.6109 18.108 30.0673 18.4176 29.7001 18.6804C29.2154 19.0404 28.7701 19.4507 28.3717 19.9044C27.9649 20.34 27.4933 20.6928 27.0577 21.096C26.8573 21.3121 26.6446 21.5165 26.4205 21.708C26.3473 21.7026 26.2778 21.6735 26.2225 21.6252C26.0389 21.4668 26.1865 20.9412 26.2225 20.754C26.3388 20.4352 26.3722 20.092 26.3197 19.7568C26.0821 18.972 24.9877 19.7568 24.6205 20.034C24.2533 20.3112 23.9617 20.7828 23.5405 20.8116C23.1193 20.8404 22.9681 20.3328 22.9573 19.9908C22.9573 19.4256 23.2345 18.9108 23.4289 18.3888C23.7335 17.5252 24.1421 16.702 24.6457 15.9372C24.8788 15.6641 25.0572 15.3488 25.1713 15.0084C25.2049 14.8895 25.2133 14.7649 25.1959 14.6427C25.1785 14.5204 25.1357 14.4031 25.0702 14.2983C25.0048 14.1936 24.9182 14.1037 24.8159 14.0344C24.7137 13.9651 24.5981 13.9179 24.4765 13.896C23.9977 13.8024 23.4685 14.2164 23.1553 14.5152C22.8138 14.8642 22.5317 15.2667 22.3201 15.7068C22.0975 16.1509 21.898 16.6063 21.7225 17.0712C21.6361 17.2836 21.5461 17.4924 21.4489 17.7012C21.3537 17.9349 21.2766 18.1756 21.2185 18.4212C21.1899 18.5275 21.1344 18.6246 21.0575 18.7034C20.9807 18.7822 20.8849 18.8399 20.7793 18.8712C20.4193 18.9576 20.4193 18.3708 20.4193 18.1836C20.4865 17.6626 20.6072 17.1499 20.7793 16.6536C20.9125 16.1928 21.0529 15.7356 21.2221 15.2892C21.3913 14.8428 21.6001 14.4 21.7729 13.9392C21.9169 13.5792 22.4281 12.1392 21.7045 12.0204C20.9809 11.9016 20.4157 12.9204 20.0377 13.3992C19.4616 14.1877 18.966 15.0319 18.5581 15.9192C18.4573 16.1208 18.3493 16.3152 18.2305 16.5096C18.1801 16.596 18.1225 16.6824 18.0649 16.7652L17.9461 16.9308C17.8309 17.0784 17.7085 17.2296 17.5861 17.37C17.5177 17.4492 17.4457 17.5176 17.3701 17.5896C17.4385 17.5248 17.3701 17.5896 17.3017 17.6184L17.2405 17.5968C17.2296 17.5752 17.215 17.5557 17.1973 17.5392C17.1405 17.4552 17.1002 17.3611 17.0785 17.262C16.9937 16.8205 17.0285 16.3643 17.1793 15.9408C17.3374 15.5459 17.4485 15.1339 17.5105 14.7132C17.5105 14.4684 17.6473 14.0976 17.5105 13.8744C17.3197 13.5144 16.0417 15.696 15.9337 15.894C15.3145 17.0424 14.7385 18.2016 13.8025 19.134C13.6621 19.2744 13.3777 19.566 13.1617 19.5804C12.7477 19.6092 12.6253 18.99 12.6037 18.702C12.5901 18.2616 12.646 17.8218 12.7693 17.3988C13.0622 16.4673 13.4318 15.5618 13.8745 14.6916C14.2273 13.896 14.7601 13.212 15.1201 12.4524C15.3145 12.0636 15.5629 11.196 14.9905 11.0124C14.8254 10.9893 14.6573 11.0014 14.4972 11.0479C14.3371 11.0945 14.1887 11.1744 14.0617 11.2824C13.7172 11.5112 13.411 11.7931 13.1545 12.1176C12.6195 12.8124 12.1766 13.5735 11.8369 14.382C11.3365 15.4413 10.9293 16.5423 10.6201 17.6724C10.5085 18.0828 10.5301 18.5184 10.4113 18.9288C10.3573 19.1016 10.0837 19.6488 9.85333 19.5876C9.56173 19.494 9.77773 18.7452 9.81373 18.5472C9.8937 18.1416 10.0294 17.7491 10.2169 17.3808C10.3213 17.1756 11.1133 16.1316 10.8757 15.9048C10.6381 15.678 9.79573 16.164 9.64813 16.3296C9.08293 16.8912 8.59693 17.9316 8.13253 18.5724C7.85533 18.954 7.38373 19.5084 6.86533 19.188C6.34693 18.8676 6.32173 18 6.48013 17.4924C6.75013 16.632 7.59613 16.1244 8.30533 15.6528C8.80213 15.3252 10.0765 14.6808 10.1053 13.9716C10.1341 13.2624 9.02533 13.7808 8.73373 13.9392C7.84853 14.4791 7.0937 15.2081 6.52333 16.074C5.99053 16.8336 5.51533 17.766 5.58733 18.72C5.63773 19.4004 6.07333 20.2284 6.87613 20.088C7.79053 19.926 8.35213 18.7524 8.78053 18.0468C9.04963 17.5843 9.34783 17.1394 9.67333 16.7148C9.81373 16.5348 10.1449 16.0524 10.3933 16.0308C10.9189 15.9804 10.0945 17.1648 9.98653 17.352C9.58333 18.0288 8.74813 19.152 8.97133 19.998C9.15853 20.6964 9.93253 20.4192 10.3213 20.0664C10.9081 19.5336 11.0989 18.72 11.2609 17.9748C11.6713 16.0776 11.9809 14.1228 13.2481 12.5748C13.4425 12.3372 14.0581 11.4768 14.4361 11.6604C14.8141 11.844 14.2525 12.4668 14.1121 12.6576C13.7599 13.1659 13.4447 13.6988 13.1689 14.2524C12.6147 15.2156 12.2127 16.2587 11.9773 17.3448C11.8261 18.144 11.6173 19.6056 12.4993 20.0808C13.3201 20.52 14.0401 19.5444 14.4865 19.008C15.0733 18.288 15.4045 17.3952 15.8437 16.5852C15.5629 17.3772 15.5161 18.324 16.0489 19.008C16.3837 19.44 17.0425 19.3284 17.4889 19.1628C17.9782 18.9251 18.4011 18.5702 18.7201 18.1296C19.3429 17.3772 19.6129 16.4232 19.8793 15.5016C20.0017 15.066 20.1169 14.6304 20.2609 14.202C20.4186 13.7533 20.6366 13.3282 20.9089 12.9384C21.0152 12.7686 21.149 12.6177 21.3049 12.492C21.6397 12.24 21.7369 12.6432 21.7513 12.8808C21.7248 13.3902 21.5911 13.8882 21.3589 14.3424C20.9921 15.2406 20.6843 16.1617 20.4373 17.1C20.3389 17.5043 20.2655 17.9142 20.2177 18.3276C20.1879 18.4758 20.2028 18.6295 20.2605 18.7692C20.3182 18.9089 20.4161 19.0284 20.5417 19.1124C21.0493 19.4256 21.6541 18.8172 21.9817 18.4788C22.4522 17.9626 22.8484 17.3835 23.1589 16.758C23.2489 16.5852 23.2813 16.398 23.3857 16.218C23.4901 16.038 23.7457 15.8904 23.7781 16.236C23.7592 16.4717 23.7021 16.7027 23.6089 16.92C23.5379 17.2876 23.4367 17.6489 23.3065 18C23.1329 18.4536 22.9839 18.9163 22.8601 19.386C22.6909 20.016 22.2985 21.1428 23.2201 21.4344C23.6377 21.5712 24.0841 21.294 24.4261 21.0744C24.6421 20.9448 24.8581 20.8116 25.0669 20.6676C25.1736 20.5925 25.2855 20.5251 25.4017 20.466C25.4017 20.5236 25.3693 20.5776 25.3585 20.6244C25.3175 20.8079 25.2922 20.9946 25.2829 21.1824C25.2328 21.5045 25.2884 21.8341 25.4413 22.122C25.8229 22.7052 26.5897 22.4028 27.0613 22.122C28.2817 21.402 29.0449 20.0448 30.3013 19.3248C30.4849 19.2312 30.4345 19.7316 30.5173 19.7964C31.1689 20.304 32.0941 18.6156 31.0825 18.27Z" fill="#EBEAEA"/>
</g>
<g style="mix-blend-mode:multiply">
<path d="M29.9341 20.5524C29.7437 20.7017 29.6072 20.909 29.5453 21.1428C29.5354 21.199 29.5384 21.2567 29.5539 21.3115C29.5695 21.3664 29.5973 21.417 29.6353 21.4596L29.6821 21.492C29.7021 21.5135 29.7268 21.5302 29.7542 21.5408C29.7817 21.5514 29.8111 21.5557 29.8405 21.5532C30.0527 21.5447 30.2573 21.4719 30.4273 21.3444L30.5137 21.2652C30.4417 21.33 30.4597 21.3156 30.5605 21.2256C30.6273 21.1513 30.6808 21.066 30.7189 20.9736C30.7527 20.8936 30.7611 20.8051 30.7431 20.7202C30.7251 20.6352 30.6814 20.5578 30.6181 20.4984C30.5197 20.416 30.3929 20.3755 30.265 20.3856C30.1371 20.3957 30.0182 20.4556 29.9341 20.5524Z" fill="#EBEAEA"/>
</g>
<g style="mix-blend-mode:multiply">
<path d="M29.2788 21.9132C29.256 21.9106 29.2331 21.9106 29.2104 21.9132C29.1391 21.9127 29.0695 21.9354 29.0124 21.978C28.97 22.0113 28.9335 22.0514 28.9044 22.0968C28.8781 22.14 28.8598 22.1875 28.8504 22.2372C28.8468 22.2611 28.8468 22.2853 28.8504 22.3092C28.8504 22.3272 28.8504 22.3452 28.8504 22.3668C28.8629 22.3938 28.8846 22.4155 28.9116 22.428C28.9279 22.4404 28.9461 22.4502 28.9656 22.4568C29.0253 22.4754 29.0892 22.4761 29.1493 22.4588C29.2094 22.4416 29.2632 22.4071 29.304 22.3596C29.335 22.3237 29.3586 22.2819 29.3734 22.2368C29.3882 22.1917 29.394 22.1441 29.3904 22.0968C29.3859 22.0477 29.3642 22.0018 29.3292 21.9672C29.3181 21.9446 29.3006 21.9258 29.2788 21.9132Z" fill="#EBEAEA"/>
</g>
<path opacity="0.6" d="M30.9132 18.1979C30.4416 18.0359 29.898 18.3419 29.5272 18.6047C29.0441 18.9667 28.5991 19.3768 28.1988 19.8288C27.7956 20.268 27.324 20.6172 26.8848 21.024C26.6853 21.2409 26.4725 21.4453 26.2476 21.6359C26.1748 21.6291 26.1057 21.6002 26.0496 21.5531C25.866 21.3911 26.0136 20.8692 26.0496 20.6819C26.1626 20.3624 26.1947 20.0198 26.1432 19.6847C25.9056 18.8963 24.8148 19.6847 24.4476 19.9619C24.0804 20.2392 23.7852 20.7071 23.346 20.7359C22.9068 20.7647 22.7772 20.2572 22.7664 19.9187C22.7664 19.3499 23.0436 18.8387 23.238 18.3168C23.5421 17.4525 23.9494 16.6281 24.4512 15.8615C24.6848 15.5882 24.8644 15.2731 24.9804 14.9327C25.0134 14.8139 25.0212 14.6894 25.0033 14.5673C24.9854 14.4453 24.9422 14.3283 24.8764 14.2239C24.8107 14.1195 24.7238 14.03 24.6215 13.9611C24.5191 13.8923 24.4035 13.8455 24.282 13.8239C23.8032 13.7267 23.274 14.1407 22.9608 14.4431C22.6231 14.7923 22.3435 15.1934 22.1328 15.6311C21.9024 16.0739 21.7224 16.5347 21.5352 16.9955C21.4488 17.2079 21.3588 17.4204 21.2616 17.6291C21.168 17.8634 21.091 18.104 21.0312 18.3491C21.0026 18.4551 20.9472 18.5518 20.8703 18.63C20.7933 18.7082 20.6975 18.7652 20.592 18.7955C20.232 18.8855 20.232 18.2987 20.232 18.1079C20.2975 17.5878 20.4181 17.0761 20.592 16.5815C20.7288 16.1207 20.8656 15.6635 21.0348 15.2135C21.204 14.7635 21.438 14.3243 21.6108 13.8707C21.7512 13.5107 22.2624 12.0707 21.5424 11.9483C20.8224 11.8259 20.2428 12.8483 19.8648 13.3199C19.2907 14.1091 18.7963 14.9532 18.3888 15.8399C18.2844 16.0415 18.1764 16.2395 18.0612 16.4303C18.0072 16.5203 17.9496 16.6031 17.892 16.6895C17.892 16.6895 17.7588 16.8767 17.7768 16.8551C17.658 17.0027 17.5392 17.1503 17.4168 17.2943C17.3484 17.3699 17.2728 17.4419 17.1972 17.5139C17.2656 17.4492 17.1972 17.4959 17.1288 17.5427L17.0712 17.5211C17.0591 17.4994 17.0432 17.4799 17.0244 17.4635C16.9673 17.3788 16.9281 17.2832 16.9092 17.1827C16.8223 16.7428 16.8559 16.2876 17.0064 15.8651C17.164 15.4702 17.2752 15.0582 17.3376 14.6375C17.3556 14.3927 17.478 14.0219 17.3556 13.7951C17.1648 13.4351 15.8868 15.6203 15.7824 15.8147C15.1632 16.9631 14.5836 18.1259 13.6512 19.0547C13.5072 19.1951 13.2228 19.4867 13.0104 19.5011C12.5964 19.5299 12.474 18.9107 12.4488 18.6192C12.4319 18.1772 12.4828 17.7352 12.6 17.3088C12.8936 16.3776 13.2632 15.4721 13.7052 14.6015C14.0436 13.8239 14.5764 13.1363 14.9544 12.3767C15.1488 11.9915 15.3936 11.1203 14.8248 10.9367C14.6597 10.9143 14.4918 10.9268 14.3318 10.9733C14.1718 11.0198 14.0234 11.0993 13.896 11.2067C13.5519 11.4375 13.2449 11.7191 12.9852 12.0419C12.4513 12.7369 12.0097 13.498 11.6712 14.3063C11.1723 15.3667 10.7641 16.4675 10.4508 17.5967C10.3428 18.0107 10.3644 18.4463 10.242 18.8531C10.188 19.0259 9.91443 19.5731 9.68763 19.5155C9.39243 19.4219 9.60843 18.6731 9.64803 18.4751C9.73252 18.0645 9.87814 17.6689 10.08 17.3015C10.1844 17.0963 10.9728 16.0487 10.7352 15.8219C10.4976 15.5951 9.52203 16.4231 9.36003 16.5851C8.79483 17.1503 8.44203 17.8523 7.97763 18.4895C7.69683 18.8747 7.22883 19.4292 6.70683 19.1088C6.18483 18.7884 6.14883 17.9351 6.31443 17.4203C6.58443 16.5599 7.42683 16.0487 8.13603 15.5807C8.63283 15.2495 9.90723 14.6051 9.93603 13.8959C9.96483 13.1867 8.85603 13.7051 8.56083 13.8671C7.67572 14.4056 6.92085 15.1335 6.35043 15.9983C5.82123 16.7615 5.34243 17.6903 5.41443 18.6479C5.46483 19.3283 5.90403 20.1563 6.70683 20.0123C7.61763 19.8503 8.17923 18.6767 8.60763 17.9747C8.87714 17.5114 9.17532 17.0653 9.50043 16.6391C9.64443 16.4627 9.97563 15.9767 10.2204 15.9551C10.7496 15.9083 9.92523 17.0891 9.81363 17.2764C9.41043 17.9567 8.57523 19.0763 8.80203 19.9223C8.98563 20.6243 9.75963 20.3435 10.1484 19.9907C10.7388 19.4579 10.926 18.6443 11.088 17.9027C11.502 16.0019 11.808 14.0507 13.0788 12.5027C13.2696 12.2651 13.8852 11.4227 14.2668 11.5919C14.6484 11.7611 14.0796 12.3983 13.9392 12.5891C13.5883 13.0983 13.2731 13.6312 12.996 14.1839C12.4539 15.1508 12.063 16.1948 11.8368 17.2799C11.6856 18.0791 11.4768 19.5407 12.3588 20.0159C13.1544 20.4443 13.8816 19.4831 14.3172 18.9359C14.9004 18.2159 15.2352 17.3231 15.6744 16.5131C15.39 17.3087 15.3432 18.2519 15.876 18.9359C16.2144 19.3715 16.8732 19.2599 17.316 19.0943C17.8032 18.8567 18.2256 18.5047 18.5472 18.0683C19.17 17.3159 19.44 16.3583 19.7064 15.4403C19.8324 15.0047 19.9476 14.5691 20.0916 14.1371C20.2481 13.6886 20.4649 13.2635 20.736 12.8735C20.8416 12.7012 20.9755 12.5478 21.132 12.4199C21.4632 12.1643 21.5604 12.5711 21.5748 12.8087C21.5486 13.317 21.4148 13.814 21.1824 14.2667C20.8195 15.166 20.5129 16.087 20.2644 17.0243C20.1625 17.4291 20.0891 17.8405 20.0448 18.2555C20.0132 18.4034 20.0268 18.5574 20.084 18.6974C20.1411 18.8374 20.2392 18.9569 20.3652 19.0403C20.8764 19.3499 21.4776 18.7415 21.8052 18.4067C22.276 17.8901 22.6733 17.3111 22.986 16.6859C23.0724 16.5131 23.1084 16.3259 23.2128 16.1459C23.3172 15.9659 23.5728 15.8183 23.6016 16.1459C23.5865 16.3741 23.5367 16.5987 23.454 16.8119C23.3828 17.18 23.2804 17.5413 23.148 17.8919C22.9646 18.3467 22.8084 18.8119 22.68 19.2851C22.5108 19.9151 22.1184 21.0383 23.0184 21.3335C23.436 21.4703 23.886 21.1895 24.228 20.9735C24.444 20.8475 24.66 20.7107 24.8652 20.5703C24.9714 20.4966 25.0834 20.4316 25.2 20.3759C25.2 20.4335 25.1676 20.4911 25.1568 20.5343C25.1126 20.7186 25.0861 20.9067 25.0776 21.0959C25.0286 21.4184 25.0855 21.7481 25.2396 22.0355C26.1 23.3531 28.0548 21.0743 28.6236 20.4479C28.9201 20.1168 29.259 19.8262 29.6316 19.584C29.7216 19.5264 29.9088 19.3463 30.0924 19.224C30.2796 19.1304 30.2292 19.6271 30.312 19.6955C30.996 20.2319 31.9248 18.5435 30.9132 18.1979Z" fill="#A96A26"/>
<path opacity="0.4" d="M30.449 20.4227C30.3499 20.3421 30.2236 20.3026 30.0962 20.3127C29.9688 20.3228 29.8502 20.3815 29.765 20.4767C29.5754 20.6267 29.4391 20.8337 29.3762 21.0671C29.3649 21.1233 29.3672 21.1813 29.3828 21.2364C29.3985 21.2915 29.4271 21.3421 29.4662 21.3839L29.513 21.4199C29.5325 21.442 29.5572 21.4588 29.5849 21.4689C29.6125 21.4789 29.6423 21.4819 29.6714 21.4775C29.8775 21.4657 30.0754 21.393 30.2402 21.2687L30.3266 21.1931C30.2582 21.2579 30.2726 21.2435 30.377 21.1499C30.4446 21.0782 30.4972 20.9938 30.5318 20.9015C30.5681 20.8227 30.5796 20.7348 30.5648 20.6493C30.5501 20.5638 30.5097 20.4848 30.449 20.4227Z" fill="#A96A26"/>
<path opacity="0.4" d="M29.1781 21.8844C29.1597 21.8622 29.1343 21.8469 29.1061 21.8412C29.0845 21.8387 29.0628 21.8387 29.0413 21.8412C28.9695 21.8412 28.8997 21.8652 28.8433 21.9096C28.7982 21.9409 28.7601 21.9814 28.7317 22.0284C28.7059 22.0715 28.6888 22.1191 28.6813 22.1688C28.6759 22.1913 28.6759 22.2147 28.6813 22.2372C28.6797 22.2576 28.6797 22.278 28.6813 22.2984C28.6946 22.3236 28.7145 22.3447 28.7389 22.3596C28.7552 22.372 28.7734 22.3818 28.7929 22.3884C28.853 22.4061 28.9169 22.406 28.977 22.3881C29.0371 22.3702 29.0906 22.3353 29.1313 22.2876C29.1943 22.2165 29.2267 22.1233 29.2213 22.0284C29.2234 21.9769 29.2082 21.9262 29.1781 21.8844Z" fill="#A96A26"/>
<g style="mix-blend-mode:screen">
<g style="mix-blend-mode:screen" opacity="0.4">
<path d="M9.62655 13.734C9.00616 13.8625 8.42283 14.1296 7.92015 14.5152C7.38761 14.9602 6.92839 15.4863 6.55935 16.074C6.52695 16.1244 6.58455 16.1496 6.62055 16.1136C6.82575 15.9048 6.99855 15.6636 7.20375 15.4512C7.43154 15.2118 7.67188 14.9847 7.92375 14.7708C8.44409 14.3693 9.01099 14.0321 9.61215 13.7664C9.61215 13.7664 9.64815 13.7268 9.62655 13.734Z" fill="white"/>
</g>
<g style="mix-blend-mode:screen" opacity="0.4">
<path d="M6.63124 19.6632C6.49013 19.6549 6.35254 19.6158 6.22816 19.5486C6.10377 19.4814 5.9956 19.3878 5.91124 19.2744C5.72365 19.0361 5.6199 18.7425 5.61604 18.4392C5.61604 18.4392 5.59444 18.4392 5.59084 18.4392C5.54044 19.044 5.87884 19.8216 6.59164 19.7496C6.64924 19.7532 6.68884 19.6704 6.63124 19.6632Z" fill="white"/>
</g>
<g style="mix-blend-mode:screen" opacity="0.4">
<path d="M10.055 19.7388C9.84618 19.8828 9.46818 20.0556 9.23418 19.872C9.23418 19.872 9.20538 19.872 9.21258 19.8936C9.24849 19.9697 9.30993 20.0308 9.38622 20.0663C9.46251 20.1018 9.54883 20.1095 9.63018 20.088C9.81261 20.0412 9.97686 19.9409 10.1018 19.8C10.1342 19.7604 10.1018 19.7064 10.055 19.7388Z" fill="white"/>
</g>
<g style="mix-blend-mode:screen" opacity="0.4">
<path d="M17.0533 17.6941C15.9733 17.6365 17.1865 14.8933 17.2153 14.3569C17.2153 14.3389 17.1901 14.3569 17.1901 14.3569C17.0564 14.7711 16.8965 15.1763 16.7113 15.5701C16.577 15.902 16.4781 16.2471 16.4161 16.5997C16.3657 16.9921 16.3981 17.9245 17.0389 17.7517C17.0605 17.7481 17.0929 17.6941 17.0533 17.6941Z" fill="white"/>
</g>
<g style="mix-blend-mode:screen" opacity="0.4">
<path d="M18.533 17.64C18.318 17.9355 18.0508 18.1893 17.7446 18.3888C17.6942 18.432 17.7122 18.5112 17.7806 18.468C18.1332 18.2952 18.4118 18.0013 18.5654 17.64C18.5726 17.64 18.5438 17.64 18.533 17.64Z" fill="white"/>
</g>
<g style="mix-blend-mode:screen" opacity="0.4">
<path d="M24.4583 14.0401C23.9795 13.8457 23.5835 14.1121 23.2163 14.4001C23.2163 14.4001 23.2163 14.4505 23.2163 14.4361C23.4707 14.2712 23.7664 14.1814 24.0695 14.1769C24.4295 14.1949 24.6239 14.6737 24.5915 14.9653C24.5915 15.0085 24.6383 14.9977 24.6527 14.9653C24.8039 14.7061 24.8111 14.1769 24.4583 14.0401Z" fill="white"/>
</g>
<g style="mix-blend-mode:screen" opacity="0.4">
<path d="M24.3683 15.4297C24.3359 15.4801 24.2999 15.5233 24.2675 15.5737C24.2351 15.6241 24.2675 15.6529 24.2927 15.6529C24.3129 15.653 24.3325 15.6458 24.3478 15.6325C24.363 15.6193 24.3729 15.6009 24.3755 15.5809C24.3755 15.5305 24.3755 15.4801 24.3755 15.4297C24.3755 15.3793 24.3755 15.4189 24.3683 15.4297Z" fill="white"/>
</g>
<g style="mix-blend-mode:screen" opacity="0.4">
<path d="M26.5501 21.8233C26.1901 21.9601 25.7797 22.1149 25.5133 21.7297C25.3153 21.4417 25.3657 21.0097 25.3477 20.6497C25.2757 21.1177 25.1281 21.5677 25.4521 21.9709C25.7761 22.3741 26.2909 22.1221 26.5969 21.8953C26.6401 21.8809 26.6401 21.7945 26.5501 21.8233Z" fill="white"/>
</g>
<g style="mix-blend-mode:screen" opacity="0.4">
<path d="M30.2689 20.5524C30.2588 20.5204 30.2386 20.4926 30.2113 20.4732C30.1841 20.4537 30.1512 20.4436 30.1177 20.4444C29.9933 20.4601 29.8798 20.5233 29.8009 20.6208C29.7325 20.6928 29.6029 20.8548 29.6749 20.9628C29.6793 21.0048 29.6955 21.0448 29.7217 21.078C29.7973 21.1752 29.9485 21.078 30.0205 21.0384C30.0644 21.0047 30.1043 20.966 30.1393 20.9232L30.1897 20.8548C30.1573 20.9124 30.2185 20.8152 30.2185 20.8152C30.2484 20.7792 30.2687 20.7362 30.2775 20.6903C30.2864 20.6443 30.2834 20.5969 30.2689 20.5524Z" fill="white"/>
</g>
<g style="mix-blend-mode:screen" opacity="0.4">
<path d="M28.9549 21.8917C28.9398 21.8938 28.9254 21.8995 28.9129 21.9082C28.9004 21.917 28.8901 21.9286 28.8829 21.9421C28.8829 21.9673 28.8541 22.0141 28.8829 22.0357C28.9261 22.0753 28.9765 22.0357 28.9981 21.9853C29.0197 21.9349 29.0161 21.8773 28.9549 21.8917Z" fill="white"/>
</g>
<g style="mix-blend-mode:screen" opacity="0.4">
<path d="M30.8592 18.8208C30.8235 18.7936 30.7799 18.7789 30.735 18.7789C30.6901 18.7789 30.6465 18.7936 30.6108 18.8208C30.5604 18.8503 30.5169 18.8904 30.4834 18.9382C30.4498 18.986 30.427 19.0405 30.4164 19.098C30.4091 19.1251 30.4082 19.1535 30.4138 19.181C30.4194 19.2085 30.4314 19.2343 30.4488 19.2564L30.5136 19.296C30.5361 19.3086 30.5616 19.3152 30.5874 19.3152C30.6132 19.3152 30.6386 19.3086 30.6612 19.296C30.7406 19.2566 30.8059 19.1938 30.8484 19.116C30.8791 19.0733 30.8965 19.0225 30.8985 18.97C30.9004 18.9175 30.8867 18.8656 30.8592 18.8208Z" fill="white"/>
</g>
</g>
<path opacity="0.4" d="M8.18294 14.9796C8.09654 14.9796 8.01374 15.1488 8.11814 15.1488C8.22254 15.1488 8.28014 14.9796 8.18294 14.9796Z" fill="#7B4E19"/>
<path opacity="0.4" d="M8.89579 14.5225C8.83099 14.5225 8.7698 14.6449 8.849 14.6449C8.9282 14.6449 8.97139 14.5225 8.89579 14.5225Z" fill="#7B4E19"/>
<path opacity="0.4" d="M6.59146 16.2612C6.55906 16.2612 6.52306 16.3332 6.56626 16.3332C6.60946 16.3332 6.63826 16.2612 6.59146 16.2612Z" fill="#7B4E19"/>
<path opacity="0.4" d="M6.11997 17.352C6.09837 17.334 6.06957 17.352 6.05877 17.3736V17.3916C6.03717 17.424 6.05877 17.4492 6.10197 17.4276C6.10197 17.4276 6.14877 17.3736 6.11997 17.352Z" fill="#7B4E19"/>
<path opacity="0.4" d="M7.4414 19.4184C7.3874 19.368 7.3154 19.4508 7.3046 19.5012C7.30381 19.5087 7.30483 19.5162 7.30757 19.5232C7.3103 19.5302 7.31468 19.5364 7.32033 19.5413C7.32597 19.5463 7.33273 19.5498 7.34001 19.5516C7.3473 19.5534 7.35491 19.5534 7.3622 19.5516C7.4234 19.5516 7.4954 19.4688 7.4414 19.4184Z" fill="#7B4E19"/>
<path opacity="0.4" d="M6.86162 19.6021C6.83642 19.6021 6.81122 19.656 6.86162 19.656C6.91202 19.656 6.89762 19.6021 6.86162 19.6021Z" fill="#7B4E19"/>
<path opacity="0.4" d="M10.3284 19.4615C10.2888 19.4615 10.2492 19.5407 10.2996 19.5407C10.35 19.5407 10.3788 19.4615 10.3284 19.4615Z" fill="#7B4E19"/>
<path opacity="0.4" d="M10.6382 18.2916C10.6252 18.2958 10.6133 18.3029 10.6034 18.3122C10.5934 18.3215 10.5857 18.3329 10.5806 18.3456C10.5806 18.3888 10.6022 18.414 10.6418 18.3996C10.6594 18.3926 10.6742 18.38 10.684 18.3637C10.6938 18.3474 10.6979 18.3284 10.6958 18.3096C10.6886 18.2772 10.6598 18.2772 10.6382 18.2916Z" fill="#7B4E19"/>
<path opacity="0.4" d="M14.8608 12.0888C14.8719 12.093 14.8841 12.0931 14.8953 12.0891C14.9065 12.0852 14.916 12.0774 14.922 12.0672C15.0048 11.9664 14.778 12.0312 14.8608 12.0888Z" fill="#7B4E19"/>
<path opacity="0.4" d="M14.7922 11.322C14.783 11.3194 14.7732 11.3198 14.7642 11.323C14.7551 11.3263 14.7473 11.3322 14.7418 11.34C14.7382 11.3453 14.7363 11.3515 14.7363 11.358C14.7363 11.3644 14.7382 11.3706 14.7418 11.376C14.7598 11.4156 14.8102 11.376 14.821 11.3508C14.8318 11.3256 14.8102 11.3292 14.7922 11.322Z" fill="#7B4E19"/>
<path opacity="0.4" d="M13.1074 19.6416C13.0426 19.6416 12.9778 19.7748 13.0606 19.7748C13.1434 19.7748 13.1938 19.6416 13.1074 19.6416Z" fill="#7B4E19"/>
<path opacity="0.4" d="M12.3806 19.6309C12.3338 19.6309 12.2834 19.7245 12.3482 19.7245C12.413 19.7245 12.4418 19.6309 12.3806 19.6309Z" fill="#7B4E19"/>
<path opacity="0.4" d="M18.5147 17.1576C18.4895 17.136 18.4499 17.1576 18.4319 17.1756H18.4139C18.4139 17.1936 18.3779 17.2368 18.4139 17.262C18.4499 17.2872 18.4787 17.262 18.5003 17.262V17.244C18.507 17.2393 18.5127 17.2334 18.5171 17.2265C18.5215 17.2196 18.5244 17.2119 18.5258 17.2038C18.5271 17.1958 18.5268 17.1875 18.5249 17.1796C18.523 17.1717 18.5196 17.1642 18.5147 17.1576Z" fill="#7B4E19"/>
<path opacity="0.4" d="M17.28 18.4139C17.2188 18.4139 17.1576 18.5363 17.2368 18.5363C17.316 18.5363 17.3664 18.4139 17.28 18.4139Z" fill="#7B4E19"/>
<path opacity="0.4" d="M16.29 18.1908C16.2432 18.1908 16.2 18.2808 16.2576 18.2808C16.3152 18.2808 16.344 18.1908 16.29 18.1908Z" fill="#7B4E19"/>
<path opacity="0.4" d="M16.3045 17.7012C16.2613 17.7012 16.2217 17.7804 16.2757 17.7804C16.3297 17.7804 16.3549 17.7012 16.3045 17.7012Z" fill="#7B4E19"/>
<path opacity="0.4" d="M16.4591 18.8999C16.4534 18.8956 16.4464 18.8932 16.4393 18.8932C16.4321 18.8932 16.4251 18.8956 16.4195 18.8999C16.3979 18.9251 16.3979 18.9791 16.4411 18.9683C16.4843 18.9575 16.5023 18.9179 16.4591 18.8999Z" fill="#7B4E19"/>
<path opacity="0.4" d="M20.2895 13.1219C20.2535 13.1219 20.2211 13.1939 20.2643 13.1939C20.3075 13.1939 20.3363 13.1219 20.2895 13.1219Z" fill="#7B4E19"/>
<path opacity="0.4" d="M19.9367 13.8024C19.9187 13.7556 19.8359 13.8024 19.8467 13.8528C19.8481 13.8637 19.8532 13.8739 19.861 13.8817C19.8688 13.8895 19.8789 13.8945 19.8899 13.896C19.9367 13.8996 19.9799 13.8168 19.9367 13.8024Z" fill="#7B4E19"/>
<path opacity="0.4" d="M22.0786 17.5499C22.0778 17.5439 22.0747 17.5384 22.0701 17.5344C22.0654 17.5304 22.0595 17.5283 22.0534 17.5283C22.0174 17.5031 21.9778 17.5031 21.9886 17.5931C21.9886 17.5931 21.9886 17.5931 22.0138 17.5931C22.1038 17.6399 22.1038 17.5859 22.0786 17.5499Z" fill="#7B4E19"/>
<path opacity="0.4" d="M21.5173 17.5176C21.4561 17.5176 21.3949 17.64 21.4741 17.64C21.5533 17.64 21.6001 17.5176 21.5173 17.5176Z" fill="#7B4E19"/>
<path opacity="0.4" d="M23.4506 15.2136C23.4038 15.2136 23.3606 15.3 23.4182 15.3C23.4758 15.3 23.5046 15.2136 23.4506 15.2136Z" fill="#7B4E19"/>
<path opacity="0.4" d="M24.0478 14.7347C23.9866 14.7347 23.9326 14.8499 24.0046 14.8499C24.0766 14.8499 24.1198 14.7347 24.0478 14.7347Z" fill="#7B4E19"/>
<path opacity="0.4" d="M23.8678 16.2324C23.8174 16.2324 23.7706 16.3296 23.8318 16.3296C23.893 16.3296 23.929 16.2324 23.8678 16.2324Z" fill="#7B4E19"/>
<path opacity="0.4" d="M24.0948 20.7432C24.0408 20.7432 23.9904 20.8332 24.0408 20.8512C24.0912 20.8692 24.156 20.8512 24.1452 20.79C24.1452 20.7835 24.1439 20.7771 24.1413 20.7712C24.1388 20.7653 24.135 20.7599 24.1303 20.7555C24.1255 20.7512 24.1199 20.7478 24.1138 20.7457C24.1077 20.7435 24.1012 20.7427 24.0948 20.7432Z" fill="#7B4E19"/>
<path opacity="0.4" d="M23.4253 20.8799C23.4037 20.8619 23.3713 20.8799 23.3533 20.8799C23.3533 20.8979 23.3209 20.9339 23.3533 20.9519C23.3857 20.9699 23.4073 20.9519 23.4289 20.9519C23.4365 20.9413 23.4404 20.9284 23.4397 20.9153C23.4391 20.9022 23.434 20.8897 23.4253 20.8799Z" fill="#7B4E19"/>
<path opacity="0.4" d="M25.6967 20.88C25.6427 20.88 25.5887 20.988 25.6571 20.988C25.7255 20.988 25.7615 20.88 25.6967 20.88Z" fill="#7B4E19"/>
<path opacity="0.4" d="M26.0568 21.7512C26.028 21.7512 26.0028 21.8016 26.0352 21.8016C26.0676 21.8016 26.0892 21.7512 26.0568 21.7512Z" fill="#7B4E19"/>
<path opacity="0.4" d="M28.2239 20.3184C28.1771 20.3184 28.1267 20.4156 28.1879 20.4156C28.2491 20.4156 28.2851 20.3184 28.2239 20.3184Z" fill="#7B4E19"/>
<path opacity="0.4" d="M27.5652 20.88C27.5256 20.88 27.486 20.9592 27.5364 20.9592C27.5868 20.9592 27.6156 20.88 27.5652 20.88Z" fill="#7B4E19"/>
<path opacity="0.4" d="M29.3976 19.2672C29.34 19.2672 29.2824 19.3824 29.3544 19.3824C29.4264 19.3824 29.4696 19.2672 29.3976 19.2672Z" fill="#7B4E19"/>
<path opacity="0.4" d="M30.0454 18.5292C30.0454 18.5616 30.085 18.5292 30.085 18.5292C30.085 18.4896 30.0454 18.504 30.0454 18.5292Z" fill="#7B4E19"/>
<path opacity="0.4" d="M29.9017 21.2399C29.9017 21.2723 29.9629 21.2399 29.9665 21.2183C29.9917 21.1319 29.8801 21.1643 29.9017 21.2399Z" fill="#7B4E19"/>
<path opacity="0.4" d="M30.4057 20.8512C30.4057 20.8512 30.3805 20.8764 30.4057 20.8764C30.4309 20.8764 30.4237 20.8512 30.4057 20.8512Z" fill="#7B4E19"/>
<path opacity="0.4" d="M29.0123 22.0068C28.9547 22.0068 28.8971 22.122 28.9727 22.122C29.0483 22.122 29.0843 22.0068 29.0123 22.0068Z" fill="#7B4E19"/>
<path opacity="0.4" d="M11.095 16.7832C11.095 16.7832 11.059 16.7832 11.0518 16.7832C11.0518 16.8084 11.0518 16.8444 11.0806 16.8372C11.1094 16.83 11.1202 16.8084 11.095 16.7832Z" fill="#7B4E19"/>
<path opacity="0.4" d="M11.2966 15.5483C11.2498 15.5483 11.1994 15.6455 11.2642 15.6455C11.329 15.6455 11.3578 15.5483 11.2966 15.5483Z" fill="#7B4E19"/>
<path opacity="0.4" d="M8.71547 17.5681C8.71547 17.5321 8.65427 17.5681 8.64347 17.5933C8.63267 17.6185 8.64347 17.6257 8.64347 17.6329C8.64347 17.6401 8.67587 17.6329 8.69027 17.6329C8.69886 17.6362 8.70843 17.636 8.71687 17.6323C8.72531 17.6286 8.73193 17.6216 8.73527 17.6131C8.73861 17.6045 8.7384 17.5949 8.73469 17.5865C8.73098 17.578 8.72406 17.5714 8.71547 17.5681Z" fill="#7B4E19"/>
<path opacity="0.4" d="M6.14902 19.0081C6.09862 19.0081 6.05182 19.1089 6.11662 19.1089C6.18142 19.1089 6.21022 19.0081 6.14902 19.0081Z" fill="#7B4E19"/>
<path opacity="0.4" d="M5.85734 18.522C5.78894 18.522 5.72414 18.6552 5.81054 18.6552C5.89694 18.6552 5.94014 18.522 5.85734 18.522Z" fill="#7B4E19"/>
<path d="M18.3061 13.8276C17.9461 13.5144 17.6509 12.4452 17.5861 9.91077C17.6138 8.11627 18.1102 6.36018 19.0261 4.81677C17.7095 6.70602 17.1189 9.00697 17.3629 11.2968C17.4595 12.2382 17.6158 13.1724 17.8309 14.094C17.9893 14.616 18.0937 14.5116 18.6409 15.1128C18.8251 15.2993 18.9503 15.536 19.0009 15.7932C19.1376 15.6761 19.2512 15.5345 19.3357 15.3756C19.1006 14.7954 18.7503 14.2688 18.3061 13.8276Z" fill="#8E785A"/>
<path d="M17.8597 14.0904C17.6445 13.1688 17.4882 12.2345 17.3917 11.2932C17.1477 9.00335 17.7382 6.7024 19.0549 4.81315C19.2432 4.47516 19.4562 4.15149 19.6921 3.84475C19.9765 3.48475 19.1161 3.05995 18.4897 3.42355C17.8633 3.78715 16.7365 5.09755 15.6385 8.88475C14.5585 13.878 16.8913 16.5204 16.8913 16.5204C17.3809 16.4772 18.4285 16.3116 19.0513 15.8004C19.0006 15.5431 18.8754 15.3065 18.6913 15.12C18.1225 14.508 18.0181 14.6124 17.8597 14.0904Z" fill="#B6A68A"/>
<g style="mix-blend-mode:multiply">
<path d="M17.6042 9.52197C16.8129 10.0845 16.0589 10.6978 15.347 11.358C15.3285 12.4597 15.5027 13.5562 15.8618 14.598C16.0757 13.8109 16.4148 13.0633 16.8662 12.384C17.0901 12.0548 17.3647 11.7632 17.6798 11.52C17.6402 11.0664 17.6114 10.5372 17.6006 9.92157C17.597 9.78117 17.6006 9.65157 17.6042 9.52197Z" fill="#9E8D71"/>
</g>
<path d="M13.4964 15.372C13.2876 14.9544 13.158 14.2488 13.5756 13.122C13.8348 12.4308 14.0004 12.1464 14.13 11.8188C13.0788 13.3776 12.69 14.9796 12.9492 16.3368C13.0523 16.4586 13.1783 16.5589 13.32 16.632C13.4676 16.2504 13.6368 15.6456 13.4964 15.372Z" fill="#A78D6A"/>
<path d="M25.3801 5.72766C25.2181 5.33886 25.0957 5.39286 24.5233 5.52966C23.9509 5.66646 19.0117 6.77526 15.8401 9.88206C15.2017 10.4587 14.6338 11.1088 14.1481 11.8189C14.0185 12.1465 13.8529 12.4309 13.5937 13.1221C13.1761 14.2489 13.3057 14.9545 13.5145 15.3721C13.6549 15.6457 13.4857 16.2505 13.3525 16.6321C14.2709 17.0589 15.2517 17.336 16.2577 17.4529C16.1657 17.156 15.9719 16.901 15.7105 16.7329C15.1597 16.3945 15.3721 16.3945 15.4225 16.0525C15.4729 15.7105 15.2389 15.5305 15.0301 14.9293C14.8213 14.3281 15.1597 13.9645 15.2929 13.6225C15.3596 13.4171 15.4847 13.2357 15.6529 13.1005C15.7861 12.9709 15.7861 12.8665 16.0741 12.3193C16.3621 11.7721 17.1541 11.0125 17.9533 10.2781C18.7525 9.54366 20.2609 8.41686 21.2689 8.43126C22.4274 7.81866 23.6309 7.29515 24.8689 6.86526C25.5601 6.64926 25.5385 6.18126 25.3801 5.72766Z" fill="#D6C3A2"/>
<path d="M17.9388 10.2744C17.1288 10.9944 16.344 11.7648 16.0596 12.3156C15.7752 12.8664 15.7716 12.9672 15.6384 13.0968C15.4702 13.2321 15.3451 13.4135 15.2784 13.6188C15.1452 13.9788 14.8068 14.3388 15.0156 14.9256C15.2244 15.5124 15.462 15.7104 15.408 16.0488C15.354 16.3872 15.1452 16.4088 15.696 16.7292C15.9574 16.8974 16.1512 17.1523 16.2432 17.4492C16.7981 17.5628 17.3714 17.5505 17.9208 17.4132C17.9208 17.4132 15.876 17.0532 15.7608 15.0444C15.7104 14.04 16.4448 11.664 19.9116 9.22682C20.3688 8.92802 20.8188 8.66162 21.258 8.42402C20.2464 8.41322 18.72 9.58682 17.9388 10.2744Z" fill="#A78D6A"/>
<path d="M15.2063 12.1176C15.0971 12.1656 14.9913 12.2209 14.8895 12.2832C14.8895 12.1824 14.8895 12.0852 14.8895 11.988L15.1631 11.8296C15.1631 11.8296 15.1919 11.7792 15.1631 11.79C15.0695 11.8368 14.9759 11.8836 14.8859 11.9376C14.8859 11.8044 14.8859 11.6748 14.9075 11.5452C14.9075 11.5452 14.8751 11.5452 14.8715 11.5452C14.8715 11.6784 14.8499 11.8116 14.8427 11.9448L14.7095 12.0348C14.7095 11.8944 14.7383 11.754 14.7563 11.6136C14.7563 11.5884 14.7275 11.6136 14.7239 11.6136C14.7023 11.7576 14.6771 11.9088 14.6591 12.0636C14.5934 12.1137 14.5309 12.1678 14.4719 12.2256C14.4719 12.2256 14.4719 12.258 14.4719 12.2436C14.5249 12.1939 14.5814 12.1482 14.6411 12.1068C14.6411 12.2112 14.6195 12.3156 14.6159 12.4236L14.4287 12.5676C14.4287 12.5676 14.4287 12.618 14.4287 12.5964C14.4287 12.5748 14.5439 12.51 14.6015 12.4704C14.6027 12.6352 14.6221 12.7994 14.6591 12.96C14.6591 12.9852 14.7023 12.96 14.7023 12.9348C14.6915 12.7814 14.6915 12.6274 14.7023 12.474L14.8535 12.3804C14.8535 12.492 14.8535 12.6036 14.8535 12.7116C14.8535 12.7368 14.8931 12.7116 14.8931 12.6864C14.8931 12.5748 14.8931 12.4632 14.8931 12.3516L15.2063 12.1716C15.2063 12.1716 15.2315 12.1068 15.2063 12.1176ZM14.6915 12.4092C14.6915 12.3048 14.6915 12.2004 14.6915 12.0996C14.7349 12.0674 14.7806 12.0385 14.8283 12.0132C14.8283 12.1104 14.8283 12.2112 14.8283 12.3084L14.6915 12.4092Z" fill="#A78D6A"/>
<g style="mix-blend-mode:multiply">
<path d="M14.9902 16.7112C14.5942 16.7112 14.1658 16.434 13.7914 16.3008C13.5101 16.1766 13.2114 16.0965 12.9058 16.0632C12.9058 16.1568 12.931 16.2468 12.949 16.3368C13.052 16.4586 13.178 16.5589 13.3198 16.632C14.2382 17.0588 15.219 17.3359 16.225 17.4528C16.7798 17.5664 17.3531 17.5541 17.9026 17.4168C17.4686 17.3238 17.0597 17.1384 16.7038 16.8732C16.1494 16.9884 15.6742 16.722 14.9902 16.7112Z" fill="#D6C3A2"/>
</g>
<path d="M18.5941 9.15834C18.5674 9.17 18.5421 9.18448 18.5185 9.20154C18.5185 9.11514 18.5185 9.02874 18.5185 8.94234L18.5905 8.90994C18.5905 8.90994 18.6265 8.85234 18.5905 8.86314L18.5149 8.90274L18.5365 8.73714C18.5365 8.70474 18.5005 8.73714 18.4969 8.73714C18.4933 8.73714 18.4789 8.85234 18.4717 8.90994L18.4069 8.94594C18.4069 8.85954 18.4069 8.77674 18.4069 8.69034C18.4069 8.66874 18.3745 8.69034 18.3745 8.71194C18.3745 8.79834 18.3745 8.88474 18.3529 8.96754L18.2125 9.05394C18.2125 9.05394 18.1837 9.10434 18.2125 9.08994L18.3493 9.01074C18.3493 9.11154 18.3493 9.21234 18.3277 9.31314C18.305 9.33273 18.2778 9.34634 18.2485 9.35274C18.2485 9.35274 18.2089 9.39954 18.2485 9.39234C18.2882 9.39366 18.3273 9.38231 18.3601 9.35994C18.3529 9.46903 18.3529 9.57846 18.3601 9.68754C18.3601 9.71634 18.4033 9.68754 18.4033 9.65874C18.4033 9.54714 18.4033 9.43554 18.4033 9.32394L18.4753 9.26994C18.4717 9.32629 18.4717 9.3828 18.4753 9.43914C18.4753 9.46434 18.5149 9.43914 18.5149 9.41394C18.5149 9.38874 18.5149 9.29514 18.5149 9.23754L18.5869 9.19074C18.6121 9.18354 18.6229 9.14034 18.5941 9.15834ZM18.4465 9.25194C18.4304 9.26174 18.4158 9.27388 18.4033 9.28794C18.4033 9.19074 18.4033 9.09714 18.4033 8.99994L18.4645 8.96754C18.4591 9.05626 18.4591 9.14523 18.4645 9.23394L18.4465 9.25194Z" fill="#A78D6A"/>
<g style="mix-blend-mode:screen">
<path d="M18 8.41319C17.4168 8.75113 16.8682 9.14542 16.362 9.59039C16.128 9.79559 15.8904 10.0152 15.6708 10.2348C15.4278 10.5096 15.1706 10.7715 14.9004 11.0196C14.9004 11.0376 14.9004 11.0196 14.9004 11.0196C15.3828 10.6499 15.8398 10.2482 16.2684 9.81719C16.8202 9.36001 17.3984 8.93568 18 8.54639C18.0684 8.50679 18.1188 8.35199 18 8.41319Z" fill="#D6C3A2"/>
</g>
<g style="mix-blend-mode:screen">
<path d="M24.5198 5.54762C24.0439 5.65721 23.574 5.79179 23.1122 5.95082C22.5987 6.11677 22.094 6.30902 21.6002 6.52682C21.1084 6.7168 20.6276 6.93435 20.1602 7.17842C19.9298 7.30082 19.6922 7.40162 19.469 7.53842C19.3646 7.60682 19.2566 7.66802 19.1486 7.74002C19.0472 7.82848 18.9332 7.90129 18.8102 7.95602C18.7886 7.95602 18.7418 8.03162 18.7886 8.03162C18.9158 8.00977 19.0379 7.96461 19.1486 7.89842C19.415 7.76162 19.685 7.63202 19.955 7.50242C20.4431 7.25461 20.9442 7.03348 21.4562 6.84002C21.9566 6.66002 22.4318 6.44402 22.9466 6.30362C23.472 6.21189 23.9813 6.04455 24.4586 5.80682C24.5126 5.78522 24.689 5.51522 24.5198 5.54762Z" fill="#D6C3A2"/>
</g>
<g style="mix-blend-mode:multiply">
<path d="M18.5183 15.6132C18.2274 15.8007 17.8996 15.9235 17.5571 15.9732C17.2428 15.9769 16.9369 16.0747 16.6787 16.254C16.8083 16.4412 16.8911 16.5384 16.8911 16.5384C17.3807 16.4952 18.4283 16.3296 19.0511 15.8184C19.1878 15.7013 19.3014 15.5597 19.3859 15.4008C19.3211 15.2604 19.2527 15.1344 19.1915 15.0192C19.0022 15.2537 18.7746 15.4545 18.5183 15.6132Z" fill="#9E8D71"/>
</g>
<path d="M23.1912 24.8399C23.5357 24.4721 23.9861 24.2205 24.48 24.1199C24.9408 24.0371 25.2936 24.0515 25.524 23.6591C25.6068 23.5187 25.704 23.3459 25.8012 23.1875C25.9032 22.6723 25.9658 22.15 25.9884 21.6251C26.0928 20.1095 26.3016 19.6379 25.6284 19.0367C24.8713 18.4617 24.1665 17.8208 23.5224 17.1215C23.1624 16.6499 22.7052 15.3215 22.4964 15.0407C22.3636 14.8731 22.1752 14.7584 21.9652 14.7175C21.7553 14.6766 21.5377 14.7121 21.3516 14.8175C20.8346 14.9991 20.2903 15.0904 19.7424 15.0875C19.4461 15.1023 19.1645 15.2208 18.9468 15.4223C18.8208 15.5663 18.7092 15.7823 18.4536 15.8363C17.9956 15.9885 17.5277 16.1088 17.0532 16.1963C16.5456 16.2575 16.5132 17.3411 16.5132 17.3411C18.6336 17.4023 19.1232 21.0671 20.142 22.4531C20.8188 23.3747 21.222 25.0487 21.4128 26.0531C21.6326 25.8637 21.8851 25.7161 22.158 25.6175C22.5784 25.4788 22.9415 25.2056 23.1912 24.8399Z" fill="#6D2213"/>
<g style="mix-blend-mode:multiply" opacity="0.5">
<path d="M22.2983 24.1956C22.1831 23.6268 21.7619 23.1697 21.4127 22.7269C20.7107 21.8449 19.8143 21.0996 19.5587 19.9512C19.3643 19.0764 19.4939 17.8524 18.5363 17.406C17.9135 17.118 17.2043 17.1397 16.5563 16.9417C16.5299 17.0819 16.513 17.2239 16.5059 17.3665C18.6263 17.4277 19.1159 21.0924 20.1347 22.4784C20.8115 23.4 21.2147 25.0741 21.4055 26.0785C21.6252 25.889 21.8778 25.7414 22.1507 25.6429H22.1831C22.3017 25.1702 22.3406 24.6811 22.2983 24.1956Z" fill="#601D0B"/>
</g>
<path d="M25.5242 23.6772C25.2938 24.0696 24.941 24.0372 24.4802 24.138C23.9863 24.2385 23.5359 24.4901 23.1914 24.858C22.9434 25.2329 22.5772 25.5142 22.151 25.6572C21.8781 25.7557 21.6255 25.9033 21.4058 26.0928C21.503 26.6076 21.5462 26.9496 21.5462 26.9496C21.7739 26.8123 22.0152 26.6989 22.2662 26.6112C22.5794 26.514 22.5614 26.5428 22.7018 26.3664C22.8414 26.125 23.0081 25.9004 23.1986 25.6968C23.5436 25.4811 23.9167 25.3139 24.3074 25.2C24.6329 25.1 24.9311 24.9263 25.1786 24.6924C25.4838 24.2409 25.6956 23.7329 25.8014 23.1984C25.7042 23.364 25.607 23.5368 25.5242 23.6772Z" fill="#4C1206"/>
<g style="mix-blend-mode:multiply" opacity="0.5">
<path d="M22.3703 25.56C22.3263 25.9003 22.3022 26.2429 22.2983 26.586C22.5647 26.5068 22.5539 26.5212 22.6871 26.3556C22.7627 26.262 22.8347 26.1288 22.9211 25.9956C22.9211 25.704 22.9211 25.3836 22.9211 25.1388C22.7706 25.3178 22.5825 25.4616 22.3703 25.56Z" fill="#4C1206"/>
<path d="M24.4801 24.138C24.3698 24.1576 24.2615 24.1865 24.1561 24.2244C24.1561 24.4872 24.1165 24.8832 24.0625 25.3044L24.3073 25.218C24.4924 25.1509 24.6708 25.0665 24.8401 24.966C24.8401 24.6492 24.8653 24.318 24.8797 24.0732L24.4801 24.138Z" fill="#4C1206"/>
</g>
<path d="M13.957 26.3809C14.5582 26.4925 14.5582 26.5753 14.6554 26.8453C14.7526 27.1153 14.7418 27.2881 14.9146 27.1765C15.0262 27.1189 15.0874 27.2017 15.343 27.3637C15.6677 27.5176 16.0243 27.5924 16.3835 27.5817C16.7428 27.5711 17.0943 27.4754 17.4094 27.3025C18.2914 26.8093 18.9934 26.4169 19.483 26.6617C19.4578 26.2801 19.5694 26.2333 19.843 26.1973C20.1166 26.1613 20.689 25.8013 20.6674 25.6069C20.6821 25.3389 20.7545 25.0774 20.8798 24.8401C20.992 24.5051 21.0656 24.1585 21.0994 23.8069C21.1606 23.4001 20.8438 23.1445 20.671 22.8097C20.4055 22.3165 20.1022 21.8447 19.7638 21.3985C19.3642 20.8801 19.1014 20.5597 19.0798 19.8901C19.0546 19.4509 19.0798 19.1701 19.0474 18.8533C19.0203 18.4178 18.8973 17.9937 18.6874 17.6113C18.3742 17.1901 17.989 17.3845 17.5174 17.3125C17.0458 17.2405 16.1458 16.9057 15.7174 16.9849C15.289 17.0641 14.3242 16.8157 13.2982 16.2253C13.2982 16.2253 12.7582 16.0093 12.679 16.3873C12.6232 16.7417 12.4627 17.0714 12.2182 17.3341C11.8978 17.7373 11.9734 17.7661 12.1606 18.2845C12.1797 18.4553 12.1625 18.6283 12.1102 18.7921C11.9362 19.2138 11.7329 19.6228 11.5018 20.0161C11.3622 20.1972 11.2971 20.4248 11.3199 20.6524C11.3426 20.8799 11.4515 21.0901 11.6242 21.2401C11.93 21.4874 12.1586 21.8172 12.283 22.1905C12.5162 23.0186 12.6989 23.8602 12.8302 24.7105C12.8554 24.8725 12.877 25.0165 12.8986 25.1461C12.9814 25.3657 13.3198 26.2081 13.957 26.3809Z" fill="#944620"/>
<path d="M21.9599 24.0372C21.5999 23.5332 21.0887 22.5756 20.4803 21.9816C19.8719 21.3876 19.5947 20.8152 19.2635 19.8C19.1642 19.4888 19.086 19.1713 19.0295 18.8496C19.0511 19.1772 19.0295 19.4472 19.0619 19.8864C19.1015 20.556 19.3643 20.8692 19.7567 21.3768C20.0952 21.8231 20.3985 22.2949 20.6639 22.788C20.8367 23.1228 21.1535 23.3784 21.0923 23.7852C21.0626 24.1438 20.9913 24.4978 20.8799 24.84C20.7534 25.0831 20.6821 25.351 20.6711 25.6248C20.6927 25.8192 20.1167 26.1756 19.8467 26.2152C19.5767 26.2548 19.4651 26.298 19.4867 26.6796C18.9971 26.4348 18.2951 26.8272 17.4131 27.3204C17.0981 27.4933 16.7465 27.5891 16.3873 27.5997C16.0281 27.6103 15.6715 27.5356 15.3467 27.3816C15.0911 27.2196 15.0299 27.1368 14.9183 27.1944C14.7455 27.306 14.7599 27.1368 14.6591 26.8632C14.5583 26.5896 14.5619 26.5032 13.9607 26.3988C13.3343 26.226 12.9851 25.3836 12.9023 25.1532C12.9416 25.725 13.1638 26.269 13.5359 26.7048C14.1119 27.4248 14.1623 27.2772 14.5115 27.9936C14.8607 28.71 14.7203 28.8648 15.6275 28.8972C16.5347 28.9296 17.2619 28.7604 17.8739 28.8108C18.4859 28.8612 19.1807 29.0736 19.7387 28.6884C20.2967 28.3032 20.5739 27.9396 21.0779 27.7128C21.5819 27.486 21.7979 27.414 21.7223 27.1044C21.6178 26.5621 21.6388 26.003 21.7835 25.47C21.9599 24.8616 22.3199 24.5448 21.9599 24.0372Z" fill="#6F270E"/>
<g style="mix-blend-mode:multiply" opacity="0.5">
<path d="M18.8966 27.1765C18.8938 27.3628 18.9332 27.5475 19.0118 27.7165C19.1414 27.9865 19.253 28.2997 19.325 28.2421C19.397 28.1845 19.3538 27.9721 19.181 27.5581C19.0082 27.1441 18.911 26.9065 18.8966 27.1765Z" fill="#6F2910"/>
</g>
<g style="mix-blend-mode:multiply" opacity="0.5">
<path d="M14.7889 27.198C14.7385 27.1548 14.7205 27.0216 14.6557 26.838C14.5909 26.6544 14.5657 26.5428 14.3281 26.478C14.4181 26.9604 14.5693 27.7596 14.6881 28.3896C14.8141 28.674 14.8861 28.8 15.2245 28.8576L14.7961 27.2412C14.7909 27.2274 14.7884 27.2128 14.7889 27.198Z" fill="#6F2910"/>
<path d="M17.9176 28.6524C18.0148 28.6956 17.6764 27.7344 17.5036 27.2484L17.41 27.3024H17.3848C17.5103 27.7713 17.689 28.2242 17.9176 28.6524Z" fill="#6F2910"/>
<path d="M15.8403 27.9C15.8707 28.2354 15.9433 28.5656 16.0563 28.8828H16.2003C16.0527 28.44 15.8871 27.864 15.8403 27.9Z" fill="#6F2910"/>
<path d="M18.2593 28.08C18.3493 28.1016 18.1369 27.3889 18.0181 26.9677L17.8345 27.0612C17.9389 27.4032 18.1621 28.08 18.2593 28.08Z" fill="#6F2910"/>
<path d="M21.7551 25.5312C21.5771 25.0738 21.4398 24.6016 21.3447 24.12C21.2899 23.9363 21.206 23.7625 21.0963 23.6052C21.1053 23.6661 21.1053 23.7279 21.0963 23.7888C21.0639 24.0084 21.0423 24.1884 21.0063 24.3612L21.6795 25.9488C21.6957 25.8081 21.721 25.6686 21.7551 25.5312Z" fill="#6F2910"/>
<path d="M16.4234 28.1413C16.3766 28.1809 16.5494 28.6021 16.6574 28.8613H16.7906C16.6934 28.6021 16.481 28.0981 16.4234 28.1413Z" fill="#6F2910"/>
<path d="M19.8395 26.1973C19.5947 26.2297 19.4795 26.2729 19.4795 26.5573L20.0591 28.4401C20.2981 28.2303 20.5481 28.0332 20.8079 27.8497L20.2607 26.0497C20.1296 26.1222 19.9872 26.1721 19.8395 26.1973Z" fill="#6F2910"/>
</g>
<path d="M15.7931 19.1016C15.6025 18.9012 15.3478 18.7738 15.0731 18.7416C14.7815 18.7128 14.0903 18.774 14.3711 18.252C14.4822 18.0657 14.5487 17.8562 14.5655 17.64C14.5655 17.4852 14.4755 17.5248 14.3855 17.5968C14.2955 17.6688 14.1191 17.7876 14.0651 17.9568C14.0475 18.0761 14.0475 18.1974 14.0651 18.3168C14.0651 18.3492 14.1155 18.5112 14.0147 18.4896C13.9436 18.4576 13.8771 18.4164 13.8167 18.3672C13.7195 18.306 13.6043 18.2916 13.5071 18.2304C13.393 18.1705 13.2721 18.1246 13.1471 18.0936C13.0067 18.0432 12.9491 17.9892 12.7871 18.0216C12.6599 18.0474 12.5382 18.0949 12.4271 18.162C12.3695 18.1908 12.3371 18.3168 12.4271 18.27L12.4955 18.2376C12.5986 18.275 12.6986 18.3207 12.7943 18.3744C12.9227 18.4131 13.0562 18.4326 13.1903 18.432C13.4456 18.4603 13.6876 18.5602 13.8887 18.72C13.9895 18.7956 13.6871 19.3644 13.6547 19.4904C13.6331 19.7155 13.6848 19.9415 13.8023 20.1348C13.8275 20.1888 13.9175 20.088 13.9067 20.0448C13.8959 20.0016 13.8707 19.8828 13.8491 19.8036C13.8538 19.7365 13.8658 19.6701 13.8851 19.6056C13.922 19.4829 13.9665 19.3627 14.0183 19.2456C14.0183 19.2132 14.0183 19.2204 13.9823 19.2456C14.0298 19.1344 14.0839 19.0262 14.1443 18.9216C14.1839 18.8568 14.2307 18.7452 14.3351 18.7956C14.421 18.8403 14.5155 18.8661 14.6123 18.8712C14.8427 18.8892 14.9723 18.8352 15.1847 18.9936C15.3322 19.1082 15.503 19.1893 15.6851 19.2312C15.7499 19.2456 15.8399 19.1484 15.7931 19.1016Z" fill="#6C260C"/>
<path d="M17.3447 22.752C17.254 22.7555 17.1637 22.7663 17.0747 22.7844C16.9479 22.7867 16.8231 22.753 16.7147 22.6872C16.5125 22.5842 16.2968 22.5103 16.0739 22.4676C15.8651 22.4352 15.6347 22.4856 15.5051 22.2804C15.4439 22.1868 15.5555 21.9528 15.5771 21.8304C15.5916 21.7434 15.5916 21.6546 15.5771 21.5676C15.5555 21.4416 15.4295 21.2076 15.2711 21.3552C15.1984 21.4368 15.1438 21.5329 15.1109 21.6371C15.0781 21.7414 15.0676 21.8514 15.0803 21.96C15.0428 21.9166 14.9961 21.8822 14.9435 21.8592C14.7873 21.8268 14.6269 21.8195 14.4683 21.8376C14.0664 21.9077 13.6526 21.8391 13.2947 21.6432C13.0806 21.4807 12.8473 21.3452 12.5999 21.24C12.3811 21.1282 12.145 21.0539 11.9015 21.0204C11.8727 21.0204 11.8403 21.0636 11.8403 21.0888C11.8403 21.114 11.8619 21.114 11.8799 21.0888C11.9604 21.1956 12.0606 21.286 12.1751 21.3552C12.2975 21.4524 12.3983 21.5712 12.5351 21.6612C12.6719 21.7512 12.7835 21.6612 12.8951 21.708C13.0535 21.7584 13.1795 21.8412 13.3415 21.8808C13.5133 21.8916 13.6778 21.9544 13.8131 22.0608C13.8992 22.1457 13.9975 22.2173 14.1047 22.2732C14.3855 22.3921 14.6894 22.4462 14.9939 22.4316C14.9651 22.5144 14.9291 22.5936 14.9075 22.68C14.8535 22.8816 14.8067 23.0832 14.7707 23.2884C14.7279 23.4371 14.7199 23.5937 14.7474 23.7461C14.7749 23.8984 14.8371 24.0424 14.9291 24.1668C14.9723 24.2208 15.0515 24.102 15.0623 24.0696C15.082 23.9661 15.082 23.8599 15.0623 23.7564C15.0623 23.5944 15.0335 23.4432 15.0335 23.2812C15.0335 23.1192 15.1523 22.9716 15.2027 22.7916C15.2279 22.7016 15.2351 22.6008 15.2567 22.5036C15.4478 22.5211 15.6299 22.5923 15.7823 22.7088C15.9119 22.8204 16.0055 22.9716 16.1927 22.986C16.3799 23.0004 16.4951 22.8168 16.7147 22.878C16.8955 22.9733 17.0847 23.0516 17.2799 23.112C17.4167 23.112 17.7623 23.2128 17.8307 23.0292C17.8991 22.8456 17.4311 22.7484 17.3447 22.752ZM14.8751 23.472C14.877 23.5408 14.8842 23.6095 14.8967 23.6772C14.8967 23.7024 14.8967 23.7312 14.8967 23.7636C14.8771 23.6738 14.8699 23.5817 14.8751 23.49V23.472Z" fill="#6C260C"/>
<path d="M18.5435 19.8432C18.5111 19.692 18.2771 19.8432 18.3059 19.5948C18.3059 19.4328 18.2591 19.3644 18.3491 19.1736C18.3815 19.1016 18.3707 18.9036 18.2519 18.9036C18.2392 18.9052 18.2276 18.9117 18.2195 18.9216C17.9711 19.0944 18.1223 19.4076 18.0035 19.6416C17.8883 19.5516 17.6867 19.5948 17.5499 19.548C17.4131 19.5012 17.2547 19.35 17.0999 19.4076H17.0747C17.0747 19.5588 17.1071 19.6056 17.2475 19.674C17.3123 19.7064 17.9999 19.944 17.8955 20.0916C17.8573 20.1363 17.8337 20.1917 17.8279 20.2503C17.8221 20.3089 17.8344 20.3678 17.8631 20.4192C17.9063 20.4948 17.9711 20.5524 18.0107 20.628C18.0503 20.7036 18.0611 20.7756 18.1367 20.8332C18.1367 20.8332 18.1619 20.8332 18.1727 20.8332L18.1943 20.8836C18.1943 20.9052 18.2339 20.8836 18.2339 20.8584C18.1907 20.574 17.9999 20.0592 18.4391 20.016C18.5435 20.0232 18.5651 19.926 18.5435 19.8432Z" fill="#6C260C"/>
<path d="M20.6531 23.9508C20.5235 23.9076 20.3939 23.9112 20.2679 23.8608C20.1044 23.7887 19.9478 23.7019 19.7999 23.6016C19.6633 23.5316 19.5197 23.4761 19.3715 23.436C19.1879 23.364 19.0115 23.436 18.8387 23.3712C18.8063 23.3712 18.7523 23.4324 18.7883 23.4468H18.8063C18.8101 23.6152 18.8532 23.7804 18.9323 23.9292C18.9413 23.9354 18.952 23.9387 18.9629 23.9387C18.9738 23.9387 18.9845 23.9354 18.9935 23.9292C19.1231 23.886 19.0403 23.7096 19.3031 23.7816C19.6991 23.886 20.1923 24.1416 20.6099 24.0012C20.6387 24.0192 20.6891 23.9616 20.6531 23.9508Z" fill="#6C260C"/>
<path d="M18.1619 25.8841C17.8775 25.7005 17.6939 25.6213 17.6975 25.2397C17.7079 24.9313 17.7662 24.6265 17.8703 24.336C17.9171 24.1992 17.9819 23.9761 17.8919 23.8429C17.7659 23.6557 17.6759 24.2029 17.6723 24.2029C17.6507 24.5089 17.6219 24.8113 17.5787 25.1137C17.5499 25.3009 17.5571 25.4737 17.2691 25.5277C17.0769 25.5539 16.8819 25.5077 16.7219 25.3981C16.3619 25.1713 15.9479 24.7825 15.4835 24.9697C15.3287 25.0309 15.1847 25.1245 15.0227 25.0201C14.9326 24.9438 14.8654 24.8441 14.8283 24.732C14.8257 24.7159 14.8186 24.7007 14.808 24.6882C14.7974 24.6757 14.7835 24.6663 14.7679 24.6612C14.7524 24.656 14.7357 24.6551 14.7197 24.6587C14.7037 24.6624 14.6889 24.6703 14.6771 24.6816C14.5655 24.7752 14.6771 24.8077 14.3819 24.8581C14.1893 24.8591 14.0009 24.8013 13.8419 24.6924C13.6526 24.5589 13.4499 24.4455 13.2371 24.3541H13.2155C13.1795 24.3541 13.1219 24.4297 13.1615 24.4405C13.0895 24.6097 13.1939 24.7716 13.3415 24.9012C13.4315 24.9804 13.6079 24.8725 13.7015 24.8797C13.8868 24.9057 14.0579 24.9932 14.1875 25.1281C14.2298 25.1588 14.2758 25.1842 14.3243 25.2037C14.4791 25.2793 14.5439 25.3369 14.5223 25.5205C14.5038 25.6413 14.515 25.7648 14.5547 25.8805C14.6087 26.0065 14.8283 25.8193 14.8751 25.7797C14.9939 25.6789 14.9291 25.5313 14.8751 25.4197C14.8211 25.3081 14.9327 25.3224 14.9939 25.3512C15.112 25.3789 15.2326 25.3946 15.3539 25.3981C15.5435 25.4116 15.7322 25.4357 15.9191 25.4701C15.9947 25.4701 16.0775 25.4701 16.1567 25.5097C16.2359 25.5493 16.3583 25.6609 16.4339 25.7509C16.5095 25.8409 16.5635 25.8985 16.6967 25.8841C16.8299 25.8697 17.3627 25.6285 17.2907 25.9993C17.2583 26.1793 17.3627 26.3197 17.3159 26.5141C17.3159 26.5645 17.3699 26.5141 17.3843 26.5141C17.4599 26.3845 17.5247 26.1973 17.7191 26.2153C17.8235 26.2153 17.9207 26.2405 18.0251 26.2405C18.0805 26.2452 18.1363 26.2354 18.1868 26.212C18.2373 26.1887 18.2808 26.1525 18.3131 26.1072C18.3599 26.0208 18.2267 25.9201 18.1619 25.8841Z" fill="#6C260C"/>
<g style="mix-blend-mode:multiply" opacity="0.5">
<path d="M14.2957 18.72C13.9357 18.5976 13.5757 18.4536 13.1833 18.36C12.9483 18.2744 12.7077 18.2047 12.4633 18.1512H12.4417C12.3841 18.18 12.3517 18.306 12.4417 18.2592L12.5101 18.2268C12.6133 18.2643 12.7132 18.31 12.8089 18.3636C12.9373 18.4024 13.0708 18.4218 13.2049 18.4212C13.4602 18.4496 13.7023 18.5494 13.9033 18.7092C14.0041 18.7848 13.7017 19.3536 13.6693 19.4796C13.6477 19.7047 13.6995 19.9308 13.8169 20.124C13.8421 20.178 13.9321 20.0772 13.9213 20.034C13.9105 19.9908 13.8853 19.872 13.8637 19.7928C13.8684 19.7257 13.8805 19.6593 13.8997 19.5948C13.9367 19.4722 13.9812 19.352 14.0329 19.2348C14.0329 19.2024 14.0329 19.2096 13.9969 19.2348C14.0444 19.1237 14.0985 19.0155 14.1589 18.9108C14.1985 18.846 14.2453 18.7344 14.3497 18.7848C14.4357 18.8296 14.5302 18.8554 14.6269 18.8604H14.7601L14.2957 18.72Z" fill="#6C260C"/>
</g>
<g style="mix-blend-mode:multiply" opacity="0.5">
<path d="M15.7606 19.1521C15.617 19.078 15.4607 19.0316 15.2998 19.0153L15.2026 18.9937C15.3474 19.1077 15.516 19.1877 15.6958 19.2277C15.7282 19.2277 15.7678 19.2061 15.7858 19.1701L15.7606 19.1521Z" fill="#6C260C"/>
</g>
<g style="mix-blend-mode:multiply" opacity="0.5">
<path d="M16.7222 22.8708C16.4107 22.8233 16.1019 22.7596 15.797 22.68C15.5662 22.5981 15.3402 22.5032 15.1202 22.3956C14.5766 22.176 14.0006 22.0788 13.4534 21.8844C13.0325 21.6782 12.5983 21.5002 12.1538 21.3516L12.1934 21.384C12.3158 21.4812 12.4166 21.6 12.5534 21.69C12.6902 21.78 12.8018 21.69 12.9134 21.7368C13.0718 21.7872 13.1978 21.87 13.3598 21.9096C13.5316 21.9204 13.6961 21.9832 13.8314 22.0896C13.9175 22.1745 14.0158 22.2461 14.123 22.302C14.4038 22.4209 14.7077 22.475 15.0122 22.4604C14.9834 22.5432 14.9474 22.6224 14.9258 22.7088C14.8718 22.9104 14.825 23.112 14.789 23.3172C14.7462 23.4659 14.7382 23.6225 14.7657 23.7749C14.7932 23.9272 14.8553 24.0711 14.9474 24.1956C14.9906 24.2496 15.0698 24.1308 15.0806 24.0984C15.1003 23.9949 15.1003 23.8886 15.0806 23.7852C15.0806 23.6232 15.0518 23.472 15.0518 23.31C15.0518 23.148 15.1706 23.0004 15.221 22.8204C15.2462 22.7304 15.2534 22.6296 15.275 22.5324C15.466 22.5499 15.6482 22.621 15.8006 22.7376C15.9302 22.8492 16.0238 23.0004 16.211 23.0148C16.3982 23.0292 16.5134 22.8456 16.733 22.9068C16.909 22.9912 17.0921 23.0599 17.2802 23.112C17.4134 23.112 17.7338 23.202 17.8202 23.0508C17.4422 22.986 17.0786 22.9356 16.7222 22.8708ZM14.8754 23.49C14.8773 23.5588 14.8845 23.6274 14.897 23.6952C14.897 23.7204 14.897 23.7492 14.897 23.7816C14.8757 23.6859 14.8684 23.5877 14.8754 23.49Z" fill="#6C260C"/>
</g>
<g style="mix-blend-mode:multiply" opacity="0.5">
<path d="M18.2916 20.0772L17.8308 19.89C17.5859 19.8015 17.3456 19.7006 17.1108 19.5876C17.1494 19.6387 17.2019 19.6774 17.262 19.6992C17.3268 19.7316 18.0144 19.9692 17.91 20.1168C17.8718 20.1616 17.8482 20.217 17.8424 20.2756C17.8366 20.3341 17.8489 20.3931 17.8776 20.4444C17.9208 20.52 17.9856 20.5776 18.0252 20.6532C18.0648 20.7288 18.0756 20.8008 18.1512 20.8584C18.1512 20.8584 18.1764 20.8584 18.1872 20.8584L18.2088 20.9088C18.2088 20.9304 18.2484 20.9088 18.2484 20.8836C18.198 20.628 18.0504 20.214 18.2916 20.0772Z" fill="#6C260C"/>
</g>
<g style="mix-blend-mode:multiply" opacity="0.5">
<path d="M19.8431 23.9544C19.6379 23.8824 19.4255 23.8392 19.2167 23.7708C19.0871 23.7276 18.9611 23.6376 18.8315 23.5872C18.8411 23.714 18.8792 23.8371 18.9431 23.9472C18.9521 23.9534 18.9628 23.9567 18.9737 23.9567C18.9847 23.9567 18.9953 23.9534 19.0043 23.9472C19.1339 23.904 19.0511 23.7276 19.3139 23.7996C19.5767 23.8716 19.8143 23.976 20.0771 24.03L19.8431 23.9544Z" fill="#6C260C"/>
</g>
<path d="M13.165 24.6816C13.2073 24.7708 13.2688 24.8494 13.345 24.912C13.435 24.9912 13.6114 24.8832 13.705 24.8904H13.7446C13.5607 24.7974 13.3661 24.7273 13.165 24.6816Z" fill="#6C260C"/>
<g style="mix-blend-mode:multiply" opacity="0.5">
<path d="M17.4853 25.884L17.2549 25.8588C17.2731 25.8811 17.2853 25.9077 17.2903 25.936C17.2953 25.9644 17.2931 25.9935 17.2837 26.0208C17.2513 26.2008 17.3557 26.3412 17.3089 26.5356C17.3089 26.586 17.3629 26.5356 17.3773 26.5356C17.4529 26.406 17.5177 26.2188 17.7121 26.2368C17.8165 26.2368 17.9137 26.262 18.0181 26.262C18.0735 26.2667 18.1292 26.2569 18.1797 26.2335C18.2302 26.2102 18.2738 26.1741 18.3061 26.1288C18.3175 26.1124 18.3237 26.0929 18.3237 26.073C18.3237 26.053 18.3175 26.0335 18.3061 26.0172L17.4853 25.884Z" fill="#6C260C"/>
</g>
<g style="mix-blend-mode:multiply" opacity="0.5">
<path d="M16.8049 25.7796C16.5817 25.7184 16.3945 25.5708 16.1785 25.4916C15.6349 25.2864 15.0517 25.3116 14.4937 25.1532C14.3389 25.1136 14.1805 25.0668 14.0293 25.0128L14.1877 25.1388C14.23 25.1696 14.276 25.195 14.3245 25.2144C14.4793 25.29 14.5441 25.3476 14.5225 25.5312C14.504 25.6521 14.5151 25.7756 14.5549 25.8912C14.6089 26.0172 14.8285 25.83 14.8753 25.7904C14.9941 25.6896 14.9293 25.542 14.8753 25.4304C14.8213 25.3188 14.9329 25.3332 14.9941 25.362C15.1122 25.3897 15.2328 25.4054 15.3541 25.4088C15.5437 25.4224 15.7324 25.4464 15.9193 25.4808C15.9949 25.4808 16.0777 25.4808 16.1569 25.5204C16.2361 25.56 16.3585 25.6716 16.4341 25.7616C16.5097 25.8516 16.5637 25.9092 16.6969 25.8948C16.7617 25.8948 16.9021 25.8372 17.0281 25.8156C16.9529 25.8091 16.8783 25.7971 16.8049 25.7796Z" fill="#6C260C"/>
</g>
<g style="mix-blend-mode:multiply" opacity="0.5">
<path d="M24.8618 22.2696C24.6195 22.1452 24.3392 22.1169 24.077 22.1904C23.8892 22.2397 23.6944 22.2568 23.501 22.2408C23.2598 22.2408 22.9754 22.2408 22.8386 21.9996C22.7561 21.8647 22.6862 21.7225 22.6298 21.5748C22.6082 21.5172 22.6298 21.294 22.5434 21.258C22.5109 21.2455 22.475 21.2455 22.4426 21.258H22.4246C22.313 21.366 22.4246 21.5424 22.4822 21.6432C22.5398 21.744 22.871 22.23 22.511 22.1472C22.34 22.1056 22.1605 22.1169 21.9962 22.1796C21.7666 22.3087 21.5007 22.358 21.2402 22.32C21.1934 22.32 20.9594 22.32 21.0062 22.4244C21.0998 22.6584 21.8666 22.4244 22.0142 22.3992C22.2662 22.3632 22.5938 22.2696 22.8026 22.464C23.0114 22.6584 22.8638 22.896 22.943 23.0832C22.9934 23.202 23.1986 23.3352 23.2598 23.1444C23.2836 23.037 23.2683 22.9247 23.2166 22.8276C23.1842 22.7448 23.1518 22.6656 23.1266 22.5828C23.1014 22.5 23.3174 22.4964 23.3642 22.4964C23.5912 22.4885 23.8168 22.4571 24.0374 22.4028C24.2956 22.343 24.562 22.326 24.8258 22.3524C24.8402 22.3524 24.905 22.2804 24.8618 22.2696Z" fill="#601D0B"/>
</g>
<g style="mix-blend-mode:multiply" opacity="0.5">
<path d="M24.5378 19.4724C24.4586 19.404 24.239 19.4004 24.1382 19.3824C23.9209 19.3613 23.7016 19.3784 23.4902 19.4328C23.0294 19.5336 22.5974 19.3572 22.1438 19.5408C21.8478 19.6585 21.5245 19.6897 21.2114 19.6308C20.9724 19.6039 20.7315 19.5979 20.4914 19.6128C20.1998 19.6128 20.009 19.6128 19.8902 19.3032C19.8117 19.0838 19.7456 18.8603 19.6922 18.6336C19.6922 18.612 19.6598 18.6336 19.6598 18.6516C19.6598 18.6516 19.6382 18.6876 19.6598 18.6984C19.6578 18.7187 19.6578 18.7392 19.6598 18.7596C19.6599 18.8512 19.6527 18.9427 19.6382 19.0332C19.6 19.1429 19.5901 19.2605 19.6094 19.3752C19.6526 19.5948 19.4366 19.7604 19.3286 19.9332C19.3286 19.9332 19.3286 19.9872 19.3466 19.9728C19.4567 19.9323 19.5698 19.901 19.685 19.8792C19.847 19.8504 19.8938 20.124 19.9226 20.2176C19.9493 20.3895 20.0002 20.5567 20.0738 20.7144C20.0918 20.7432 20.1422 20.6892 20.1386 20.664C20.1023 20.4796 20.0771 20.2933 20.063 20.106C20.0378 19.746 20.5742 19.8828 20.7434 19.8828C21.1754 19.8828 21.5966 19.8 22.0286 19.7928C22.4616 19.8175 22.8959 19.797 23.3246 19.7316C23.5298 19.6848 23.7242 19.6128 23.933 19.584C24.1418 19.5552 24.293 19.584 24.4694 19.584C24.5018 19.5768 24.5738 19.5084 24.5378 19.4724Z" fill="#601D0B"/>
</g>
<g style="mix-blend-mode:multiply" opacity="0.5">
<path d="M22.6474 17.442C22.6114 17.1936 22.345 17.1432 22.1326 17.2008C21.823 17.28 21.7078 17.1252 21.5458 16.8912L21.2182 16.4232C21.2182 16.4232 21.1678 16.4484 21.1642 16.4592C21.1212 16.5754 21.1212 16.7031 21.1642 16.8192C21.1858 16.8912 21.5026 17.208 21.2002 17.1792C21.0885 17.1686 20.9763 17.1938 20.8798 17.2512C20.5846 17.4168 20.4478 17.2908 20.185 17.1684C20.059 17.1082 19.9144 17.0991 19.7818 17.1432C19.6558 17.19 19.5118 17.2908 19.3822 17.1432C19.3409 17.0795 19.2784 17.0324 19.2058 17.01C19.0887 16.951 18.9559 16.9307 18.8265 16.9521C18.6971 16.9734 18.5778 17.0353 18.4858 17.1288C18.4858 17.1288 18.4858 17.1612 18.4858 17.1468C18.5063 17.1264 18.5309 17.1105 18.5578 17.1C18.8962 17.0244 18.7774 17.5284 19.0942 17.5644C19.1214 17.5716 19.1499 17.5716 19.177 17.5644C19.2475 17.5217 19.3274 17.4971 19.4097 17.4927C19.4919 17.4883 19.574 17.5043 19.6486 17.5392C19.7795 17.6284 19.9153 17.7102 20.0554 17.784C20.3362 17.892 20.4766 17.37 20.7754 17.4744C20.9082 17.5391 21.0527 17.5758 21.2002 17.5824C21.4342 17.5824 21.5062 17.8164 21.5998 17.9784C21.6178 18.0144 21.661 17.9532 21.6646 17.9316C21.6826 17.7156 21.6646 17.4024 21.9886 17.478C22.112 17.5142 22.2324 17.5599 22.3486 17.6148C22.4602 17.64 22.6798 17.6076 22.6474 17.442Z" fill="#601D0B"/>
</g>
<g style="mix-blend-mode:multiply" opacity="0.5">
<path d="M23.1011 22.2948C22.9124 22.2727 22.7223 22.2631 22.5323 22.266C22.3451 22.266 22.1723 22.3092 21.9743 22.338C21.6529 22.4084 21.3241 22.4398 20.9951 22.4316C21.1103 22.6476 21.8519 22.4316 21.9995 22.3956C22.2515 22.3596 22.5791 22.266 22.7879 22.4604C22.9967 22.6548 22.8491 22.8924 22.9283 23.0796C22.9787 23.1984 23.1839 23.3316 23.2451 23.1408C23.269 23.0334 23.2537 22.9211 23.2019 22.824C23.1695 22.7412 23.1371 22.662 23.1119 22.5792C23.0867 22.4964 23.3027 22.4928 23.3495 22.4928C23.5765 22.4849 23.8021 22.4535 24.0227 22.3992C24.281 22.3394 24.5473 22.3224 24.8111 22.3488C24.8205 22.3518 24.8306 22.3518 24.8399 22.3488C24.2711 22.2588 23.6771 22.32 23.1011 22.2948Z" fill="#601D0B"/>
</g>
<g style="mix-blend-mode:multiply" opacity="0.5">
<path d="M24.5267 19.4651C24.2495 19.4651 23.9759 19.5227 23.6987 19.5443C23.1299 19.5839 22.5611 19.5839 21.9923 19.6163H21.8771C21.7655 19.6366 21.6522 19.6462 21.5387 19.6451L21.1787 19.6775L20.5091 19.7099C20.1319 19.7135 19.7589 19.7906 19.4111 19.9367C19.5064 19.9037 19.6038 19.8772 19.7027 19.8575C19.8647 19.8287 19.9115 20.1023 19.9403 20.1959C19.967 20.3679 20.0179 20.5351 20.0915 20.6927C20.1095 20.7215 20.1599 20.6675 20.1563 20.6423C20.1201 20.458 20.0948 20.2717 20.0807 20.0843C20.0555 19.7243 20.5919 19.8611 20.7611 19.8611C21.1931 19.8611 21.6143 19.7783 22.0463 19.7711C22.4793 19.7959 22.9136 19.7754 23.3423 19.7099C23.5475 19.6631 23.7419 19.5911 23.9507 19.5623C24.1595 19.5335 24.3107 19.5623 24.4871 19.5623C24.5195 19.5623 24.5915 19.4903 24.5555 19.4543L24.5267 19.4651Z" fill="#601D0B"/>
</g>
<g style="mix-blend-mode:multiply" opacity="0.5">
<path d="M22.6154 17.3412C22.4288 17.2993 22.2379 17.2788 22.0466 17.28C21.5606 17.28 21.0746 17.406 20.5886 17.4384C20.3294 17.4384 20.0882 17.4024 19.8326 17.3952C19.6374 17.4109 19.4412 17.3801 19.2602 17.3052C19.1043 17.2143 18.9317 17.1555 18.7526 17.1324H18.7202C18.8786 17.2188 18.8498 17.5536 19.1054 17.5824C19.1325 17.5896 19.1611 17.5896 19.1882 17.5824C19.2587 17.5397 19.3386 17.5151 19.4209 17.5107C19.5031 17.5063 19.5852 17.5223 19.6598 17.5572C19.7907 17.6465 19.9265 17.7282 20.0666 17.802C20.3474 17.91 20.4878 17.388 20.7866 17.4924C20.9193 17.5571 21.0639 17.5939 21.2114 17.6004C21.4454 17.6004 21.5174 17.8344 21.611 17.9964C21.629 18.0324 21.6722 17.9712 21.6758 17.9496C21.6938 17.7336 21.6758 17.4204 21.9998 17.496C22.1232 17.5322 22.2436 17.5779 22.3598 17.6328C22.475 17.6724 22.691 17.6328 22.6622 17.46C22.6545 17.4178 22.6386 17.3774 22.6154 17.3412Z" fill="#601D0B"/>
</g>
<path d="M14.5154 20.52C14.5154 20.4804 14.4866 20.3652 14.429 20.4192C14.3714 20.4732 14.3642 20.5488 14.3966 20.6064C14.3992 20.6175 14.4058 20.6273 14.415 20.6339C14.4243 20.6405 14.4357 20.6435 14.447 20.6424C14.4564 20.6398 14.4651 20.6352 14.4725 20.629C14.48 20.6228 14.486 20.6151 14.4902 20.6064C14.509 20.5817 14.518 20.5509 14.5154 20.52Z" fill="#050505"/>
<path d="M13.9644 20.88C13.9644 20.8584 13.932 20.8476 13.914 20.8404C13.8992 20.8344 13.8826 20.8344 13.8678 20.8405C13.853 20.8465 13.8411 20.8582 13.8348 20.8728C13.8239 20.9006 13.8239 20.9315 13.8348 20.9592C13.8372 20.9739 13.8434 20.9876 13.8529 20.999C13.8624 21.0104 13.8748 21.0191 13.8888 21.024C13.932 21.0456 13.968 20.9988 13.9788 20.9592C13.9831 20.932 13.978 20.9041 13.9644 20.88Z" fill="#050505"/>
<path d="M13.363 20.4841C13.3527 20.4671 13.3391 20.4523 13.323 20.4405C13.3069 20.4288 13.2887 20.4203 13.2694 20.4156C13.2298 20.4156 13.1614 20.4408 13.1758 20.4912C13.1902 20.5416 13.2334 20.5452 13.2658 20.5596C13.2845 20.5684 13.3058 20.5696 13.3253 20.5628C13.3448 20.5561 13.3609 20.5421 13.3702 20.5236C13.3702 20.5236 13.381 20.4805 13.363 20.4841Z" fill="#050505"/>
<path d="M12.8197 19.5264C12.8127 19.5219 12.8046 19.5195 12.7963 19.5195C12.788 19.5195 12.7798 19.5219 12.7729 19.5264C12.7564 19.5386 12.7439 19.5553 12.7369 19.5745C12.7298 19.5937 12.7286 19.6145 12.7333 19.6344C12.7353 19.6428 12.7399 19.6504 12.7463 19.6561C12.7527 19.6619 12.7607 19.6656 12.7693 19.6668C12.7909 19.6668 12.8089 19.6668 12.8233 19.6416C12.8309 19.634 12.8369 19.6249 12.8408 19.6148C12.8448 19.6048 12.8467 19.594 12.8463 19.5832C12.846 19.5725 12.8434 19.5618 12.8389 19.5521C12.8343 19.5423 12.8277 19.5336 12.8197 19.5264Z" fill="#050505"/>
<path d="M12.7153 19.0044C12.7153 19.0044 12.6901 18.9828 12.6793 18.9756C12.6793 18.9756 12.6793 18.9576 12.6541 18.954C12.6289 18.9504 12.6217 18.954 12.6145 18.9756C12.6129 18.9863 12.6129 18.9972 12.6145 19.008C12.6155 19.0346 12.6257 19.06 12.6433 19.08C12.6649 19.1124 12.6973 19.1304 12.7297 19.08C12.7341 19.0539 12.729 19.0271 12.7153 19.0044Z" fill="#050505"/>
<path d="M17.147 21.3192C17.14 21.3017 17.1316 21.2848 17.1218 21.2688C17.1002 21.2688 17.0678 21.2868 17.057 21.3012C17.0442 21.3336 17.0442 21.3696 17.057 21.402C17.063 21.4217 17.0728 21.44 17.0858 21.456C17.0888 21.4598 17.0927 21.4628 17.097 21.4649C17.1014 21.467 17.1062 21.468 17.111 21.468C17.1158 21.468 17.1206 21.467 17.1249 21.4649C17.1293 21.4628 17.1331 21.4598 17.1362 21.456C17.1524 21.4494 17.1662 21.4381 17.1758 21.4236C17.1866 21.3984 17.165 21.3552 17.147 21.3192Z" fill="#050505"/>
<path d="M18.043 21.6432C18.0457 21.6396 18.0471 21.6351 18.0471 21.6306C18.0471 21.6261 18.0457 21.6217 18.043 21.618L17.9998 21.6C17.9943 21.5892 17.9855 21.5804 17.9746 21.5748C17.9458 21.5748 17.9206 21.6 17.9098 21.6252C17.9027 21.6355 17.8977 21.6471 17.8953 21.6593C17.8928 21.6716 17.893 21.6842 17.8957 21.6964C17.8984 21.7086 17.9036 21.7201 17.911 21.7301C17.9184 21.7402 17.9278 21.7486 17.9386 21.7548C17.971 21.7728 18.0034 21.7548 18.0286 21.7296C18.0393 21.7182 18.0463 21.704 18.0489 21.6886C18.0514 21.6732 18.0494 21.6574 18.043 21.6432Z" fill="#050505"/>
<path d="M19.1162 21.474C19.1024 21.4498 19.0808 21.4308 19.055 21.42C19.0262 21.42 18.9974 21.4416 18.9866 21.4596C18.9849 21.4764 18.9849 21.4933 18.9866 21.51C18.9866 21.5604 19.0262 21.6756 19.091 21.654C19.1104 21.6552 19.1295 21.6493 19.1447 21.6374C19.16 21.6254 19.1703 21.6083 19.1738 21.5892C19.1692 21.5451 19.1487 21.5042 19.1162 21.474Z" fill="#050505"/>
<path d="M19.3357 22.4784C19.3367 22.4653 19.3367 22.452 19.3357 22.4388C19.3303 22.424 19.3202 22.4114 19.3069 22.4028C19.2992 22.3934 19.2893 22.386 19.2781 22.3812C19.2675 22.3811 19.257 22.384 19.248 22.3898C19.2391 22.3956 19.232 22.4039 19.2277 22.4136C19.2207 22.4286 19.2177 22.4452 19.2191 22.4616C19.2205 22.4781 19.2263 22.4939 19.2358 22.5075C19.2453 22.521 19.2582 22.5318 19.2732 22.5387C19.2883 22.5456 19.3049 22.5484 19.3213 22.5468C19.3213 22.5468 19.3537 22.5468 19.3609 22.5216C19.3609 22.5216 19.3357 22.4856 19.3357 22.4784Z" fill="#050505"/>
<path d="M16.0955 18.36C16.0971 18.3252 16.087 18.291 16.0667 18.2628C16.0415 18.2268 16.0091 18.2376 15.9839 18.2628C15.9671 18.2827 15.9548 18.306 15.9479 18.3311C15.9334 18.3719 15.9334 18.4164 15.9479 18.4572C15.9502 18.4646 15.9543 18.4714 15.9599 18.4769C15.9655 18.4824 15.9723 18.4864 15.9799 18.4885C15.9874 18.4907 15.9953 18.4909 16.0029 18.4892C16.0106 18.4875 16.0176 18.4839 16.0235 18.4788C16.0394 18.4767 16.0543 18.4697 16.0659 18.4587C16.0776 18.4477 16.0854 18.4333 16.0883 18.4176C16.0949 18.3991 16.0974 18.3794 16.0955 18.36Z" fill="#050505"/>
<path d="M16.9382 18.5076C16.9323 18.4957 16.9219 18.4866 16.9094 18.4824C16.9094 18.4824 16.9094 18.4644 16.877 18.4644C16.8656 18.4682 16.8554 18.4748 16.8472 18.4836C16.839 18.4924 16.8332 18.5031 16.8302 18.5148C16.8251 18.5258 16.8238 18.5383 16.8267 18.5501C16.8296 18.5619 16.8363 18.5725 16.8459 18.58C16.8555 18.5875 16.8673 18.5915 16.8795 18.5914C16.8917 18.5914 16.9035 18.5872 16.913 18.5796C16.9235 18.5711 16.9315 18.5599 16.9359 18.5472C16.9404 18.5344 16.9412 18.5207 16.9382 18.5076Z" fill="#050505"/>
<path d="M17.0675 18.1224C17.0675 18.1224 17.0387 18.1224 17.0279 18.1224C17.0108 18.1252 16.995 18.1333 16.9827 18.1456C16.9704 18.1579 16.9623 18.1737 16.9595 18.1908C16.9561 18.2163 16.9614 18.2423 16.9744 18.2644C16.9875 18.2866 17.0076 18.3038 17.0315 18.3132C17.0422 18.3183 17.0539 18.321 17.0657 18.321C17.0775 18.321 17.0892 18.3183 17.0999 18.3132C17.1113 18.3028 17.1201 18.29 17.1257 18.2756C17.1313 18.2612 17.1336 18.2458 17.1323 18.2304C17.1312 18.2085 17.1248 18.1871 17.1135 18.1683C17.1022 18.1494 17.0864 18.1337 17.0675 18.1224Z" fill="#050505"/>
<path d="M16.0522 18.9648C16.0478 18.9623 16.0428 18.9609 16.0378 18.9609C16.0327 18.9609 16.0278 18.9623 16.0234 18.9648C16.0188 18.9628 16.0139 18.9618 16.009 18.9618C16.004 18.9618 15.9991 18.9628 15.9946 18.9648C15.9867 18.9758 15.9824 18.989 15.9824 19.0026C15.9824 19.0162 15.9867 19.0294 15.9946 19.0404C15.9946 19.062 16.0234 19.0836 16.0486 19.0728C16.0577 19.0672 16.0653 19.0594 16.0707 19.0502C16.076 19.0409 16.079 19.0305 16.0794 19.0198C16.0798 19.0091 16.0775 18.9984 16.0727 18.9889C16.068 18.9793 16.0609 18.971 16.0522 18.9648Z" fill="#050505"/>
<path d="M15.3108 17.5176C15.3108 17.5176 15.3108 17.5176 15.2856 17.5176H15.264C15.2136 17.5176 15.2388 17.6148 15.264 17.6472C15.2892 17.6796 15.2928 17.6904 15.318 17.6904C15.3312 17.6894 15.3438 17.6844 15.3541 17.676C15.3644 17.6677 15.3719 17.6563 15.3756 17.6436C15.3803 17.6184 15.3766 17.5923 15.3648 17.5694C15.3531 17.5466 15.3341 17.5284 15.3108 17.5176Z" fill="#050505"/>
<path d="M13.5181 17.3232C13.5122 17.31 13.5038 17.2981 13.4933 17.2882C13.4828 17.2783 13.4704 17.2706 13.4569 17.2656C13.4569 17.2656 13.4245 17.2656 13.4209 17.2872C13.4077 17.2941 13.3978 17.3059 13.3931 17.32C13.3884 17.3341 13.3893 17.3494 13.3957 17.3628C13.3993 17.3717 13.4047 17.3798 13.4115 17.3866C13.4183 17.3934 13.4264 17.3988 13.4353 17.4024C13.4439 17.4079 13.4539 17.4107 13.4641 17.4107C13.4743 17.4107 13.4843 17.4079 13.4929 17.4024C13.5026 17.3959 13.5108 17.3874 13.5171 17.3775C13.5233 17.3676 13.5273 17.3564 13.5289 17.3448C13.5263 17.3372 13.5226 17.3299 13.5181 17.3232Z" fill="#050505"/>
<path d="M13.4713 22.5C13.4586 22.4953 13.4445 22.4953 13.4317 22.5C13.4227 22.4958 13.4129 22.4937 13.4029 22.4937C13.393 22.4937 13.3832 22.4958 13.3741 22.5C13.3021 22.5252 13.3201 22.6152 13.3741 22.6584C13.3818 22.6697 13.3916 22.6795 13.4029 22.6872H13.4317C13.4462 22.6878 13.4605 22.6835 13.4722 22.675C13.484 22.6665 13.4925 22.6543 13.4965 22.6404C13.5061 22.617 13.5088 22.5914 13.5043 22.5666C13.4999 22.5417 13.4884 22.5186 13.4713 22.5Z" fill="#050505"/>
<path d="M13.7377 23.0797C13.7298 23.0672 13.7186 23.0573 13.7053 23.0509C13.6976 23.0447 13.6881 23.0414 13.6783 23.0414C13.6685 23.0414 13.659 23.0447 13.6513 23.0509C13.6009 23.0761 13.6045 23.1409 13.6225 23.1841C13.6251 23.1956 13.6305 23.2063 13.6382 23.2153C13.6459 23.2243 13.6557 23.2312 13.6668 23.2355C13.6778 23.2397 13.6897 23.2412 13.7015 23.2398C13.7132 23.2384 13.7244 23.2341 13.7341 23.2273C13.7845 23.1769 13.7665 23.1229 13.7377 23.0797Z" fill="#050505"/>
<path d="M14.3462 23.58C14.3462 23.5512 14.3138 23.5152 14.285 23.5296C14.2562 23.544 14.231 23.6124 14.2418 23.652C14.2514 23.6706 14.2665 23.6857 14.285 23.6952C14.3066 23.6952 14.3282 23.6952 14.3426 23.6952C14.3581 23.6803 14.3671 23.6599 14.3677 23.6384C14.3684 23.6169 14.3607 23.596 14.3462 23.58Z" fill="#050505"/>
<path d="M15.8939 23.9832C15.8759 23.9627 15.8511 23.9493 15.8241 23.9453C15.7971 23.9413 15.7695 23.9471 15.7463 23.9616C15.7218 23.9789 15.7018 24.0018 15.688 24.0284C15.6742 24.0551 15.667 24.0846 15.667 24.1146C15.667 24.1446 15.6742 24.1742 15.688 24.2008C15.7018 24.2274 15.7218 24.2503 15.7463 24.2676C15.759 24.2754 15.7732 24.2805 15.7879 24.2827C15.8026 24.2849 15.8176 24.2841 15.8321 24.2804C15.8465 24.2768 15.86 24.2702 15.8719 24.2612C15.8838 24.2522 15.8937 24.2409 15.9011 24.228C15.9027 24.2101 15.9027 24.192 15.9011 24.174V24.1488H15.9263C15.9375 24.121 15.9404 24.0906 15.9347 24.0612C15.9289 24.0318 15.9148 24.0047 15.8939 23.9832Z" fill="#050505"/>
<path d="M16.6141 23.8644C16.6114 23.8563 16.607 23.8489 16.6012 23.8428C16.5954 23.8366 16.5882 23.8318 16.5803 23.8287C16.5724 23.8256 16.5639 23.8243 16.5554 23.8248C16.5469 23.8254 16.5387 23.8279 16.5313 23.832C16.511 23.8448 16.4949 23.8631 16.4847 23.8848C16.4744 23.9065 16.4706 23.9306 16.4737 23.9544C16.4736 23.9609 16.475 23.9673 16.4775 23.9732C16.4801 23.9791 16.4839 23.9844 16.4886 23.9888C16.4934 23.9932 16.499 23.9966 16.5051 23.9987C16.5112 24.0009 16.5176 24.0017 16.5241 24.0012C16.5352 24.0069 16.5476 24.0099 16.5601 24.0099C16.5726 24.0099 16.5849 24.0069 16.5961 24.0012C16.6063 23.9934 16.6148 23.9837 16.6213 23.9726C16.6277 23.9615 16.6319 23.9493 16.6336 23.9365C16.6352 23.9238 16.6344 23.9109 16.631 23.8985C16.6277 23.8861 16.6219 23.8745 16.6141 23.8644Z" fill="#050505"/>
<path d="M16.999 24.228C16.9702 24.2028 16.927 24.1632 16.8874 24.1632C16.8694 24.1629 16.8515 24.1662 16.8347 24.1731C16.818 24.1799 16.8029 24.19 16.7902 24.2028C16.7254 24.2712 16.7902 24.3576 16.8478 24.39C16.866 24.3977 16.886 24.4 16.9055 24.3967C16.925 24.3934 16.9431 24.3846 16.9579 24.3714C16.9726 24.3582 16.9832 24.3411 16.9886 24.3221C16.994 24.3031 16.9938 24.283 16.9882 24.264C16.9882 24.264 17.0062 24.2352 16.999 24.228Z" fill="#050505"/>
<path d="M18.979 25.272C18.979 25.2468 18.9394 25.1964 18.9106 25.2C18.871 25.2 18.835 25.2432 18.8242 25.2756C18.8134 25.308 18.8494 25.3512 18.8746 25.3764C18.8831 25.3828 18.8928 25.3873 18.9032 25.3895C18.9135 25.3917 18.9242 25.3916 18.9346 25.3892C18.9449 25.3868 18.9545 25.3821 18.9628 25.3756C18.9711 25.369 18.9779 25.3607 18.9826 25.3512C18.9909 25.3395 18.995 25.3253 18.9944 25.311C18.9937 25.2967 18.9883 25.283 18.979 25.272Z" fill="#050505"/>
<path d="M16.1245 26.1972C16.1211 26.1934 16.117 26.1903 16.1123 26.1882C16.1077 26.1861 16.1026 26.1851 16.0975 26.1851C16.0924 26.1851 16.0874 26.1861 16.0827 26.1882C16.078 26.1903 16.0739 26.1934 16.0705 26.1972C16.0417 26.226 16.0525 26.2584 16.0705 26.2872C16.0688 26.2943 16.0688 26.3017 16.0705 26.3088L16.0993 26.3376C16.1281 26.3628 16.1677 26.3376 16.1713 26.298C16.1734 26.2786 16.1701 26.2589 16.1619 26.2412C16.1536 26.2234 16.1407 26.2082 16.1245 26.1972Z" fill="#050505"/>
<path d="M17.6761 16.686C17.6761 16.6572 17.6113 16.6536 17.5861 16.6608C17.5592 16.6734 17.5379 16.6953 17.526 16.7224C17.514 16.7496 17.5124 16.7801 17.5213 16.8084C17.5465 16.8624 17.6221 16.8336 17.6545 16.8084C17.6869 16.7832 17.7229 16.7184 17.6761 16.686Z" fill="#050505"/>
<path d="M18.8678 16.2216C18.8528 16.2222 18.8386 16.2286 18.8282 16.2396C18.8181 16.246 18.8095 16.2546 18.803 16.2648C18.8016 16.2791 18.8016 16.2936 18.803 16.308C18.7974 16.3218 18.7974 16.3373 18.803 16.3512C18.8123 16.3565 18.8229 16.3594 18.8336 16.3594C18.8444 16.3594 18.8549 16.3565 18.8642 16.3512C18.8783 16.3458 18.891 16.3371 18.901 16.3258C18.911 16.3145 18.9182 16.301 18.9218 16.2864C18.922 16.2709 18.9167 16.2559 18.9068 16.244C18.8969 16.2321 18.8831 16.2241 18.8678 16.2216Z" fill="#050505"/>
<path d="M20.4048 16.2C20.3955 16.1846 20.3847 16.1701 20.3724 16.1568C20.3685 16.1492 20.3621 16.1432 20.3541 16.1399C20.3462 16.1366 20.3374 16.1362 20.3292 16.1388C20.3188 16.1373 20.3082 16.1392 20.299 16.1445C20.2899 16.1497 20.2827 16.1579 20.2788 16.1676C20.2667 16.1871 20.2603 16.2095 20.2603 16.2324C20.2603 16.2553 20.2667 16.2778 20.2788 16.2972C20.2788 16.2972 20.3076 16.3368 20.3328 16.3332C20.3477 16.3318 20.3619 16.3263 20.374 16.3175C20.386 16.3086 20.3954 16.2966 20.4012 16.2828C20.4076 16.2701 20.4113 16.2561 20.4119 16.2418C20.4125 16.2275 20.4101 16.2133 20.4048 16.2Z" fill="#050505"/>
<path d="M20.1274 16.56C20.1207 16.5534 20.1117 16.5497 20.1022 16.5497C20.0928 16.5497 20.0838 16.5534 20.077 16.56C20.0693 16.5681 20.0634 16.5777 20.0597 16.5883C20.056 16.5988 20.0545 16.61 20.0554 16.6212C20.0579 16.6292 20.0635 16.636 20.0709 16.64C20.0783 16.644 20.0869 16.645 20.095 16.6428C20.1031 16.6401 20.1105 16.6357 20.1167 16.6299C20.1229 16.6241 20.1277 16.6169 20.1308 16.609C20.1339 16.6011 20.1352 16.5926 20.1346 16.5841C20.134 16.5756 20.1316 16.5674 20.1274 16.56Z" fill="#050505"/>
<path d="M21.186 15.9732L21.1644 15.9408C21.1644 15.912 21.1212 15.8976 21.096 15.9408C21.0881 15.9558 21.084 15.9725 21.084 15.9894C21.084 16.0064 21.0881 16.0231 21.096 16.038C21.096 16.0704 21.132 16.11 21.168 16.0992C21.1771 16.0967 21.1853 16.0916 21.1917 16.0846C21.198 16.0776 21.2023 16.069 21.204 16.0596C21.2094 16.045 21.2106 16.0291 21.2075 16.0138C21.2043 15.9986 21.1968 15.9845 21.186 15.9732Z" fill="#050505"/>
<path d="M22.4424 16.2756C22.4424 16.2756 22.41 16.2504 22.392 16.2756C22.3669 16.2885 22.3476 16.3103 22.338 16.3368C22.3164 16.4268 22.4388 16.5528 22.5144 16.4628C22.59 16.3728 22.4892 16.308 22.4424 16.2756Z" fill="#050505"/>
<path d="M23.0833 17.8812V17.8632C23.0617 17.838 23.0329 17.7048 22.9753 17.7408C22.9177 17.7768 22.9321 17.8452 22.9465 17.8992C22.9609 17.9532 23.0257 18.0324 23.0833 17.9568C23.0896 17.9451 23.0929 17.9322 23.0929 17.919C23.0929 17.9057 23.0896 17.8928 23.0833 17.8812Z" fill="#050505"/>
<path d="M23.1156 18.4032C23.1156 18.4032 23.1336 18.4032 23.1156 18.378C23.0945 18.3711 23.0718 18.3711 23.0508 18.378C23.0338 18.3808 23.0181 18.3884 23.0053 18.3998C22.9925 18.4113 22.9833 18.4262 22.9788 18.4428C22.9724 18.4554 22.9697 18.4697 22.971 18.4838C22.9724 18.498 22.9777 18.5114 22.9863 18.5227C22.9949 18.534 23.0066 18.5426 23.0199 18.5476C23.0332 18.5525 23.0476 18.5536 23.0616 18.5508C23.0845 18.5418 23.1034 18.5248 23.1147 18.503C23.1259 18.4811 23.1288 18.4558 23.1228 18.432L23.1156 18.4032Z" fill="#050505"/>
<path d="M21.7331 19.08C21.7291 19.0759 21.7244 19.0727 21.7191 19.0706C21.7139 19.0684 21.7082 19.0673 21.7025 19.0673C21.6969 19.0673 21.6912 19.0684 21.686 19.0706C21.6807 19.0727 21.676 19.0759 21.6719 19.08C21.6551 19.0903 21.6417 19.1054 21.6334 19.1233C21.6251 19.1413 21.6222 19.1612 21.6251 19.1808C21.6251 19.2168 21.6503 19.2456 21.6899 19.242C21.7111 19.2387 21.7307 19.229 21.7462 19.2142C21.7616 19.1994 21.7722 19.1802 21.7763 19.1592C21.7776 19.1432 21.7741 19.1272 21.7665 19.1132C21.7588 19.0991 21.7472 19.0876 21.7331 19.08Z" fill="#050505"/>
<path d="M20.9338 18.8316C20.9287 18.8116 20.9183 18.7934 20.9037 18.7789C20.8892 18.7643 20.871 18.7539 20.851 18.7488C20.8006 18.7488 20.761 18.7812 20.7502 18.828C20.7424 18.8501 20.7428 18.8743 20.7514 18.8961C20.76 18.918 20.7762 18.936 20.797 18.9468C20.8095 18.9519 20.8231 18.954 20.8365 18.953C20.85 18.9519 20.863 18.9477 20.8746 18.9407C20.8861 18.9337 20.8959 18.9241 20.9031 18.9127C20.9102 18.9012 20.9146 18.8882 20.9158 18.8748C20.9227 18.8701 20.928 18.8635 20.9312 18.8558C20.9344 18.8482 20.9353 18.8397 20.9338 18.8316Z" fill="#050505"/>
<path d="M23.987 18.576C23.9941 18.5513 23.9941 18.5251 23.987 18.5004C23.9769 18.4818 23.9624 18.4659 23.9449 18.454C23.9274 18.4421 23.9073 18.4346 23.8862 18.432C23.8742 18.4286 23.8613 18.4292 23.8496 18.4337C23.8379 18.4383 23.828 18.4465 23.8214 18.4572C23.7928 18.4873 23.7769 18.5273 23.7769 18.5688C23.7769 18.6103 23.7928 18.6503 23.8214 18.6804C23.8361 18.6926 23.8537 18.7008 23.8724 18.7042C23.8912 18.7077 23.9105 18.7062 23.9285 18.7001C23.9466 18.694 23.9628 18.6833 23.9755 18.6692C23.9883 18.655 23.9972 18.6378 24.0014 18.6192C24.0012 18.6037 23.9962 18.5886 23.987 18.576Z" fill="#050505"/>
<path d="M23.976 20.6244C23.9776 20.6149 23.9776 20.6052 23.976 20.5956C23.976 20.556 23.9112 20.5668 23.8932 20.5956C23.8802 20.6156 23.8715 20.6381 23.8678 20.6617C23.8641 20.6853 23.8654 20.7094 23.8716 20.7324C23.8716 20.772 23.9184 20.826 23.9688 20.808C24.0192 20.79 24.012 20.6856 23.976 20.6244Z" fill="#050505"/>
<path d="M24.5231 20.88C24.513 20.8663 24.5009 20.8541 24.4871 20.844C24.4787 20.8381 24.4686 20.835 24.4583 20.835C24.448 20.835 24.438 20.8381 24.4295 20.844C24.4141 20.8599 24.4031 20.8795 24.3974 20.901C24.3917 20.9224 24.3916 20.9449 24.3971 20.9664C24.4007 20.9813 24.4082 20.9949 24.4187 21.006H24.4403C24.4522 21.009 24.4645 21.009 24.4763 21.006C24.4763 21.006 24.5267 20.9844 24.5303 20.97C24.5399 20.9402 24.5373 20.9079 24.5231 20.88Z" fill="#050505"/>
<path d="M22.878 20.9772C22.878 20.9448 22.8276 20.916 22.7916 20.9592C22.7764 20.983 22.7667 21.0099 22.7629 21.0379C22.7592 21.0658 22.7616 21.0943 22.77 21.1212C22.77 21.1896 22.8672 21.2328 22.9104 21.1608C22.9276 21.1314 22.9338 21.0967 22.9279 21.0631C22.922 21.0295 22.9043 20.999 22.878 20.9772Z" fill="#050505"/>
<path d="M22.1939 20.6712C22.1939 20.6316 22.1435 20.5524 22.0967 20.5704C22.0499 20.5884 22.0355 20.646 22.0319 20.6964C22.0276 20.7238 22.0299 20.7518 22.0387 20.7781C22.0474 20.8044 22.0624 20.8283 22.0823 20.8476C22.1363 20.898 22.2047 20.826 22.2083 20.772C22.2131 20.7551 22.2142 20.7374 22.2118 20.7201C22.2093 20.7027 22.2032 20.686 22.1939 20.6712Z" fill="#050505"/>
<path d="M21.3983 21.24C21.3925 21.2169 21.3828 21.195 21.3695 21.1752V21.1572C21.3299 21.0996 21.2759 21.1572 21.2687 21.2076C21.2615 21.258 21.2687 21.3588 21.3515 21.3336C21.3685 21.3253 21.3823 21.3116 21.3907 21.2947C21.3992 21.2778 21.4018 21.2586 21.3983 21.24Z" fill="#050505"/>
<path d="M22.8347 23.8608C22.8313 23.8448 22.8238 23.83 22.8131 23.8176C22.7807 23.778 22.7375 23.8176 22.7231 23.85C22.714 23.8781 22.714 23.9083 22.7231 23.9364C22.7266 23.9463 22.7324 23.9553 22.74 23.9627C22.7475 23.97 22.7567 23.9755 22.7667 23.9787C22.7768 23.9819 22.7874 23.9828 22.7978 23.9812C22.8083 23.9796 22.8182 23.9757 22.8268 23.9696C22.8355 23.9636 22.8426 23.9556 22.8476 23.9464C22.8527 23.9371 22.8555 23.9268 22.8559 23.9163C22.8564 23.9057 22.8543 23.8953 22.85 23.8856C22.8457 23.876 22.8393 23.8675 22.8311 23.8608H22.8347Z" fill="#050505"/>
<path d="M23.3282 24.1703C23.3178 24.1739 23.3083 24.1796 23.3002 24.187C23.2922 24.1945 23.2858 24.2035 23.2814 24.2135C23.2656 24.2416 23.2573 24.2732 23.2573 24.3053C23.2573 24.3375 23.2656 24.3691 23.2814 24.3971C23.2814 24.4295 23.3426 24.4223 23.3678 24.3971C23.3848 24.3854 23.3989 24.3699 23.4089 24.3518C23.4189 24.3336 23.4245 24.3134 23.4254 24.2927C23.4218 24.2531 23.4002 24.1523 23.3282 24.1703Z" fill="#050505"/>
<path d="M24.5126 23.0832C24.4879 23.0976 24.4696 23.1209 24.4615 23.1484C24.4535 23.1758 24.4563 23.2054 24.4694 23.2308C24.5018 23.2956 24.5882 23.2668 24.6098 23.2056C24.6746 23.1372 24.5774 23.04 24.5126 23.0832Z" fill="#050505"/>
<path d="M12.24 18.5436C12.2076 18.4968 12.1608 18.4212 12.1176 18.3492C12.122 18.4817 12.1062 18.614 12.0708 18.7416C12.1464 18.7776 12.2508 18.8352 12.3624 18.8964C12.564 19.008 12.3336 18.6732 12.24 18.5436Z" fill="#6C260C"/>
<path d="M11.6532 20.8331C11.516 20.7317 11.3947 20.6104 11.2932 20.4731C11.2781 20.6132 11.3044 20.7547 11.3688 20.8799C11.6388 20.9843 11.7108 20.8799 11.6532 20.8331Z" fill="#6C260C"/>
<path d="M17.3305 6.07318L17.1469 6.30718L17.0173 6.04078C17.0155 6.03248 17.0155 6.02387 17.0173 6.01558C17.0173 5.99398 17.0173 5.98678 16.9921 6.01558L16.9201 5.84998C16.9201 5.84998 16.8913 5.84998 16.8949 5.87158C16.8985 5.89318 16.9489 5.98678 16.9777 6.04798C16.9233 6.11497 16.8739 6.18597 16.8301 6.26038C16.805 6.20458 16.7845 6.14678 16.7689 6.08758C16.7689 6.06958 16.7401 6.08758 16.7401 6.10558C16.7492 6.17875 16.7686 6.25026 16.7977 6.31798C16.7221 6.45838 16.6717 6.60238 16.6069 6.74998C16.6069 6.76798 16.6069 6.74998 16.6321 6.74998C16.6861 6.63838 16.7293 6.52318 16.7833 6.38998L16.8157 6.33238C16.8548 6.41974 16.9006 6.50399 16.9525 6.58438C16.9057 6.67798 16.8661 6.77518 16.8157 6.86878C16.8157 6.89398 16.8157 6.89398 16.8409 6.86878C16.8913 6.78598 16.9309 6.69958 16.9741 6.60958C16.9832 6.6263 16.9941 6.64199 17.0065 6.65638C17.0065 6.67798 17.0533 6.65638 17.0461 6.62398L17.0065 6.54838C17.0438 6.47866 17.0871 6.4124 17.1361 6.35038C17.1649 6.40798 17.1973 6.46198 17.2297 6.51598C17.2621 6.56998 17.2729 6.51598 17.2657 6.48718L17.1685 6.30718C17.2369 6.22438 17.3017 6.14158 17.3593 6.05878C17.3701 6.06238 17.3449 6.05518 17.3305 6.07318ZM17.0245 6.47998C17.0069 6.50131 16.9912 6.52421 16.9777 6.54838C16.9345 6.46558 16.8841 6.38278 16.8409 6.29638C16.8841 6.22438 16.9345 6.15238 16.9849 6.08398L17.1145 6.35398L17.0245 6.47998Z" fill="#8E785A"/>
<g style="mix-blend-mode:screen">
<path d="M13.7914 25.7581C13.6546 25.3657 13.4782 24.8112 13.3054 24.4368C13.1227 24.0035 13.0015 23.5466 12.9454 23.0796C12.8806 22.6508 12.7443 22.2358 12.5422 21.852C12.3406 21.492 12.0382 21.1608 11.851 20.772C11.7611 20.5447 11.7476 20.2942 11.8126 20.0585C11.8775 19.8227 12.0174 19.6145 12.211 19.4652C12.3247 19.3848 12.4154 19.2761 12.4742 19.1498C12.5329 19.0235 12.5576 18.884 12.5458 18.7452C12.4846 18.2592 12.0814 17.9136 12.3874 17.406C12.5386 17.154 12.7474 16.9668 12.7474 16.6536C12.7474 16.6176 12.6934 16.6536 12.6898 16.6824C12.643 17.0748 12.2722 17.2548 12.1678 17.6148C12.1024 17.993 12.1658 18.3822 12.3478 18.72C12.5206 19.2168 12.031 19.3896 11.8114 19.746C11.622 20.0537 11.5588 20.4225 11.635 20.7756C11.8042 21.161 12.0207 21.5238 12.2794 21.8556C12.5168 22.2761 12.6719 22.7379 12.7366 23.2164C12.7911 23.6378 12.8876 24.0527 13.0246 24.4549C13.1973 24.8869 13.417 25.2985 13.6798 25.6824C13.7374 25.7544 13.813 25.8229 13.7914 25.7581Z" fill="#944620"/>
<path d="M16.2754 27C15.828 26.9537 15.3978 26.8033 15.019 26.5608C14.7218 26.2642 14.376 26.0207 13.9966 25.8408C13.9714 25.8408 14.0506 25.8912 14.0758 25.9056C14.4358 26.1108 14.6266 26.5176 14.929 26.7768C15.2976 27.0415 15.7472 27.1688 16.1998 27.1368C16.2466 27.1584 16.3474 27.0324 16.2754 27Z" fill="#944620"/>
</g>
<path d="M21.0205 14.4793C21.0205 14.4793 20.2213 12.4129 21.0889 11.0269C20.6533 11.2645 20.2393 12.5425 20.7037 14.0149C20.8801 14.5153 21.0349 14.5909 21.0205 14.4793Z" fill="#0B480C"/>
<path d="M20.9881 14.4505C20.9881 14.4505 21.0169 13.5217 21.6289 13.3309C21.4951 13.3229 21.3616 13.3525 21.2437 13.4163C21.1257 13.4801 21.0279 13.5756 20.9613 13.6919C20.8947 13.8083 20.8619 13.941 20.8667 14.075C20.8714 14.209 20.9135 14.3391 20.9881 14.4505Z" fill="#4B8B2D"/>
<path d="M20.8582 14.3136C20.5783 14.0518 20.2323 13.8713 19.8574 13.7916C20.1166 13.5972 20.779 13.9464 20.8582 14.3136Z" fill="#4B8B2D"/>
<path d="M20.7038 14.0148C20.4655 13.5588 20.1358 13.1569 19.7354 12.834C20.1386 12.852 20.7722 13.68 20.7038 14.0148Z" fill="#4B8B2D"/>
<path d="M20.7466 13.7016C20.7466 13.7016 20.8114 13.0068 21.427 12.9168C21.0238 12.7692 20.4694 13.0392 20.7466 13.7016Z" fill="#68B42E"/>
<path d="M20.6642 12.8699C20.6874 12.7619 20.7341 12.6602 20.801 12.5722C20.8679 12.4843 20.9534 12.4121 21.0513 12.3609C21.1493 12.3097 21.2573 12.2807 21.3677 12.276C21.4781 12.2712 21.5883 12.2909 21.6902 12.3335C21.125 12.0167 20.495 12.1535 20.6642 12.8699Z" fill="#4B8B2D"/>
<path d="M20.5594 13.1796C20.3803 12.9146 20.1441 12.6932 19.8682 12.5316C20.1598 12.4596 20.617 12.96 20.5594 13.1796Z" fill="#4B8B2D"/>
<path d="M20.6138 12.4416C20.736 12.2254 20.8997 12.0356 21.0956 11.883C21.2914 11.7304 21.5155 11.618 21.755 11.5524C22.0286 11.52 20.7326 11.16 20.6138 12.4416Z" fill="#4B8B2D"/>
<path d="M20.5201 12.6612C20.3515 12.3191 20.0614 12.0521 19.7065 11.9124C19.9765 11.7828 20.6029 12.2616 20.5201 12.6612Z" fill="#68B42E"/>
<path d="M20.5918 12.1788C20.3498 11.8123 20.2014 11.392 20.1598 10.9548C20.1598 10.782 19.8538 11.3796 20.5738 12.2976C20.5768 12.2576 20.5829 12.2179 20.5918 12.1788Z" fill="#4B8B2D"/>
<path d="M20.6174 12.0384C20.5414 11.6934 20.522 11.3384 20.5598 10.9872C20.4522 11.1443 20.3996 11.3325 20.41 11.5226C20.4204 11.7127 20.4933 11.894 20.6174 12.0384Z" fill="#68B42E"/>
<path d="M20.7539 13.4604C20.7539 13.4604 20.8943 12.9276 21.3551 12.8988C21.0635 12.8304 20.7971 13.1112 20.7539 13.4604Z" fill="#ABDB91"/>
<path d="M20.7144 12.1968C20.8099 12.0148 20.9477 11.8583 21.1162 11.7405C21.2847 11.6228 21.479 11.5472 21.6828 11.52C21.4723 11.5238 21.2678 11.5902 21.0953 11.7107C20.9228 11.8313 20.7902 12.0005 20.7144 12.1968Z" fill="#ABDB91"/>
<path d="M19.9331 12.5532C20.1722 12.6793 20.3744 12.8654 20.5199 13.0932C20.3953 12.8487 20.1871 12.6571 19.9331 12.5532Z" fill="#ABDB91"/>
<path d="M12.1571 27.1044C12.1571 27.1044 11.9735 25.0128 9.8999 24.8688C11.1599 24.6636 12.4415 25.7292 12.1571 27.1044Z" fill="#D2A677"/>
<path d="M12.0022 26.3556C11.5544 26.0239 11.0263 25.8176 10.4722 25.758C11.0662 25.5852 12.0058 25.92 12.0022 26.3556Z" fill="#7FA95F"/>
<path d="M12.0886 26.6869C11.8731 26.5697 11.6263 26.523 11.3829 26.5533C11.1394 26.5837 10.9116 26.6895 10.7314 26.8561C11.203 26.1469 12.1102 26.1973 12.0886 26.6869Z" fill="#4B8B2D"/>
<path d="M11.6389 25.6932C11.1435 25.5 10.6086 25.4296 10.0801 25.488C10.4149 25.2252 11.4841 25.2756 11.6389 25.6932Z" fill="#68B42E"/>
<path d="M11.7251 25.8336C11.7251 25.8336 11.0339 24.4872 10.5371 24.2352C11.1599 24.4188 11.8799 25.5096 11.7251 25.8336Z" fill="#4B8B2D"/>
<path d="M11.934 25.9201C11.9371 25.4294 11.7929 24.9491 11.52 24.5413C11.7955 24.7489 12.0017 25.0351 12.1116 25.3621C12.2214 25.6892 12.2298 26.0418 12.1356 26.3737C12.0835 26.2162 12.016 26.0643 11.934 25.9201Z" fill="#68B42E"/>
<path d="M12.1679 26.8091C12.3368 26.349 12.58 25.9197 12.8879 25.5383C12.4343 25.5023 12.1211 26.4599 12.1211 26.4599L12.1679 26.8091Z" fill="#458B28"/>
<path d="M12.089 26.0641C12.0951 25.5847 11.9488 25.1158 11.6714 24.7249C11.9522 24.8401 12.2006 25.6789 12.089 26.0641Z" fill="#ABDB91"/>
<path d="M11.4841 25.5816C11.0942 25.4387 10.6764 25.3882 10.2637 25.434C10.6745 25.3267 11.1107 25.3794 11.4841 25.5816Z" fill="#ABDB91"/>
</g>
<defs>
<clipPath id="clip0_41_707">
<rect width="36" height="36" fill="white"/>
</clipPath>
</defs>
</svg>
