<svg width="592" height="570" viewBox="0 0 592 570" fill="none" xmlns="http://www.w3.org/2000/svg">
<g clip-path="url(#clip0_41_1333)">
<path d="M497.246 434.34L511.009 474.377L530.235 473.383L516.503 429.123L497.246 434.34Z" fill="white"/>
<path d="M511.009 475.1C510.859 475.099 510.714 475.052 510.592 474.965C510.47 474.878 510.378 474.755 510.328 474.614L496.565 434.574C496.532 434.48 496.519 434.38 496.526 434.281C496.534 434.182 496.561 434.086 496.608 433.998C496.654 433.91 496.718 433.833 496.796 433.771C496.874 433.71 496.963 433.665 497.059 433.639L516.313 428.422C516.493 428.374 516.685 428.398 516.848 428.487C517.011 428.577 517.134 428.727 517.19 428.905L530.922 473.169C530.954 473.273 530.962 473.384 530.945 473.493C530.928 473.601 530.887 473.704 530.824 473.795C530.762 473.885 530.679 473.959 530.584 474.013C530.488 474.066 530.381 474.097 530.272 474.103L511.046 475.097L511.009 475.1ZM498.179 434.835L511.513 473.63L529.271 472.711L516.021 430.001L498.179 434.835Z" fill="#0F0F0F"/>
<path d="M417.645 439.414L412.841 473.384H402.448L401.87 439.975L417.645 439.414Z" fill="white"/>
<path d="M412.841 474.106H402.448C402.26 474.106 402.079 474.032 401.945 473.9C401.811 473.768 401.733 473.588 401.73 473.399L401.152 439.987C401.148 439.798 401.218 439.615 401.348 439.478C401.478 439.341 401.657 439.261 401.845 439.255L417.62 438.695C417.725 438.687 417.831 438.705 417.928 438.746C418.025 438.787 418.111 438.85 418.179 438.931C418.25 439.01 418.303 439.103 418.334 439.204C418.365 439.305 418.374 439.412 418.36 439.517L413.557 473.486C413.532 473.659 413.446 473.816 413.314 473.93C413.183 474.044 413.015 474.106 412.841 474.106ZM403.157 472.664H412.217L416.812 440.168L402.604 440.672L403.157 472.664Z" fill="#0F0F0F"/>
<path d="M497.016 215.908C497.016 215.908 512.952 319.63 513.587 344.401C514.221 369.173 526.255 450.144 526.255 450.144C526.255 450.144 512.442 456.853 502.397 456.8C502.397 456.8 449.266 312.871 445.75 272.18C442.233 231.488 453.988 212.859 453.988 212.859L497.016 215.908Z" fill="#0F0F0F"/>
<path d="M481.428 209.452C481.428 209.452 420.573 390.204 419.687 457.769C419.687 457.769 415.981 460.224 398.857 457.405C398.857 457.405 386.518 257.727 418.133 205.761L481.428 209.452Z" fill="#0F0F0F"/>
<path d="M505.118 469.742C504.558 473.732 503.653 481.136 503.563 487.777C503.547 489.785 504.265 491.73 505.583 493.244C506.9 494.758 508.726 495.736 510.714 495.993C522.316 497.492 548.643 499.133 571.052 497.084C572.588 496.943 575.302 495.816 576.057 491.957C578.594 478.99 556.21 475.813 531.668 466.416C531.196 466.232 530.681 466.189 530.185 466.29C529.689 466.392 529.232 466.635 528.87 466.989L526.224 469.571C524.933 470.835 523.297 471.686 521.523 472.019C519.749 472.352 517.917 472.15 516.257 471.44L508.208 467.979C507.891 467.85 507.549 467.794 507.207 467.816C506.865 467.838 506.533 467.938 506.235 468.108C505.937 468.278 505.682 468.513 505.488 468.796C505.295 469.079 505.168 469.403 505.118 469.742Z" fill="white"/>
<path d="M547.723 498.775C532.66 498.775 518.607 497.738 510.649 496.71C508.482 496.433 506.493 495.37 505.057 493.722C503.621 492.074 502.838 489.955 502.858 487.767C502.932 481.043 503.859 473.524 504.412 469.64C504.475 469.182 504.643 468.746 504.902 468.364C505.162 467.983 505.506 467.667 505.907 467.44C506.304 467.213 506.749 467.082 507.206 467.057C507.662 467.032 508.118 467.114 508.538 467.297L516.587 470.758C518.114 471.415 519.802 471.603 521.437 471.298C523.071 470.993 524.578 470.209 525.767 469.045L528.413 466.462C528.874 466.015 529.453 465.709 530.082 465.58C530.711 465.451 531.364 465.504 531.963 465.734C537.696 467.914 543.202 469.752 548.531 471.511C566.143 477.336 578.868 481.541 576.804 492.094C576.039 495.997 573.284 497.607 571.155 497.803C563.535 498.498 555.492 498.775 547.723 498.775ZM507.356 468.5C507.093 468.499 506.835 468.568 506.607 468.699C506.398 468.817 506.219 468.981 506.085 469.179C505.95 469.378 505.863 469.604 505.83 469.842C505.289 473.692 504.372 481.139 504.297 487.786C504.286 489.616 504.944 491.387 506.147 492.764C507.35 494.141 509.014 495.029 510.826 495.261C522.829 496.819 548.755 498.376 571.008 496.349C571.599 496.296 574.587 495.822 575.361 491.801C577.18 482.497 564.962 478.457 548.049 472.87C542.708 471.1 537.168 469.275 531.419 467.067C531.077 466.935 530.705 466.904 530.346 466.978C529.986 467.051 529.656 467.226 529.392 467.481L526.747 470.063C525.354 471.427 523.588 472.346 521.674 472.703C519.759 473.06 517.782 472.839 515.993 472.069L507.944 468.609C507.757 468.534 507.557 468.497 507.356 468.5Z" fill="#0F0F0F"/>
<path d="M503.594 486.777C503.594 486.777 503.594 487.453 503.594 487.777C503.578 489.785 504.296 491.73 505.614 493.244C506.931 494.758 508.757 495.736 510.745 495.993C522.347 497.492 548.674 499.133 571.083 497.084C572.619 496.943 575.333 495.816 576.089 491.957C576.322 490.773 576.179 488.636 576.179 488.636L574.587 488.717C551.934 489.843 529.229 489.295 506.657 487.079L503.594 486.777Z" fill="white"/>
<path d="M547.723 498.775C532.66 498.775 518.607 497.738 510.649 496.71C508.482 496.434 506.492 495.371 505.056 493.722C503.62 492.074 502.838 489.955 502.858 487.767C502.858 487.456 502.858 486.764 502.858 486.764C502.86 486.665 502.883 486.567 502.925 486.476C502.967 486.386 503.026 486.305 503.1 486.238C503.175 486.172 503.262 486.122 503.357 486.092C503.451 486.061 503.551 486.051 503.65 486.06L506.706 486.372C529.245 488.581 551.915 489.128 574.534 488.007L576.123 487.929C576.217 487.922 576.312 487.933 576.401 487.963C576.491 487.993 576.573 488.041 576.644 488.104C576.714 488.167 576.772 488.243 576.812 488.329C576.852 488.415 576.875 488.508 576.878 488.602C576.878 488.692 577.024 490.845 576.779 492.106C576.014 496.009 573.259 497.619 571.13 497.816C563.535 498.498 555.492 498.775 547.723 498.775ZM504.3 487.562C504.3 487.64 504.3 487.711 504.3 487.77C504.285 489.603 504.941 491.378 506.145 492.759C507.348 494.14 509.014 495.031 510.829 495.265C522.832 496.822 548.758 498.379 571.012 496.352C571.602 496.299 574.59 495.825 575.364 491.804C575.475 491.002 575.512 490.192 575.473 489.384L574.606 489.424C551.916 490.547 529.176 489.999 506.567 487.786L504.3 487.562Z" fill="#0F0F0F"/>
<path d="M537.323 481.13C537.177 481.134 537.034 481.094 536.911 481.014C536.789 480.934 536.694 480.819 536.638 480.684C536.583 480.548 536.57 480.399 536.601 480.256C536.632 480.114 536.706 479.984 536.813 479.884L545.425 471.203C545.561 471.073 545.742 471.001 545.931 471.002C546.119 471.004 546.299 471.079 546.433 471.212C546.566 471.345 546.643 471.525 546.645 471.714C546.648 471.902 546.577 472.085 546.448 472.222L537.846 480.918C537.777 480.987 537.696 481.041 537.606 481.077C537.516 481.114 537.42 481.132 537.323 481.13Z" fill="#0F0F0F"/>
<path d="M545.783 482.03C545.641 482.031 545.502 481.99 545.384 481.912C545.266 481.834 545.173 481.723 545.118 481.592C545.062 481.462 545.046 481.318 545.072 481.179C545.098 481.039 545.165 480.911 545.263 480.809L552.143 473.608C552.278 473.481 552.456 473.412 552.64 473.413C552.824 473.414 553.001 473.485 553.135 473.613C553.268 473.74 553.347 473.914 553.357 474.099C553.366 474.283 553.305 474.464 553.185 474.604L546.305 481.809C546.237 481.879 546.156 481.934 546.066 481.972C545.976 482.01 545.88 482.03 545.783 482.03Z" fill="#0F0F0F"/>
<path d="M399.361 506.459C393.19 505.434 389.724 500.971 389.525 497.115C388.959 485.684 391.956 474.819 397.574 467.444C397.717 467.259 397.903 467.111 398.116 467.013C398.329 466.916 398.562 466.871 398.796 466.883C399.03 466.895 399.257 466.963 399.459 467.082C399.661 467.201 399.831 467.366 399.955 467.565L400.101 467.699C400.574 468.119 401.185 468.349 401.816 468.344C402.448 468.339 403.055 468.099 403.521 467.671C404.361 466.952 405.426 466.549 406.53 466.531L408.1 466.509C408.983 466.513 409.851 466.739 410.623 467.167C411.396 467.595 412.049 468.211 412.521 468.957C412.628 469.113 412.769 469.242 412.933 469.335C413.097 469.428 413.28 469.482 413.468 469.494C413.656 469.505 413.844 469.474 414.019 469.402C414.193 469.33 414.348 469.22 414.474 469.079L415.363 468.073C415.498 467.942 415.668 467.854 415.852 467.818C416.037 467.783 416.228 467.802 416.401 467.873C416.575 467.945 416.724 468.065 416.831 468.22C416.937 468.375 416.997 468.558 417.001 468.746L417.965 500.021C417.486 506.148 407.438 507.786 399.361 506.459Z" fill="white"/>
<path d="M404.649 507.599C402.838 507.599 401.03 507.452 399.243 507.16C392.661 506.07 389.008 501.301 388.806 497.152C388.234 485.581 391.222 474.595 397.001 467.007C397.21 466.727 397.484 466.502 397.801 466.354C398.117 466.206 398.465 466.14 398.814 466.16C399.149 466.175 399.475 466.267 399.769 466.429C400.062 466.591 400.314 466.819 400.505 467.095L400.586 467.169C400.928 467.468 401.369 467.628 401.822 467.62C402.276 467.612 402.711 467.436 403.042 467.126C404.01 466.298 405.236 465.834 406.509 465.814L408.063 465.79C409.069 465.796 410.058 466.055 410.939 466.541C411.821 467.028 412.566 467.728 413.109 468.577C413.146 468.637 413.197 468.687 413.258 468.722C413.319 468.758 413.387 468.779 413.457 468.783C413.541 468.787 413.625 468.773 413.704 468.742C413.782 468.711 413.853 468.663 413.911 468.602L414.8 467.596C415.031 467.357 415.327 467.192 415.651 467.122C415.975 467.051 416.313 467.077 416.622 467.198C416.931 467.319 417.198 467.528 417.389 467.8C417.579 468.072 417.686 468.394 417.695 468.727L418.658 499.999C418.66 500.025 418.66 500.051 418.658 500.077C418.518 501.871 417.66 503.403 416.103 504.627C413.41 506.752 408.983 507.599 404.649 507.599ZM399.479 505.73C404.764 506.608 411.7 506.253 415.229 503.481C416.445 502.525 417.119 501.354 417.234 499.996L416.286 468.77C416.287 468.721 416.272 468.673 416.244 468.632C416.216 468.591 416.177 468.56 416.131 468.543C416.087 468.524 416.039 468.519 415.992 468.528C415.946 468.537 415.903 468.559 415.87 468.593L415.021 469.558C414.816 469.79 414.56 469.97 414.273 470.085C413.987 470.2 413.678 470.247 413.37 470.222C413.076 470.201 412.791 470.11 412.539 469.958C412.286 469.805 412.074 469.594 411.918 469.343C411.514 468.711 410.961 468.188 410.308 467.82C409.654 467.453 408.921 467.252 408.172 467.235H408.116L406.546 467.257C405.609 467.273 404.706 467.616 403.993 468.225C403.396 468.763 402.621 469.06 401.817 469.06C401.014 469.06 400.239 468.763 399.641 468.225L399.492 468.091C399.445 468.047 399.404 467.997 399.37 467.942C399.308 467.842 399.223 467.758 399.122 467.698C399.021 467.637 398.907 467.603 398.789 467.596C398.671 467.59 398.554 467.612 398.447 467.661C398.34 467.709 398.246 467.783 398.174 467.876C392.596 475.196 389.714 485.839 390.271 497.074C390.42 500.65 393.65 504.771 399.479 505.736V505.73Z" fill="#0F0F0F"/>
<path d="M417.698 491.651C417.526 492.338 417.231 492.987 416.827 493.567C415.437 495.52 411.645 499.339 403.543 498.675C393.949 497.887 389.553 491.156 389.553 491.156C389.436 493.14 389.426 495.13 389.525 497.115C389.714 500.961 393.19 505.425 399.361 506.459C407.444 507.795 417.486 506.148 417.956 500.03L417.698 491.651Z" fill="white"/>
<path d="M404.649 507.599C402.838 507.599 401.03 507.453 399.243 507.16C392.661 506.07 389.008 501.301 388.806 497.152C388.707 495.14 388.716 493.124 388.834 491.113C388.842 490.961 388.898 490.816 388.993 490.698C389.089 490.581 389.219 490.497 389.366 490.458C389.513 490.42 389.669 490.43 389.811 490.486C389.953 490.542 390.074 490.641 390.156 490.77C390.196 490.832 394.508 497.217 403.602 497.965C411.172 498.588 414.772 495.218 416.24 493.156C416.594 492.649 416.851 492.081 416.998 491.48C417.043 491.313 417.146 491.167 417.288 491.069C417.431 490.971 417.603 490.927 417.775 490.944C417.948 490.962 418.108 491.043 418.226 491.171C418.344 491.299 418.411 491.465 418.416 491.639L418.674 500.005C418.675 500.031 418.675 500.057 418.674 500.083C418.534 501.877 417.676 503.41 416.118 504.634C413.41 506.752 408.983 507.599 404.649 507.599ZM390.193 493.09C390.162 494.42 390.193 495.754 390.246 497.08C390.42 500.65 393.666 504.771 399.479 505.736C404.764 506.615 411.7 506.26 415.229 503.487C416.445 502.531 417.119 501.36 417.234 500.002L417.063 494.452C415.45 496.467 411.424 500.039 403.484 499.395C396.46 498.818 392.151 495.212 390.193 493.09Z" fill="#0F0F0F"/>
<path d="M411.085 483.7H399.939C399.748 483.7 399.565 483.623 399.429 483.488C399.294 483.352 399.218 483.169 399.218 482.977C399.218 482.785 399.294 482.602 399.429 482.466C399.565 482.331 399.748 482.254 399.939 482.254H411.085C411.276 482.254 411.46 482.331 411.595 482.466C411.73 482.602 411.806 482.785 411.806 482.977C411.806 483.169 411.73 483.352 411.595 483.488C411.46 483.623 411.276 483.7 411.085 483.7Z" fill="#0F0F0F"/>
<path d="M412.245 478.034H401.096C400.913 478.022 400.742 477.94 400.617 477.807C400.492 477.673 400.422 477.496 400.422 477.313C400.422 477.129 400.492 476.953 400.617 476.819C400.742 476.685 400.913 476.604 401.096 476.592H412.245C412.427 476.604 412.599 476.685 412.724 476.819C412.849 476.953 412.918 477.129 412.918 477.313C412.918 477.496 412.849 477.673 412.724 477.807C412.599 477.94 412.427 478.022 412.245 478.034Z" fill="#0F0F0F"/>
<path d="M564.271 65.363C567.542 61.236 565.86 55.8319 567.275 51.2563C567.39 50.8857 567.499 50.4683 567.318 50.1288C567.138 49.7893 566.724 49.6429 566.351 49.5339C563.301 48.6399 560.171 47.7771 557 47.9765C556.408 47.9921 555.822 48.0971 555.262 48.288C554.453 48.596 553.776 49.1763 553.347 49.9294C553.036 50.5524 553.235 51.6426 553.312 52.2935C553.561 54.4053 552.604 55.8817 549.42 50.9417C546.236 46.0017 542.105 49.5588 543.973 51.3062C545.842 53.0535 549.202 60.0275 550.449 61.9586C550.9 62.6563 552.293 63.516 553.869 64.3071C553.912 70.91 552.622 77.4534 550.076 83.5439C546.221 92.6607 540.165 98.9307 535.153 102.952C539.244 110.116 548.161 121.855 563.444 123.821C567.981 114.772 570.412 104.812 570.555 94.687C570.698 84.5623 568.55 74.5367 564.271 65.363Z" fill="white"/>
<path d="M563.472 124.531H563.379C547.679 122.522 538.579 110.375 534.55 103.31C534.462 103.159 534.431 102.982 534.463 102.81C534.496 102.638 534.59 102.484 534.727 102.376C541.374 97.0309 546.317 90.5958 549.423 83.2513C551.881 77.3892 553.149 71.0954 553.154 64.7372C550.779 63.4912 550.12 62.7811 549.833 62.3388C549.423 61.7158 548.801 60.5603 548.083 59.2396C546.638 56.5765 544.663 52.9291 543.473 51.8203C543.171 51.551 542.955 51.1997 542.849 50.8093C542.744 50.4188 542.754 50.006 542.879 49.6212C543.071 49.1088 543.402 48.6598 543.834 48.3244C544.266 47.9889 544.782 47.7801 545.326 47.7213C546.121 47.6153 548.167 47.6776 550.014 50.5245C551.519 52.8606 552.296 53.3745 552.544 53.4867C552.635 53.1155 552.649 52.7299 552.588 52.3529L552.554 52.0944C552.454 51.3375 552.321 50.3034 552.7 49.5714C553.21 48.6594 554.025 47.9568 555.001 47.5873C555.627 47.3695 556.284 47.2477 556.947 47.226C560.133 47.036 563.165 47.849 566.544 48.8208C566.917 48.9298 567.607 49.1322 567.943 49.7552C568.279 50.3781 568.067 51.0665 567.943 51.434C567.427 53.1098 567.346 54.8945 567.259 56.7852C567.125 59.7349 566.989 62.778 565.083 65.4193C573.601 84.0144 573.238 105.911 564.094 124.098C564.041 124.221 563.954 124.326 563.845 124.403C563.735 124.479 563.606 124.524 563.472 124.531ZM536.114 103.12C540.106 109.929 548.671 120.955 563.065 123.024C571.851 105.195 572.081 83.7776 563.622 65.6685C563.565 65.5469 563.543 65.4119 563.559 65.2787C563.575 65.1455 563.628 65.0194 563.712 64.9147C565.577 62.5568 565.705 59.738 565.841 56.754C565.928 54.8572 566.015 52.8917 566.588 51.0416C566.669 50.8623 566.703 50.6647 566.684 50.4685C566.65 50.4031 566.469 50.3221 566.149 50.2255C562.919 49.2911 560 48.5155 557.046 48.6868C556.527 48.7045 556.013 48.7968 555.52 48.9609C554.865 49.2084 554.316 49.675 553.965 50.2816C553.807 50.5931 553.922 51.459 553.984 51.9262L554.018 52.2065C554.192 53.6642 553.85 54.6235 553.061 54.907C551.972 55.3026 550.654 54.1999 548.804 51.3313C547.819 49.805 546.628 49.0108 545.515 49.1509C545.243 49.1731 544.981 49.2691 544.759 49.4288C544.536 49.5885 544.361 49.8057 544.253 50.0573C544.208 50.181 544.204 50.3157 544.24 50.4422C544.276 50.5686 544.351 50.6803 544.455 50.7612C545.814 52.0321 547.775 55.6421 549.348 58.5481C550.054 59.8439 550.66 60.9621 551.043 61.5539C551.189 61.7812 551.792 62.4385 554.198 63.6501C554.317 63.7097 554.417 63.8014 554.487 63.9147C554.557 64.028 554.593 64.1586 554.593 64.2917C554.647 70.9938 553.337 77.6365 550.744 83.815C547.626 91.2126 542.702 97.7037 536.108 103.12H536.114Z" fill="#0F0F0F"/>
<path d="M535.178 102.949C532.819 104.835 530.325 106.545 527.717 108.067C503.386 122.544 481.132 107.444 441.273 108.515C426.698 108.908 405.321 111.577 379.33 122.88C379.33 122.88 337.524 143.855 339.987 192.754C340.428 201.525 345.228 207.985 352.08 212.747C361.519 200.911 372.006 195.018 379.38 192.115C379.327 191.558 379.293 190.991 379.281 190.408C379.01 175.931 389.913 169.561 399.554 162.612C401.935 176.077 399.464 182.858 402.184 211.866C403.555 226.505 405.019 228.648 406.428 230.081C415.696 239.534 431.504 226.882 468.439 226.318C485.97 226.05 497.532 228.67 500.818 222.58C503.187 218.201 499.242 213.024 496.36 205.409C492.8 196.005 490.335 181.488 496.525 159.958C521.113 162.69 545.251 151.626 559.095 131.256C560.72 128.864 562.186 126.366 563.482 123.78C548.186 121.852 539.269 110.125 535.178 102.949Z" fill="white"/>
<path d="M415.599 234.314C411.691 234.314 408.579 233.317 405.905 230.576C404.273 228.91 402.812 226.359 401.457 211.922C400.446 201.571 399.963 191.175 400.011 180.774C399.992 174.448 399.98 169.773 399.025 163.855L397.505 164.936C388.775 171.115 379.75 177.504 379.992 190.38C379.992 190.916 380.033 191.455 380.089 192.031C380.104 192.187 380.068 192.343 379.986 192.477C379.904 192.61 379.781 192.713 379.635 192.769C372.512 195.572 362.048 201.391 352.634 213.183C352.519 213.326 352.355 213.42 352.173 213.446C351.992 213.472 351.808 213.428 351.658 213.323C343.845 207.891 339.673 200.976 339.259 192.766C337.972 167.262 348.844 149.44 358.19 138.977C368.306 127.649 378.892 122.267 378.998 122.214C399.775 113.181 420.707 108.322 441.245 107.774C456.758 107.356 469.614 109.381 480.949 111.162C498.67 113.966 512.66 116.146 527.337 107.425C529.923 105.928 532.396 104.244 534.737 102.385C534.818 102.32 534.912 102.273 535.013 102.248C535.114 102.223 535.219 102.22 535.321 102.239C535.423 102.258 535.52 102.299 535.605 102.359C535.689 102.42 535.76 102.497 535.812 102.588C539.708 109.418 548.49 121.164 563.572 123.092C563.686 123.107 563.795 123.148 563.89 123.214C563.985 123.28 564.063 123.367 564.117 123.469C564.171 123.571 564.2 123.684 564.202 123.8C564.203 123.915 564.177 124.029 564.125 124.132C562.812 126.741 561.331 129.262 559.692 131.679C545.758 152.181 521.803 163.291 497.05 160.756C492.287 177.669 492.281 192.607 497.05 205.169C497.812 207.181 498.636 208.991 499.428 210.741C501.633 215.588 503.374 219.416 501.468 222.942C498.85 227.782 491.815 227.561 481.166 227.224C477.402 227.103 473.133 226.969 468.463 227.041C452.061 227.29 439.597 229.99 430.494 231.959C424.428 233.267 419.597 234.314 415.599 234.314ZM399.545 161.889C399.637 161.889 399.729 161.907 399.815 161.942C399.928 161.988 400.027 162.062 400.104 162.157C400.18 162.252 400.232 162.364 400.253 162.484C401.419 169.078 401.432 173.99 401.45 180.787C401.404 191.141 401.886 201.492 402.893 211.797C404.202 225.745 405.551 228.165 406.934 229.576C411.791 234.529 418.708 233.03 430.171 230.548C439.33 228.564 451.874 225.851 468.411 225.595C473.117 225.524 477.398 225.661 481.179 225.779C491.292 226.091 497.967 226.312 500.168 222.253C501.723 219.36 500.202 215.996 498.085 211.352C497.321 209.663 496.45 207.751 495.673 205.695C490.748 192.691 490.798 177.245 495.816 159.787C495.863 159.623 495.966 159.482 496.107 159.387C496.248 159.292 496.418 159.251 496.587 159.27C521.017 161.98 544.738 151.106 558.486 130.879C559.902 128.793 561.197 126.627 562.363 124.391C547.794 122.073 539.089 111.01 534.973 104.033C532.778 105.739 530.473 107.3 528.074 108.705C512.955 117.7 498.732 115.461 480.725 112.626C469.452 110.854 456.668 108.836 441.285 109.253C420.931 109.798 400.179 114.61 379.607 123.556C379.539 123.593 369.161 128.879 359.225 140.018C350.078 150.274 339.44 167.739 340.699 192.732C341.078 200.272 344.858 206.68 351.934 211.781C361.218 200.366 371.449 194.554 378.609 191.657C378.578 191.243 378.559 190.841 378.55 190.439C378.295 176.797 387.637 170.193 396.672 163.786C397.493 163.204 398.313 162.624 399.125 162.039C399.246 161.946 399.393 161.894 399.545 161.889Z" fill="#0F0F0F"/>
<path d="M436.221 214.765L430.954 213.697C433.158 213.862 434.396 211.535 434.396 211.535L418.13 209.097L405.772 214.491C400.176 213.367 380.941 208.321 379.371 192.115C371.996 195.018 361.51 200.924 352.071 212.747C367.408 223.409 393.041 225.546 403.247 225.972C410.236 229.763 421.972 220.076 426.44 221.923C431.203 223.889 431.004 221.356 431.004 221.356L428.741 219.142C432.216 220.425 433.404 217.896 433.404 217.896L430.572 216.728C435.042 217.441 436.221 214.765 436.221 214.765Z" fill="white"/>
<path d="M407.074 227.586C405.682 227.613 404.303 227.304 403.055 226.686C392.602 226.237 367.044 224.035 351.658 213.339C351.577 213.283 351.508 213.21 351.456 213.126C351.404 213.042 351.37 212.948 351.356 212.85C351.342 212.752 351.348 212.652 351.375 212.557C351.401 212.461 351.446 212.372 351.508 212.296C361.121 200.257 371.822 194.311 379.11 191.427C379.211 191.388 379.319 191.373 379.427 191.383C379.535 191.392 379.639 191.427 379.731 191.483C379.827 191.541 379.907 191.62 379.966 191.715C380.026 191.81 380.062 191.917 380.073 192.028C381.569 207.471 399.753 212.495 405.675 213.725L417.825 208.43C417.95 208.378 418.086 208.361 418.22 208.38L434.486 210.816C434.6 210.834 434.708 210.879 434.801 210.947C434.894 211.015 434.97 211.104 435.021 211.208C435.073 211.311 435.099 211.425 435.098 211.541C435.097 211.656 435.068 211.77 435.014 211.872C434.659 212.496 434.193 213.049 433.637 213.504L436.348 214.052C436.454 214.074 436.553 214.119 436.639 214.184C436.725 214.249 436.796 214.332 436.845 214.428C436.895 214.524 436.922 214.63 436.925 214.738C436.929 214.846 436.908 214.953 436.864 215.052C436.824 215.145 436.09 216.74 433.845 217.345C433.938 217.423 434.01 217.524 434.054 217.637C434.089 217.728 434.106 217.825 434.103 217.923C434.1 218.02 434.077 218.116 434.035 218.204C433.73 218.791 433.274 219.285 432.715 219.638C432.157 219.99 431.515 220.188 430.855 220.21L431.476 220.833C431.602 220.955 431.678 221.119 431.691 221.294C431.708 221.613 431.645 221.931 431.509 222.22C431.373 222.508 431.167 222.759 430.911 222.948C429.962 223.639 428.399 223.521 426.135 222.587C424.503 221.911 421.313 223.21 417.934 224.577C414.421 226.016 410.556 227.586 407.074 227.586ZM353.122 212.591C368.356 222.749 393.196 224.829 403.278 225.25C403.387 225.255 403.494 225.285 403.589 225.337C407.301 227.349 412.68 225.166 417.424 223.241C421.242 221.683 424.537 220.356 426.717 221.254C429.148 222.26 429.916 221.911 430.096 221.783C430.157 221.738 430.205 221.678 430.236 221.609L428.237 219.656C428.12 219.54 428.047 219.388 428.028 219.224C428.01 219.061 428.047 218.896 428.135 218.757C428.223 218.617 428.355 218.513 428.511 218.459C428.666 218.406 428.835 218.407 428.989 218.463C430.715 219.086 431.722 218.662 432.251 218.207L430.292 217.401C430.13 217.332 429.998 217.207 429.92 217.048C429.843 216.889 429.826 216.708 429.872 216.538C429.919 216.367 430.028 216.219 430.177 216.123C430.326 216.028 430.506 215.991 430.681 216.021C432.953 216.379 434.237 215.79 434.915 215.236L430.811 214.404C430.635 214.364 430.48 214.26 430.377 214.111C430.274 213.962 430.231 213.78 430.255 213.601C430.28 213.422 430.371 213.258 430.51 213.143C430.649 213.027 430.827 212.968 431.007 212.978C431.4 212.989 431.791 212.914 432.152 212.757C432.513 212.601 432.836 212.367 433.096 212.071L418.226 209.841L406.058 215.155C405.923 215.214 405.773 215.23 405.629 215.202C399.821 214.027 381.012 209.009 378.768 193.137C371.81 196.008 362.032 201.668 353.122 212.591Z" fill="#0F0F0F"/>
<path d="M430.954 214.42C430.919 214.423 430.884 214.423 430.848 214.42L419.678 212.738C419.583 212.726 419.491 212.695 419.409 212.647C419.326 212.6 419.253 212.536 419.195 212.459C419.137 212.383 419.095 212.296 419.071 212.203C419.047 212.11 419.042 212.013 419.056 211.919C419.083 211.728 419.184 211.556 419.337 211.439C419.49 211.322 419.683 211.271 419.874 211.296L431.044 212.962C431.222 212.991 431.383 213.086 431.495 213.228C431.607 213.37 431.662 213.548 431.648 213.729C431.635 213.909 431.555 214.078 431.423 214.202C431.292 214.326 431.119 214.396 430.939 214.398L430.954 214.42Z" fill="#0F0F0F"/>
<path d="M430.569 217.453C430.53 217.456 430.492 217.456 430.454 217.453L420.328 215.852C420.139 215.822 419.971 215.718 419.859 215.564C419.747 215.409 419.701 215.216 419.731 215.027C419.761 214.838 419.865 214.669 420.019 214.557C420.174 214.445 420.366 214.399 420.555 214.429L430.674 216.033C430.857 216.057 431.024 216.15 431.14 216.293C431.256 216.436 431.312 216.619 431.298 216.803C431.284 216.987 431.199 217.158 431.062 217.281C430.926 217.405 430.747 217.471 430.562 217.466L430.569 217.453Z" fill="#0F0F0F"/>
<path d="M428.741 219.861C428.705 219.864 428.67 219.864 428.635 219.861L420.34 218.615C420.246 218.603 420.154 218.571 420.072 218.523C419.989 218.475 419.917 218.411 419.859 218.335C419.802 218.259 419.759 218.172 419.735 218.08C419.711 217.987 419.705 217.891 419.718 217.796C419.746 217.605 419.847 217.432 420.001 217.315C420.154 217.198 420.348 217.147 420.539 217.173L428.831 218.419C429.009 218.448 429.17 218.543 429.282 218.684C429.393 218.826 429.448 219.005 429.435 219.185C429.422 219.366 429.341 219.535 429.21 219.658C429.079 219.782 428.906 219.852 428.725 219.855L428.741 219.861Z" fill="#0F0F0F"/>
<path d="M431.955 58.8689L431.333 55.4427C431.333 55.4427 435.586 45.3135 452.393 47.687C457.52 47.7243 463.467 51.4589 464.804 60.3329C465.849 69.5557 469.953 78.4171 470.528 80.0991C471.103 81.7811 471.171 82.5006 469.906 82.9678C468.641 83.435 467.839 83.2357 467.347 84.6902C466.856 86.1448 466.16 86.855 464.975 87.2288C463.791 87.6025 458.254 90.3435 455.596 89.0696C452.937 87.7957 450.31 80.9401 450.593 78.358C450.876 75.7758 449.25 62.697 442.594 61.0555C435.938 59.414 431.955 58.8689 431.955 58.8689Z" fill="white"/>
<path d="M432.605 109.546L433.286 73.7979L456.006 89.4526L456.053 109.206C455.953 113.611 452.275 116.124 452.275 116.124C447.727 119.6 441.276 119.077 436.538 115.866L435.44 115.124C434.537 114.509 433.803 113.675 433.307 112.7C432.812 111.725 432.57 110.64 432.605 109.546Z" fill="white"/>
<path d="M444.929 119.255C441.784 119.219 438.721 118.243 436.134 116.451L435.039 115.71C434.032 115.03 433.214 114.105 432.662 113.021C432.111 111.937 431.844 110.731 431.887 109.515L432.565 73.7729C432.568 73.6425 432.606 73.5155 432.676 73.4053C432.745 73.295 432.843 73.2056 432.959 73.1465C433.075 73.0875 433.205 73.061 433.334 73.0698C433.464 73.0786 433.589 73.1224 433.696 73.1966L456.416 88.8514C456.512 88.9173 456.591 89.0056 456.645 89.1087C456.699 89.2118 456.727 89.3267 456.727 89.4432L456.771 109.2C456.665 113.938 452.844 116.604 452.682 116.713C450.448 118.392 447.722 119.286 444.929 119.255ZM433.979 75.1527L433.326 109.558C433.292 110.531 433.505 111.496 433.945 112.364C434.386 113.231 435.039 113.972 435.845 114.517L436.942 115.258C441.705 118.488 447.823 118.604 451.84 115.542C451.902 115.495 455.241 113.146 455.331 109.181L455.288 89.8232L433.979 75.1527Z" fill="#0F0F0F"/>
<path d="M467.584 85.3193C467.988 86.0208 468.345 86.7492 468.65 87.4996C469.353 89.2314 469.353 92.2247 469.654 95.4733C469.734 96.342 469.509 97.2115 469.017 97.9311C468.524 98.6507 467.796 99.1751 466.959 99.4135C456.295 102.401 450.332 100.379 448.044 97.9558C444.413 94.1122 446.573 86.8393 442.498 84.852C439.351 83.3165 436.469 86.8829 433.706 85.2663C430.942 83.6497 429.322 81.077 428.091 73.3274C427.78 71.4773 427.78 71.7701 427.261 69.7548C425.529 63.1765 425.486 63.4599 426.095 61.725C426.617 60.2361 427.183 56.922 433.718 56.5078C433.718 56.5078 443.16 54.5361 446.875 63.1702L467.584 85.3193Z" fill="white"/>
<path d="M457.299 101.634C451.168 101.634 448.398 99.3762 447.522 98.4449C445.656 96.4701 445.202 93.6949 444.801 91.2467C444.372 88.6365 444.002 86.3815 442.187 85.4969C440.872 84.8552 439.56 85.3006 438.17 85.7741C436.687 86.2818 435.005 86.8549 433.345 85.8862C430.102 83.9893 428.542 80.7313 427.382 73.4272C427.284 72.6706 427.127 71.9228 426.913 71.1908C426.825 70.8793 426.717 70.4993 426.567 69.9262L426.101 68.157C424.857 63.4257 424.795 63.2419 425.392 61.5413L425.417 61.4697C425.454 61.3669 425.492 61.2516 425.529 61.1333C426.089 59.4077 427.127 56.1995 433.634 55.7759C434.458 55.6295 443.794 54.1593 447.537 62.8682C447.575 62.9551 447.594 63.0485 447.596 63.1432C447.597 63.2378 447.58 63.3317 447.545 63.4197C447.51 63.5076 447.458 63.5878 447.392 63.6556C447.326 63.7235 447.248 63.7776 447.161 63.8151C447.074 63.8525 446.981 63.8724 446.887 63.8737C446.792 63.8751 446.698 63.8577 446.611 63.8227C446.523 63.7877 446.443 63.7358 446.375 63.6698C446.307 63.6038 446.253 63.5251 446.216 63.4382C442.774 55.4426 433.954 57.1806 433.867 57.2087C433.835 57.2171 433.801 57.2224 433.768 57.2242C428.2 57.5731 427.388 60.0867 426.9 61.5849C426.86 61.7188 426.816 61.8434 426.779 61.9587L426.754 62.0303C426.303 63.3105 426.303 63.3105 427.491 67.7957L427.96 69.5649C428.109 70.1318 428.215 70.4993 428.299 70.8108C428.53 71.5958 428.7 72.3977 428.806 73.2092C430.028 80.9088 431.663 83.2293 434.072 84.6372C435.164 85.2601 436.342 84.8739 437.707 84.4067C439.233 83.8865 440.968 83.2979 442.818 84.198C445.305 85.4097 445.771 88.2472 446.238 91.0131C446.623 93.3647 447.024 95.8005 448.585 97.4544C450.879 99.8839 456.864 101.488 466.781 98.7003C467.459 98.5106 468.048 98.0884 468.445 97.5076C468.843 96.9269 469.025 96.2245 468.958 95.5233C468.877 94.6574 468.818 93.8101 468.759 93.0003C468.606 90.82 468.476 88.92 468 87.752C467.709 87.0356 467.368 86.3404 466.98 85.6713C466.933 85.5895 466.902 85.4991 466.889 85.4053C466.876 85.3115 466.882 85.2161 466.906 85.1245C466.931 85.033 466.972 84.9471 467.03 84.8718C467.087 84.7964 467.158 84.7331 467.24 84.6855C467.322 84.6378 467.412 84.6067 467.506 84.594C467.599 84.5813 467.694 84.5872 467.786 84.6113C467.877 84.6355 467.963 84.6774 468.038 84.7348C468.113 84.7921 468.176 84.8637 468.224 84.9456C468.647 85.6723 469.017 86.4279 469.334 87.2069C469.897 88.5898 470.037 90.5864 470.198 92.9006C470.254 93.698 470.313 94.5359 470.391 95.3924C470.49 96.4304 470.222 97.4702 469.633 98.3299C469.044 99.1897 468.172 99.8148 467.17 100.096C463.175 101.229 459.929 101.634 457.299 101.634Z" fill="#0F0F0F"/>
<path d="M447.997 64.1641L448.806 67.6401L448.787 67.5747C449.257 68.998 449.644 70.4478 449.944 71.9167C450.223 73.3868 450.497 74.7947 450.802 76.2368L451.709 80.5445L452.166 82.7C452.322 83.4008 452.462 84.1857 452.623 84.8118C452.965 86.1137 453.652 87.2662 454.725 87.8922C455.798 88.5183 457.166 88.6647 458.521 88.5152C461.254 88.2037 463.99 87.017 466.424 85.6247L466.153 85.9144L467.397 83.544C467.447 83.448 467.518 83.3642 467.604 83.2985C467.689 83.2329 467.789 83.187 467.894 83.1641L468.992 82.9367L469.533 82.8214C469.649 82.7977 469.761 82.7578 469.866 82.7031C470.054 82.5928 470.203 82.4263 470.291 82.2268C470.38 82.0273 470.404 81.805 470.36 81.5911C470.255 81.2829 470.131 80.9812 469.99 80.6878L469.548 79.6475C469.256 78.9539 468.973 78.2552 468.7 77.5513C468.126 76.1561 467.639 74.7269 467.242 73.2716L466.688 71.0757L466.088 68.8954C465.712 67.4345 465.389 65.955 465.155 64.4568L464.994 63.3293L464.879 62.208C464.781 61.494 464.636 60.7875 464.444 60.0931C463.682 57.2898 462.457 54.5488 460.579 52.3809C459.655 51.3034 458.545 50.4013 457.302 49.7178C456.683 49.3854 456.032 49.1162 455.359 48.9142C454.669 48.7165 453.967 48.5635 453.258 48.4563C450.351 47.958 447.419 47.6247 444.528 47.8334C441.636 48.0421 438.817 48.8457 436.445 50.4155C434.064 52.038 432.111 54.2139 430.752 56.7572C430.708 56.8438 430.648 56.9208 430.574 56.9834C430.5 57.0461 430.414 57.0931 430.321 57.1218C430.228 57.1504 430.131 57.1601 430.035 57.1501C429.938 57.1402 429.845 57.1109 429.76 57.064C429.675 57.0171 429.6 56.9535 429.541 56.8771C429.481 56.8007 429.437 56.713 429.412 56.6192C429.387 56.5254 429.381 56.4276 429.394 56.3314C429.407 56.2352 429.44 56.1427 429.49 56.0595C430.957 53.3652 432.997 50.8796 435.633 49.1696C438.269 47.4596 441.369 46.5844 444.428 46.3663C447.475 46.2024 450.531 46.4328 453.519 47.0516C454.283 47.1833 455.038 47.3633 455.779 47.5904C456.534 47.8267 457.264 48.1398 457.955 48.5249C459.326 49.3036 460.543 50.3252 461.549 51.54C463.551 53.9445 464.786 56.835 465.55 59.7878C465.75 60.5378 465.897 61.3007 465.992 62.0709L466.088 63.1798L466.234 64.2731C466.446 65.7339 466.744 67.1822 467.096 68.6337C467.285 69.3501 467.459 70.0727 467.696 70.7767C467.932 71.4806 468.212 72.169 468.479 72.8604C469.048 74.234 469.517 75.6388 470.068 77.0186C470.338 77.707 470.618 78.3954 470.904 79.0775L471.342 80.1022C471.53 80.4803 471.684 80.8743 471.802 81.2796C471.916 81.8024 471.858 82.3479 471.638 82.8353C471.418 83.3228 471.047 83.7264 470.581 83.9864C470.355 84.1054 470.114 84.1944 469.866 84.2511L469.312 84.3663L468.215 84.5999L468.718 84.2168L467.493 86.5903C467.433 86.7076 467.342 86.8058 467.229 86.8737C465.925 87.6413 464.561 88.3018 463.15 88.8485C461.726 89.4186 460.235 89.8038 458.714 89.9947C457.181 90.1598 455.468 90.0539 453.985 89.1755C453.258 88.7369 452.638 88.1396 452.173 87.4282C451.731 86.7412 451.4 85.9885 451.193 85.198C450.985 84.4037 450.882 83.7372 450.708 83.0177L450.245 80.8622L449.337 76.5421C449.045 75.1093 448.768 73.6267 448.51 72.2095C448.231 70.7963 447.869 69.4007 447.428 68.0295V67.9703L446.592 64.4755C446.565 64.2944 446.607 64.1097 446.711 63.9587C446.814 63.8077 446.971 63.7017 447.149 63.6621C447.328 63.6226 447.515 63.6524 447.672 63.7456C447.83 63.8387 447.946 63.9883 447.997 64.1641Z" fill="#0F0F0F"/>
<path d="M447.394 75.81C447.394 75.81 444.68 67.4594 441.176 69.4964C437.673 71.5335 440.878 80.6472 447.394 75.81Z" fill="white"/>
<path d="M462.852 80.1365C462.482 80.1335 462.114 80.0811 461.757 79.9807C461.136 79.8094 460.592 79.2114 460.231 78.3019C459.541 76.5576 459.507 73.5332 461.475 70.2783C461.662 69.9908 461.906 69.7439 462.19 69.5524C462.475 69.3608 462.795 69.2285 463.132 69.1632C463.586 69.0684 464.055 69.0673 464.51 69.16C464.965 69.2526 465.396 69.4371 465.777 69.7021C466.89 70.4402 467.304 71.8824 467.04 74.0939C466.707 76.9345 465.92 78.738 464.639 79.6007C464.111 79.9551 463.488 80.1417 462.852 80.1365ZM463.822 70.5306C463.696 70.5303 463.571 70.5439 463.449 70.5711C463.153 70.6213 462.888 70.7856 462.712 71.0289C461.018 73.8322 461.008 76.324 461.565 77.7537C461.81 78.3766 462.081 78.5729 462.14 78.5884C462.42 78.688 462.718 78.7229 463.013 78.6906C463.308 78.6582 463.592 78.5594 463.844 78.4016C464.726 77.8066 465.342 76.2586 465.616 73.9257C465.902 71.5117 465.211 71.057 464.994 70.9075C464.65 70.6664 464.241 70.535 463.822 70.5306Z" fill="#0F0F0F"/>
<path d="M463.781 70.4837H463.741L444.823 69.4559C444.729 69.4511 444.636 69.4277 444.551 69.387C444.466 69.3464 444.389 69.2893 444.326 69.219C444.263 69.1487 444.214 69.0665 444.182 68.9773C444.151 68.8881 444.137 68.7935 444.142 68.699C444.154 68.5084 444.24 68.3301 444.382 68.2026C444.524 68.075 444.71 68.0083 444.901 68.0168L463.819 69.0416C464.01 69.0466 464.191 69.1274 464.323 69.2665C464.455 69.4055 464.526 69.5913 464.521 69.7829C464.516 69.9746 464.436 70.1564 464.297 70.2884C464.158 70.4204 463.973 70.4918 463.781 70.4868V70.4837Z" fill="#0F0F0F"/>
<path d="M470.724 79.635C470.555 79.6333 470.392 79.5722 470.263 79.4625C470.134 79.3527 470.048 79.2011 470.02 79.0343C469.991 78.8675 470.022 78.6959 470.107 78.5495C470.192 78.4031 470.325 78.2913 470.484 78.2334C471.078 77.8222 472.794 74.5517 471.818 71.8668C471.767 71.693 471.677 71.5333 471.554 71.3999C471.432 71.2665 471.281 71.163 471.112 71.0975C470.145 70.7268 468.541 71.3809 468.003 71.6675C467.919 71.7175 467.826 71.75 467.73 71.763C467.633 71.7759 467.534 71.7691 467.44 71.7428C467.346 71.7166 467.259 71.6715 467.182 71.6102C467.106 71.549 467.043 71.4729 466.997 71.3866C466.952 71.3003 466.924 71.2056 466.915 71.1081C466.907 71.0107 466.919 70.9126 466.949 70.8197C466.98 70.7269 467.029 70.6412 467.094 70.568C467.158 70.4947 467.237 70.4354 467.326 70.3935C467.577 70.2565 469.872 69.076 471.622 69.7457C471.985 69.885 472.312 70.103 472.581 70.3841C472.85 70.6652 473.053 71.0024 473.177 71.3716C473.997 73.6204 473.354 76.2088 472.48 77.8814C472.116 78.5791 471.547 79.4388 470.926 79.6132C470.86 79.6301 470.792 79.6374 470.724 79.635Z" fill="#0F0F0F"/>
<path d="M532.368 35.2654H527.082C525.424 35.2654 524.079 36.6125 524.079 38.2742V67.8831C524.079 69.5448 525.424 70.8919 527.082 70.8919H532.368C534.026 70.8919 535.371 69.5448 535.371 67.8831V38.2742C535.371 36.6125 534.026 35.2654 532.368 35.2654Z" fill="#0F0F0F"/>
<path d="M588.994 35.6204H583.444C581.786 35.6204 580.441 36.9675 580.441 38.6292V68.2381C580.441 69.8998 581.786 71.2469 583.444 71.2469H588.994C590.652 71.2469 591.997 69.8998 591.997 68.2381V38.6292C591.997 36.9675 590.652 35.6204 588.994 35.6204Z" fill="#0F0F0F"/>
<path d="M527.99 59.8469L587.731 59.8469V46.6653L527.99 46.6653V59.8469Z" fill="#0F0F0F"/>
<path d="M565.695 51.6116C565.614 51.7424 565.531 51.867 565.447 51.9885C563.13 55.2403 561.949 51.0727 562.08 48.9858C561.871 50.2317 562.303 51.4776 561.98 52.7422C561.657 54.0068 560.808 55.1842 559.418 54.6111C557.171 53.7047 557.699 50.319 557.531 48.4314C557.64 49.6462 557.696 50.7426 557.326 51.9324C557.105 52.6394 556.424 54.4803 555.517 53.9289C553.99 52.9945 554.298 49.3347 554.198 47.8209C554.258 49.177 554.046 50.5314 553.577 51.8047C552.681 54.1626 550.409 53.4275 550.12 51.1817C549.861 49.1665 548.773 45.2637 550.894 43.9524C551.558 43.5902 552.283 43.3537 553.033 43.2547C556.317 42.6106 559.671 42.4012 563.009 42.6317C567.626 43.0211 567.645 48.4594 565.695 51.6116Z" fill="white"/>
<path d="M560.093 55.4863C559.773 55.4829 559.456 55.4184 559.16 55.2963C558.773 55.1415 558.419 54.9108 558.122 54.6177C557.824 54.3247 557.587 53.9751 557.426 53.5894C557.191 54.0661 556.803 54.4501 556.325 54.6796C556.134 54.752 555.928 54.779 555.725 54.7585C555.522 54.738 555.326 54.6704 555.153 54.5612C554.532 54.1361 554.089 53.4961 553.909 52.764C553.288 53.7638 552.398 54.0535 551.686 53.9756C550.505 53.8355 549.588 52.7547 549.398 51.2845C549.361 50.973 549.302 50.6242 549.237 50.2442C548.867 48.042 548.304 44.7155 550.508 43.3481C551.247 42.9361 552.057 42.6677 552.896 42.557C556.243 41.9049 559.661 41.6954 563.062 41.934C565.381 42.1209 566.497 43.4073 567.026 44.4538C568.074 46.5252 567.778 49.6274 566.314 51.9978C566.227 52.1411 566.134 52.2812 566.04 52.4152C564.924 53.9725 563.951 54.0442 563.323 53.823C563.035 53.7128 562.777 53.5356 562.571 53.306C562.34 54.128 561.801 54.8288 561.066 55.262C560.764 55.4138 560.431 55.4907 560.093 55.4863ZM558.315 50.5027C558.371 52.2127 558.598 53.5147 559.689 53.957C559.8 54.0124 559.923 54.0412 560.048 54.0412C560.173 54.0412 560.295 54.0124 560.407 53.957C560.771 53.7732 561.107 53.2343 561.281 52.5522C561.399 51.9552 561.42 51.3431 561.343 50.7394C561.277 50.1125 561.285 49.4799 561.368 48.855C561.4 48.6743 561.5 48.5128 561.648 48.4034C561.795 48.2939 561.978 48.2447 562.16 48.2657C562.342 48.2867 562.509 48.3764 562.628 48.5165C562.746 48.6566 562.807 48.8367 562.798 49.0201C562.705 50.5089 563.305 52.2656 563.802 52.4463C563.957 52.4961 564.365 52.2532 564.859 51.5617C564.937 51.4527 565.011 51.3406 565.083 51.2222C566.277 49.2879 566.55 46.7089 565.736 45.0924C565.207 44.0489 564.268 43.4633 562.938 43.3574C559.661 43.1377 556.37 43.3471 553.148 43.9804C552.487 44.0646 551.848 44.2683 551.261 44.5815C549.883 45.4381 550.328 48.0794 550.639 50.0106C550.707 50.4124 550.769 50.783 550.81 51.107C550.925 51.9884 551.413 52.4993 551.839 52.5491C552.265 52.5989 552.628 52.2376 552.877 51.5679C553.319 50.3844 553.52 49.124 553.468 47.8614C553.461 47.6721 553.529 47.4877 553.657 47.3484C553.785 47.209 553.963 47.1259 554.152 47.117C554.246 47.1102 554.34 47.1224 554.429 47.1527C554.519 47.1831 554.601 47.231 554.671 47.2937C554.742 47.3564 554.799 47.4326 554.839 47.5178C554.88 47.603 554.903 47.6955 554.907 47.7897C554.926 48.1012 554.929 48.4625 554.935 48.8861C554.935 50.2286 554.982 52.7079 555.837 53.306C556.014 53.1658 556.35 52.6238 556.623 51.7486C556.749 51.3437 556.827 50.9256 556.857 50.5027C556.857 50.2504 556.857 50.0012 556.857 49.7645C556.857 49.3097 556.857 48.8768 556.816 48.5186C556.799 48.3282 556.859 48.1388 556.981 47.9922C557.103 47.8456 557.279 47.7537 557.469 47.7368C557.659 47.7199 557.848 47.7793 557.994 47.9019C558.141 48.0246 558.233 48.2005 558.249 48.3909C558.325 49.0921 558.347 49.7981 558.315 50.5027Z" fill="#0F0F0F"/>
<path d="M300.814 67.1759C319.131 67.1759 333.98 52.2991 333.98 33.9477C333.98 15.5963 319.131 0.719482 300.814 0.719482C282.497 0.719482 267.648 15.5963 267.648 33.9477C267.648 52.2991 282.497 67.1759 300.814 67.1759Z" fill="white"/>
<path d="M300.814 67.9017C294.112 67.9017 287.56 65.9105 281.987 62.1799C276.415 58.4493 272.071 53.147 269.506 46.9433C266.941 40.7396 266.27 33.9132 267.578 27.3274C268.885 20.7415 272.113 14.6921 276.852 9.94398C281.591 5.19587 287.63 1.96237 294.203 0.652371C300.777 -0.657629 307.59 0.0147103 313.782 2.58437C319.974 5.15403 325.267 9.50559 328.99 15.0888C332.714 20.672 334.702 27.236 334.702 33.9508C334.692 42.9521 331.118 51.5819 324.765 57.9468C318.412 64.3116 309.799 67.8918 300.814 67.9017ZM300.814 1.45149C294.397 1.45087 288.123 3.35693 282.787 6.92859C277.451 10.5002 273.292 15.5771 270.836 21.517C268.38 27.4569 267.738 33.9931 268.99 40.299C270.242 46.6048 273.332 52.397 277.87 56.9431C282.408 61.4891 288.19 64.5848 294.484 65.8386C300.778 67.0924 307.302 66.4479 313.231 63.9868C319.159 61.5257 324.226 57.3584 327.791 52.012C331.355 46.6656 333.257 40.3802 333.256 33.9508C333.247 25.3331 329.826 17.071 323.744 10.977C317.662 4.88312 309.416 1.45516 300.814 1.44526V1.45149Z" fill="#0F0F0F"/>
<path d="M300.998 50.6615C300.837 50.7623 300.651 50.8179 300.462 50.8223C300.272 50.8266 300.084 50.7797 299.919 50.6864C296.996 49.0512 283.441 40.8656 283.967 30.1602C284.53 18.8443 296.785 20.8159 299.822 26.3757C299.88 26.477 299.966 26.56 300.069 26.615C300.171 26.6701 300.288 26.6951 300.404 26.6872C300.519 26.682 300.631 26.6446 300.727 26.5791C300.823 26.5136 300.898 26.4227 300.945 26.3166C302.431 22.7408 307.225 20.1525 311.742 21.85C317.111 23.8746 322.586 37.2587 300.998 50.6615Z" fill="#0F0F0F"/>
<path d="M78.0621 428.68C78.0621 504.484 147.932 542.095 228.982 542.095C310.032 542.095 371.577 504.484 371.577 428.68C371.577 352.877 305.869 291.423 224.819 291.423C143.769 291.423 78.0621 352.877 78.0621 428.68Z" fill="white"/>
<path d="M228.982 542.818C187.239 542.818 149.502 532.729 122.722 514.411C93.0348 494.103 77.3315 464.457 77.3315 428.681C77.3315 352.6 143.49 290.697 224.807 290.697C306.124 290.697 372.285 352.593 372.285 428.681C372.285 464.812 358.037 494.458 331.089 514.396C305.969 532.991 270.657 542.818 228.982 542.818ZM224.819 292.145C144.298 292.145 78.7834 353.394 78.7834 428.681C78.7834 463.958 94.2597 493.193 123.552 513.218C150.093 531.374 187.543 541.372 228.998 541.372C316.508 541.372 370.871 498.193 370.871 428.681C370.855 353.394 305.344 292.145 224.819 292.145Z" fill="#0F0F0F"/>
<path d="M176.538 487.967C176.366 487.966 176.2 487.904 176.069 487.792C175.939 487.68 175.853 487.525 175.827 487.354C175.8 487.184 175.836 487.01 175.926 486.864C176.017 486.717 176.156 486.608 176.32 486.556C222.354 471.745 264.664 440.37 298.669 395.826C298.724 395.744 298.795 395.674 298.877 395.62C298.96 395.566 299.053 395.53 299.151 395.514C299.248 395.497 299.347 395.501 299.443 395.525C299.539 395.549 299.629 395.592 299.707 395.652C299.786 395.712 299.851 395.787 299.899 395.874C299.947 395.96 299.977 396.055 299.987 396.154C299.997 396.252 299.987 396.351 299.957 396.446C299.927 396.54 299.878 396.627 299.813 396.701C265.615 441.482 223.078 473.028 176.758 487.932C176.687 487.955 176.613 487.966 176.538 487.967Z" fill="#0F0F0F"/>
<path d="M185.693 496.513C185.525 496.512 185.363 496.452 185.234 496.343C185.106 496.234 185.019 496.084 184.99 495.918C184.96 495.752 184.99 495.581 185.073 495.434C185.156 495.287 185.287 495.175 185.445 495.115C217.417 483.357 247.269 463.946 274.174 437.417C274.24 437.344 274.32 437.285 274.409 437.244C274.498 437.203 274.595 437.181 274.694 437.178C274.792 437.176 274.89 437.194 274.981 437.231C275.072 437.268 275.155 437.324 275.224 437.394C275.293 437.464 275.347 437.548 275.382 437.639C275.418 437.731 275.434 437.83 275.43 437.928C275.427 438.026 275.403 438.123 275.361 438.212C275.318 438.301 275.258 438.38 275.184 438.445C248.136 465.12 218.107 484.643 185.958 496.47C185.873 496.502 185.784 496.516 185.693 496.513Z" fill="#0F0F0F"/>
<path d="M320.935 507.776C320.792 507.774 320.653 507.729 320.536 507.647C320.418 507.565 320.328 507.45 320.276 507.316C320.224 507.183 320.212 507.037 320.243 506.897C320.275 506.757 320.347 506.629 320.45 506.531C364.351 466.531 371.169 421.734 341.902 365.557C341.855 365.472 341.825 365.38 341.815 365.284C341.804 365.188 341.813 365.091 341.841 364.998C341.868 364.906 341.914 364.82 341.975 364.745C342.037 364.671 342.112 364.609 342.198 364.565C342.283 364.52 342.376 364.493 342.472 364.485C342.568 364.477 342.665 364.488 342.757 364.518C342.848 364.548 342.933 364.596 343.005 364.66C343.078 364.723 343.137 364.8 343.18 364.887C357.244 391.898 362.928 415.863 360.555 438.152C357.872 463.326 345.067 486.042 321.408 507.611C321.276 507.722 321.108 507.781 320.935 507.776Z" fill="#0F0F0F"/>
<path d="M65.8254 298.032C65.8254 298.032 55.5224 312.849 59.6914 325.492C59.6914 325.492 34.3288 331.535 28.2539 329.6L34.8542 321.437C40.3852 314.597 44.5665 306.765 47.1749 298.359L50.8838 286.411L65.8254 298.032Z" fill="white"/>
<path d="M31.736 330.684C30.4865 330.728 29.2373 330.591 28.0271 330.276C27.9152 330.241 27.8138 330.178 27.7315 330.094C27.6492 330.01 27.5886 329.908 27.5549 329.795C27.5212 329.682 27.5155 329.563 27.5381 329.448C27.5608 329.333 27.6113 329.225 27.6851 329.133L34.2853 320.969C39.7654 314.205 43.9041 306.453 46.4786 298.132L50.1844 286.184C50.2191 286.072 50.2803 285.971 50.3627 285.888C50.4451 285.806 50.5462 285.744 50.6574 285.709C50.7687 285.674 50.8867 285.667 51.0014 285.688C51.1161 285.709 51.2241 285.757 51.3161 285.829L66.2669 297.459C66.4122 297.573 66.5085 297.738 66.5363 297.92C66.564 298.102 66.5211 298.289 66.4162 298.44C66.3136 298.587 56.3681 313.117 60.3662 325.249C60.3973 325.344 60.4084 325.445 60.3987 325.545C60.3891 325.644 60.359 325.741 60.3102 325.828C60.2624 325.916 60.1967 325.992 60.1174 326.052C60.0381 326.112 59.947 326.155 59.8501 326.177C58.9547 326.395 40.8328 330.684 31.736 330.684ZM29.5411 329.127C36.0916 330.024 54.7857 325.863 58.7651 324.944C55.5225 313.572 63.015 301.019 64.8524 298.182L51.2539 287.592L47.8558 298.543C45.2273 307.041 41.001 314.956 35.4046 321.863L29.5411 329.127Z" fill="#0F0F0F"/>
<path d="M61.0408 318.362C61.0408 318.362 68.9158 335.381 66.8856 340.352C65.1757 344.542 20.348 363.402 5.63964 369.201C3.03746 370.226 0.27362 367.993 0.795921 365.239C2.09235 358.412 8.60867 344.43 33.8656 317.988C34.512 317.31 35.3331 316.825 36.238 316.586C37.1429 316.347 38.0962 316.363 38.9923 316.634L49.1212 319.698L46.8859 326.675L61.0408 318.362Z" fill="white"/>
<path d="M4.29654 370.179C3.29282 370.174 2.32251 369.817 1.55446 369.17C0.9639 368.689 0.515023 368.057 0.255964 367.34C-0.00309575 366.624 -0.062566 365.85 0.0839306 365.102C1.4643 357.817 8.3568 343.645 33.3495 317.49C34.0854 316.711 35.0231 316.153 36.0575 315.878C37.0919 315.603 38.1824 315.622 39.2067 315.933L49.3388 319.001C49.4301 319.029 49.515 319.074 49.5887 319.135C49.6623 319.196 49.7232 319.271 49.7678 319.356C49.8126 319.44 49.8401 319.533 49.8486 319.628C49.8572 319.723 49.8466 319.819 49.8175 319.91L48.1574 325.09L60.6957 317.73C60.782 317.679 60.8782 317.646 60.9778 317.635C61.0775 317.624 61.1784 317.634 61.274 317.664C61.3699 317.694 61.4586 317.744 61.5341 317.811C61.6096 317.877 61.6703 317.959 61.7123 318.051C62.5331 319.823 69.6588 335.493 67.5727 340.617C65.3684 346.012 6.50077 369.628 5.91007 369.861C5.39726 370.069 4.84964 370.177 4.29654 370.179ZM37.5124 317.135C36.9246 317.136 36.3432 317.256 35.8034 317.489C35.2636 317.722 34.7767 318.062 34.3724 318.49C9.63768 344.386 2.83845 358.278 1.49228 365.361C1.39597 365.855 1.43598 366.366 1.60799 366.839C1.77999 367.312 2.0775 367.729 2.46848 368.046C2.86284 368.38 3.34062 368.6 3.85054 368.683C4.36047 368.766 4.88329 368.708 5.3629 368.516C25.2756 360.688 64.8026 343.557 66.2203 340.078C67.7126 336.425 63.0305 324.539 60.7206 319.39L47.2558 327.298C47.1298 327.372 46.9845 327.406 46.8389 327.395C46.6934 327.384 46.5546 327.33 46.4408 327.238C46.3269 327.147 46.2434 327.023 46.2013 326.883C46.1592 326.743 46.1605 326.593 46.205 326.454L48.2164 320.178L38.787 317.322C38.3736 317.197 37.9441 317.134 37.5124 317.135Z" fill="#0F0F0F"/>
<path d="M24.5015 344.626C24.3208 344.626 24.1466 344.558 24.0134 344.436L16.5519 337.561C16.4823 337.497 16.426 337.42 16.3861 337.335C16.3463 337.249 16.3237 337.156 16.3196 337.061C16.3156 336.967 16.3302 336.872 16.3626 336.783C16.395 336.694 16.4445 336.613 16.5084 336.543C16.5723 336.473 16.6493 336.417 16.735 336.377C16.8206 336.337 16.9133 336.314 17.0077 336.31C17.1021 336.306 17.1964 336.321 17.2851 336.353C17.3739 336.386 17.4554 336.435 17.525 336.499L24.9865 343.371C25.0903 343.47 25.1623 343.597 25.1933 343.738C25.2243 343.878 25.2129 344.024 25.1605 344.158C25.1081 344.292 25.0172 344.407 24.8992 344.488C24.7813 344.57 24.6417 344.615 24.4984 344.616L24.5015 344.626Z" fill="#0F0F0F"/>
<path d="M28.913 338.979C28.7291 338.98 28.552 338.909 28.4187 338.782L21.6132 332.344C21.485 332.211 21.4128 332.033 21.4116 331.848C21.4104 331.662 21.4803 331.484 21.6068 331.349C21.7333 331.214 21.9067 331.132 22.0914 331.122C22.276 331.111 22.4576 331.172 22.5988 331.291L29.4135 337.717C29.5176 337.816 29.5896 337.944 29.6205 338.085C29.6514 338.225 29.6397 338.372 29.587 338.506C29.5342 338.64 29.4428 338.755 29.3243 338.836C29.2059 338.918 29.066 338.962 28.9223 338.963L28.913 338.979Z" fill="#0F0F0F"/>
<path d="M8.08317 362.785C7.91879 362.786 7.759 362.731 7.63028 362.628C7.50155 362.526 7.4116 362.382 7.37532 362.222C7.33905 362.061 7.35863 361.893 7.43082 361.745C7.50301 361.597 7.62348 361.478 7.77227 361.408L62.3092 336.026C62.3949 335.985 62.4879 335.961 62.5827 335.957C62.6775 335.952 62.7724 335.965 62.8619 335.997C62.9514 336.029 63.0338 336.078 63.1043 336.142C63.1748 336.206 63.2321 336.283 63.273 336.369C63.3138 336.454 63.3373 336.548 63.3422 336.643C63.3471 336.738 63.3333 336.833 63.3016 336.922C63.2698 337.012 63.2207 337.094 63.1572 337.165C63.0936 337.236 63.0167 337.293 62.931 337.334L8.39406 362.716C8.29717 362.763 8.19071 362.787 8.08317 362.785Z" fill="#0F0F0F"/>
<path d="M68.3592 472.549L67.3332 477.99C65.285 488.889 61.5718 499.407 56.3245 509.172L50.7595 519.522L83.9318 512.234L82.2592 506.895C79.6225 498.483 80.3103 489.379 84.1806 481.46L86.0117 477.722L68.3592 472.549Z" fill="white"/>
<path d="M50.7596 520.245C50.6359 520.243 50.5149 520.209 50.4082 520.146C50.3015 520.083 50.2126 519.994 50.1502 519.887C50.0877 519.78 50.0538 519.659 50.0516 519.535C50.0495 519.411 50.0791 519.289 50.1378 519.18L55.6997 508.829C60.9149 499.131 64.6051 488.685 66.64 477.859L67.6629 472.415C67.681 472.316 67.7197 472.222 67.7765 472.138C67.8332 472.055 67.9068 471.985 67.9924 471.932C68.0779 471.879 68.1736 471.845 68.2732 471.832C68.3729 471.818 68.4742 471.826 68.5707 471.854L86.2232 477.028C86.3243 477.057 86.4178 477.107 86.4972 477.176C86.5766 477.245 86.6399 477.331 86.6826 477.427C86.7253 477.524 86.7463 477.628 86.7443 477.733C86.7423 477.839 86.7172 477.942 86.6709 478.037L84.8397 481.775C81.033 489.528 80.3593 498.454 82.9588 506.693L84.6314 512.028C84.6634 512.125 84.6746 512.227 84.6645 512.328C84.6544 512.429 84.623 512.527 84.5726 512.615C84.5221 512.703 84.4536 512.78 84.3716 512.84C84.2896 512.9 84.1959 512.941 84.0967 512.963L50.9275 520.251C50.8715 520.256 50.8151 520.254 50.7596 520.245ZM68.9189 473.464L68.0422 478.137C65.9812 489.108 62.2428 499.695 56.9588 509.524L52.14 518.488L83.0086 511.695L81.5691 507.113C78.8637 498.525 79.5675 489.223 83.534 481.142L84.9858 478.174L68.9189 473.464Z" fill="#0F0F0F"/>
<path d="M93.4452 513.536C91.297 510.25 88.0419 505.294 83.8915 499.012C83.6815 498.695 83.3992 498.433 83.0679 498.247C82.7366 498.062 82.366 497.958 81.9867 497.944C81.6073 497.931 81.2303 498.008 80.8868 498.17C80.5433 498.332 80.2433 498.573 80.0115 498.875L70.007 509.574L69.18 501.703L57.677 503.768C57.0431 503.881 56.438 504.12 55.8969 504.47C55.3557 504.819 54.8893 505.273 54.5245 505.805C50.1347 512.178 34.7144 535.277 30.9246 550.573C29.9639 554.445 33.8221 557.737 37.4533 556.114C48.3968 551.202 72.4164 537.756 92.2141 521.6C93.3782 520.646 94.1483 519.294 94.3757 517.805C94.6031 516.315 94.2716 514.794 93.4452 513.536Z" fill="white"/>
<path d="M35.5133 557.26C34.2417 557.259 33.011 556.809 32.0376 555.99C31.2394 555.325 30.6457 554.447 30.3254 553.458C30.0051 552.469 29.9714 551.409 30.2282 550.402C34.0273 535.068 49.3325 512.09 53.9338 505.397C54.3517 504.785 54.8874 504.264 55.5094 503.862C56.1314 503.461 56.8271 503.189 57.5557 503.061L69.0587 500.996C69.1552 500.978 69.2542 500.981 69.3496 501.003C69.445 501.026 69.5349 501.067 69.6137 501.126C69.6925 501.184 69.7587 501.258 69.8081 501.342C69.8576 501.427 69.8893 501.521 69.9013 501.619L70.5635 507.917L79.4923 498.37C79.7883 497.986 80.1725 497.681 80.6121 497.478C81.0517 497.276 81.5336 497.183 82.0168 497.208C82.5127 497.222 82.9979 497.356 83.431 497.598C83.8641 497.841 84.2322 498.184 84.5039 498.6C88.6574 504.883 91.9094 509.841 94.0608 513.128C94.9921 514.535 95.3676 516.239 95.1141 517.909C94.8607 519.578 93.9966 521.094 92.6897 522.16C72.777 538.407 48.9346 551.751 37.7673 556.775C37.0588 557.095 36.2905 557.26 35.5133 557.26ZM68.5426 502.553L57.8075 504.484C57.2667 504.579 56.7503 504.781 56.2885 505.078C55.8267 505.376 55.4289 505.762 55.1183 506.216C50.5544 512.847 35.3672 535.653 31.6272 550.757C31.4356 551.501 31.4596 552.285 31.6963 553.017C31.9331 553.748 32.3728 554.397 32.964 554.887C33.5344 555.378 34.234 555.694 34.9789 555.796C35.7239 555.899 36.4826 555.785 37.1642 555.466C48.2631 550.483 71.9625 537.211 91.7664 521.048C92.7948 520.208 93.4745 519.015 93.6734 517.701C93.8722 516.386 93.5759 515.045 92.8421 513.937C90.6938 510.654 87.4419 505.696 83.2883 499.416C83.1436 499.194 82.9472 499.01 82.716 498.88C82.4848 498.751 82.2257 498.679 81.9608 498.672C81.6965 498.663 81.4338 498.717 81.1944 498.83C80.955 498.943 80.7456 499.11 80.5835 499.32L70.5324 510.075C70.4379 510.176 70.3165 510.248 70.1826 510.282C70.0487 510.316 69.9079 510.31 69.7769 510.266C69.6459 510.222 69.5303 510.142 69.4438 510.034C69.3572 509.926 69.3034 509.795 69.2888 509.658L68.5426 502.553Z" fill="#0F0F0F"/>
<path d="M36.4647 550.2C36.2995 550.199 36.1393 550.142 36.011 550.038C35.8827 549.934 35.794 549.789 35.7598 549.627C35.7256 549.465 35.7479 549.296 35.823 549.148C35.8981 549.001 36.0215 548.884 36.1724 548.817C50.5855 542.447 88.7134 515.866 89.0989 515.598C89.1761 515.537 89.2649 515.493 89.3598 515.468C89.4546 515.443 89.5536 515.437 89.6506 515.452C89.7477 515.466 89.8407 515.501 89.9241 515.552C90.0074 515.604 90.0794 515.673 90.1355 515.753C90.1916 515.834 90.2307 515.925 90.2505 516.021C90.2702 516.118 90.2701 516.217 90.2502 516.313C90.2303 516.409 90.1909 516.501 90.1347 516.581C90.0784 516.662 90.0063 516.73 89.9228 516.781C89.5373 517.049 51.2943 543.712 36.76 550.137C36.667 550.178 36.5664 550.2 36.4647 550.2Z" fill="#0F0F0F"/>
<path d="M52.1585 532.128C52.0638 532.128 51.97 532.109 51.8825 532.073C51.795 532.036 51.7155 531.983 51.6487 531.916L43.4659 523.693C43.3361 523.556 43.2647 523.374 43.267 523.186C43.2693 522.997 43.3451 522.817 43.4782 522.684C43.6113 522.55 43.7912 522.474 43.9794 522.472C44.1677 522.47 44.3494 522.541 44.4857 522.671L52.6684 530.894C52.7736 530.995 52.8461 531.124 52.8764 531.267C52.9068 531.409 52.8935 531.557 52.8384 531.692C52.7833 531.826 52.689 531.941 52.5676 532.021C52.4463 532.101 52.3037 532.143 52.1585 532.14V532.128Z" fill="#0F0F0F"/>
<path d="M56.8189 526.677C56.7236 526.677 56.6292 526.659 56.5411 526.623C56.4531 526.586 56.3731 526.533 56.3059 526.465L47.6382 517.672C47.5169 517.534 47.4529 517.354 47.4593 517.17C47.4657 516.986 47.5419 516.812 47.6725 516.682C47.803 516.552 47.978 516.478 48.1617 516.473C48.3455 516.468 48.524 516.534 48.661 516.657L57.3318 525.459C57.4307 525.561 57.4976 525.689 57.5241 525.828C57.5506 525.968 57.5355 526.112 57.4808 526.243C57.4261 526.374 57.3342 526.485 57.2165 526.564C57.0987 526.643 56.9605 526.686 56.8189 526.686V526.677Z" fill="#0F0F0F"/>
<path d="M219.348 254.765C218.247 252.878 160.368 187.605 135.422 185.73C104.886 183.434 61.1184 220.733 45.3841 290.529C45.1559 291.526 45.2095 292.568 45.539 293.537C45.8685 294.506 46.4608 295.363 47.2495 296.014L61.1278 302.324C61.7052 302.796 62.3728 303.145 63.0897 303.349C63.8065 303.553 64.5575 303.609 65.2964 303.511C66.0353 303.414 66.7466 303.167 67.3867 302.784C68.0267 302.402 68.5819 301.892 69.0182 301.287C79.3555 286.912 110.989 245.221 126.649 249.894C137.194 253.039 172.863 321.907 172.863 321.907L255.01 298.082L219.348 254.765Z" fill="#0F0F0F"/>
<path d="M82.6261 485.179L68.925 480.469C67.6022 480.017 66.4709 479.13 65.7146 477.952C64.9584 476.774 64.6216 475.375 64.759 473.981C66.4285 457.065 65.7694 421.286 90.5134 380.118C119.871 331.279 187.012 295.204 187.012 295.204L207.531 260.191L270.328 293.098C270.328 293.098 275.483 323.184 258.48 339.047C241.477 354.911 174.147 373.886 153.749 391.602C133.351 409.319 131.11 404.351 126.391 425.774C121.842 446.503 115.839 458.679 88.8626 483.861C88.0385 484.624 87.0236 485.15 85.9256 485.382C84.8277 485.614 83.6875 485.544 82.6261 485.179Z" fill="#0F0F0F"/>
<path d="M142.293 324.274C142.142 324.275 141.995 324.228 141.872 324.14C141.749 324.053 141.657 323.929 141.609 323.786C141.56 323.643 141.558 323.488 141.602 323.344C141.646 323.199 141.734 323.073 141.854 322.981C156.233 311.939 171.038 302.38 185.855 294.565C185.939 294.515 186.033 294.483 186.13 294.47C186.226 294.458 186.325 294.465 186.419 294.492C186.513 294.518 186.601 294.564 186.677 294.625C186.753 294.687 186.815 294.764 186.861 294.85C186.907 294.937 186.934 295.032 186.942 295.129C186.95 295.227 186.938 295.325 186.906 295.418C186.875 295.511 186.825 295.596 186.76 295.669C186.695 295.742 186.615 295.801 186.527 295.842C171.781 303.629 157.048 313.135 142.731 324.127C142.605 324.223 142.451 324.275 142.293 324.274Z" fill="white"/>
<path d="M209.573 61.4198C208.401 61.5849 206.178 60.8779 203.825 59.9123C199.916 63.2987 196.383 67.0978 193.289 71.2438C192.605 71.0101 184.829 64.7869 181.475 59.2551C186.104 57.0747 187.332 53.879 192.922 49.699C194.684 48.3815 196.457 42.2423 197.896 40.0806C199.929 37.0344 201.938 35.259 205.852 34.5893C208.479 34.1377 211.417 34.5488 213.344 36.3959C214.014 37.0889 214.601 37.8584 215.092 38.6883L218.511 43.9647C219.108 44.8992 219.727 45.8928 219.68 46.9923C219.609 48.6119 206.122 56.6231 216.438 55.1374C224.739 53.9413 230.319 59.6444 226.697 59.2675C223.075 58.8906 212.806 60.9588 209.573 61.4198Z" fill="white"/>
<path d="M193.289 71.9664C193.209 71.9672 193.13 71.9535 193.055 71.9259C192.154 71.6145 184.26 65.2417 180.875 59.6289C180.823 59.5423 180.79 59.4459 180.777 59.3457C180.765 59.2456 180.774 59.144 180.803 59.0475C180.833 58.9509 180.882 58.8616 180.948 58.7853C181.013 58.7089 181.094 58.6472 181.185 58.6041C183.673 57.4236 185.131 55.9504 186.962 54.0909C188.673 52.2804 190.529 50.6137 192.511 49.1073C193.41 48.4345 194.507 45.8212 195.387 43.7218C196.065 42.1115 196.702 40.5884 197.318 39.6727C199.342 36.6358 201.459 34.6081 205.752 33.8699C209.001 33.3123 211.97 34.0381 213.863 35.8633C214.578 36.5952 215.204 37.4085 215.729 38.2866L219.149 43.563C219.718 44.4414 220.495 45.6405 220.436 47.0141C220.402 47.7773 219.581 48.5341 217.243 50.5027C215.909 51.6271 213.459 53.6891 213.313 54.4522C213.484 54.5332 214.159 54.7294 216.369 54.4117C222.565 53.5209 227.167 56.2214 228.252 57.8659C228.743 58.6073 228.563 59.1336 228.413 59.3828C228.102 59.8687 227.533 60.0681 226.647 59.9777C223.983 59.6974 217.386 60.8281 213.021 61.5756C211.653 61.8123 210.472 62.0148 209.694 62.1238C208.578 62.2827 206.71 61.8279 203.986 60.7377C200.248 64.0172 196.863 67.6793 193.885 71.6643C193.818 71.7594 193.728 71.8366 193.624 71.8892C193.52 71.9419 193.405 71.9684 193.289 71.9664ZM182.525 59.5417C185.544 64.1141 191.349 69.0199 193.096 70.2814C196.133 66.3044 199.571 62.6513 203.355 59.3797C203.456 59.2926 203.58 59.2352 203.711 59.2137C203.843 59.1923 203.978 59.2077 204.101 59.2582C207.599 60.6941 208.973 60.7907 209.474 60.7159C210.229 60.61 211.404 60.4045 212.76 60.1771C217.199 59.414 223.912 58.2677 226.778 58.5637C226.856 58.5637 226.921 58.5637 226.977 58.5637C226.175 57.4579 222.056 55.0596 216.556 55.8507C213.758 56.2525 212.387 56.0189 211.961 55.0658C211.339 53.7077 213.204 52.0227 216.313 49.4063C217.358 48.5279 218.779 47.3318 218.993 46.9145C218.993 46.0922 218.521 45.273 217.936 44.3697L214.516 39.0933C214.055 38.3053 213.504 37.5737 212.875 36.913C211.32 35.4304 208.759 34.8261 206.001 35.2996C202.193 35.9537 200.371 37.6886 198.512 40.4918C197.974 41.2986 197.361 42.7594 196.715 44.3043C195.617 46.9145 194.582 49.3782 193.369 50.2878C191.447 51.747 189.646 53.3606 187.985 55.1125C186.3 56.8163 184.823 58.3145 182.525 59.5417Z" fill="#0F0F0F"/>
<path d="M304.815 307.563C304.815 307.563 302.151 340.041 310.772 340.072C333.707 340.159 359.931 348.089 354.297 339.013C347.93 328.775 332.373 326.096 324.296 325.398C323.679 325.342 323.081 325.153 322.544 324.843C322.007 324.533 321.543 324.109 321.185 323.603C320.827 323.096 320.582 322.517 320.469 321.907C320.356 321.296 320.376 320.668 320.528 320.066L324.262 305.162L304.815 307.563Z" fill="white"/>
<path d="M349.572 344.087C346.217 344.087 341.467 343.545 335.187 342.785C327.607 341.85 319.02 340.826 310.769 340.795C310.176 340.785 309.592 340.649 309.055 340.395C308.519 340.141 308.043 339.775 307.66 339.321C302.064 333.21 304.013 308.554 304.1 307.504C304.114 307.34 304.183 307.186 304.296 307.066C304.409 306.947 304.559 306.87 304.722 306.847L324.181 304.445C324.296 304.432 324.412 304.447 324.521 304.488C324.629 304.529 324.725 304.596 324.803 304.682C324.881 304.77 324.936 304.875 324.963 304.989C324.991 305.103 324.99 305.222 324.961 305.336L321.206 320.24C321.078 320.745 321.061 321.271 321.157 321.783C321.254 322.295 321.46 322.779 321.762 323.202C322.058 323.621 322.442 323.971 322.886 324.226C323.331 324.481 323.826 324.635 324.336 324.679C332.97 325.426 348.421 328.233 354.888 338.633C355.855 340.19 356.032 341.414 355.423 342.371C354.652 343.607 352.73 344.087 349.572 344.087ZM305.49 308.208C305.226 312.011 303.988 333.182 308.717 338.343C308.967 338.651 309.28 338.9 309.635 339.074C309.991 339.248 310.38 339.342 310.775 339.349C319.107 339.384 327.741 340.43 335.361 341.352C344.439 342.452 353.016 343.492 354.219 341.598C354.565 341.056 354.114 340.1 353.675 339.396C347.541 329.528 332.591 326.84 324.224 326.118C323.506 326.055 322.81 325.837 322.184 325.479C321.558 325.12 321.017 324.629 320.599 324.04C320.177 323.446 319.889 322.767 319.755 322.05C319.621 321.333 319.644 320.595 319.822 319.888L323.329 306.006L305.49 308.208Z" fill="#0F0F0F"/>
<path d="M268.04 169.754V169.798C243.15 155.716 215.163 158.771 206.026 160.298C189.123 157.806 156.255 143.705 199.261 67.2724L187.733 51.1504C187.733 51.1504 70.0163 164.319 190.817 214.856L189.085 226.614C223.669 268.844 275.103 325.149 281.421 299.116C284.934 284.66 284.455 265.122 283.336 250.597C297.976 272.105 302.272 294.749 301.417 312.893C301.417 312.936 301.417 313.023 301.417 313.023L325.148 313.438C325.148 313.438 325.204 313.297 325.254 313.145C357.241 214.055 268.04 169.754 268.04 169.754Z" fill="white"/>
<path d="M325.148 314.148L301.417 313.734C301.321 313.732 301.226 313.711 301.138 313.672C301.049 313.633 300.97 313.577 300.904 313.506C300.838 313.435 300.787 313.352 300.753 313.261C300.719 313.17 300.704 313.074 300.708 312.977V312.858C301.274 300.838 299.832 277.444 284.265 253.289C285.198 267.168 285.478 285.523 282.133 299.287C281.178 303.221 279.17 305.564 276.17 306.249C259.475 310.071 214.094 258.282 188.535 227.072C188.47 226.994 188.423 226.904 188.396 226.807C188.37 226.709 188.364 226.608 188.38 226.508L190.027 215.295C158.966 202.179 141.009 183.674 136.65 160.288C131.657 133.501 145.7 105.098 158.357 85.9765C172.036 65.3194 187.089 50.7579 187.239 50.6147C187.313 50.5427 187.402 50.4877 187.5 50.4533C187.597 50.4189 187.701 50.4059 187.804 50.4153C187.908 50.4261 188.009 50.4595 188.099 50.5133C188.188 50.5671 188.265 50.64 188.324 50.7268L199.852 66.8488C199.932 66.9605 199.978 67.0928 199.986 67.2302C199.994 67.3676 199.962 67.5043 199.895 67.6243C180.287 102.475 174.256 128.11 181.963 143.858C187.248 154.647 197.936 158.357 206.02 159.566C214.392 158.18 242.994 154.894 268.18 169.047C268.243 169.056 268.304 169.076 268.36 169.106C268.584 169.215 291.018 180.522 309.211 203.842C319.903 217.547 327.072 232.669 330.514 248.778C334.813 268.906 333.275 290.631 325.941 313.354C325.882 313.534 325.816 313.699 325.816 313.699C325.762 313.832 325.669 313.945 325.55 314.025C325.431 314.105 325.291 314.148 325.148 314.148ZM302.17 312.304L324.638 312.693C340.941 261.954 324.657 226.006 308.108 204.776C291.083 182.929 270.303 171.738 267.94 170.514C267.85 170.502 267.764 170.473 267.685 170.427C242.745 156.317 214.277 159.653 206.144 161.011C206.07 161.023 205.994 161.023 205.92 161.011C197.483 159.765 186.25 155.9 180.669 144.503C172.77 128.362 178.739 102.401 198.409 67.3253L187.637 52.2624C177.2 62.8713 167.79 74.4477 159.535 86.8361C147.034 105.727 133.159 133.763 138.061 160.058C142.349 183.063 160.194 201.285 191.094 214.214C191.241 214.275 191.364 214.384 191.443 214.524C191.522 214.663 191.552 214.825 191.529 214.983L189.844 226.427C232.859 278.911 264.222 307.492 275.843 304.841C278.302 304.28 279.885 302.349 280.727 298.948C284.253 284.439 283.703 264.686 282.624 250.669C282.61 250.51 282.649 250.351 282.735 250.216C282.821 250.082 282.95 249.98 283.1 249.927C283.25 249.874 283.414 249.872 283.565 249.923C283.717 249.973 283.847 250.072 283.936 250.205C300.883 275.086 302.68 299.555 302.17 312.304Z" fill="#0F0F0F"/>
<path d="M193.783 197.812C193.709 197.813 193.635 197.801 193.565 197.778C193.475 197.75 193.391 197.704 193.319 197.643C193.246 197.583 193.186 197.508 193.142 197.424C193.099 197.34 193.072 197.248 193.064 197.154C193.056 197.059 193.067 196.964 193.096 196.874L201.49 170.165C201.553 169.99 201.682 169.845 201.849 169.763C202.016 169.68 202.209 169.665 202.386 169.721C202.564 169.778 202.713 169.901 202.802 170.065C202.891 170.229 202.913 170.421 202.864 170.601L194.47 197.307C194.424 197.454 194.332 197.581 194.209 197.672C194.085 197.763 193.936 197.812 193.783 197.812Z" fill="#0F0F0F"/>
<path d="M266.056 289.426C265.948 289.424 265.842 289.399 265.745 289.351C265.434 289.208 235.76 274.382 218.521 240.001C218.472 239.916 218.441 239.822 218.43 239.724C218.419 239.626 218.428 239.528 218.456 239.434C218.484 239.34 218.531 239.252 218.594 239.177C218.658 239.102 218.735 239.04 218.823 238.996C218.91 238.952 219.006 238.927 219.104 238.921C219.202 238.915 219.3 238.929 219.392 238.963C219.484 238.996 219.569 239.048 219.64 239.115C219.712 239.182 219.769 239.263 219.808 239.353C236.82 273.279 266.084 287.912 266.38 288.056C266.525 288.127 266.642 288.246 266.711 288.393C266.781 288.539 266.799 288.705 266.764 288.864C266.728 289.022 266.64 289.164 266.513 289.266C266.387 289.368 266.231 289.424 266.069 289.426H266.056Z" fill="#0F0F0F"/>
<path d="M234.336 51.3386L210.755 69.4277C209.438 70.4379 209.188 72.3264 210.196 73.6458L213.436 77.8847C214.444 79.2041 216.329 79.4548 217.646 78.4445L241.227 60.3554C242.544 59.3452 242.795 57.4567 241.786 56.1372L238.547 51.8984C237.538 50.579 235.653 50.3283 234.336 51.3386Z" fill="#0F0F0F"/>
<path d="M199.49 6.3261L175.909 24.4152C174.592 25.4254 174.342 27.314 175.35 28.6334L178.754 33.0874C179.762 34.4068 181.647 34.6575 182.964 33.6472L206.546 15.5581C207.863 14.5479 208.113 12.6594 207.104 11.3399L203.7 6.88592C202.692 5.56651 200.807 5.31587 199.49 6.3261Z" fill="#0F0F0F"/>
<path d="M232.164 62.3658L195.698 14.6501L185.209 22.6959L221.675 70.4116L232.164 62.3658Z" fill="#0F0F0F"/>
<path d="M202.491 33.767C202.407 33.9912 202.329 34.2155 202.261 34.4397C200.424 40.445 208.016 35.7978 210.49 33.6424C209.129 35.097 205.901 37.8815 204.636 39.4981C203.371 41.1147 202.712 43.2981 204.736 44.4973C208.019 46.4471 212.297 41.0119 214.812 39.4171C213.192 40.445 211.208 42.9555 210.08 44.5565C209.408 45.4909 207.764 48.1197 209.318 48.7302C211.939 49.7488 217.874 44.7091 219.857 43.3853C218.123 44.6312 214.958 47.3192 213.832 49.1414C211.749 52.5115 214.843 54.6545 217.918 52.8791C220.675 51.2719 226.573 48.9109 226.187 44.9988C226.072 43.8151 225.566 42.7156 225.012 41.6566C222.628 36.9627 219.761 32.4961 216.242 28.5747C211.358 23.1394 204.568 28.3161 202.491 33.767Z" fill="white"/>
<path d="M215.682 54.2402C215.231 54.2528 214.781 54.1734 214.361 54.0069C213.941 53.8404 213.559 53.5902 213.239 53.2715C212.166 52.1658 212.16 50.4683 213.22 48.7614C213.245 48.7178 213.273 48.6773 213.301 48.6337C211.659 49.4591 210.192 49.8422 209.057 49.403C208.813 49.3142 208.593 49.1693 208.415 48.98C208.237 48.7907 208.105 48.5622 208.031 48.3129C207.72 47.2974 208.342 45.9394 209.048 44.8056C207.493 45.6684 205.886 46.0204 204.384 45.1171C203.981 44.8967 203.631 44.5908 203.358 44.2206C203.085 43.8505 202.897 43.4251 202.805 42.9742C202.584 41.7999 203.051 40.3671 204.083 39.0496C204.473 38.5661 204.888 38.1034 205.326 37.6635C204.083 38.1401 202.889 38.3051 202.106 37.7974C201.213 37.215 201.039 36.0158 201.583 34.2279C201.658 33.9881 201.739 33.7483 201.829 33.5084C203.337 29.5371 206.803 26.3102 210.242 25.6655C212.685 25.2045 214.952 26.0424 216.792 28.0856C220.314 32.088 223.297 36.5353 225.665 41.314C226.228 42.4197 226.791 43.6127 226.909 44.9115C227.279 48.6929 222.926 51.0009 219.758 52.6984C219.217 52.9881 218.717 53.2528 218.291 53.4989C217.502 53.9722 216.602 54.2279 215.682 54.2402ZM219.854 42.672C220.007 42.672 220.156 42.7204 220.279 42.8102C220.402 42.9 220.494 43.0267 220.541 43.172C220.588 43.3174 220.588 43.4739 220.54 43.6191C220.493 43.7643 220.401 43.8907 220.277 43.9802C218.536 45.2261 215.477 47.855 214.445 49.5276C213.755 50.6458 213.689 51.6706 214.274 52.2717C214.858 52.8729 216.105 53.0909 217.554 52.2499C217.995 51.9914 218.511 51.7173 219.071 51.4214C221.888 49.9263 225.746 47.8799 225.472 45.061C225.367 44.0114 224.891 43.0022 224.369 41.9774C221.826 36.9689 218.912 32.6332 215.707 29.0606C214.206 27.3817 212.452 26.7214 210.493 27.0983C207.565 27.6496 204.481 30.5681 203.166 34.0379C203.085 34.2456 203.013 34.4532 202.951 34.6609C202.575 35.8819 202.678 36.4674 202.877 36.5983C203.781 37.1869 207.73 35.0969 210.027 33.1066C210.167 32.9913 210.346 32.9332 210.527 32.9438C210.708 32.9543 210.878 33.0329 211.004 33.1637C211.13 33.2945 211.202 33.468 211.206 33.6496C211.21 33.8313 211.145 34.0077 211.025 34.1438C210.481 34.7263 209.654 35.5081 208.777 36.3242C207.453 37.5701 205.951 38.9966 205.211 39.9404C204.471 40.8842 204.074 41.9525 204.217 42.7063C204.269 42.9561 204.377 43.1907 204.533 43.3929C204.688 43.5951 204.887 43.7597 205.115 43.8743C207.092 45.0486 209.85 42.6284 212.067 40.7035C212.812 40.0165 213.603 39.3817 214.436 38.8035C214.515 38.7452 214.606 38.704 214.702 38.6823C214.799 38.6606 214.898 38.6589 214.995 38.6773C215.092 38.6958 215.184 38.7339 215.266 38.7895C215.348 38.845 215.417 38.9167 215.47 39.0002C215.523 39.0837 215.558 39.1771 215.573 39.2748C215.589 39.3725 215.584 39.4722 215.559 39.5679C215.534 39.6637 215.49 39.7533 215.43 39.8313C215.369 39.9093 215.293 39.974 215.207 40.0214L215.176 40.0432C213.441 41.1676 211.299 44.0924 210.68 44.9707C209.654 46.4253 209.309 47.5092 209.436 47.8955C209.436 47.9422 209.468 48.0014 209.607 48.0543C211.389 48.7489 215.878 45.4192 218.039 43.8214C218.623 43.3915 219.118 43.0271 219.481 42.7842C219.593 42.7123 219.722 42.6734 219.854 42.672Z" fill="#0F0F0F"/>
<path d="M267.409 138.239C278.507 138.239 287.505 129.225 287.505 118.105C287.505 106.986 278.507 97.9714 267.409 97.9714C256.31 97.9714 247.312 106.986 247.312 118.105C247.312 129.225 256.31 138.239 267.409 138.239Z" fill="white"/>
<path d="M267.409 138.962C263.289 138.962 259.262 137.738 255.836 135.445C252.411 133.151 249.741 129.892 248.164 126.079C246.588 122.266 246.175 118.07 246.979 114.021C247.783 109.973 249.767 106.255 252.68 103.336C255.593 100.418 259.304 98.4301 263.345 97.6249C267.386 96.8196 271.574 97.2329 275.38 98.8124C279.186 100.392 282.439 103.067 284.728 106.499C287.017 109.93 288.239 113.965 288.239 118.093C288.239 123.628 286.044 128.936 282.138 132.849C278.231 136.763 272.933 138.962 267.409 138.962ZM267.409 98.694C263.577 98.6947 259.831 99.8336 256.645 101.967C253.46 104.1 250.977 107.132 249.511 110.679C248.045 114.226 247.662 118.129 248.41 121.894C249.157 125.659 251.003 129.118 253.713 131.832C256.423 134.546 259.875 136.395 263.633 137.144C267.391 137.892 271.287 137.508 274.827 136.038C278.367 134.569 281.393 132.081 283.522 128.889C285.65 125.697 286.787 121.944 286.787 118.105C286.781 112.958 284.737 108.024 281.104 104.385C277.472 100.746 272.546 98.699 267.409 98.694Z" fill="#0F0F0F"/>
<path d="M247.312 118.105C247.314 122.493 248.745 126.759 251.389 130.257C254.033 133.754 257.744 136.291 261.959 137.482C264.561 133.333 270.474 120.56 262.997 98.4636C258.546 99.4682 254.568 101.96 251.718 105.53C248.867 109.099 247.314 113.534 247.312 118.105Z" fill="#0F0F0F"/>
<path d="M213.273 115.187C211.463 113.723 202.081 110.561 208.979 99.8249C215.878 89.0883 239.727 88.129 249.753 93.8445C259.779 99.5601 263.236 115.925 262.717 125.017C262.198 134.109 257.012 145.537 246.641 149.954C234.46 155.143 218.21 119.167 213.273 115.187Z" fill="white"/>
<path d="M244.185 151.181C235.536 151.181 225.886 135.679 219.282 125.07C216.522 120.634 214.14 116.806 212.831 115.747C212.494 115.504 212.143 115.28 211.78 115.078C209.915 113.975 206.806 112.125 205.967 108.605C205.345 105.973 206.16 102.886 208.386 99.4322C215.536 88.3312 239.985 87.4404 250.12 93.2027C260.255 98.965 264.001 115.293 263.445 125.045C262.907 134.498 257.594 146.066 246.933 150.604C246.066 150.983 245.131 151.179 244.185 151.181ZM213.736 114.623C215.235 115.834 217.56 119.572 220.507 124.303C227.558 135.635 238.228 152.76 246.37 149.29C256.459 144.992 261.495 133.981 262.008 124.973C262.543 115.595 258.987 99.9305 249.408 94.4704C239.699 88.9417 216.382 89.7048 209.595 100.214C207.593 103.329 206.844 106.039 207.369 108.275C208.059 111.197 210.739 112.785 212.514 113.835C212.938 114.07 213.346 114.334 213.736 114.623Z" fill="#0F0F0F"/>
<path d="M211 107.481C210.329 106.599 210.378 120.251 209.859 121.69C209.34 123.129 204.804 129.561 204.543 130.599C204.282 131.636 207.779 133.738 208.429 134.389C209.079 135.04 209.474 146.387 211.289 148.717C212.399 150.144 222.031 148.259 222.534 148.614C223.831 149.524 224.611 159.008 223.834 161.868C223.834 161.868 214.24 171.212 213.982 173.296C213.724 175.379 240.719 176.161 250.064 167.589L247.888 162.45C244.94 155.473 245.82 149.898 245.82 149.898C245.82 149.898 234.628 150.944 234.796 140.422C234.867 135.853 239.223 130.589 238.654 127.16C238.185 124.329 235.545 123.453 232.884 123.316C228.239 123.114 223.829 121.217 220.482 117.984C217.442 115.009 213.854 111.234 211 107.481Z" fill="white"/>
<path d="M222.873 175.382C218.521 175.382 215.151 174.965 214.031 174.386C213.288 174.003 213.232 173.489 213.267 173.215C213.531 171.1 220.728 163.895 223.184 161.503C223.84 158.616 223.041 150.533 222.186 149.3C221.748 149.3 220.632 149.424 219.631 149.536C214.258 150.14 211.547 150.24 210.72 149.169C209.564 147.68 209.001 143.562 208.432 138.747C208.243 137.124 208.025 135.296 207.86 134.844C207.686 134.691 207.322 134.423 206.968 134.165C204.96 132.692 203.548 131.561 203.843 130.427C203.99 129.848 204.776 128.593 206.52 125.867C207.658 124.092 208.951 122.08 209.181 121.444C209.374 120.912 209.511 117.373 209.61 114.788C209.896 107.313 209.999 106.982 210.708 106.758C210.864 106.71 211.031 106.712 211.186 106.764C211.341 106.816 211.476 106.915 211.572 107.048C214.462 110.745 217.61 114.231 220.992 117.482C224.215 120.59 228.459 122.412 232.927 122.606C237.684 122.852 239.055 125.16 239.369 127.054C239.68 129.01 238.667 131.334 237.578 133.791C236.584 136.031 235.555 138.348 235.52 140.447C235.477 143.213 236.263 145.366 237.855 146.845C240.843 149.614 245.708 149.197 245.758 149.191C245.867 149.181 245.977 149.196 246.079 149.235C246.181 149.274 246.273 149.336 246.349 149.415C246.424 149.495 246.48 149.591 246.513 149.695C246.545 149.8 246.554 149.911 246.538 150.019C246.538 150.075 245.733 155.498 248.556 162.167L250.732 167.306C250.79 167.443 250.803 167.595 250.772 167.74C250.74 167.886 250.664 168.018 250.555 168.119C244.524 173.666 231.699 175.382 222.873 175.382ZM214.768 173.155C217.479 174.541 240.436 174.828 249.2 167.399L247.232 162.727C244.881 157.171 244.891 152.511 245.024 150.645H244.984C243.271 150.645 239.528 150.334 236.885 147.889C234.979 146.119 234.037 143.603 234.087 140.413C234.124 138.021 235.213 135.567 236.263 133.193C237.261 130.941 238.206 128.811 237.952 127.275C237.622 125.282 235.906 124.191 232.856 124.033C228.037 123.821 223.461 121.852 219.988 118.498C216.918 115.533 214.03 112.386 211.339 109.072C211.218 110.536 211.125 112.929 211.053 114.829C210.901 118.766 210.798 121.214 210.54 121.924C210.282 122.634 209.256 124.263 207.742 126.633C206.775 128.141 205.463 130.184 205.255 130.714C205.432 131.24 207.158 132.505 207.817 132.984C208.207 133.254 208.58 133.548 208.933 133.866C209.321 134.252 209.446 135.043 209.865 138.563C210.26 141.914 210.857 146.973 211.861 148.272C212.536 148.87 217.395 148.325 219.472 148.091C222.127 147.78 222.581 147.764 222.951 148.019C224.785 149.306 225.239 159.457 224.533 162.036C224.5 162.161 224.433 162.275 224.341 162.366C219.976 166.639 215.399 171.639 214.768 173.155Z" fill="#0F0F0F"/>
<path d="M233.36 138.195C233.268 138.195 233.177 138.19 233.086 138.18C232.679 138.112 232.292 137.954 231.953 137.718C231.614 137.481 231.332 137.172 231.127 136.812C231.034 136.645 231.011 136.447 231.064 136.262C231.116 136.078 231.24 135.921 231.407 135.828C231.575 135.735 231.772 135.712 231.956 135.764C232.141 135.817 232.297 135.941 232.39 136.108C232.485 136.266 232.612 136.403 232.762 136.51C232.912 136.618 233.083 136.693 233.263 136.731C233.723 136.784 234.302 136.442 234.93 135.753C234.992 135.679 235.069 135.618 235.156 135.574C235.243 135.53 235.338 135.504 235.435 135.498C235.532 135.492 235.629 135.505 235.721 135.537C235.812 135.57 235.897 135.62 235.968 135.686C236.04 135.752 236.098 135.831 236.138 135.92C236.178 136.009 236.2 136.104 236.202 136.202C236.205 136.299 236.187 136.396 236.151 136.486C236.115 136.577 236.061 136.659 235.993 136.728C235.116 137.706 234.23 138.195 233.36 138.195Z" fill="#0F0F0F"/>
<path d="M222.074 149.293C221.892 149.291 221.717 149.219 221.586 149.093C221.454 148.967 221.375 148.795 221.364 148.613C221.354 148.431 221.412 148.251 221.528 148.11C221.645 147.97 221.81 147.878 221.99 147.854C224.275 147.583 225.911 146.537 226.843 144.74C226.935 144.575 227.087 144.453 227.267 144.399C227.447 144.345 227.641 144.364 227.808 144.451C227.974 144.538 228.1 144.687 228.159 144.866C228.217 145.045 228.204 145.24 228.121 145.409C227.319 146.945 225.634 148.867 222.158 149.281L222.074 149.293Z" fill="#0F0F0F"/>
<path d="M21.5853 229.271C21.4712 229.271 21.3587 229.244 21.2572 229.191C21.1556 229.139 21.0678 229.064 21.001 228.971C20.9343 228.878 20.8904 228.771 20.8731 228.658C20.8558 228.545 20.8655 228.429 20.9014 228.321C38.5321 174.784 68.3966 130.997 107.274 101.697C107.349 101.64 107.435 101.599 107.527 101.575C107.618 101.551 107.714 101.546 107.807 101.559C107.901 101.573 107.991 101.604 108.072 101.652C108.153 101.701 108.224 101.764 108.281 101.84C108.338 101.916 108.379 102.002 108.403 102.094C108.426 102.185 108.431 102.281 108.418 102.374C108.405 102.468 108.373 102.558 108.325 102.64C108.277 102.721 108.214 102.792 108.138 102.849C69.5002 131.975 39.7944 175.516 22.2693 228.773C22.2218 228.917 22.1302 229.043 22.0075 229.132C21.8847 229.222 21.7371 229.27 21.5853 229.271Z" fill="#0F0F0F"/>
<path d="M31.1421 181.836C31.0343 181.835 30.9281 181.809 30.8312 181.761C30.6624 181.674 30.535 181.523 30.4768 181.341C30.4185 181.16 30.4342 180.963 30.5203 180.793C47.3148 146.705 69.2887 118.395 95.8017 96.6507C95.9493 96.5297 96.1389 96.4724 96.3286 96.4914C96.5184 96.5103 96.6929 96.6041 96.8137 96.752C96.9345 96.8998 96.9917 97.0897 96.9728 97.2798C96.9538 97.47 96.8602 97.6448 96.7126 97.7658C70.3613 119.379 48.5242 147.53 31.7888 181.434C31.7285 181.555 31.6362 181.656 31.5221 181.727C31.4079 181.798 31.2764 181.835 31.1421 181.836Z" fill="#0F0F0F"/>
<path d="M418.344 535.663C418.178 535.661 418.018 535.602 417.891 535.496C417.763 535.389 417.676 535.242 417.644 535.079C417.613 534.916 417.638 534.746 417.716 534.6C417.794 534.453 417.921 534.338 418.074 534.274C425.168 531.371 432.294 528.216 439.246 524.898C443.844 522.718 448.454 520.401 452.944 518.046C453.028 517.999 453.12 517.969 453.216 517.959C453.312 517.948 453.409 517.957 453.501 517.985C453.593 518.012 453.679 518.058 453.754 518.12C453.828 518.181 453.889 518.257 453.934 518.342C453.978 518.428 454.006 518.521 454.014 518.618C454.021 518.714 454.01 518.811 453.98 518.902C453.95 518.994 453.902 519.079 453.839 519.151C453.776 519.224 453.699 519.284 453.612 519.326C449.104 521.687 444.481 523.998 439.867 526.2C432.888 529.53 425.74 532.695 418.618 535.607C418.531 535.644 418.438 535.663 418.344 535.663Z" fill="#0F0F0F"/>
<path d="M278.125 570C270.123 570 262.158 569.725 254.23 569.175C254.04 569.161 253.862 569.073 253.737 568.928C253.612 568.784 253.549 568.596 253.562 568.405C253.577 568.215 253.666 568.039 253.81 567.913C253.953 567.788 254.139 567.723 254.329 567.733C317.385 572.121 383.304 558.896 444.96 529.486C449.592 527.278 454.243 524.951 458.782 522.578C458.866 522.531 458.959 522.501 459.055 522.491C459.151 522.48 459.247 522.489 459.34 522.517C459.432 522.544 459.518 522.59 459.592 522.652C459.666 522.713 459.728 522.789 459.772 522.874C459.817 522.96 459.844 523.053 459.852 523.15C459.86 523.246 459.849 523.342 459.819 523.434C459.789 523.526 459.741 523.611 459.677 523.683C459.614 523.756 459.537 523.816 459.451 523.858C454.896 526.241 450.23 528.574 445.579 530.792C391.452 556.607 334.03 570 278.125 570Z" fill="#0F0F0F"/>
<path d="M575.917 364.971C575.855 364.972 575.794 364.964 575.734 364.946C575.642 364.922 575.556 364.881 575.481 364.823C575.406 364.766 575.342 364.694 575.295 364.612C575.247 364.531 575.216 364.44 575.203 364.346C575.191 364.252 575.197 364.156 575.221 364.065C586.177 322.558 584.75 280.53 571.096 242.527C564.68 224.71 555.712 207.922 544.474 192.691C544.372 192.537 544.333 192.349 544.365 192.166C544.397 191.983 544.498 191.82 544.647 191.71C544.796 191.6 544.981 191.552 545.165 191.575C545.349 191.598 545.516 191.691 545.633 191.834C556.956 207.176 565.99 224.087 572.451 242.035C586.208 280.312 587.644 322.639 576.614 364.445C576.571 364.597 576.48 364.73 576.354 364.825C576.228 364.921 576.075 364.972 575.917 364.971Z" fill="#0F0F0F"/>
<path d="M570.265 345.679C569.015 345.678 567.795 345.288 566.775 344.563C565.755 343.838 564.986 342.812 564.573 341.629C564.317 340.884 564.21 340.094 564.259 339.307C564.308 338.52 564.511 337.75 564.858 337.042C565.205 336.334 565.687 335.701 566.279 335.18C566.87 334.66 567.558 334.261 568.304 334.008C569.811 333.493 571.46 333.598 572.89 334.298C574.32 334.999 575.415 336.238 575.936 337.745C576.245 338.648 576.335 339.611 576.198 340.556C576.061 341.5 575.701 342.398 575.148 343.175C574.595 343.952 573.865 344.585 573.018 345.023C572.172 345.461 571.233 345.69 570.281 345.691L570.265 345.679ZM570.231 335.129C569.507 335.127 568.794 335.299 568.15 335.631C567.506 335.962 566.95 336.443 566.53 337.033C566.109 337.623 565.836 338.306 565.732 339.024C565.629 339.741 565.698 340.474 565.935 341.159C566.334 342.302 567.167 343.241 568.254 343.77C569.341 344.3 570.592 344.378 571.736 343.987C572.301 343.794 572.822 343.491 573.27 343.095C573.718 342.7 574.083 342.22 574.345 341.682C574.607 341.145 574.761 340.561 574.797 339.964C574.833 339.367 574.751 338.768 574.556 338.203C574.242 337.305 573.658 336.526 572.883 335.975C572.108 335.424 571.181 335.129 570.231 335.129Z" fill="#0F0F0F"/>
<path d="M555.402 243.633H555.287C548.549 242.537 541.847 240.848 541.781 240.83C541.666 240.8 541.56 240.742 541.472 240.662C541.384 240.582 541.318 240.481 541.278 240.369C541.238 240.256 541.227 240.135 541.245 240.017C541.264 239.899 541.311 239.788 541.383 239.693L550.054 228.221C550.134 228.119 550.239 228.041 550.359 227.994C550.479 227.947 550.61 227.933 550.737 227.954C550.864 227.975 550.983 228.03 551.082 228.113C551.181 228.197 551.255 228.305 551.298 228.427L556.073 242.689C556.109 242.798 556.119 242.913 556.101 243.026C556.084 243.139 556.04 243.247 555.973 243.339C555.907 243.432 555.819 243.508 555.717 243.56C555.616 243.612 555.503 243.639 555.389 243.639L555.402 243.633ZM543.196 239.683C545.173 240.157 549.65 241.194 554.338 242.001L550.378 230.165L543.196 239.683Z" fill="#0F0F0F"/>
<path d="M400.362 6.12973C400.172 6.13014 399.988 6.05515 399.852 5.92104L397.095 3.15825C397.021 3.09278 396.962 3.01292 396.92 2.92359C396.879 2.83426 396.856 2.73735 396.853 2.63883C396.85 2.5403 396.867 2.44224 396.904 2.35067C396.94 2.25911 396.995 2.17597 397.065 2.10638C397.134 2.03679 397.218 1.98221 397.309 1.94601C397.401 1.90981 397.498 1.89275 397.597 1.89587C397.695 1.89899 397.792 1.92224 397.881 1.96418C397.97 2.00611 398.049 2.06586 398.115 2.13973L400.872 4.8994C400.973 5.00004 401.042 5.12861 401.071 5.26873C401.099 5.40884 401.084 5.55415 401.03 5.68613C400.975 5.81811 400.882 5.93079 400.763 6.00979C400.645 6.0888 400.505 6.13055 400.362 6.12973Z" fill="#0F0F0F"/>
<path d="M410.012 15.7918C409.918 15.7917 409.825 15.773 409.738 15.7366C409.651 15.7003 409.572 15.6471 409.506 15.58L406.748 12.8204C406.674 12.7551 406.615 12.6754 406.573 12.5862C406.531 12.497 406.508 12.4002 406.505 12.3017C406.501 12.2032 406.518 12.105 406.555 12.0134C406.591 11.9217 406.645 11.8384 406.715 11.7686C406.784 11.6988 406.867 11.644 406.958 11.6075C407.05 11.571 407.148 11.5536 407.246 11.5564C407.344 11.5593 407.441 11.5822 407.53 11.6239C407.619 11.6656 407.699 11.725 407.765 11.7987L410.522 14.5584C410.627 14.6587 410.7 14.7885 410.73 14.9308C410.761 15.0731 410.747 15.2213 410.692 15.3559C410.637 15.4905 410.543 15.6054 410.421 15.6854C410.3 15.7654 410.157 15.8068 410.012 15.8043V15.7918Z" fill="#0F0F0F"/>
<path d="M397.605 15.7918C397.459 15.7944 397.317 15.7529 397.195 15.6729C397.074 15.5929 396.98 15.4781 396.925 15.3435C396.87 15.2088 396.856 15.0607 396.887 14.9184C396.917 14.7761 396.989 14.6463 397.095 14.5459L399.852 11.7863C399.919 11.7165 399.998 11.6607 400.086 11.6222C400.175 11.5837 400.27 11.5632 400.366 11.5621C400.462 11.5609 400.557 11.579 400.647 11.6153C400.736 11.6517 400.817 11.7055 400.885 11.7737C400.953 11.8418 401.006 11.9229 401.043 12.0122C401.079 12.1014 401.097 12.1971 401.096 12.2934C401.095 12.3898 401.074 12.485 401.036 12.5733C400.997 12.6617 400.942 12.7414 400.872 12.8079L398.114 15.5738C398.048 15.6422 397.969 15.6967 397.881 15.7341C397.794 15.7715 397.7 15.7912 397.605 15.7918Z" fill="#0F0F0F"/>
<path d="M407.27 6.1299C407.128 6.1301 406.989 6.08789 406.87 6.00865C406.752 5.92941 406.66 5.8167 406.605 5.68485C406.551 5.553 406.537 5.40795 406.565 5.26813C406.593 5.12831 406.662 5.00002 406.764 4.89957L409.521 2.1399C409.656 2.00483 409.839 1.92896 410.029 1.92896C410.22 1.92896 410.403 2.00483 410.538 2.1399C410.673 2.27496 410.748 2.45815 410.748 2.64916C410.748 2.84017 410.673 3.02336 410.538 3.15842L407.765 5.9181C407.634 6.05043 407.456 6.12641 407.27 6.1299Z" fill="#0F0F0F"/>
<path d="M387.581 41.1147C386.291 41.111 385.03 40.7242 383.959 40.0032C382.888 39.2823 382.054 38.2594 381.563 37.0639C381.072 35.8683 380.945 34.5538 381.199 33.2862C381.453 32.0186 382.076 30.8548 382.99 29.9419C383.904 29.029 385.067 28.4079 386.333 28.157C387.599 27.9062 388.911 28.0368 390.103 28.5324C391.295 29.028 392.313 29.8664 393.03 30.9416C393.746 32.0169 394.129 33.2808 394.129 34.5737C394.122 36.3097 393.43 37.9724 392.203 39.1982C390.976 40.424 389.314 41.113 387.581 41.1147ZM387.581 29.4499C386.573 29.4511 385.587 29.752 384.749 30.3143C383.911 30.8767 383.258 31.6754 382.872 32.6095C382.487 33.5436 382.387 34.5711 382.585 35.5622C382.782 36.5533 383.269 37.4634 383.982 38.1777C384.696 38.8919 385.605 39.378 386.595 39.5748C387.584 39.7715 388.61 39.6699 389.541 39.2829C390.473 38.8958 391.27 38.2407 391.83 37.4003C392.39 36.5598 392.689 35.5719 392.689 34.5612C392.69 33.8885 392.559 33.2222 392.302 32.6004C392.046 31.9786 391.67 31.4136 391.196 30.9374C390.721 30.4613 390.158 30.0835 389.538 29.8256C388.918 29.5677 388.253 29.4347 387.581 29.4343V29.4499Z" fill="#0F0F0F"/>
<path d="M400.552 68.2693C399.651 68.2717 398.769 68.0062 398.018 67.5063C397.267 67.0064 396.682 66.2946 396.335 65.461C395.988 64.6275 395.897 63.7096 396.071 62.8236C396.245 61.9376 396.678 61.1234 397.314 60.484C397.951 59.8446 398.762 59.4087 399.646 59.2317C400.53 59.0546 401.447 59.1442 402.28 59.4892C403.112 59.8342 403.825 60.4191 404.326 61.1697C404.827 61.9204 405.094 62.8031 405.094 63.7062C405.092 64.9137 404.614 66.0715 403.763 66.9266C402.911 67.7816 401.757 68.2643 400.552 68.2693ZM400.552 60.5883C399.937 60.5883 399.336 60.771 398.825 61.1132C398.313 61.4555 397.915 61.9419 397.68 62.5111C397.444 63.0802 397.383 63.7065 397.503 64.3107C397.623 64.9149 397.919 65.4699 398.354 65.9055C398.788 66.3411 399.342 66.6378 399.945 66.758C400.548 66.8781 401.174 66.8165 401.742 66.5807C402.31 66.345 402.795 65.9457 403.137 65.4335C403.478 64.9213 403.661 64.3191 403.661 63.7031C403.661 62.877 403.333 62.0847 402.75 61.5006C402.167 60.9165 401.376 60.5883 400.552 60.5883Z" fill="#0F0F0F"/>
</g>
<defs>
<clipPath id="clip0_41_1333">
<rect width="592" height="570" fill="white"/>
</clipPath>
</defs>
</svg>
