<svg xmlns="http://www.w3.org/2000/svg" width="28" height="28" fill="none"><path stroke="#fff" stroke-linecap="round" stroke-linejoin="round" stroke-width="1.5" d="M14.14 14.91a1.12 1.12 0 0 0-.28 0 3.814 3.814 0 0 1-3.687-3.815 3.821 3.821 0 0 1 3.826-3.827 3.829 3.829 0 0 1 3.827 3.827 3.822 3.822 0 0 1-3.687 3.815ZM21.863 22.61A11.59 11.59 0 0 1 14 25.667a11.59 11.59 0 0 1-7.863-3.057c.116-1.097.816-2.17 2.065-3.01 3.196-2.123 8.423-2.123 11.596 0 1.249.84 1.949 1.913 2.065 3.01Z"/><path stroke="#fff" stroke-linecap="round" stroke-linejoin="round" stroke-width="1.5" d="M14 25.667c6.443 0 11.666-5.224 11.666-11.667S20.443 2.333 14 2.333C7.556 2.333 2.333 7.557 2.333 14S7.556 25.667 14 25.667Z"/></svg>